<svg width="24" height="24" viewBox="0 0 24 24" xmlns="http://www.w3.org/2000/svg">
<g id="Frame">
<path id="Vector" d="M15.8438 14.6016C15.4031 14.6016 15.0469 14.9578 15.0469 15.3984C15.0469 15.8391 15.4031 16.1953 15.8438 16.1953C16.2844 16.1953 16.6406 15.8391 16.6406 15.3984C16.6406 14.9578 16.2844 14.6016 15.8438 14.6016Z"/>
<path id="Vector_2" d="M20.625 3.9375H15.6562C15.6562 3.21328 15.068 2.625 14.3438 2.625H12.4688C11.7445 2.625 11.1562 3.21328 11.1562 3.9375H6.1875C5.77266 3.9375 5.4375 4.27266 5.4375 4.6875V9.375H3.375C2.96016 9.375 2.625 9.71016 2.625 10.125V20.625C2.625 21.0398 2.96016 21.375 3.375 21.375H11.25C11.6648 21.375 12 21.0398 12 20.625V20.25H20.625C21.0398 20.25 21.375 19.9148 21.375 19.5V4.6875C21.375 4.27266 21.0398 3.9375 20.625 3.9375ZM10.5 19.875H4.125V14.4375H10.5V19.875ZM10.5 12.9375H4.125V10.875H10.5V12.9375ZM10.9688 6.5625V5.4375H12.6562V4.125H14.1562V5.4375H15.8438V6.5625H10.9688ZM15.1875 10.5V11.8125C15.1875 11.9156 15.1031 12 15 12H13.875C13.7719 12 13.6875 11.9156 13.6875 11.8125V10.5C13.6875 10.3969 13.7719 10.3125 13.875 10.3125H15C15.1031 10.3125 15.1875 10.3969 15.1875 10.5ZM15.8438 17.5547C14.6531 17.5547 13.6875 16.5891 13.6875 15.3984C13.6875 14.2078 14.6531 13.2422 15.8438 13.2422C17.0344 13.2422 18 14.2078 18 15.3984C18 16.5891 17.0344 17.5547 15.8438 17.5547ZM18 11.8125C18 11.9156 17.9156 12 17.8125 12H16.6875C16.5844 12 16.5 11.9156 16.5 11.8125V9.5625C16.5 9.45937 16.5844 9.375 16.6875 9.375H17.8125C17.9156 9.375 18 9.45937 18 9.5625V11.8125Z"/>
<path id="Vector_3" d="M15.8438 13.2422C14.6531 13.2422 13.6875 14.2078 13.6875 15.3984C13.6875 16.5891 14.6531 17.5547 15.8438 17.5547C17.0344 17.5547 18 16.5891 18 15.3984C18 14.2078 17.0344 13.2422 15.8438 13.2422ZM15.8438 16.1953C15.4031 16.1953 15.0469 15.8391 15.0469 15.3984C15.0469 14.9578 15.4031 14.6016 15.8438 14.6016C16.2844 14.6016 16.6406 14.9578 16.6406 15.3984C16.6406 15.8391 16.2844 16.1953 15.8438 16.1953Z"/>
</g>
</svg>
