<svg xmlns="http://www.w3.org/2000/svg" xmlns:xlink="http://www.w3.org/1999/xlink"
  version="1.1" width="18" height="18" viewBox="0 0 18 18">
  <defs>
    <clipPath id="master_svg0_18_00364">
      <rect x="0" y="0" width="18" height="18" rx="0" />
    </clipPath>
  </defs>
  <g clip-path="url(#master_svg0_18_00364)">
    <g>
      <path
        d="M15.22601640625,10.8704102734375L16.02781640625,10.0685102734375L17.332416406249997,11.3731502734375L16.53051640625,12.1750302734375L15.22601640625,10.8704102734375ZM11.00681640625,14.9940302734375L10.30481640625,17.0010302734375L12.21281640625,16.3980302734375L15.92981640625,12.6810302734375L14.62481640625,11.3760302734375L11.00681640625,14.9940302734375ZM14.67881640625,1.4310302734375L13.30181640625,1.4310302734375C13.08581640625,1.4310302734375,12.87881640625,1.5570302734375,12.78881640625,1.7550302734375L12.36581640625,2.5920302734375L11.92481640625,2.5920302734375L11.50181640625,1.7550302734375C11.40281640625,1.5570302734375,11.20481640625,1.4400303134375,10.98881640625,1.4400303134375L9.83681640625,1.4400303134375C9.62081640625,1.4400303134375,9.41381640625,1.5660302734375,9.32381640625,1.7550302734375L8.90081640625,2.5920302734375L8.459816406249999,2.5920302734375L8.03681640625,1.7550302734375C7.93781640625,1.5570302734375,7.73981640625,1.4400303134375,7.52381640625,1.4400303134375L6.36281640625,1.4400303134375C6.14681640625,1.4400303134375,5.93981640625,1.5660302734375,5.84981640625,1.7550302734375L5.4268164062499995,2.5920302734375L4.9858164062500006,2.5920302734375L4.5628164062500005,1.7550302734375C4.46381640625,1.5570302734375,4.26581640625,1.4310302734375,4.049816406250001,1.4310302734375L2.67281640625,1.4310302734375C2.15981640625,1.4310302734375,1.73681640625,1.8450302734375,1.73681640625,2.3670302734375L1.73681640625,14.1570302734375C1.73681640625,15.0930302734375,2.4928164062500002,15.8490302734375,3.42881640625,15.8490302734375L8.74781640625,15.8490302734375L15.60581640625,8.991030273437499L15.60581640625,2.3670302734375C15.61481640625,1.8450302734375,15.20081640625,1.4310302734375,14.67881640625,1.4310302734375ZM7.98281640625,8.811030273437499C8.234816406250001,8.811030273437499,8.44181640625,9.0180302734375,8.44181640625,9.2700302734375C8.44181640625,9.5220302734375,8.234816406250001,9.7290302734375,7.98281640625,9.7290302734375L6.45281640625,9.7290302734375L6.45281640625,11.2590302734375C6.45281640625,11.5110302734375,6.24581640625,11.7180302734375,5.99381640625,11.7180302734375C5.74181640625,11.7180302734375,5.53481640625,11.5110302734375,5.53481640625,11.2590302734375L5.53481640625,9.7290302734375L3.99581640625,9.7290302734375C3.74381640625,9.7290302734375,3.53681640625,9.5220302734375,3.53681640625,9.2700302734375C3.53681640625,9.0180302734375,3.74381640625,8.811030273437499,3.99581640625,8.811030273437499L5.53481640625,8.811030273437499L5.53481640625,7.8030302734375L3.99581640625,7.8030302734375C3.74381640625,7.8030302734375,3.53681640625,7.5960302734375,3.53681640625,7.3440302734375C3.53681640625,7.0920302734375,3.74381640625,6.8850302734375,3.99581640625,6.8850302734375L5.2198164062500005,6.8850302734375L4.02281640625,5.7060302734375C3.84281640625,5.5260302734375,3.84281640625,5.2470302734375,4.01381640625,5.0670302734375L4.03181640625,5.0580302734375L4.03181640625,5.0490302734375C4.21181640625,4.8870302734374995,4.49081640625,4.8870302734374995,4.67081640625,5.0580302734375L5.99381640625,6.3720302734375L7.31681640625,5.0580302734375C7.49681640625,4.8780302734375,7.78481640625,4.8780302734375,7.96481640625,5.0580302734375C8.144816406250001,5.2380302734375,8.144816406250001,5.5170302734375,7.97381640625,5.6970302734375L6.76781640625,6.8940302734375L7.99181640625,6.8940302734375C8.24381640625,6.8940302734375,8.45081640625,7.1010302734375,8.45081640625,7.3530302734375C8.45081640625,7.6050302734375,8.24381640625,7.8120302734375,7.99181640625,7.8120302734375L6.45281640625,7.8120302734375L6.45281640625,8.8200302734375L7.98281640625,8.8200302734375L7.98281640625,8.811030273437499ZM10.11581640625,6.7860302734375L12.08681640625,6.7860302734375C12.34781640625,6.7860302734375,12.56381640625,7.0020302734375,12.56381640625,7.2630302734375C12.56381640625,7.5240302734375,12.34781640625,7.7400302734375,12.08681640625,7.7400302734375L10.11581640625,7.7400302734375C9.85481640625,7.7400302734375,9.638816406250001,7.5240302734375,9.638816406250001,7.2630302734375C9.638816406250001,7.0020302734375,9.85481640625,6.7860302734375,10.11581640625,6.7860302734375ZM13.48181640625,9.8010302734375L10.06181640625,9.8010302734375C9.80081640625,9.8010302734375,9.584816406249999,9.5850302734375,9.584816406249999,9.3240302734375C9.584816406249999,9.0630302734375,9.80081640625,8.8470302734375,10.06181640625,8.8470302734375L13.48181640625,8.8470302734375C13.74281640625,8.8470302734375,13.95881640625,9.0630302734375,13.95881640625,9.3240302734375C13.95881640625,9.5850302734375,13.74281640625,9.8010302734375,13.48181640625,9.8010302734375Z"
        fill-opacity="1" style="mix-blend-mode:passthrough" />
    </g>
  </g>
</svg>
