<svg width="24" height="24" viewBox="0 0 24 24" xmlns="http://www.w3.org/2000/svg">
<g id="Frame">
<path id="Vector" d="M16.125 5.625C12.8906 5.625 10.2188 8.03438 9.80625 11.1562H5.83594C5.50313 10.3313 4.69453 9.75 3.75 9.75C2.50781 9.75 1.5 10.7578 1.5 12C1.5 13.2422 2.50781 14.25 3.75 14.25C4.69453 14.25 5.50313 13.6687 5.83594 12.8438H9.80391C10.2188 15.9656 12.8906 18.375 16.125 18.375C19.6453 18.375 22.5 15.5203 22.5 12C22.5 8.47969 19.6453 5.625 16.125 5.625ZM19.125 12.6094C19.125 12.7125 19.0406 12.7969 18.9375 12.7969H16.9219V14.8125C16.9219 14.9156 16.8375 15 16.7344 15H15.5156C15.4125 15 15.3281 14.9156 15.3281 14.8125V12.7969H13.3125C13.2094 12.7969 13.125 12.7125 13.125 12.6094V11.3906C13.125 11.2875 13.2094 11.2031 13.3125 11.2031H15.3281V9.1875C15.3281 9.08437 15.4125 9 15.5156 9H16.7344C16.8375 9 16.9219 9.08437 16.9219 9.1875V11.2031H18.9375C19.0406 11.2031 19.125 11.2875 19.125 11.3906V12.6094Z"/>
</g>
</svg>
