<svg width="24" height="24" viewBox="0 0 24 24" xmlns="http://www.w3.org/2000/svg">
<g id="Frame">
<path id="Vector" d="M17.25 12.8906H6.75C6.54375 12.8906 6.375 13.0594 6.375 13.2656V17.3906C6.375 17.5969 6.54375 17.7656 6.75 17.7656H17.25C17.4563 17.7656 17.625 17.5969 17.625 17.3906V13.2656C17.625 13.0594 17.4563 12.8906 17.25 12.8906ZM15.9375 16.0781H8.0625V14.5781H15.9375V16.0781ZM20.8125 19.125C19.8797 19.125 19.125 19.8797 19.125 20.8125C19.125 21.7453 19.8797 22.5 20.8125 22.5C21.7453 22.5 22.5 21.7453 22.5 20.8125C22.5 19.8797 21.7453 19.125 20.8125 19.125ZM20.8125 21.375C20.5008 21.375 20.25 21.1242 20.25 20.8125C20.25 20.5008 20.5008 20.25 20.8125 20.25C21.1242 20.25 21.375 20.5008 21.375 20.8125C21.375 21.1242 21.1242 21.375 20.8125 21.375ZM17.25 6.23438H6.75C6.54375 6.23438 6.375 6.40312 6.375 6.60938V10.7344C6.375 10.9406 6.54375 11.1094 6.75 11.1094H17.25C17.4563 11.1094 17.625 10.9406 17.625 10.7344V6.60938C17.625 6.40312 17.4563 6.23438 17.25 6.23438ZM15.9375 9.42188H8.0625V7.92188H15.9375V9.42188ZM20.8125 4.875C21.7453 4.875 22.5 4.12031 22.5 3.1875C22.5 2.25469 21.7453 1.5 20.8125 1.5C19.8797 1.5 19.125 2.25469 19.125 3.1875C19.125 4.12031 19.8797 4.875 20.8125 4.875ZM20.8125 2.625C21.1242 2.625 21.375 2.87578 21.375 3.1875C21.375 3.49922 21.1242 3.75 20.8125 3.75C20.5008 3.75 20.25 3.49922 20.25 3.1875C20.25 2.87578 20.5008 2.625 20.8125 2.625ZM3.1875 1.5C2.25469 1.5 1.5 2.25469 1.5 3.1875C1.5 4.12031 2.25469 4.875 3.1875 4.875C4.12031 4.875 4.875 4.12031 4.875 3.1875C4.875 2.25469 4.12031 1.5 3.1875 1.5ZM3.1875 3.75C2.87578 3.75 2.625 3.49922 2.625 3.1875C2.625 2.87578 2.87578 2.625 3.1875 2.625C3.49922 2.625 3.75 2.87578 3.75 3.1875C3.75 3.49922 3.49922 3.75 3.1875 3.75ZM3.1875 19.125C2.25469 19.125 1.5 19.8797 1.5 20.8125C1.5 21.7453 2.25469 22.5 3.1875 22.5C4.12031 22.5 4.875 21.7453 4.875 20.8125C4.875 19.8797 4.12031 19.125 3.1875 19.125ZM3.1875 21.375C2.87578 21.375 2.625 21.1242 2.625 20.8125C2.625 20.5008 2.87578 20.25 3.1875 20.25C3.49922 20.25 3.75 20.5008 3.75 20.8125C3.75 21.1242 3.49922 21.375 3.1875 21.375Z"/>
</g>
</svg>
