<svg width="24" height="24" viewBox="0 0 24 24" xmlns="http://www.w3.org/2000/svg">
<g id="app store-fill">
<rect id="&#231;&#159;&#169;&#229;&#189;&#162;" opacity="0.01" width="24" height="24" />
<path id="&#229;&#189;&#162;&#231;&#138;&#182;" fill-rule="evenodd" clip-rule="evenodd" d="M10.875 3.375H3.75C3.54375 3.375 3.375 3.54375 3.375 3.75V10.875C3.375 11.0813 3.54375 11.25 3.75 11.25H10.875C11.0813 11.25 11.25 11.0813 11.25 10.875V3.75C11.25 3.54375 11.0813 3.375 10.875 3.375ZM13.125 3.375H20.25C20.4562 3.375 20.625 3.54375 20.625 3.75V10.875C20.625 11.0813 20.4562 11.25 20.25 11.25H13.125C12.9187 11.25 12.75 11.0813 12.75 10.875V3.75C12.75 3.54375 12.9187 3.375 13.125 3.375ZM13.125 12.75H20.25C20.4562 12.75 20.625 12.9187 20.625 13.125V20.25C20.625 20.4562 20.4562 20.625 20.25 20.625H13.125C12.9187 20.625 12.75 20.4562 12.75 20.25V13.125C12.75 12.9187 12.9187 12.75 13.125 12.75ZM3.75 12.75H10.875C11.0813 12.75 11.25 12.9187 11.25 13.125V20.25C11.25 20.4562 11.0813 20.625 10.875 20.625H3.75C3.54375 20.625 3.375 20.4562 3.375 20.25V13.125C3.375 12.9187 3.54375 12.75 3.75 12.75Z" />
</g>
</svg>
