<svg width="24" height="24" viewBox="0 0 24 24" xmlns="http://www.w3.org/2000/svg">
<g id="Frame">
<path id="Vector" d="M19.5 7.3125H16.3125V6.9375C16.3125 4.55625 14.3813 2.625 12 2.625C9.61875 2.625 7.6875 4.55625 7.6875 6.9375V7.3125H4.5C4.08516 7.3125 3.75 7.64766 3.75 8.0625V20.625C3.75 21.0398 4.08516 21.375 4.5 21.375H19.5C19.9148 21.375 20.25 21.0398 20.25 20.625V8.0625C20.25 7.64766 19.9148 7.3125 19.5 7.3125ZM9.375 6.9375C9.375 5.48672 10.5492 4.3125 12 4.3125C13.4508 4.3125 14.625 5.48672 14.625 6.9375V7.3125H9.375V6.9375ZM18.5625 19.6875H5.4375V9H7.6875V11.0625C7.6875 11.1656 7.77187 11.25 7.875 11.25H9.1875C9.29063 11.25 9.375 11.1656 9.375 11.0625V9H14.625V11.0625C14.625 11.1656 14.7094 11.25 14.8125 11.25H16.125C16.2281 11.25 16.3125 11.1656 16.3125 11.0625V9H18.5625V19.6875Z"/>
</g>
</svg>
