<svg width="24" height="24" viewBox="0 0 24 24" xmlns="http://www.w3.org/2000/svg">
<g id="Frame">
<path id="Vector" d="M2.8125 3.75H1.6875C1.58437 3.75 1.5 3.83437 1.5 3.9375V20.0625C1.5 20.1656 1.58437 20.25 1.6875 20.25H2.8125C2.91562 20.25 3 20.1656 3 20.0625V3.9375C3 3.83437 2.91562 3.75 2.8125 3.75ZM22.3359 3.75H21.2109C21.1078 3.75 21.0234 3.83437 21.0234 3.9375V20.0625C21.0234 20.1656 21.1078 20.25 21.2109 20.25H22.3359C22.4391 20.25 22.5234 20.1656 22.5234 20.0625V3.9375C22.5234 3.83437 22.4391 3.75 22.3359 3.75ZM4.6875 17.25H7.3125C7.41563 17.25 7.5 17.1656 7.5 17.0625V3.9375C7.5 3.83437 7.41563 3.75 7.3125 3.75H4.6875C4.58437 3.75 4.5 3.83437 4.5 3.9375V17.0625C4.5 17.1656 4.58437 17.25 4.6875 17.25ZM12.2109 17.25H13.3359C13.4391 17.25 13.5234 17.1656 13.5234 17.0625V3.9375C13.5234 3.83437 13.4391 3.75 13.3359 3.75H12.2109C12.1078 3.75 12.0234 3.83437 12.0234 3.9375V17.0625C12.0234 17.1656 12.1078 17.25 12.2109 17.25ZM15.1641 17.25H19.3359C19.4391 17.25 19.5234 17.1656 19.5234 17.0625V3.9375C19.5234 3.83437 19.4391 3.75 19.3359 3.75H15.1641C15.0609 3.75 14.9766 3.83437 14.9766 3.9375V17.0625C14.9766 17.1656 15.0609 17.25 15.1641 17.25ZM9.1875 17.25H10.3125C10.4156 17.25 10.5 17.1656 10.5 17.0625V3.9375C10.5 3.83437 10.4156 3.75 10.3125 3.75H9.1875C9.08437 3.75 9 3.83437 9 3.9375V17.0625C9 17.1656 9.08437 17.25 9.1875 17.25ZM7.33594 18.75H4.71094C4.60781 18.75 4.52344 18.8344 4.52344 18.9375V20.0625C4.52344 20.1656 4.60781 20.25 4.71094 20.25H7.33594C7.43906 20.25 7.52344 20.1656 7.52344 20.0625V18.9375C7.52344 18.8344 7.43906 18.75 7.33594 18.75ZM13.3594 18.75H12.2344C12.1313 18.75 12.0469 18.8344 12.0469 18.9375V20.0625C12.0469 20.1656 12.1313 20.25 12.2344 20.25H13.3594C13.4625 20.25 13.5469 20.1656 13.5469 20.0625V18.9375C13.5469 18.8344 13.4625 18.75 13.3594 18.75ZM19.3594 18.75H15.1875C15.0844 18.75 15 18.8344 15 18.9375V20.0625C15 20.1656 15.0844 20.25 15.1875 20.25H19.3594C19.4625 20.25 19.5469 20.1656 19.5469 20.0625V18.9375C19.5469 18.8344 19.4625 18.75 19.3594 18.75ZM10.3359 18.75H9.21094C9.10781 18.75 9.02344 18.8344 9.02344 18.9375V20.0625C9.02344 20.1656 9.10781 20.25 9.21094 20.25H10.3359C10.4391 20.25 10.5234 20.1656 10.5234 20.0625V18.9375C10.5234 18.8344 10.4391 18.75 10.3359 18.75Z"/>
</g>
</svg>
