<svg width="24" height="24" viewBox="0 0 24 24" xmlns="http://www.w3.org/2000/svg">
<g id="Frame">
<path id="Vector" d="M21.75 3.77344H16.3875C15.2367 3.77344 14.1117 4.10391 13.1437 4.72734L12 5.46094L10.8563 4.72734C9.89062 4.10391 8.76328 3.77344 7.6125 3.77344H2.25C1.83516 3.77344 1.5 4.10859 1.5 4.52344V17.8359C1.5 18.2508 1.83516 18.5859 2.25 18.5859H7.6125C8.76328 18.5859 9.88828 18.9164 10.8563 19.5398L11.8969 20.2102C11.9273 20.2289 11.9625 20.2406 11.9977 20.2406C12.0328 20.2406 12.068 20.2312 12.0984 20.2102L13.1391 19.5398C14.1094 18.9164 15.2367 18.5859 16.3875 18.5859H21.75C22.1648 18.5859 22.5 18.2508 22.5 17.8359V4.52344C22.5 4.10859 22.1648 3.77344 21.75 3.77344ZM9.46875 12.9727C9.46875 13.0687 9.39375 13.1484 9.30234 13.1484H4.94766C4.85625 13.1484 4.78125 13.0687 4.78125 12.9727V11.918C4.78125 11.8219 4.85625 11.7422 4.94766 11.7422H9.3C9.39141 11.7422 9.46641 11.8219 9.46641 11.918V12.9727H9.46875ZM9.46875 9.69141C9.46875 9.7875 9.39375 9.86719 9.30234 9.86719H4.94766C4.85625 9.86719 4.78125 9.7875 4.78125 9.69141V8.63672C4.78125 8.54062 4.85625 8.46094 4.94766 8.46094H9.3C9.39141 8.46094 9.46641 8.54062 9.46641 8.63672V9.69141H9.46875ZM19.2188 12.9727C19.2188 13.0687 19.1438 13.1484 19.0523 13.1484H14.6977C14.6062 13.1484 14.5312 13.0687 14.5312 12.9727V11.918C14.5312 11.8219 14.6062 11.7422 14.6977 11.7422H19.05C19.1414 11.7422 19.2164 11.8219 19.2164 11.918V12.9727H19.2188ZM19.2188 9.69141C19.2188 9.7875 19.1438 9.86719 19.0523 9.86719H14.6977C14.6062 9.86719 14.5312 9.7875 14.5312 9.69141V8.63672C14.5312 8.54062 14.6062 8.46094 14.6977 8.46094H19.05C19.1414 8.46094 19.2164 8.54062 19.2164 8.63672V9.69141H19.2188Z"/>
</g>
</svg>
