<svg width="24" height="24" viewBox="0 0 24 24" xmlns="http://www.w3.org/2000/svg">
<g id="Frame">
<path id="Vector" d="M19.2141 12L21.6141 9.11953C21.6797 9.03984 21.6703 8.92266 21.5906 8.85469C21.5578 8.82656 21.5156 8.81016 21.4711 8.81016H20.1891C20.1328 8.81016 20.0812 8.83594 20.0461 8.87812L18.3281 10.9383L16.6148 8.88047C16.5797 8.83828 16.5258 8.8125 16.4719 8.8125H15.1875C15.143 8.8125 15.1008 8.82891 15.068 8.85703C14.9883 8.92266 14.9766 9.04219 15.0445 9.12188L17.4422 12L15.0422 14.8805C14.9766 14.9602 14.9859 15.0773 15.0656 15.1453C15.0984 15.1734 15.1406 15.1898 15.1852 15.1898H16.4672C16.5234 15.1898 16.575 15.1641 16.6102 15.1219L18.3234 13.0641L20.0367 15.1219C20.0719 15.1641 20.1258 15.1898 20.1797 15.1898H21.4688C21.5133 15.1898 21.5555 15.1734 21.5883 15.1453C21.668 15.0797 21.6797 14.9602 21.6117 14.8805L19.2141 12ZM12.5625 10.875H2.8125C2.70937 10.875 2.625 10.9594 2.625 11.0625V12.9375C2.625 13.0406 2.70937 13.125 2.8125 13.125H12.5625C12.6656 13.125 12.75 13.0406 12.75 12.9375V11.0625C12.75 10.9594 12.6656 10.875 12.5625 10.875ZM10.5938 15.6562H9.1875C9.11016 15.6562 9.04688 15.7195 9.04688 15.7969V19.6875H3.1875C3.11016 19.6875 3.04688 19.7508 3.04688 19.8281V21.2344C3.04688 21.3117 3.11016 21.375 3.1875 21.375H10.0312C10.4203 21.375 10.7344 21.0609 10.7344 20.6719V15.7969C10.7344 15.7195 10.6711 15.6562 10.5938 15.6562ZM3.1875 4.3125H9.04688V8.20312C9.04688 8.28047 9.11016 8.34375 9.1875 8.34375H10.5938C10.6711 8.34375 10.7344 8.28047 10.7344 8.20312V3.32812C10.7344 2.93906 10.4203 2.625 10.0312 2.625H3.1875C3.11016 2.625 3.04688 2.68828 3.04688 2.76562V4.17188C3.04688 4.24922 3.11016 4.3125 3.1875 4.3125Z"/>
</g>
</svg>
