<svg width="24" height="24" viewBox="0 0 24 24" xmlns="http://www.w3.org/2000/svg">
<g id="Frame">
<path id="Vector" d="M22.0312 12H18.5625V9.65625C20.3625 9.65625 21.8203 8.19844 21.8203 6.39844C21.8203 6.29531 21.7359 6.21094 21.6328 6.21094H20.2266C20.1234 6.21094 20.0391 6.29531 20.0391 6.39844C20.0391 7.21406 19.3781 7.875 18.5625 7.875H5.4375C4.62188 7.875 3.96094 7.21406 3.96094 6.39844C3.96094 6.29531 3.87656 6.21094 3.77344 6.21094H2.36719C2.26406 6.21094 2.17969 6.29531 2.17969 6.39844C2.17969 8.19844 3.6375 9.65625 5.4375 9.65625V12H1.96875C1.86562 12 1.78125 12.0844 1.78125 12.1875V13.5C1.78125 13.6031 1.86562 13.6875 1.96875 13.6875H5.4375V15.9375C5.4375 16.0898 5.44219 16.2422 5.45391 16.3898C3.84609 17.0766 2.71875 18.6727 2.71875 20.5312C2.71875 20.6344 2.80313 20.7188 2.90625 20.7188H4.21875C4.32188 20.7188 4.40625 20.6344 4.40625 20.5312C4.40625 19.4953 4.96641 18.5883 5.80313 18.1008C5.94375 18.5039 6.12187 18.8883 6.33516 19.2492C6.90469 20.2219 7.71797 21.0352 8.69062 21.6047C9.66328 22.1742 10.793 22.5 12 22.5C13.207 22.5 14.3391 22.1742 15.3117 21.6047C16.2844 21.0352 17.0977 20.2219 17.6672 19.2492C17.8805 18.8859 18.0586 18.5016 18.1992 18.1008C19.0336 18.5883 19.5938 19.4953 19.5938 20.5312C19.5938 20.6344 19.6781 20.7188 19.7812 20.7188H21.0938C21.1969 20.7188 21.2812 20.6344 21.2812 20.5312C21.2812 18.6727 20.1539 17.0766 18.5461 16.3898C18.5555 16.2398 18.5625 16.0898 18.5625 15.9375V13.6875H22.0312C22.1344 13.6875 22.2188 13.6031 22.2188 13.5V12.1875C22.2188 12.0844 22.1344 12 22.0312 12ZM16.7812 15.9375C16.7812 16.8 16.5539 17.625 16.1297 18.3492C15.7148 19.0594 15.1219 19.6523 14.4117 20.0672C13.9406 20.3438 13.4273 20.5359 12.8906 20.6367V11.3438C12.8906 11.2406 12.8062 11.1562 12.7031 11.1562H11.2969C11.1938 11.1562 11.1094 11.2406 11.1094 11.3438V20.6367C10.5727 20.5359 10.0594 20.3438 9.58828 20.0672C8.87813 19.6523 8.28516 19.0594 7.87031 18.3492C7.44609 17.625 7.21875 16.8 7.21875 15.9375V9.65625H16.7812V15.9375Z"/>
<path id="Vector_2" d="M7.125 6.5625H8.4375C8.54062 6.5625 8.625 6.47813 8.625 6.375C8.625 5.71172 8.76328 5.12812 9.02578 4.65234C9.27422 4.19766 9.63516 3.83672 10.0898 3.58828C10.568 3.32813 11.1492 3.1875 11.8125 3.1875H12.1875C12.8508 3.1875 13.4344 3.32578 13.9102 3.58828C14.3648 3.83672 14.7258 4.19766 14.9742 4.65234C15.2344 5.13047 15.375 5.71172 15.375 6.375C15.375 6.47813 15.4594 6.5625 15.5625 6.5625H16.875C16.9781 6.5625 17.0625 6.47813 17.0625 6.375C17.0625 5.4375 16.8562 4.57734 16.4555 3.84141C16.0523 3.10312 15.4594 2.51016 14.7211 2.10703C13.9852 1.70625 13.125 1.5 12.1875 1.5H11.8125C10.875 1.5 10.0148 1.70625 9.27891 2.10703C8.54062 2.51016 7.94766 3.10312 7.54453 3.84141C7.14375 4.57734 6.9375 5.4375 6.9375 6.375C6.9375 6.47813 7.02187 6.5625 7.125 6.5625Z"/>
</g>
</svg>
