<svg xmlns="http://www.w3.org/2000/svg" xmlns:xlink="http://www.w3.org/1999/xlink"
  version="1.1" width="12" height="12" viewBox="0 0 12 12">
  <!-- <defs>
    <mask id="master_svg0_74_07562" style="mask-type:alpha" maskUnits="userSpaceOnUse">
      <g transform="matrix(-1,0,0,-1,24.000001907348633,24.000001907348633)">
        <rect x="12.000000953674316" y="12.000000953674316" width="12.000000953674316"
          height="12.000000953674316" rx="0" fill="#FFFFFF" fill-opacity="1" />
      </g>
    </mask>
  </defs> -->
  <g mask="url(#master_svg0_74_07562)">
    <g transform="matrix(-1,0,0,-1,24.000001907348633,24.000001907348633)">
      <path
        d="M23.428100953674317,21.533200953674317L23.989500953674316,17.977730953674318C24.080900953674316,17.398830953674317,23.634400953674316,16.875000953674316,23.048400953674317,16.875000953674316L19.870310953674316,16.875000953674316C19.273830953674317,16.875000953674316,18.81094095367432,16.354690953674314,18.878910953674318,15.761720953674317L19.154300953674316,13.379300953674317C19.238670953674315,12.644531953674317,18.66445095367432,12.000000953674316,17.925000953674317,12.000000953674316L17.398830953674317,12.000000953674316C17.006250953674318,12.000000953674316,16.687500953674316,12.318750953674316,16.687500953674316,12.711328953674316C16.687500953674316,14.200780953674316,16.22930095367432,15.655080953674316,15.375000953674316,16.875000953674316L15.375000953674316,22.54800095367432C15.375000953674316,23.34960095367432,16.025390953674318,24.000000953674316,16.826950953674316,24.000000953674316L20.54180095367432,24.000000953674316C21.979690953674314,24.000000953674316,23.204300953674316,22.953500953674315,23.428100953674317,21.533200953674317ZM14.625000953674316,23.625000953674316L14.625000953674316,17.250000953674316C14.625000953674316,17.042580953674317,14.457420953674315,16.875000953674316,14.250000953674316,16.875000953674316L13.125000953674316,16.875000953674316C12.503906953674317,16.875000953674316,12.000000953674316,17.378910953674318,12.000000953674316,18.000000953674316L12.000000953674316,22.875000953674316C12.000000953674316,23.496100953674315,12.503906953674317,24.000000953674316,13.125000953674316,24.000000953674316L14.250000953674316,24.000000953674316C14.457420953674315,24.000000953674316,14.625000953674316,23.832400953674316,14.625000953674316,23.625000953674316Z"
        fill-rule="evenodd" fill-opacity="1" />
    </g>
  </g>
</svg>
