<svg width="24" height="24" viewBox="0 0 24 24" xmlns="http://www.w3.org/2000/svg">
<g id="Frame">
<path id="Vector" d="M20.625 2.625H3.375C2.96016 2.625 2.625 2.96016 2.625 3.375V20.625C2.625 21.0398 2.96016 21.375 3.375 21.375H20.625C21.0398 21.375 21.375 21.0398 21.375 20.625V3.375C21.375 2.96016 21.0398 2.625 20.625 2.625ZM10.3172 17.9297H9.12656C9.075 17.9297 9.02109 17.9039 8.98828 17.8617L8.15625 16.8422L7.32422 17.8617C7.28906 17.9062 7.23984 17.9297 7.18594 17.9297H5.99531C5.84063 17.9297 5.75625 17.7445 5.85938 17.6227L7.32891 15.8227L5.89453 14.0672C5.79375 13.9453 5.87812 13.7602 6.03281 13.7602H7.22578C7.27734 13.7602 7.33125 13.7859 7.36406 13.8281L8.16094 14.8031L8.95781 13.8281C8.99297 13.7836 9.04219 13.7602 9.09609 13.7602H10.2867C10.4414 13.7602 10.5258 13.9453 10.425 14.0672L8.98828 15.8203L10.4578 17.6203C10.5563 17.7445 10.4719 17.9297 10.3172 17.9297ZM10.5 8.97656C10.5 9.02812 10.4672 9.07031 10.425 9.07031H8.8125V10.6805C8.8125 10.725 8.77031 10.7578 8.71875 10.7578H7.59375C7.54219 10.7578 7.5 10.725 7.5 10.6828V9.07031H5.8875C5.84531 9.07031 5.8125 9.02812 5.8125 8.97656V7.85156C5.8125 7.8 5.84531 7.75781 5.8875 7.75781H7.5V6.14531C7.5 6.10313 7.54219 6.07031 7.59375 6.07031H8.71875C8.77031 6.07031 8.8125 6.10313 8.8125 6.14531V7.75781H10.4227C10.4672 7.75781 10.5 7.8 10.5 7.85156V8.97656ZM18.1875 17.625C18.1875 17.6766 18.1547 17.7188 18.1125 17.7188H13.575C13.5328 17.7188 13.5 17.6766 13.5 17.625V16.5C13.5 16.4484 13.5328 16.4062 13.575 16.4062H18.1102C18.1547 16.4062 18.1875 16.4484 18.1875 16.5V17.625ZM18.1875 15.1875C18.1875 15.2391 18.1547 15.2812 18.1125 15.2812H13.575C13.5328 15.2812 13.5 15.2391 13.5 15.1875V14.0625C13.5 14.0109 13.5328 13.9688 13.575 13.9688H18.1102C18.1547 13.9688 18.1875 14.0109 18.1875 14.0625V15.1875ZM18.1875 8.97656C18.1875 9.02812 18.1547 9.07031 18.1125 9.07031H13.575C13.5328 9.07031 13.5 9.02812 13.5 8.97656V7.85156C13.5 7.8 13.5328 7.75781 13.575 7.75781H18.1102C18.1547 7.75781 18.1875 7.8 18.1875 7.85156V8.97656Z"/>
</g>
</svg>
