<svg width="24" height="24" viewBox="0 0 24 24" xmlns="http://www.w3.org/2000/svg">
<g id="Frame">
<path id="Vector" d="M8.74199 9.63281C8.07402 9.63281 7.53027 10.1789 7.53027 10.8516C7.53027 11.5242 8.07402 12.0703 8.74199 12.0703C9.40996 12.0703 9.95371 11.5242 9.95371 10.8516C9.95371 10.1789 9.40996 9.63281 8.74199 9.63281Z"/>
<path id="Vector_2" d="M21.75 3.75H2.25C1.83516 3.75 1.5 4.08516 1.5 4.5V19.5C1.5 19.9148 1.83516 20.25 2.25 20.25H21.75C22.1648 20.25 22.5 19.9148 22.5 19.5V4.5C22.5 4.08516 22.1648 3.75 21.75 3.75ZM14.25 9.84375C14.25 9.74062 14.2734 9.65625 14.3039 9.65625H17.1961C17.2266 9.65625 17.25 9.74062 17.25 9.84375V10.9688C17.25 11.0719 17.2266 11.1562 17.1961 11.1562H14.3039C14.2734 11.1562 14.25 11.0719 14.25 10.9688V9.84375ZM12.2344 15.7734H11.2055C11.107 15.7734 11.0273 15.6961 11.0203 15.5977C10.9313 14.4141 9.94219 13.4766 8.74219 13.4766C7.54219 13.4766 6.55312 14.4141 6.46406 15.5977C6.45703 15.6961 6.37734 15.7734 6.27891 15.7734H5.25C5.14219 15.7734 5.05781 15.6844 5.0625 15.5766C5.12812 14.3273 5.8125 13.2398 6.81094 12.6211C6.38672 12.1547 6.12891 11.5336 6.12891 10.8516C6.12891 9.40078 7.29844 8.22656 8.73984 8.22656C10.1812 8.22656 11.3508 9.40078 11.3508 10.8516C11.3508 11.5336 11.093 12.1523 10.6688 12.6211C11.6695 13.2422 12.3516 14.3273 12.4172 15.5766C12.4266 15.6844 12.3422 15.7734 12.2344 15.7734ZM18.7711 14.5312H14.4164C14.325 14.5312 14.25 14.4469 14.25 14.3438V13.2188C14.25 13.1156 14.325 13.0312 14.4164 13.0312H18.7687C18.8602 13.0312 18.9352 13.1156 18.9352 13.2188V14.3438H18.9375C18.9375 14.4469 18.8625 14.5312 18.7711 14.5312Z"/>
</g>
</svg>
