<svg width="24" height="24" viewBox="0 0 24 24" xmlns="http://www.w3.org/2000/svg">
<g id="Frame">
<path id="Vector" d="M12 1.5C6.20156 1.5 1.5 6.20156 1.5 12C1.5 17.7984 6.20156 22.5 12 22.5C17.7984 22.5 22.5 17.7984 22.5 12C22.5 6.20156 17.7984 1.5 12 1.5ZM6.75 9.86719C6.75 9.24609 7.25391 8.74219 7.875 8.74219C8.49609 8.74219 9 9.24609 9 9.86719C9 10.4883 8.49609 10.9922 7.875 10.9922C7.25391 10.9922 6.75 10.4883 6.75 9.86719ZM15.75 14.5547C15.75 14.6578 15.6656 14.7422 15.5625 14.7422H8.4375C8.33437 14.7422 8.25 14.6578 8.25 14.5547V13.4297C8.25 13.3266 8.33437 13.2422 8.4375 13.2422H15.5625C15.6656 13.2422 15.75 13.3266 15.75 13.4297V14.5547ZM16.125 10.9922C15.5039 10.9922 15 10.4883 15 9.86719C15 9.24609 15.5039 8.74219 16.125 8.74219C16.7461 8.74219 17.25 9.24609 17.25 9.86719C17.25 10.4883 16.7461 10.9922 16.125 10.9922Z" />
</g>
</svg>
