<svg width="24" height="24" viewBox="0 0 24 24" xmlns="http://www.w3.org/2000/svg">
<g id="Frame">
<path id="Vector" d="M22.4763 9.68906L21.9208 8.71875C21.8692 8.62969 21.7544 8.59922 21.6653 8.65078L20.477 9.34453L18.6419 4.27734C18.4427 3.65625 17.8661 3.23672 17.2145 3.23672H7.05907C6.24579 3.23672 5.52392 3.76172 5.27314 4.5375L3.5247 9.34687L2.33407 8.65312C2.24501 8.60156 2.13017 8.63203 2.07861 8.72109L1.52314 9.68906C1.47157 9.77812 1.50204 9.89062 1.59111 9.94219L3.00673 10.7672L2.66689 11.7047C2.63876 11.7797 2.6247 11.8594 2.6247 11.9391V20.1C2.6247 20.468 2.90126 20.7656 3.24111 20.7656H4.82548C5.11376 20.7656 5.36454 20.5477 5.42548 20.243L5.60595 19.3594H18.3934L18.5739 20.243C18.6372 20.5477 18.8856 20.7656 19.1739 20.7656H20.7583C21.0981 20.7656 21.3747 20.468 21.3747 20.1V11.9391C21.3747 11.8594 21.3606 11.7797 21.3325 11.7047L20.9927 10.7672L22.406 9.94219C22.495 9.89062 22.5255 9.77812 22.4763 9.68906ZM6.1872 14.5547C5.66923 14.5547 5.2497 14.1352 5.2497 13.6172C5.2497 13.0992 5.66923 12.6797 6.1872 12.6797C6.70517 12.6797 7.1247 13.0992 7.1247 13.6172C7.1247 14.1352 6.70517 14.5547 6.1872 14.5547ZM15.281 16.3125C15.281 16.4156 15.1966 16.5 15.0935 16.5H8.90595C8.80282 16.5 8.71845 16.4156 8.71845 16.3125V14.3437C8.71845 14.2406 8.80282 14.1562 8.90595 14.1562H9.84345C9.94658 14.1562 10.0309 14.2406 10.0309 14.3437V15.1875H13.9685V14.3437C13.9685 14.2406 14.0528 14.1562 14.156 14.1562H15.0935C15.1966 14.1562 15.281 14.2406 15.281 14.3437V16.3125ZM17.8122 14.5547C17.2942 14.5547 16.8747 14.1352 16.8747 13.6172C16.8747 13.0992 17.2942 12.6797 17.8122 12.6797C18.3302 12.6797 18.7497 13.0992 18.7497 13.6172C18.7497 14.1352 18.3302 14.5547 17.8122 14.5547ZM5.15595 9.79687L6.85986 5.11172L6.87157 5.08125L6.88095 5.05078C6.90673 4.97344 6.97704 4.92187 7.05907 4.92187H17.0809L18.8481 9.79687H5.15595Z"/>
</g>
</svg>
