<svg xmlns="http://www.w3.org/2000/svg" xmlns:xlink="http://www.w3.org/1999/xlink"
  version="1.1" width="20" height="20" viewBox="0 0 20 20">
  <defs>
    <clipPath id="master_svg0_18_03038">
      <rect x="0" y="0" width="20" height="20" rx="0" />
    </clipPath>
  </defs>
  <g clip-path="url(#master_svg0_18_03038)">
    <g>
      <g>
        <g>
          <path
            d="M10,19Q10.22094,19,10.44161,18.9892Q10.66228,18.9783,10.88215,18.9567Q11.102,18.935,11.3206,18.9026Q11.5391,18.8702,11.7558,18.8271Q11.9725,18.784,12.1868,18.7303Q12.4011,18.6766,12.6126,18.6125Q12.824,18.5483,13.032,18.4739Q13.24,18.3995,13.4441,18.3149Q13.6483,18.2304,13.848,18.1359Q14.0477,18.0414,14.2426,17.9373Q14.4374,17.8331,14.6269,17.7196Q14.8164,17.606,15.0001,17.4832Q15.1838,17.3605,15.3613,17.2289Q15.5388,17.0973,15.7095,16.9571Q15.8803,16.8169,16.044,16.668599999999998Q16.207700000000003,16.520200000000003,16.364,16.364Q16.520200000000003,16.207700000000003,16.668599999999998,16.044Q16.8169,15.8803,16.9571,15.7095Q17.0973,15.5388,17.2289,15.3613Q17.3605,15.1838,17.4832,15.0001Q17.606,14.8164,17.7196,14.6269Q17.8331,14.4374,17.9373,14.2426Q18.0414,14.0477,18.1359,13.848Q18.2304,13.6483,18.3149,13.4441Q18.3995,13.24,18.4739,13.032Q18.5483,12.824,18.6125,12.6126Q18.6766,12.4011,18.7303,12.1868Q18.784,11.9725,18.8271,11.7558Q18.8702,11.5391,18.9026,11.3206Q18.935,11.102,18.9567,10.88215Q18.9783,10.66228,18.9892,10.44161Q19,10.22094,19,10Q19,9.77906,18.9892,9.55839Q18.9783,9.33772,18.9567,9.11785Q18.935,8.89797,18.9026,8.67943Q18.8702,8.46088,18.8271,8.24419Q18.784,8.02749,18.7303,7.81318Q18.6766,7.59886,18.6125,7.38744Q18.5483,7.17601,18.4739,6.96799Q18.3995,6.75997,18.3149,6.55585Q18.2304,6.35173,18.1359,6.152Q18.0414,5.95228,17.9373,5.75743Q17.8331,5.56258,17.7196,5.37308Q17.606,5.18357,17.4832,4.99987Q17.3605,4.81616,17.2289,4.63871Q17.0973,4.46125,16.9571,4.2904599999999995Q16.8169,4.11967,16.668599999999998,3.95597Q16.520200000000003,3.79227,16.364,3.63604Q16.207700000000003,3.47981,16.044,3.33144Q15.8803,3.18307,15.7095,3.04291Q15.5388,2.90274,15.3613,2.7711300000000003Q15.1838,2.63952,15.0001,2.51677Q14.8164,2.39403,14.6269,2.28044Q14.4374,2.16686,14.2426,2.06271Q14.0477,1.9585590000000002,13.848,1.864096Q13.6483,1.769633,13.4441,1.685084Q13.24,1.600535,13.032,1.526103Q12.824,1.451672,12.6126,1.387537Q12.4011,1.323402,12.1868,1.269719Q11.9725,1.216035,11.7558,1.172932Q11.5391,1.1298300000000001,11.3206,1.0974114Q11.102,1.0649931,10.88215,1.0433375Q10.66228,1.0216818,10.44161,1.0108409Q10.22094,1,10,1Q9.77906,1,9.55839,1.0108409Q9.33772,1.0216818,9.11785,1.0433375Q8.89797,1.0649931,8.67943,1.0974114Q8.46088,1.1298300000000001,8.24419,1.172932Q8.02749,1.216035,7.81318,1.269719Q7.59886,1.323402,7.38744,1.387537Q7.17601,1.451672,6.96799,1.526103Q6.75997,1.600535,6.55585,1.685084Q6.35173,1.769633,6.152,1.864096Q5.95228,1.9585590000000002,5.75743,2.06271Q5.56258,2.16686,5.37308,2.28044Q5.18357,2.39403,4.99987,2.51677Q4.81616,2.63952,4.63871,2.7711300000000003Q4.46125,2.90274,4.2904599999999995,3.04291Q4.11967,3.18307,3.95597,3.33144Q3.79227,3.47981,3.63604,3.63604Q3.47981,3.79227,3.33144,3.95597Q3.18307,4.11967,3.04291,4.2904599999999995Q2.90274,4.46125,2.7711300000000003,4.63871Q2.63952,4.81616,2.51677,4.99987Q2.39403,5.18357,2.28044,5.37308Q2.16686,5.56258,2.06271,5.75743Q1.9585590000000002,5.95228,1.864096,6.152Q1.769633,6.35173,1.685084,6.55585Q1.600535,6.75997,1.526103,6.96799Q1.451672,7.17601,1.387537,7.38744Q1.323402,7.59886,1.269719,7.81318Q1.216035,8.02749,1.172932,8.24419Q1.1298300000000001,8.46088,1.0974114,8.67943Q1.0649931,8.89797,1.0433375,9.11785Q1.0216818,9.33772,1.0108409,9.55839Q1,9.77906,1,10Q1,10.22094,1.0108409,10.44161Q1.0216818,10.66228,1.0433375,10.88215Q1.0649931,11.102,1.0974114,11.3206Q1.1298300000000001,11.5391,1.172932,11.7558Q1.216035,11.9725,1.269719,12.1868Q1.323402,12.4011,1.387537,12.6126Q1.451672,12.824,1.526103,13.032Q1.600535,13.24,1.685084,13.4441Q1.769633,13.6483,1.864096,13.848Q1.9585590000000002,14.0477,2.06271,14.2426Q2.16686,14.4374,2.28044,14.6269Q2.39403,14.8164,2.51677,15.0001Q2.63952,15.1838,2.7711300000000003,15.3613Q2.90274,15.5388,3.04291,15.7095Q3.18307,15.8803,3.33144,16.044Q3.47981,16.207700000000003,3.63604,16.364Q3.79227,16.520200000000003,3.95597,16.668599999999998Q4.11967,16.8169,4.2904599999999995,16.9571Q4.46125,17.0973,4.63871,17.2289Q4.81616,17.3605,4.99987,17.4832Q5.18357,17.606,5.37308,17.7196Q5.56258,17.8331,5.75743,17.9373Q5.95228,18.0414,6.152,18.1359Q6.35173,18.2304,6.55585,18.3149Q6.75997,18.3995,6.96799,18.4739Q7.17601,18.5483,7.38744,18.6125Q7.59886,18.6766,7.81318,18.7303Q8.02749,18.784,8.24419,18.8271Q8.46088,18.8702,8.67943,18.9026Q8.89797,18.935,9.11785,18.9567Q9.33772,18.9783,9.55839,18.9892Q9.77906,19,10,19ZM9.20446,13.1819L14.4321,7.95447C14.5828,7.80377,14.6675,7.59937,14.6675,7.38624C14.6675,7.17311,14.5828,6.96872,14.4321,6.81802C14.2814,6.66731,14.077,6.58264,13.8639,6.58264C13.6507,6.58264,13.4463,6.66731,13.2956,6.81802L8.636330000000001,11.4773L6.70435,9.54534C6.55365,9.39463,6.34925,9.30996,6.13612,9.30996C5.92299,9.30996,5.7186,9.39463,5.56789,9.54534C5.41719,9.69604,5.33252,9.90044,5.33252,10.11356C5.33252,10.32669,5.41719,10.53109,5.56789,10.68179L8.068010000000001,13.1819C8.21871,13.3326,8.4231,13.4173,8.636230000000001,13.4173C8.84936,13.4173,9.05376,13.3326,9.20446,13.1819Z"
            fill-rule="evenodd" fill-opacity="1" />
        </g>
      </g>
    </g>
  </g>
</svg>
