<svg width="16" height="16" viewBox="0 0 16 16" xmlns="http://www.w3.org/2000/svg">
  <g>
    <path
      d="M1.6669921875,14L1.6669921875,8Q1.6669921875,7.9015086,1.6862071875,7.80491Q1.7054221875,7.708311,1.7431131875,7.617317Q1.7808041875,7.526322,1.8355221875,7.44443Q1.8902411875,7.362537,1.9598851874999998,7.292893Q2.0295291875,7.223249,2.1114221875,7.16853Q2.1933141875,7.113812,2.2843091875,7.076121Q2.3753031875,7.03843,2.4719021875,7.019215Q2.5685007875,7,2.6669921875,7L13.3336921875,7Q13.4321921875,7,13.5287921875,7.019215Q13.6253921875,7.03843,13.7162921875,7.076121Q13.8072921875,7.113812,13.8891921875,7.16853Q13.9710921875,7.223249,14.0407921875,7.292893Q14.1103921875,7.362537,14.1650921875,7.44443Q14.2198921875,7.526322,14.2574921875,7.617317Q14.2951921875,7.708311,14.3144921875,7.80491Q14.3336921875,7.9015086,14.3336921875,8L14.3336921875,14Q14.3336921875,14.09849,14.3144921875,14.19509Q14.2951921875,14.29169,14.2574921875,14.38268Q14.2198921875,14.47368,14.1650921875,14.55557Q14.1103921875,14.63746,14.0407921875,14.70711Q13.9710921875,14.77675,13.8891921875,14.83147Q13.8072921875,14.88619,13.7162921875,14.92388Q13.6253921875,14.96157,13.5287921875,14.98078Q13.4321921875,15,13.3336921875,15L2.6669921875,15Q2.5685007875,15,2.4719021875,14.98078Q2.3753031875,14.96157,2.2843091875,14.92388Q2.1933141875,14.88619,2.1114221875,14.83147Q2.0295291875,14.77675,1.9598851874999998,14.70711Q1.8902411875,14.63746,1.8355221875,14.55557Q1.7808041875,14.47368,1.7431131875,14.38268Q1.7054221875,14.29169,1.6862071875,14.19509Q1.6669921875,14.09849,1.6669921875,14ZM3.6669921875,9L3.6669921875,13L12.3336621875,13L12.3336621875,9L3.6669921875,9Z"
      fill-opacity="1" />
    <path
      d="M0.3330078125,4.33333L0.3330078125,8Q0.3330078125,8.09849,0.3522228125,8.19509Q0.37143781249999996,8.29169,0.4091288125,8.38268Q0.4468198125,8.47368,0.5015378125,8.55557Q0.5562568125,8.63746,0.6259008125,8.70711Q0.6955448125,8.77675,0.7774378125,8.83147Q0.8593298125,8.88619,0.9503248125,8.92388Q1.0413188125000001,8.96157,1.1379178125,8.98078Q1.2345164125,9,1.3330078125,9L14.6663078125,9Q14.7648078125,9,14.8614078125,8.98078Q14.9580078125,8.96157,15.0490078125,8.92388Q15.1400078125,8.88619,15.2219078125,8.83147Q15.3038078125,8.77675,15.3734078125,8.70711Q15.4431078125,8.63746,15.4978078125,8.55557Q15.5525078125,8.47368,15.5902078125,8.38268Q15.6279078125,8.29169,15.6471078125,8.19509Q15.6663078125,8.09849,15.6663078125,8L15.6663078125,4.33333Q15.6663078125,4.23484,15.6471078125,4.13824Q15.6279078125,4.04164,15.5902078125,3.95065Q15.5525078125,3.85966,15.4978078125,3.77776Q15.4431078125,3.69587,15.3734078125,3.62623Q15.3038078125,3.5565800000000003,15.2219078125,3.5018599999999998Q15.1400078125,3.44714,15.0490078125,3.40945Q14.9580078125,3.37176,14.8614078125,3.35255Q14.7648078125,3.33333,14.6663078125,3.33333L10.9996778125,3.33333L10.9996778125,2Q10.9996778125,1.9015086,10.9804578125,1.80491Q10.9612478125,1.7083110000000001,10.9235578125,1.617317Q10.8858678125,1.526322,10.8311478125,1.44443Q10.7764278125,1.362537,10.7067778125,1.2928929999999998Q10.6371378125,1.223249,10.5552478125,1.16853Q10.4733478125,1.113812,10.3823578125,1.076121Q10.2913678125,1.03843,10.1947678125,1.019215Q10.0981678125,1,9.9996778125,1L5.9996778125,1Q5.9011878125,1,5.8045878125,1.019215Q5.7079878125,1.03843,5.6169878125,1.076121Q5.5259978125,1.113812,5.4441078125,1.16853Q5.3622078125,1.223249,5.2925678125,1.2928929999999998Q5.2229178125,1.362537,5.1682078125,1.44443Q5.1134878125,1.526322,5.075797812499999,1.617317Q5.0381078125,1.7083110000000001,5.0188878125,1.80491Q4.9996778125,1.9015086,4.9996778125,2L4.9996778125,3.33333L1.3330078125,3.33333Q1.2345164125,3.33333,1.1379178125,3.35255Q1.0413188125000001,3.37176,0.9503248125,3.40945Q0.8593298125,3.44714,0.7774378125,3.5018599999999998Q0.6955448125,3.5565800000000003,0.6259008125,3.62623Q0.5562568125,3.69587,0.5015378125,3.77776Q0.4468198125,3.85966,0.4091288125,3.95065Q0.37143781249999996,4.04164,0.3522228125,4.13824Q0.3330078125,4.23484,0.3330078125,4.33333ZM2.3330078125,7L13.6663078125,7L13.6663078125,5.33333L9.9996778125,5.33333Q9.9011778125,5.33333,9.8045878125,5.31412Q9.7079878125,5.2949,9.6169878125,5.257210000000001Q9.5259978125,5.21952,9.4441078125,5.1648Q9.3622078125,5.11008,9.2925678125,5.04044Q9.2229278125,4.9708000000000006,9.1682078125,4.8889Q9.1134878125,4.80701,9.0757978125,4.71602Q9.0381078125,4.62502,9.018887812500001,4.528420000000001Q8.9996778125,4.43182,8.9996778125,4.33333L8.9996778125,3L6.9996778125,3L6.9996778125,4.33333Q6.9996778125,4.43182,6.9804578125,4.528420000000001Q6.9612478125,4.62502,6.9235578125,4.71602Q6.8858578125,4.80701,6.8311478125,4.8889Q6.7764278125,4.9708000000000006,6.7067778125,5.04044Q6.6371378125,5.11008,6.5552478125,5.1648Q6.4733478125,5.21952,6.3823578125,5.257210000000001Q6.2913578125,5.2949,6.1947678125,5.31412Q6.0981678125,5.33333,5.9996778125,5.33333L2.3330078125,5.33333L2.3330078125,7Z"
      fill-rule="evenodd" fill-opacity="1" />
    <path
      d="M4.3330078125,10.66668701171875L4.3330078125,14.00001701171875Q4.3330078125,14.09850701171875,4.3522228125,14.19510701171875Q4.3714378125,14.29170701171875,4.4091288125,14.38270701171875Q4.4468198125,14.47369701171875,4.5015378125,14.55558701171875Q4.5562568125,14.63748701171875,4.6259008125,14.70712701171875Q4.6955448125,14.77676701171875,4.7774378125,14.83148701171875Q4.8593298125,14.88620701171875,4.9503248125,14.92389701171875Q5.0413188125,14.96158701171875,5.1379178125,14.980807011718749Q5.2345164125,15.00001701171875,5.3330078125,15.00001701171875Q5.4314992125,15.00001701171875,5.5280978125,14.980807011718749Q5.6246968125,14.96158701171875,5.7156908125,14.92389701171875Q5.8066858125,14.88620701171875,5.8885778125,14.83148701171875Q5.9704708125,14.77676701171875,6.0401148125,14.70712701171875Q6.1097588125,14.63748701171875,6.1644778125,14.55558701171875Q6.2191958125,14.47369701171875,6.2568868125,14.38270701171875Q6.2945778125,14.29170701171875,6.3137928125,14.19510701171875Q6.3330078125,14.09850701171875,6.3330078125,14.00001701171875L6.3330078125,10.66668701171875Q6.3330078125,10.56819561171875,6.3137928125,10.47159701171875Q6.2945778125,10.37499801171875,6.2568868125,10.28400401171875Q6.2191958125,10.19300901171875,6.1644778125,10.11111701171875Q6.1097588125,10.02922401171875,6.0401148125,9.95958001171875Q5.9704708125,9.88993601171875,5.8885778125,9.83521701171875Q5.8066858125,9.78049901171875,5.7156908125,9.74280801171875Q5.6246968125,9.70511701171875,5.5280978125,9.685902011718749Q5.4314992125,9.66668701171875,5.3330078125,9.66668701171875Q5.2345164125,9.66668701171875,5.1379178125,9.685902011718749Q5.0413188125,9.70511701171875,4.9503248125,9.74280801171875Q4.8593298125,9.78049901171875,4.7774378125,9.83521701171875Q4.6955448125,9.88993601171875,4.6259008125,9.95958001171875Q4.5562568125,10.02922401171875,4.5015378125,10.11111701171875Q4.4468198125,10.19300901171875,4.4091288125,10.28400401171875Q4.3714378125,10.37499801171875,4.3522228125,10.47159701171875Q4.3330078125,10.56819561171875,4.3330078125,10.66668701171875Z"
      fill-rule="evenodd" fill-opacity="1" />
  </g>
</svg>