<svg width="24" height="24" viewBox="0 0 24 24" xmlns="http://www.w3.org/2000/svg">
<g id="Frame">
<path id="Vector" d="M19.0172 9.81328C17.9438 6.98203 15.2086 4.96875 12.0047 4.96875C8.80078 4.96875 6.06563 6.97969 4.99219 9.81094C2.98359 10.3383 1.5 12.1664 1.5 14.3438C1.5 16.9336 3.59766 19.0312 6.18516 19.0312H17.8148C20.4023 19.0312 22.5 16.9336 22.5 14.3438C22.5 12.1711 21.0211 10.343 19.0172 9.81328ZM19.868 16.3992C19.3195 16.9477 18.5906 17.25 17.8148 17.25H6.18516C5.40937 17.25 4.68047 16.9477 4.13203 16.3992C3.58359 15.8508 3.28125 15.1195 3.28125 14.3438C3.28125 13.6875 3.49453 13.0711 3.89531 12.5555C4.28672 12.0563 4.8375 11.693 5.44453 11.5312L6.33281 11.2992L6.65859 10.4414C6.86016 9.90703 7.14141 9.40781 7.49531 8.95547C7.84453 8.50547 8.25938 8.11406 8.72344 7.78594C9.68672 7.10859 10.8211 6.75 12.0047 6.75C13.1883 6.75 14.3227 7.10859 15.2859 7.78594C15.7523 8.11406 16.1648 8.50781 16.5141 8.95547C16.868 9.40781 17.1492 9.90938 17.3508 10.4414L17.6742 11.2969L18.5602 11.5312C19.8328 11.8711 20.7188 13.0266 20.7188 14.3438C20.7188 15.1195 20.4164 15.8508 19.868 16.3992Z"/>
</g>
</svg>
