<svg width="24" height="24" viewBox="0 0 24 24" xmlns="http://www.w3.org/2000/svg">
<g id="Frame">
<path id="Vector" d="M19.0173 8.64609C17.9438 5.8125 15.2087 3.79688 12.0048 3.79688C8.80085 3.79688 6.06569 5.81015 4.99226 8.64375C2.97429 9.17578 1.48835 11.0203 1.50007 13.2094C1.51413 15.6562 3.41257 17.6461 5.80319 17.8594C5.91335 17.8687 6.0071 17.782 6.0071 17.6719V16.2562C6.0071 16.1625 5.93679 16.0828 5.84304 16.0711C5.21022 15.9914 4.61257 15.7148 4.15319 15.2625C3.59069 14.7117 3.28132 13.9711 3.28132 13.1859C3.28132 12.5297 3.4946 11.9109 3.89538 11.3953C4.28679 10.8937 4.83757 10.5305 5.4446 10.3711L6.33288 10.1367L6.65866 9.27656C6.86022 8.74218 7.14147 8.24062 7.49538 7.78828C7.8446 7.33828 8.25944 6.94453 8.72351 6.6164C9.68679 5.93906 10.8212 5.58047 12.0048 5.58047C13.1883 5.58047 14.3227 5.93906 15.286 6.61875C15.7524 6.94687 16.1649 7.34062 16.5141 7.79062C16.868 8.24297 17.1493 8.74453 17.3508 9.2789L17.6743 10.1367L18.5602 10.3711C19.8305 10.7086 20.7188 11.8641 20.7188 13.1836C20.7188 13.9711 20.4094 14.7094 19.8469 15.2601C19.3899 15.7101 18.7946 15.9891 18.1618 16.0687C18.068 16.0805 18.0001 16.1601 18.0001 16.2539V17.6719C18.0001 17.782 18.0962 17.8687 18.2063 17.8594C20.5899 17.6437 22.4837 15.6562 22.5001 13.2141C22.5141 11.025 21.0305 9.18047 19.0173 8.64609Z"/>
<path id="Vector_2" d="M8.83436 15.3845C8.87655 14.5993 9.20233 13.8681 9.76015 13.3079C10.3555 12.7103 11.1664 12.3751 12.0101 12.3751C12.8586 12.3751 13.6578 12.7056 14.2601 13.3079C14.293 13.3407 14.3234 13.3735 14.3562 13.4087L13.7703 13.8681C13.6461 13.9642 13.6883 14.161 13.8406 14.1985L16.1422 14.761C16.2594 14.7892 16.3742 14.7001 16.3742 14.5806L16.3859 12.2063C16.3859 12.0493 16.2078 11.9603 16.0836 12.0587L15.5398 12.4853C14.682 11.5009 13.4211 10.8774 12.0125 10.8774C9.4953 10.8774 7.44218 12.872 7.33905 15.3704C7.33437 15.4759 7.41874 15.5649 7.52655 15.5649H8.64921C8.74765 15.5626 8.82968 15.4853 8.83436 15.3845ZM16.4773 15.5626H15.3547C15.2562 15.5626 15.1742 15.6399 15.1672 15.7407C15.125 16.5259 14.7992 17.2571 14.2414 17.8173C13.6461 18.4149 12.8351 18.7501 11.9914 18.7501C11.143 18.7501 10.3437 18.4196 9.7414 17.8173C9.70858 17.7845 9.67811 17.7517 9.6453 17.7165L10.2312 17.2571C10.3555 17.161 10.3133 16.9642 10.1609 16.9267L7.85937 16.3642C7.74218 16.336 7.62733 16.4251 7.62733 16.5446L7.61796 18.9212C7.61796 19.0782 7.79608 19.1673 7.9203 19.0688L8.46405 18.6423C9.32186 19.6267 10.5828 20.2501 11.9914 20.2501C14.5086 20.2501 16.5617 18.2556 16.6648 15.7571C16.6695 15.6517 16.5851 15.5626 16.4773 15.5626Z"/>
</g>
</svg>
