<svg width="24" height="24" viewBox="0 0 24 24" xmlns="http://www.w3.org/2000/svg">
<g id="Frame">
<path id="Vector" d="M14.625 15.75C14.625 16.3711 15.1289 16.875 15.75 16.875C16.3711 16.875 16.875 16.3711 16.875 15.75C16.875 15.1289 16.3711 14.625 15.75 14.625H14.625V15.75ZM16.875 8.25C16.875 7.62891 16.3711 7.125 15.75 7.125C15.1289 7.125 14.625 7.62891 14.625 8.25V9.375H15.75C16.3711 9.375 16.875 8.87109 16.875 8.25Z" fill="black"/>
<path id="Vector_2" d="M21.75 1.5H2.25C1.83516 1.5 1.5 1.83516 1.5 2.25V21.75C1.5 22.1648 1.83516 22.5 2.25 22.5H21.75C22.1648 22.5 22.5 22.1648 22.5 21.75V2.25C22.5 1.83516 22.1648 1.5 21.75 1.5ZM15.75 13.125C17.2008 13.125 18.375 14.2992 18.375 15.75C18.375 17.2008 17.2008 18.375 15.75 18.375C14.2992 18.375 13.125 17.2008 13.125 15.75V14.625H10.875V15.75C10.875 17.2008 9.70078 18.375 8.25 18.375C6.79922 18.375 5.625 17.2008 5.625 15.75C5.625 14.2992 6.79922 13.125 8.25 13.125H9.375V10.875H8.25C6.79922 10.875 5.625 9.70078 5.625 8.25C5.625 6.79922 6.79922 5.625 8.25 5.625C9.70078 5.625 10.875 6.79922 10.875 8.25V9.375H13.125V8.25C13.125 6.79922 14.2992 5.625 15.75 5.625C17.2008 5.625 18.375 6.79922 18.375 8.25C18.375 9.70078 17.2008 10.875 15.75 10.875H14.625V13.125H15.75Z" fill="black"/>
<path id="Vector_3" d="M10.875 10.875H13.125V13.125H10.875V10.875ZM8.25 7.125C7.62891 7.125 7.125 7.62891 7.125 8.25C7.125 8.87109 7.62891 9.375 8.25 9.375H9.375V8.25C9.375 7.62891 8.87109 7.125 8.25 7.125ZM7.125 15.75C7.125 16.3711 7.62891 16.875 8.25 16.875C8.87109 16.875 9.375 16.3711 9.375 15.75V14.625H8.25C7.62891 14.625 7.125 15.1289 7.125 15.75Z" fill="black"/>
</g>
</svg>
