<svg width="24" height="24" viewBox="0 0 24 24" xmlns="http://www.w3.org/2000/svg">
<g id="Frame">
<path id="Vector" d="M20.8125 15.9375H19.5469V12.6562H12.7969V10.5H18.375C18.5813 10.5 18.75 10.3313 18.75 10.125V3.9375C18.75 3.73125 18.5813 3.5625 18.375 3.5625H5.625C5.41875 3.5625 5.25 3.73125 5.25 3.9375V10.125C5.25 10.3313 5.41875 10.5 5.625 10.5H11.2031V12.6562H4.45312V15.9375H3.1875C3.08437 15.9375 3 16.0219 3 16.125V20.25C3 20.3531 3.08437 20.4375 3.1875 20.4375H7.3125C7.41563 20.4375 7.5 20.3531 7.5 20.25V16.125C7.5 16.0219 7.41563 15.9375 7.3125 15.9375H6.04688V14.25H11.2031V15.9375H9.9375C9.83437 15.9375 9.75 16.0219 9.75 16.125V20.25C9.75 20.3531 9.83437 20.4375 9.9375 20.4375H14.0625C14.1656 20.4375 14.25 20.3531 14.25 20.25V16.125C14.25 16.0219 14.1656 15.9375 14.0625 15.9375H12.7969V14.25H17.9531V15.9375H16.6875C16.5844 15.9375 16.5 16.0219 16.5 16.125V20.25C16.5 20.3531 16.5844 20.4375 16.6875 20.4375H20.8125C20.9156 20.4375 21 20.3531 21 20.25V16.125C21 16.0219 20.9156 15.9375 20.8125 15.9375ZM6 18.8742C6 18.9094 5.97188 18.9375 5.93672 18.9375H4.56094C4.52578 18.9375 4.49766 18.9094 4.49766 18.8742V17.4984C4.49766 17.4633 4.52578 17.4352 4.56094 17.4352H5.93672C5.97188 17.4352 6 17.4633 6 17.4984V18.8742ZM12.75 18.8742C12.75 18.9094 12.7219 18.9375 12.6867 18.9375H11.3109C11.2758 18.9375 11.2477 18.9094 11.2477 18.8742V17.4984C11.2477 17.4633 11.2758 17.4352 11.3109 17.4352H12.6867C12.7219 17.4352 12.75 17.4633 12.75 17.4984V18.8742ZM6.75 9V5.0625H17.25V9H6.75ZM19.5 18.8742C19.5 18.9094 19.4719 18.9375 19.4367 18.9375H18.0609C18.0258 18.9375 17.9977 18.9094 17.9977 18.8742V17.4984C17.9977 17.4633 18.0258 17.4352 18.0609 17.4352H19.4367C19.4719 17.4352 19.5 17.4633 19.5 17.4984V18.8742Z"/>
<path id="Vector_2" d="M8.4375 7.03125C8.4375 7.27989 8.53627 7.51835 8.71209 7.69416C8.8879 7.86998 9.12636 7.96875 9.375 7.96875C9.62364 7.96875 9.8621 7.86998 10.0379 7.69416C10.2137 7.51835 10.3125 7.27989 10.3125 7.03125C10.3125 6.78261 10.2137 6.54415 10.0379 6.36834C9.8621 6.19252 9.62364 6.09375 9.375 6.09375C9.12636 6.09375 8.8879 6.19252 8.71209 6.36834C8.53627 6.54415 8.4375 6.78261 8.4375 7.03125Z"/>
</g>
</svg>
