<svg width="24" height="24" viewBox="0 0 24 24" xmlns="http://www.w3.org/2000/svg">
<g id="Frame">
<path id="Vector" d="M11.1562 9.35391C11.1562 9.2625 11.0836 9.1875 10.9922 9.1875H10.0078C9.91875 9.1875 9.84375 9.2625 9.84375 9.35391V11.3438H7.86328C7.76719 11.3438 7.6875 11.4164 7.6875 11.5078V12.4922C7.6875 12.5812 7.76719 12.6562 7.86328 12.6562H9.84375V14.6461C9.84375 14.7375 9.91875 14.8125 10.0078 14.8125H10.9922C11.0836 14.8125 11.1562 14.7375 11.1562 14.6461V12.6562H13.1367C13.2328 12.6562 13.3125 12.5812 13.3125 12.4922V11.5078C13.3125 11.4164 13.2328 11.3438 13.1367 11.3438H11.1562V9.35391ZM13.1367 16.5H7.86328C7.76719 16.5 7.6875 16.575 7.6875 16.6641V17.6484C7.6875 17.7375 7.76719 17.8125 7.86328 17.8125H13.1367C13.2328 17.8125 13.3125 17.7375 13.3125 17.6484V16.6641C13.3125 16.575 13.2328 16.5 13.1367 16.5Z"/>
<path id="Vector_2" d="M12.9703 4.72031C12.8297 4.57969 12.6398 4.5 12.4406 4.5H4.5C4.08516 4.5 3.75 4.83516 3.75 5.25V21.75C3.75 22.1648 4.08516 22.5 4.5 22.5H16.5C16.9148 22.5 17.25 22.1648 17.25 21.75V9.31172C17.25 9.1125 17.1703 8.92266 17.0297 8.78203L12.9703 4.72031ZM15.5625 20.8125H5.4375V6.1875H12.0516L15.5625 9.69844V20.8125Z"/>
<path id="Vector_3" d="M20.0203 7.18594L14.3273 1.70859C14.1867 1.575 14.0016 1.5 13.807 1.5H6.9375C6.83437 1.5 6.75 1.58437 6.75 1.6875V3C6.75 3.10312 6.83437 3.1875 6.9375 3.1875H13.4297L18.5625 8.12344V19.3125C18.5625 19.4156 18.6469 19.5 18.75 19.5H20.0625C20.1656 19.5 20.25 19.4156 20.25 19.3125V7.725C20.25 7.52109 20.168 7.32656 20.0203 7.18594Z"/>
</g>
</svg>
