<svg width="24" height="24" viewBox="0 0 24 24" xmlns="http://www.w3.org/2000/svg">
<g id="Frame">
<path id="Vector" d="M21.675 9.0375C21.1453 7.78594 20.3883 6.66328 19.425 5.7C18.4617 4.73672 17.3391 3.97969 16.0875 3.45C14.7914 2.90156 13.418 2.625 12 2.625C10.582 2.625 9.20859 2.90156 7.9125 3.45C6.66094 3.97969 5.53828 4.73672 4.575 5.7C3.61172 6.66328 2.85469 7.78594 2.325 9.0375C1.77656 10.3336 1.5 11.707 1.5 13.125C1.5 16.2352 2.86641 19.1648 5.24766 21.1664L5.2875 21.1992C5.42344 21.3117 5.59453 21.375 5.77031 21.375H18.232C18.4078 21.375 18.5789 21.3117 18.7148 21.1992L18.7547 21.1664C21.1336 19.1648 22.5 16.2352 22.5 13.125C22.5 11.707 22.2211 10.3336 21.675 9.0375ZM17.8453 19.5938H6.15469C4.32422 17.9414 3.28125 15.6 3.28125 13.125C3.28125 10.7953 4.18828 8.60625 5.83594 6.96094C7.48359 5.31328 9.67266 4.40625 12 4.40625C14.3297 4.40625 16.5188 5.31328 18.1641 6.96094C19.8117 8.60859 20.7188 10.7977 20.7188 13.125C20.7188 15.6 19.6758 17.9414 17.8453 19.5938Z"/>
<path id="Vector_2" d="M14.6133 9.87891C14.5406 9.80625 14.4211 9.80625 14.3484 9.87891L12.368 11.8594C11.9297 11.7422 11.4445 11.8547 11.1 12.1992C10.5867 12.7125 10.5867 13.5422 11.1 14.0555C11.6133 14.5688 12.443 14.5688 12.9562 14.0555C13.3008 13.7109 13.4133 13.2258 13.2961 12.7875L15.2766 10.807C15.3492 10.7344 15.3492 10.6148 15.2766 10.5422L14.6133 9.87891ZM11.4844 7.5H12.5156C12.6187 7.5 12.7031 7.41563 12.7031 7.3125V5.4375C12.7031 5.33437 12.6187 5.25 12.5156 5.25H11.4844C11.3812 5.25 11.2969 5.33437 11.2969 5.4375V7.3125C11.2969 7.41563 11.3812 7.5 11.4844 7.5ZM17.5781 12.6094V13.6406C17.5781 13.7437 17.6625 13.8281 17.7656 13.8281H19.6406C19.7437 13.8281 19.8281 13.7437 19.8281 13.6406V12.6094C19.8281 12.5062 19.7437 12.4219 19.6406 12.4219H17.7656C17.6625 12.4219 17.5781 12.5062 17.5781 12.6094ZM17.8758 7.9875L17.1469 7.25859C17.0742 7.18594 16.9547 7.18594 16.882 7.25859L15.5555 8.58516C15.4828 8.65781 15.4828 8.77734 15.5555 8.85L16.2844 9.57891C16.357 9.65156 16.4766 9.65156 16.5492 9.57891L17.8758 8.25234C17.9484 8.17969 17.9484 8.06016 17.8758 7.9875ZM7.12734 7.25859C7.05469 7.18594 6.93516 7.18594 6.8625 7.25859L6.13359 7.9875C6.06094 8.06016 6.06094 8.17969 6.13359 8.25234L7.46016 9.57891C7.53281 9.65156 7.65234 9.65156 7.725 9.57891L8.45391 8.85C8.52656 8.77734 8.52656 8.65781 8.45391 8.58516L7.12734 7.25859ZM6.14062 12.4219H4.26562C4.1625 12.4219 4.07812 12.5062 4.07812 12.6094V13.6406C4.07812 13.7437 4.1625 13.8281 4.26562 13.8281H6.14062C6.24375 13.8281 6.32812 13.7437 6.32812 13.6406V12.6094C6.32812 12.5062 6.24375 12.4219 6.14062 12.4219Z"/>
</g>
</svg>
