<svg width="24" height="24" viewBox="0 0 24 24" xmlns="http://www.w3.org/2000/svg">
<g id="Frame">
<path id="Vector" d="M6.9375 5.85938C6.83437 5.85938 6.75 5.94375 6.75 6.04688V7.17188C6.75 7.275 6.83437 7.35938 6.9375 7.35938H15.9375C16.0406 7.35938 16.125 7.275 16.125 7.17188V6.04688C16.125 5.94375 16.0406 5.85938 15.9375 5.85938H6.9375ZM11.25 9.23438H6.9375C6.83437 9.23438 6.75 9.31875 6.75 9.42188V10.5469C6.75 10.65 6.83437 10.7344 6.9375 10.7344H11.25C11.3531 10.7344 11.4375 10.65 11.4375 10.5469V9.42188C11.4375 9.31875 11.3531 9.23438 11.25 9.23438Z"/>
<path id="Vector_2" d="M10.125 19.9688H4.875V3.46875H18V10.9688C18 11.0719 18.0844 11.1562 18.1875 11.1562H19.5C19.6031 11.1562 19.6875 11.0719 19.6875 10.9688V2.53125C19.6875 2.11641 19.3523 1.78125 18.9375 1.78125H3.9375C3.52266 1.78125 3.1875 2.11641 3.1875 2.53125V20.9062C3.1875 21.3211 3.52266 21.6562 3.9375 21.6562H10.125C10.2281 21.6562 10.3125 21.5719 10.3125 21.4688V20.1562C10.3125 20.0531 10.2281 19.9688 10.125 19.9688Z"/>
<path id="Vector_3" d="M20.4375 17.9062H17.0625V17.0484C18.1477 16.725 18.9375 15.7219 18.9375 14.5312C18.9375 13.0805 17.7633 11.9062 16.3125 11.9062C14.8617 11.9062 13.6875 13.0805 13.6875 14.5312C13.6875 15.7195 14.4773 16.725 15.5625 17.0484V17.9062H12.1875C11.9812 17.9062 11.8125 18.075 11.8125 18.2812V21.8438C11.8125 22.05 11.9812 22.2188 12.1875 22.2188H20.4375C20.6438 22.2188 20.8125 22.05 20.8125 21.8438V18.2812C20.8125 18.075 20.6438 17.9062 20.4375 17.9062ZM15.1406 14.5312C15.1406 13.8844 15.6656 13.3594 16.3125 13.3594C16.9594 13.3594 17.4844 13.8844 17.4844 14.5312C17.4844 15.1781 16.9594 15.7031 16.3125 15.7031C15.6656 15.7031 15.1406 15.1781 15.1406 14.5312ZM19.3594 20.7656H13.2656V19.3594H19.3594V20.7656Z"/>
</g>
</svg>
