<svg width="24" height="24" viewBox="0 0 24 24" xmlns="http://www.w3.org/2000/svg">
<g id="Frame">
<path id="Vector" d="M16.125 7.3125V6.1875C16.125 6.08437 16.0406 6 15.9375 6H6.9375C6.83437 6 6.75 6.08437 6.75 6.1875V7.3125C6.75 7.41562 6.83437 7.5 6.9375 7.5H15.9375C16.0406 7.5 16.125 7.41562 16.125 7.3125ZM6.9375 9.375C6.83437 9.375 6.75 9.45937 6.75 9.5625V10.6875C6.75 10.7906 6.83437 10.875 6.9375 10.875H11.25C11.3531 10.875 11.4375 10.7906 11.4375 10.6875V9.5625C11.4375 9.45937 11.3531 9.375 11.25 9.375H6.9375ZM15.75 12.0938C12.9539 12.0938 10.6875 14.3602 10.6875 17.1562C10.6875 19.9523 12.9539 22.2188 15.75 22.2188C18.5461 22.2188 20.8125 19.9523 20.8125 17.1562C20.8125 14.3602 18.5461 12.0938 15.75 12.0938ZM18.2695 19.6758C17.5969 20.3484 16.7016 20.7188 15.75 20.7188C14.7984 20.7188 13.9031 20.3484 13.2305 19.6758C12.5578 19.0031 12.1875 18.1078 12.1875 17.1562C12.1875 16.2047 12.5578 15.3094 13.2305 14.6367C13.9031 13.9641 14.7984 13.5938 15.75 13.5938C16.7016 13.5938 17.5969 13.9641 18.2695 14.6367C18.9422 15.3094 19.3125 16.2047 19.3125 17.1562C19.3125 18.1078 18.9422 19.0031 18.2695 19.6758Z"/>
<path id="Vector_2" d="M15.75 12.0938C12.9539 12.0938 10.6875 14.3602 10.6875 17.1562C10.6875 19.9523 12.9539 22.2188 15.75 22.2188C18.5461 22.2188 20.8125 19.9523 20.8125 17.1562C20.8125 14.3602 18.5461 12.0938 15.75 12.0938ZM18.2695 19.6758C17.5969 20.3484 16.7016 20.7188 15.75 20.7188C14.7984 20.7188 13.9031 20.3484 13.2305 19.6758C12.5578 19.0031 12.1875 18.1078 12.1875 17.1562C12.1875 16.2047 12.5578 15.3094 13.2305 14.6367C13.9031 13.9641 14.7984 13.5938 15.75 13.5938C16.7016 13.5938 17.5969 13.9641 18.2695 14.6367C18.9422 15.3094 19.3125 16.2047 19.3125 17.1562C19.3125 18.1078 18.9422 19.0031 18.2695 19.6758Z"/>
<path id="Vector_3" d="M10.3125 19.9688H4.875V3.46875H18V11.5312C18 11.6344 18.0844 11.7188 18.1875 11.7188H19.5C19.6031 11.7188 19.6875 11.6344 19.6875 11.5312V2.53125C19.6875 2.11641 19.3523 1.78125 18.9375 1.78125H3.9375C3.52266 1.78125 3.1875 2.11641 3.1875 2.53125V20.9062C3.1875 21.3211 3.52266 21.6562 3.9375 21.6562H10.3125C10.4156 21.6562 10.5 21.5719 10.5 21.4688V20.1562C10.5 20.0531 10.4156 19.9688 10.3125 19.9688Z"/>
<path id="Vector_4" d="M15.2812 17.5312H16.2188C16.3219 17.5312 16.4062 17.4469 16.4062 17.3438V14.7188C16.4062 14.6156 16.3219 14.5312 16.2188 14.5312H15.2812C15.1781 14.5312 15.0938 14.6156 15.0938 14.7188V17.3438C15.0938 17.4469 15.1781 17.5312 15.2812 17.5312Z"/>
<path id="Vector_5" d="M15.0898 16.8975L15.0898 17.835C15.0898 17.9381 15.1742 18.0225 15.2773 18.0225L17.9023 18.0225C18.0055 18.0225 18.0898 17.9381 18.0898 17.835L18.0898 16.8975C18.0898 16.7944 18.0055 16.71 17.9023 16.71L15.2773 16.71C15.1742 16.71 15.0898 16.7944 15.0898 16.8975Z"/>
</g>
</svg>
