<svg width="24" height="24" viewBox="0 0 24 24" xmlns="http://www.w3.org/2000/svg">
<g id="Frame">
<path id="Vector" d="M6.9375 6C6.83437 6 6.75 6.08437 6.75 6.1875V7.3125C6.75 7.41562 6.83437 7.5 6.9375 7.5H15.9375C16.0406 7.5 16.125 7.41562 16.125 7.3125V6.1875C16.125 6.08437 16.0406 6 15.9375 6H6.9375ZM11.4375 10.6875V9.5625C11.4375 9.45937 11.3531 9.375 11.25 9.375H6.9375C6.83437 9.375 6.75 9.45937 6.75 9.5625V10.6875C6.75 10.7906 6.83437 10.875 6.9375 10.875H11.25C11.3531 10.875 11.4375 10.7906 11.4375 10.6875Z"/>
<path id="Vector_2" d="M10.3125 19.9688H4.875V3.46875H18V11.5312C18 11.6344 18.0844 11.7188 18.1875 11.7188H19.5C19.6031 11.7188 19.6875 11.6344 19.6875 11.5312V2.53125C19.6875 2.11641 19.3523 1.78125 18.9375 1.78125H3.9375C3.52266 1.78125 3.1875 2.11641 3.1875 2.53125V20.9062C3.1875 21.3211 3.52266 21.6562 3.9375 21.6562H10.3125C10.4156 21.6562 10.5 21.5719 10.5 21.4688V20.1562C10.5 20.0531 10.4156 19.9688 10.3125 19.9688Z"/>
<path id="Vector_3" d="M12.7525 17.2594C12.7947 16.4508 13.1322 15.6937 13.7088 15.1172C14.3228 14.5031 15.1619 14.1562 16.0314 14.1562C16.908 14.1562 17.733 14.4984 18.3541 15.1172C18.4291 15.1922 18.5017 15.2719 18.5697 15.3539L18.0283 15.7734C17.9041 15.8695 17.9463 16.0664 18.0986 16.1039L20.2853 16.6312C20.4025 16.6594 20.515 16.5703 20.5174 16.4508L20.5314 14.2148C20.5314 14.0578 20.3533 13.9687 20.2291 14.0648L19.7533 14.4352C18.8768 13.35 17.5338 12.6562 16.0314 12.6562C13.4557 12.6562 11.3533 14.693 11.2502 17.243C11.2455 17.3484 11.3322 17.4375 11.4377 17.4375H12.565C12.6658 17.4375 12.7478 17.3602 12.7525 17.2594ZM20.6252 17.4375H19.4978C19.3971 17.4375 19.315 17.5148 19.3103 17.6156C19.2682 18.4242 18.9307 19.1813 18.3541 19.7578C17.74 20.3719 16.901 20.7188 16.0314 20.7188C15.1549 20.7188 14.3299 20.3766 13.7088 19.7578C13.6338 19.6828 13.5611 19.6031 13.4932 19.5211L14.0346 19.1016C14.1588 19.0055 14.1166 18.8086 13.9642 18.7711L11.7775 18.2438C11.6603 18.2156 11.5478 18.3047 11.5455 18.4242L11.5314 20.6602C11.5314 20.8172 11.7096 20.9063 11.8338 20.8102L12.3096 20.4398C13.1861 21.525 14.5291 22.2188 16.0314 22.2188C18.6072 22.2188 20.7096 20.182 20.8127 17.632C20.8174 17.5266 20.7307 17.4375 20.6252 17.4375Z"/>
</g>
</svg>
