<svg width="24" height="24" viewBox="0 0 24 24" xmlns="http://www.w3.org/2000/svg">
<g id="Frame">
<path id="Vector" d="M7.31445 13.8634C7.38711 13.936 7.50664 13.936 7.5793 13.8634L9.96524 11.4774L11.9832 13.4978C12.0559 13.5704 12.1754 13.5704 12.2481 13.4978L17.552 8.18916C17.6246 8.1165 17.6246 7.99697 17.552 7.92432L16.6895 7.06182C16.6168 6.98916 16.4973 6.98916 16.4246 7.06182L12.1168 11.3743L10.0988 9.354C10.0262 9.28135 9.90664 9.28135 9.83399 9.354L6.45195 12.736C6.3793 12.8087 6.3793 12.9282 6.45195 13.0009L7.31445 13.8634Z" fill="black"/>
<path id="Vector_2" d="M21.1875 3.75H12.8438V2.25C12.8438 2.14687 12.7594 2.0625 12.6562 2.0625H11.3438C11.2406 2.0625 11.1562 2.14687 11.1562 2.25V3.75H2.8125C2.39766 3.75 2.0625 4.08516 2.0625 4.5V16.6875C2.0625 17.1023 2.39766 17.4375 2.8125 17.4375H11.1656V18.1875L7.30313 20.7211C7.21641 20.7773 7.19297 20.8922 7.24922 20.9789L7.95938 22.0852V22.0875C8.01562 22.1742 8.13281 22.1977 8.21953 22.1414L12 19.6617L15.7805 22.1414C15.8672 22.1977 15.9844 22.1742 16.0406 22.0875V22.0852L16.7508 20.9789C16.807 20.8922 16.7813 20.7773 16.6969 20.7211L12.8438 18.1945V17.4375H21.1875C21.6023 17.4375 21.9375 17.1023 21.9375 16.6875V4.5C21.9375 4.08516 21.6023 3.75 21.1875 3.75ZM20.25 15.75H3.75V5.4375H20.25V15.75Z" fill="black"/>
</g>
</svg>
