<svg width="24" height="24" viewBox="0 0 24 24" xmlns="http://www.w3.org/2000/svg">
<g id="Frame">
<path id="Vector" d="M19.5 1.5H4.5C4.08516 1.5 3.75 1.83516 3.75 2.25V7.5H20.25V2.25C20.25 1.83516 19.9148 1.5 19.5 1.5ZM10.6875 5.0625C10.6875 5.16563 10.6031 5.25 10.5 5.25H6.1875C6.08437 5.25 6 5.16563 6 5.0625V3.9375C6 3.83437 6.08437 3.75 6.1875 3.75H10.5C10.6031 3.75 10.6875 3.83437 10.6875 3.9375V5.0625ZM3.75 21.75C3.75 22.1648 4.08516 22.5 4.5 22.5H19.5C19.9148 22.5 20.25 22.1648 20.25 21.75V16.5H3.75V21.75ZM17.25 18.5625C17.768 18.5625 18.1875 18.982 18.1875 19.5C18.1875 20.018 17.768 20.4375 17.25 20.4375C16.732 20.4375 16.3125 20.018 16.3125 19.5C16.3125 18.982 16.732 18.5625 17.25 18.5625ZM3.75 15H20.25V9H3.75V15ZM6 11.4375C6 11.3344 6.08437 11.25 6.1875 11.25H10.5C10.6031 11.25 10.6875 11.3344 10.6875 11.4375V12.5625C10.6875 12.6656 10.6031 12.75 10.5 12.75H6.1875C6.08437 12.75 6 12.6656 6 12.5625V11.4375Z"/>
</g>
</svg>
