<svg xmlns="http://www.w3.org/2000/svg" xmlns:xlink="http://www.w3.org/1999/xlink"
  version="1.1" width="14" height="14.00006103515625" viewBox="0 0 14 14.00006103515625">
  <g>
    <path
      d="M6.67418,10.835C6.67959,10.8404,6.68513,10.8457,6.69079,10.8509C6.69646,10.856,6.70225,10.8611,6.70818,10.8659C6.71408,10.8708,6.72012,10.8756,6.72627,10.8801C6.73243,10.8847,6.73868,10.8891,6.74505,10.8934C6.75143,10.8977,6.7579,10.9018,6.76448,10.9058C6.77104,10.9097,6.77772,10.9135,6.78448,10.9171C6.79123,10.9208,6.79809,10.9242,6.80501,10.9275C6.81195,10.9308,6.81895,10.9339,6.82604,10.9369C6.83313,10.9398,6.84028,10.9426,6.84751,10.9452C6.85473,10.9478,6.86202,10.9502,6.86936,10.9524C6.87671,10.9546,6.88409,10.9567,6.89154,10.9586C6.89898,10.9604,6.90648,10.9621,6.91401,10.9636C6.92153,10.9651,6.9291,10.9664,6.93668,10.9676C6.94427,10.9687,6.9519,10.9696,6.95953,10.9704C6.96717,10.9711,6.97483,10.9717,6.98249,10.9721C6.99015,10.9725,6.99783,10.9727,7.00551,10.9727C7.0132,10.9727,7.02087,10.9725,7.02854,10.9721C7.0362,10.9717,7.04386,10.9711,7.0515,10.9704C7.05913,10.9696,7.06676,10.9687,7.07434,10.9676C7.08193,10.9664,7.0895,10.9651,7.09702,10.9636C7.10455,10.9621,7.11203,10.9604,7.11948,10.9586C7.12692,10.9567,7.13432,10.9546,7.14167,10.9524C7.14901,10.9502,7.15628,10.9478,7.16351,10.9452C7.17073,10.9426,7.17789,10.9398,7.18498,10.9369C7.19206,10.9339,7.19908,10.9308,7.206,10.9275C7.21294,10.9242,7.2198,10.9208,7.22655,10.9171C7.23331,10.9135,7.23999,10.9097,7.24655,10.9058C7.25312,10.9018,7.25959,10.8977,7.26596,10.8934C7.27234,10.8891,7.27861,10.8847,7.28476,10.8801C7.29091,10.8756,7.29695,10.8708,7.30285,10.8659C7.30878,10.8611,7.31457,10.856,7.32024,10.8509C7.3259,10.8457,7.33144,10.8404,7.33685,10.835L9.41816,8.75913C9.42359,8.75371,9.42888,8.74818,9.43405,8.74252C9.4392,8.73684,9.44422,8.73106,9.44908,8.72515C9.45395,8.71923,9.45868,8.7132,9.46326,8.70706C9.46782,8.70091,9.47225,8.69466,9.47651,8.68832C9.48078,8.68195,9.48489,8.6755,9.48884,8.66893C9.49279,8.66237,9.49657,8.65571,9.50019,8.64897C9.50382,8.64222,9.50728,8.63539,9.51055,8.62848C9.51383,8.62156,9.51694,8.61456,9.51989,8.6075C9.52283,8.60043,9.52559,8.5933,9.52818,8.58609C9.53077,8.57889,9.53317,8.57163,9.5354,8.56431C9.53764,8.55698,9.5397,8.5496,9.54156,8.54219C9.54342,8.53477,9.54511,8.5273,9.54662,8.51981C9.54811,8.51229,9.54943,8.50476,9.55055,8.4972C9.55169,8.48962,9.55262,8.48203,9.55338,8.47442C9.55413,8.4668,9.55471,8.45917,9.55509,8.45153C9.55546,8.44389,9.55565,8.43624,9.55567,8.42859C9.55567,8.42093,9.55547,8.41329,9.5551,8.40565C9.55473,8.39799,9.55417,8.39036,9.55342,8.38276C9.55266,8.37513,9.55173,8.36754,9.55061,8.35998C9.54948,8.35241,9.54818,8.34486,9.54669,8.33737C9.54519,8.32986,9.54351,8.32239,9.54164,8.31497C9.53978,8.30755,9.53773,8.30018,9.53551,8.29285C9.53328,8.28552,9.53088,8.27826,9.5283,8.27106C9.52571,8.26385,9.52296,8.25671,9.52002,8.24964C9.51709,8.24256,9.51398,8.23558,9.5107,8.22866C9.50743,8.22174,9.50397,8.2149,9.50037,8.20816C9.49675,8.20141,9.49296,8.19475,9.48903,8.18819C9.48508,8.18162,9.48098,8.17516,9.47672,8.1688C9.47246,8.16243,9.46803,8.15618,9.46346,8.15004C9.4589,8.14389,9.45418,8.13785,9.44932,8.13194C9.44445,8.12602,9.43943,8.12022,9.43428,8.11456C9.42914,8.10889,9.42385,8.10335,9.41842,8.09795C9.41299,8.09254,9.40744,8.08726,9.40175,8.08212C9.39606,8.07698,9.39026,8.07199,9.38433,8.06713C9.37839,8.06227,9.37234,8.05756,9.36619,8.05301C9.36002,8.04844,9.35374,8.04404,9.34737,8.0398C9.34099,8.03555,9.33451,8.03146,9.32793,8.02752C9.32135,8.02359,9.31467,8.01983,9.3079,8.01622C9.30114,8.01261,9.29429,8.00916,9.28735,8.00589C9.28042,8.00263,9.2734,7.99954,9.26631,7.99661C9.25922,7.99367,9.25207,7.99092,9.24484,7.98835C9.23762,7.98577,9.23034,7.98338,9.22299,7.98116C9.21566,7.97893,9.20826,7.9769,9.20081,7.97504C9.19337,7.97318,9.1859,7.9715,9.17837,7.97002C9.17085,7.96851,9.16328,7.96722,9.1557,7.96609C9.14811,7.96497,9.1405,7.96404,9.13286,7.96331C9.12523,7.96255,9.11758,7.96199,9.10991,7.96162C9.10225,7.96124,9.09458,7.96106,9.08691,7.96106C9.07923,7.96106,9.07156,7.96125,9.0639,7.96164C9.05623,7.96202,9.0486,7.96258,9.04096,7.96333C9.03333,7.96408,9.0257,7.96503,9.01812,7.96615C9.01053,7.96727,9.00298,7.96858,8.99545,7.97009C8.98792,7.97158,8.98044,7.97326,8.973,7.97513C8.96555,7.97699,8.95816,7.97903,8.95083,7.98126C8.9435,7.98347,8.9362,7.98588,8.92898,7.98848C8.92175,7.99105,8.91461,7.99381,8.90753,7.99675C8.90044,7.99967,8.89342,8.00278,8.88648,8.00606C8.87956,8.00933,8.87271,8.01277,8.86595,8.01638C8.85918,8.01999,8.8525,8.02376,8.84594,8.02772C8.83936,8.03165,8.83287,8.03574,8.8265,8.04001C8.82012,8.04425,8.81384,8.04866,8.80769,8.05323C8.80153,8.05779,8.79549,8.0625,8.78957,8.06736C8.78363,8.07222,8.77783,8.07722,8.77216,8.08236C8.76647,8.0875,8.76092,8.09278,8.7555,8.0982L7.46752,9.38282L7.46752,0.464987C7.4675,0.457374,7.46731,0.449765,7.46693,0.442162C7.46654,0.434559,7.46598,0.426969,7.46523,0.419395C7.46447,0.411819,7.46353,0.404267,7.4624,0.396739C7.46127,0.389209,7.45996,0.381713,7.45847,0.374248C7.45698,0.366783,7.45529,0.359359,7.45344,0.351975C7.45157,0.344592,7.44953,0.337259,7.44731,0.329977C7.44509,0.322694,7.44269,0.315469,7.44011,0.308305C7.43754,0.301138,7.43478,0.294039,7.43186,0.287009C7.42894,0.279979,7.42584,0.273023,7.42257,0.266144C7.41929,0.259264,7.41586,0.252468,7.41226,0.245758C7.40865,0.239046,7.4049,0.232428,7.40096,0.225901C7.39703,0.219373,7.39294,0.212946,7.38871,0.20662C7.38446,0.200292,7.38006,0.194073,7.37551,0.187961C7.37096,0.18185,7.36625,0.175853,7.36142,0.169971C7.35658,0.164089,7.35159,0.158329,7.34646,0.152691C7.34133,0.147052,7.33607,0.141544,7.33067,0.136163C7.32527,0.130783,7.31974,0.125538,7.31408,0.120429C7.30842,0.115319,7.30265,0.110351,7.29674,0.105524C7.29083,0.100697,7.28481,0.0960175,7.27869,0.0914852C7.27256,0.0869528,7.26632,0.0825731,7.25997,0.0783461C7.25363,0.0741192,7.24717,0.07005,7.24063,0.0661385C7.23408,0.062227,7.22743,0.058478,7.2207,0.0548917C7.21397,0.0513052,7.20716,0.0478854,7.20026,0.0446325C7.19335,0.0413798,7.18638,0.0382976,7.17933,0.0353861C7.17227,0.0324746,7.16515,0.0297374,7.15797,0.0271742C7.15077,0.0246112,7.14354,0.0222254,7.13623,0.0200169C7.12892,0.0178084,7.12158,0.01578,7.11417,0.0139314C7.10676,0.0120828,7.09931,0.0104164,7.09183,0.00893221C7.08434,0.007448,7.07683,0.00614773,7.06928,0.00503143C7.06173,0.00391513,7.05416,0.00298413,7.04656,0.00223843C7.03897,0.00149274,7.03136,0.000933242,7.02373,0.000559946C7.0161,0.000186649,7.00848,0,7.00085,0C6.99321,0,6.98559,0.00018665,6.97797,0.000559948C6.97033,0.000933242,6.96272,0.00149274,6.95513,0.00223843C6.94754,0.00298414,6.93997,0.00391514,6.93242,0.00503143C6.92486,0.00614773,6.91735,0.007448,6.90987,0.00893222C6.90238,0.0104164,6.89494,0.0120828,6.88752,0.0139314C6.88012,0.01578,6.87277,0.0178084,6.86546,0.0200169C6.85816,0.0222254,6.85092,0.0246112,6.84372,0.0271742C6.83654,0.0297374,6.82943,0.0324746,6.82237,0.0353861C6.81531,0.0382976,6.80833,0.0413797,6.80143,0.0446327C6.79454,0.0478854,6.78773,0.0513052,6.78099,0.0548917C6.77426,0.058478,6.76762,0.062227,6.76106,0.0661385C6.75452,0.07005,6.74807,0.0741192,6.74172,0.0783461C6.73537,0.0825731,6.72914,0.0869528,6.72301,0.0914852C6.71688,0.0960175,6.71086,0.100697,6.70496,0.105524C6.69905,0.110351,6.69328,0.115319,6.68761,0.120429C6.68195,0.125538,6.67643,0.130783,6.67103,0.136163C6.66563,0.141544,6.66036,0.147052,6.65524,0.152691C6.65011,0.158329,6.64512,0.164089,6.64028,0.169971C6.63543,0.175853,6.63072,0.18185,6.62619,0.187961C6.62164,0.194073,6.61724,0.200292,6.61299,0.20662C6.60875,0.212946,6.60467,0.219373,6.60073,0.225901C6.5968,0.232428,6.59304,0.239046,6.58944,0.245758C6.58583,0.252468,6.5824,0.259264,6.57913,0.266144C6.57585,0.273023,6.57275,0.279979,6.56983,0.287009C6.56691,0.294039,6.56416,0.301138,6.56158,0.308305C6.559,0.315469,6.5566,0.322694,6.55438,0.329977C6.55216,0.337259,6.55012,0.344592,6.54826,0.351975C6.54641,0.359359,6.54472,0.366783,6.54323,0.374248C6.54173,0.381713,6.54043,0.389209,6.53929,0.396739C6.53817,0.404267,6.53722,0.411819,6.53647,0.419395C6.53571,0.426969,6.53515,0.434559,6.53477,0.442162C6.53438,0.449765,6.53419,0.457374,6.53418,0.464987L6.53418,9.38282L5.24619,8.10751C5.24077,8.10209,5.23522,8.09683,5.22954,8.09169C5.22385,8.08655,5.21805,8.08156,5.21213,8.07672C5.2062,8.07185,5.20015,8.06715,5.19399,8.06259C5.18783,8.05804,5.18156,8.05364,5.17518,8.04939C5.16881,8.04513,5.16233,8.04105,5.15576,8.03712C5.14918,8.03318,5.14251,8.02941,5.13575,8.02582C5.12898,8.02221,5.12213,8.01876,5.1152,8.01549C5.10827,8.01223,5.10127,8.00914,5.09418,8.00621C5.08709,8.00327,5.07994,8.00052,5.07272,7.99795C5.0655,7.99537,5.05822,7.99297,5.05088,7.99076C5.04354,7.98853,5.03615,7.98649,5.02871,7.98463C5.02127,7.98277,5.01379,7.98109,5.00627,7.9796C4.99875,7.97811,4.9912,7.97681,4.98361,7.97569C4.97603,7.97456,4.96842,7.97361,4.96079,7.97288C4.95316,7.97212,4.94551,7.97156,4.93785,7.97119C4.93019,7.97081,4.92253,7.97063,4.91487,7.97063C4.9072,7.97063,4.89954,7.97081,4.89188,7.97119C4.88421,7.97156,4.87656,7.97212,4.86893,7.97288C4.8613,7.97361,4.85369,7.97456,4.8461,7.97569C4.83852,7.97681,4.83097,7.97811,4.82344,7.9796C4.81592,7.98109,4.80844,7.98277,4.801,7.98463C4.79356,7.98649,4.78618,7.98853,4.77884,7.99076C4.7715,7.99297,4.76422,7.99537,4.757,7.99795C4.74978,8.00052,4.74263,8.00327,4.73555,8.00621C4.72846,8.00914,4.72146,8.01223,4.71452,8.01549C4.70759,8.01876,4.70075,8.02221,4.69398,8.02582C4.68722,8.02941,4.68055,8.03318,4.67397,8.03712C4.66739,8.04105,4.66091,8.04513,4.65453,8.04939C4.64816,8.05362,4.6419,8.05803,4.63574,8.06259C4.62958,8.06715,4.62353,8.07185,4.6176,8.07672C4.61167,8.08156,4.60587,8.08655,4.60019,8.09169C4.59451,8.09683,4.58896,8.10209,4.58354,8.10751C4.57811,8.11292,4.57282,8.11846,4.56768,8.12412C4.56252,8.12978,4.55751,8.13558,4.55265,8.1415C4.54779,8.1474,4.54307,8.15342,4.53851,8.15957C4.53394,8.16571,4.52952,8.17196,4.52526,8.17833C4.521,8.18469,4.51689,8.19114,4.51295,8.1977C4.50901,8.20427,4.50524,8.21091,4.50162,8.21766C4.49801,8.22441,4.49456,8.23124,4.49128,8.23816C4.488,8.24506,4.48489,8.25205,4.48196,8.25913C4.47903,8.26619,4.47626,8.27332,4.47368,8.28053C4.47109,8.28772,4.46869,8.29498,4.46647,8.30231C4.46424,8.30962,4.46219,8.31699,4.46033,8.32442C4.45847,8.33183,4.4568,8.33929,4.4553,8.3468C4.4538,8.35429,4.45249,8.36182,4.45136,8.3694C4.45024,8.37696,4.4493,8.38455,4.44855,8.39216C4.44779,8.39977,4.44723,8.4074,4.44685,8.41504C4.44648,8.42267,4.44629,8.43032,4.44629,8.43798C4.44629,8.44562,4.44648,8.45327,4.44685,8.46091C4.44723,8.46854,4.44779,8.47617,4.44855,8.48378C4.4493,8.49138,4.45024,8.49897,4.45136,8.50655C4.45249,8.51411,4.4538,8.52164,4.4553,8.52915C4.45679,8.53664,4.45846,8.5441,4.46033,8.55153C4.46219,8.55894,4.46424,8.56631,4.46647,8.57364C4.46869,8.58095,4.47109,8.58821,4.47368,8.59542C4.47626,8.60261,4.47903,8.60975,4.48196,8.61681C4.48489,8.62388,4.488,8.63087,4.49128,8.63779C4.49456,8.6447,4.49801,8.65153,4.50162,8.65828C4.50524,8.66502,4.50901,8.67167,4.51295,8.67823C4.51689,8.68479,4.521,8.69125,4.52526,8.69762C4.52952,8.70397,4.53394,8.71022,4.53851,8.71638C4.54307,8.72251,4.54779,8.72854,4.55265,8.73445C4.55751,8.74036,4.56252,8.74615,4.56768,8.75183C4.57282,8.75749,4.57811,8.76303,4.58354,8.76844L6.67418,10.835ZM13.5333,8.53589C13.5257,8.53589,13.518,8.53608,13.5104,8.53645C13.5028,8.53682,13.4952,8.53738,13.4876,8.53813C13.48,8.53888,13.4724,8.53981,13.4648,8.54094C13.4573,8.54206,13.4498,8.54336,13.4423,8.54485C13.4348,8.54633,13.4273,8.548,13.4199,8.54985C13.4125,8.5517,13.4052,8.55373,13.3978,8.55593C13.3905,8.55815,13.3833,8.56054,13.3761,8.5631C13.3689,8.56567,13.3618,8.56841,13.3547,8.57133C13.3477,8.57424,13.3407,8.57733,13.3338,8.58058C13.3269,8.58384,13.3201,8.58726,13.3133,8.59085C13.3066,8.59444,13.2999,8.5982,13.2934,8.60212C13.2868,8.60603,13.2804,8.6101,13.274,8.61434C13.2677,8.61857,13.2615,8.62295,13.2553,8.62749C13.2492,8.63203,13.2432,8.63672,13.2373,8.64155C13.2314,8.64638,13.2256,8.65135,13.2199,8.65647C13.2143,8.66158,13.2087,8.66683,13.2033,8.67221C13.1979,8.6776,13.1927,8.68312,13.1875,8.68876C13.1824,8.69441,13.1774,8.70018,13.1726,8.70607C13.1677,8.71196,13.163,8.71796,13.1585,8.72407C13.1539,8.73019,13.1495,8.73641,13.1453,8.74275C13.141,8.74908,13.137,8.75552,13.133,8.76206C13.1291,8.76859,13.1254,8.77522,13.1217,8.78194C13.1182,8.78865,13.1147,8.79545,13.1115,8.80233C13.1082,8.80922,13.1051,8.81617,13.1022,8.82321C13.0992,8.83026,13.0965,8.83736,13.0939,8.84453C13.0914,8.8517,13.089,8.85893,13.0867,8.86622C13.0845,8.87352,13.0825,8.88085,13.0806,8.88824C13.0788,8.89563,13.0771,8.90306,13.0756,8.91054C13.0741,8.918,13.0728,8.9255,13.0717,8.93304C13.0706,8.94057,13.0696,8.94812,13.0689,8.95571C13.0681,8.96329,13.0676,8.97089,13.0672,8.9785C13.0668,8.9861,13.0666,8.99371,13.0666,9.00133L13.0666,13.032L0.933332,13.032L0.933332,9.00133C0.933332,8.99371,0.933144,8.9861,0.93277,8.9785C0.932395,8.97089,0.931833,8.96329,0.931085,8.95571C0.930336,8.94812,0.929402,8.94057,0.92828,8.93304C0.92716,8.9255,0.925855,8.918,0.924365,8.91054C0.922875,8.90306,0.921203,8.89563,0.919346,8.88824C0.91749,8.88085,0.915453,8.87352,0.913237,8.86622C0.91102,8.85893,0.908625,8.8517,0.906052,8.84453C0.903479,8.83736,0.900732,8.83026,0.897809,8.82321C0.894886,8.81618,0.891792,8.80922,0.888527,8.80233C0.885261,8.79545,0.881828,8.78865,0.878228,8.78192C0.874629,8.7752,0.870866,8.76858,0.866938,8.76206C0.863012,8.75552,0.858927,8.74908,0.854684,8.74275C0.850442,8.73641,0.846045,8.73019,0.841496,8.72407C0.836946,8.71796,0.832249,8.71196,0.827403,8.70607C0.822558,8.70018,0.817571,8.69441,0.812442,8.68876C0.807314,8.68312,0.802049,8.6776,0.796649,8.67221C0.791248,8.66683,0.785718,8.66158,0.780059,8.65647C0.7744,8.65135,0.768619,8.64638,0.762715,8.64155C0.756811,8.63672,0.750793,8.63203,0.744659,8.62749C0.738524,8.62295,0.732282,8.61857,0.725932,8.61434C0.719581,8.6101,0.713131,8.60603,0.70658,8.60212C0.700029,8.5982,0.693386,8.59444,0.686651,8.59085C0.679916,8.58726,0.673096,8.58384,0.666191,8.58058C0.659288,8.57733,0.652307,8.57424,0.645252,8.57133C0.638196,8.56841,0.631072,8.56567,0.62388,8.5631C0.61669,8.56054,0.60944,8.55815,0.602132,8.55593C0.594824,8.55373,0.587466,8.5517,0.580056,8.54985C0.572648,8.548,0.565199,8.54633,0.557708,8.54485C0.550217,8.54336,0.542694,8.54206,0.53514,8.54094C0.527585,8.53981,0.520008,8.53888,0.512407,8.53813C0.504806,8.53738,0.497192,8.53682,0.489564,8.53645C0.481936,8.53608,0.474303,8.53589,0.466667,8.53589C0.45903,8.53589,0.451397,8.53608,0.443768,8.53645C0.436139,8.53682,0.428526,8.53738,0.420925,8.53813C0.413323,8.53888,0.405747,8.53981,0.398192,8.54094C0.390637,8.54206,0.383114,8.54336,0.375624,8.54485C0.368133,8.54633,0.360683,8.548,0.353276,8.54985C0.345866,8.5517,0.338508,8.55373,0.3312,8.55593C0.323892,8.55815,0.316641,8.56054,0.309451,8.5631C0.30226,8.56567,0.295136,8.56841,0.28808,8.57133C0.281024,8.57424,0.274044,8.57733,0.267141,8.58058C0.260236,8.58383,0.253416,8.58726,0.246681,8.59085C0.239946,8.59444,0.233303,8.5982,0.226752,8.60212C0.220201,8.60603,0.213751,8.6101,0.2074,8.61434C0.20105,8.61857,0.194807,8.62295,0.188673,8.62749C0.182538,8.63203,0.176521,8.63672,0.170616,8.64155C0.164712,8.64638,0.158931,8.65135,0.153273,8.65647C0.147614,8.66158,0.142084,8.66683,0.136683,8.67221C0.131283,8.6776,0.126018,8.68312,0.120889,8.68876C0.115761,8.69441,0.110773,8.70018,0.105928,8.70607C0.101083,8.71196,0.0963859,8.71796,0.0918364,8.72407C0.0872867,8.73019,0.0828905,8.73641,0.0786475,8.74275C0.0744043,8.74908,0.0703197,8.75552,0.0663932,8.76206C0.0624669,8.76858,0.0587035,8.7752,0.0551033,8.78192C0.0515031,8.78865,0.0480704,8.79545,0.0448049,8.80233C0.0415395,8.80922,0.0384455,8.81617,0.0355229,8.82321C0.0326001,8.83026,0.0298523,8.83736,0.0272794,8.84453C0.0247065,8.8517,0.0223115,8.85893,0.0200945,8.86622C0.0178774,8.87352,0.0158411,8.88085,0.0139854,8.88824C0.0121297,8.89563,0.0104569,8.90306,0.00896688,8.91054C0.00747688,8.918,0.00617158,8.9255,0.00505096,8.93304C0.00393035,8.94057,0.00299577,8.94812,0.0022472,8.95571C0.00149855,8.96329,0.000936871,8.97089,0.000562176,8.9785C0.000187393,8.9861,0,8.99371,0,9.00133L0,13.5347Q1.50612e-9,13.5461,0.000562176,13.5575C0.000936871,13.5652,0.00149855,13.5727,0.0022472,13.5803C0.00299577,13.5879,0.00393035,13.5954,0.00505096,13.603C0.00617158,13.6105,0.00747688,13.618,0.00896688,13.6255C0.0104569,13.633,0.0121297,13.6404,0.0139854,13.6478C0.0158411,13.6552,0.0178774,13.6625,0.0200945,13.6698C0.0223115,13.6771,0.0247065,13.6843,0.0272794,13.6916C0.0298523,13.6987,0.0326001,13.7057,0.0355229,13.7127C0.0384455,13.7199,0.0415395,13.7268,0.0448049,13.7337C0.0480704,13.7406,0.0515031,13.7474,0.0551033,13.754C0.0587035,13.7608,0.0624669,13.7674,0.0663932,13.774C0.0703197,13.7806,0.0744043,13.787,0.0786475,13.7933C0.0828905,13.7997,0.0872867,13.8059,0.0918364,13.812C0.0963859,13.8181,0.101083,13.8241,0.105928,13.8299C0.110773,13.8358,0.115761,13.8416,0.120889,13.8473C0.126018,13.8529,0.131283,13.8584,0.136683,13.8638C0.142084,13.8692,0.147614,13.8744,0.153273,13.8795C0.158931,13.8846,0.164712,13.8896,0.170616,13.8944C0.176521,13.8993,0.182538,13.904,0.188673,13.9085C0.194807,13.9131,0.20105,13.9175,0.2074,13.9217C0.213751,13.9259,0.220201,13.93,0.226752,13.934C0.233303,13.9379,0.239946,13.9416,0.246681,13.9452C0.253416,13.9487,0.260236,13.9521,0.267141,13.9554C0.274044,13.9587,0.281024,13.9618,0.28808,13.9647C0.295136,13.9676,0.30226,13.9704,0.309451,13.9729C0.316641,13.9755,0.323892,13.9778,0.3312,13.98C0.338508,13.9823,0.345866,13.9844,0.353276,13.9862C0.360683,13.988,0.368133,13.9897,0.375624,13.9912C0.383114,13.9927,0.390637,13.994,0.398192,13.9951C0.405747,13.9962,0.413323,13.9971,0.420925,13.9979C0.428526,13.9987,0.436139,13.9992,0.443768,13.9996C0.451397,14,0.45903,14.0001,0.466667,14.0001L13.5333,14.0001C13.5409,14.0001,13.5486,14,13.5562,13.9996C13.5638,13.9992,13.5714,13.9987,13.579,13.9979C13.5866,13.9971,13.5942,13.9962,13.6018,13.9951C13.6093,13.994,13.6169,13.9927,13.6243,13.9912C13.6318,13.9897,13.6393,13.988,13.6467,13.9862C13.6541,13.9844,13.6615,13.9823,13.6688,13.98C13.6761,13.9778,13.6833,13.9755,13.6905,13.9729C13.6977,13.9704,13.7048,13.9676,13.7119,13.9647C13.719,13.9618,13.726,13.9587,13.7328,13.9554C13.7397,13.9521,13.7466,13.9487,13.7533,13.9452C13.76,13.9416,13.7667,13.9379,13.7733,13.934C13.7797,13.93,13.7862,13.9259,13.7926,13.9217C13.7989,13.9175,13.8051,13.9131,13.8113,13.9085C13.8174,13.904,13.8235,13.8993,13.8294,13.8944C13.8352,13.8896,13.841,13.8846,13.8468,13.8795C13.8524,13.8744,13.8579,13.8692,13.8634,13.8638C13.8687,13.8584,13.8739,13.8529,13.8791,13.8473C13.8842,13.8416,13.8891,13.8358,13.8941,13.8299C13.8989,13.8241,13.9035,13.8181,13.9082,13.812C13.9127,13.8059,13.9171,13.7997,13.9213,13.7933C13.9256,13.787,13.9297,13.7806,13.9335,13.774C13.9374,13.7674,13.9412,13.7608,13.9449,13.754C13.9485,13.7474,13.9519,13.7406,13.9552,13.7337C13.9585,13.7268,13.9615,13.7199,13.9645,13.7127C13.9674,13.7057,13.9701,13.6987,13.9727,13.6916C13.9752,13.6843,13.9777,13.6771,13.9799,13.6698C13.9821,13.6625,13.9841,13.6552,13.986,13.6478C13.9878,13.6404,13.9895,13.633,13.991,13.6255C13.9925,13.618,13.9939,13.6105,13.995,13.603C13.996,13.5955,13.9969,13.5879,13.9977,13.5803C13.9985,13.5727,13.9991,13.5652,13.9995,13.5575C13.9997,13.5499,14,13.5423,14,13.5347L14,9.00133C14,8.99371,13.9997,8.9861,13.9995,8.9785C13.9991,8.97089,13.9985,8.96329,13.9977,8.95571C13.9969,8.94812,13.996,8.94057,13.995,8.93304C13.9939,8.9255,13.9925,8.918,13.991,8.91054C13.9895,8.90306,13.9878,8.89563,13.986,8.88824C13.9841,8.88085,13.9821,8.87352,13.9799,8.86622C13.9777,8.85893,13.9752,8.8517,13.9727,8.84453C13.9701,8.83736,13.9674,8.83026,13.9645,8.82321C13.9615,8.81617,13.9585,8.80922,13.9552,8.80233C13.9519,8.79545,13.9485,8.78865,13.9449,8.78192C13.9412,8.7752,13.9374,8.76858,13.9335,8.76206C13.9297,8.75552,13.9256,8.74908,13.9213,8.74275C13.9171,8.73641,13.9127,8.73019,13.9082,8.72407C13.9035,8.71796,13.8989,8.71196,13.8941,8.70607C13.8891,8.70018,13.8842,8.69441,13.8791,8.68876C13.8739,8.68312,13.8687,8.6776,13.8634,8.67221C13.8579,8.66683,13.8524,8.66158,13.8468,8.65647C13.841,8.65135,13.8352,8.64638,13.8294,8.64155C13.8235,8.63672,13.8174,8.63203,13.8113,8.62749C13.8051,8.62295,13.7989,8.61857,13.7926,8.61434C13.7862,8.6101,13.7797,8.60603,13.7733,8.60212C13.7667,8.5982,13.76,8.59444,13.7533,8.59085C13.7466,8.58726,13.7397,8.58384,13.7328,8.58058C13.726,8.57733,13.719,8.57424,13.7119,8.57133C13.7048,8.56841,13.6977,8.56567,13.6905,8.5631C13.6833,8.56054,13.6761,8.55815,13.6688,8.55593C13.6615,8.55373,13.6541,8.5517,13.6467,8.54985C13.6393,8.548,13.6318,8.54633,13.6243,8.54485C13.6169,8.54336,13.6093,8.54206,13.6018,8.54094C13.5942,8.53981,13.5866,8.53888,13.579,8.53813C13.5714,8.53738,13.5638,8.53682,13.5562,8.53645C13.5486,8.53608,13.5409,8.53589,13.5333,8.53589Z"
      fill-rule="evenodd" fill-opacity="1" />
  </g>
</svg>
