<svg width="16" height="16" viewBox="0 0 16 16" fill="none" xmlns="http://www.w3.org/2000/svg">
<g id="edit">
<rect id="&#231;&#159;&#169;&#229;&#189;&#162;" opacity="0.01" width="16" height="16" rx="4" fill="#262626"/>
<path id="&#229;&#189;&#162;&#231;&#138;&#182;" fill-rule="evenodd" clip-rule="evenodd" d="M4.02681 11.75C4.05806 11.75 4.08931 11.7469 4.12056 11.7422L6.74868 11.2812C6.77993 11.275 6.80962 11.2609 6.83149 11.2375L13.4549 4.61406C13.5159 4.55313 13.5159 4.45469 13.4549 4.39375L10.8581 1.79531C10.8284 1.76562 10.7893 1.75 10.7471 1.75C10.7049 1.75 10.6659 1.76562 10.6362 1.79531L4.01274 8.41875C3.98931 8.44219 3.97524 8.47031 3.96899 8.50156L3.50806 11.1297C3.47837 11.3031 3.53149 11.4719 3.65493 11.5953C3.75806 11.6953 3.88774 11.75 4.02681 11.75ZM5.03549 9.27715C5.06424 9.1131 5.14288 8.96182 5.26067 8.84407L10.1742 3.93187C10.4905 3.61568 11.0032 3.61571 11.3195 3.93195C11.6358 4.24825 11.6357 4.76109 11.3194 5.07734L6.40542 9.98994C6.28798 10.1073 6.1373 10.1858 5.97377 10.2147C5.42059 10.3124 4.93851 9.83046 5.03549 9.27715ZM2.25 13.0625H13.75C14.0266 13.0625 14.25 13.2859 14.25 13.5625V14.125C14.25 14.1938 14.1938 14.25 14.125 14.25H1.875C1.80625 14.25 1.75 14.1938 1.75 14.125V13.5625C1.75 13.2859 1.97344 13.0625 2.25 13.0625Z" fill="#262626"/>
</g>
</svg>
