<svg width="16" height="16" viewBox="0 0 16 16" xmlns="http://www.w3.org/2000/svg">
<path d="M11.6865 4.52382C11.6865 4.39496 11.6353 4.27138 11.5442 4.18027C11.453 4.08915 11.3295 4.03796 11.2006 4.03796H4.89418C4.76532 4.03796 4.64175 4.08915 4.55063 4.18027C4.45951 4.27138 4.40833 4.39496 4.40833 4.52382C4.40833 4.65268 4.45951 4.77626 4.55063 4.86737C4.64175 4.95849 4.76532 5.00968 4.89418 5.00968H11.2006C11.3295 5.00968 11.453 4.95849 11.5442 4.86737C11.6353 4.77626 11.6865 4.65268 11.6865 4.52382ZM4.81591 6.63406C4.59079 6.63406 4.40833 6.85148 4.40833 7.11992C4.40833 7.38835 4.59079 7.60577 4.81591 7.60577H8.50248C8.72759 7.60577 8.91019 7.38822 8.91019 7.11992C8.91019 6.85162 8.72759 6.63406 8.50248 6.63406H4.81591Z" />
<path d="M7.18484 13.4814H2.98177C2.98109 13.4809 2.98049 13.4803 2.98001 13.4796V2.47737C2.98053 2.47672 2.98112 2.47614 2.98177 2.47562H13.0983C13.0989 2.4761 13.0995 2.47669 13.1 2.47737V7.98524C13.1 8.1141 13.1512 8.23768 13.2423 8.32879C13.3334 8.41991 13.457 8.47109 13.5859 8.47109C13.7147 8.47109 13.8383 8.41991 13.9294 8.32879C14.0205 8.23768 14.0717 8.1141 14.0717 7.98524V2.47562C14.071 2.21814 13.9684 1.97141 13.7863 1.78934C13.6042 1.60727 13.3575 1.50465 13.1 1.50391H2.98001C2.72253 1.50465 2.47581 1.60727 2.29374 1.78934C2.11167 1.97141 2.00905 2.21814 2.0083 2.47562V13.4814C2.00905 13.7388 2.11167 13.9856 2.29374 14.1676C2.47581 14.3497 2.72253 14.4523 2.98001 14.4531H7.18484C7.31369 14.4531 7.43727 14.4019 7.52839 14.3108C7.61951 14.2197 7.67069 14.0961 7.67069 13.9672C7.67069 13.8384 7.61951 13.7148 7.52839 13.6237C7.43727 13.5325 7.31369 13.4814 7.18484 13.4814Z" />
<path d="M13.9782 13.6775L12.6256 12.3245C12.9361 11.8759 13.1021 11.3431 13.1016 10.7976C13.1016 9.31191 11.8929 8.10321 10.4073 8.10321C8.92161 8.10321 7.71277 9.31191 7.71277 10.7976C7.71277 12.2832 8.92147 13.492 10.4073 13.492C10.9549 13.4926 11.4895 13.3253 11.9392 13.0128L13.2911 14.3646C13.3824 14.4544 13.5056 14.5046 13.6338 14.5041C13.762 14.5035 13.8847 14.4524 13.9754 14.3618C14.066 14.2711 14.1172 14.1484 14.1177 14.0202C14.1182 13.892 14.0681 13.7688 13.9782 13.6775ZM10.4073 12.5203C10.0665 12.5204 9.73342 12.4193 9.45009 12.2301C9.16677 12.0408 8.94594 11.7717 8.81552 11.4569C8.68511 11.1421 8.65098 10.7957 8.71743 10.4615C8.78389 10.1274 8.94796 9.82037 9.18889 9.57942C9.42981 9.33848 9.73678 9.17439 10.071 9.1079C10.4052 9.04142 10.7516 9.07553 11.0664 9.20592C11.3812 9.3363 11.6502 9.55711 11.8395 9.84043C12.0288 10.1237 12.1299 10.4568 12.1299 10.7976C12.1294 11.2543 11.9477 11.6922 11.6248 12.0151C11.3018 12.3381 10.864 12.5198 10.4073 12.5203Z" />
</svg>
