<svg xmlns="http://www.w3.org/2000/svg" xmlns:xlink="http://www.w3.org/1999/xlink"
  version="1.1" width="20" height="20" viewBox="0 0 20 20">
  <defs>
    <clipPath id="master_svg0_18_03028">
      <rect x="0" y="0" width="20" height="20" rx="0" />
    </clipPath>
  </defs>
  <g clip-path="url(#master_svg0_18_03028)">
    <g>
      <g>
        <g>
          <path
            d="M19,10Q19,10.22094,18.9892,10.44161Q18.9783,10.66228,18.9567,10.88215Q18.935,11.102,18.9026,11.3206Q18.8702,11.5391,18.8271,11.7558Q18.784,11.9725,18.7303,12.1868Q18.6766,12.4011,18.6125,12.6126Q18.5483,12.824,18.4739,13.032Q18.3995,13.24,18.3149,13.4441Q18.2304,13.6483,18.1359,13.848Q18.0414,14.0477,17.9373,14.2426Q17.8331,14.4374,17.7196,14.6269Q17.606,14.8164,17.4832,15.0001Q17.3605,15.1838,17.2289,15.3613Q17.0973,15.5388,16.9571,15.7095Q16.8169,15.8803,16.668599999999998,16.044Q16.520200000000003,16.207700000000003,16.364,16.364Q16.207700000000003,16.520200000000003,16.044,16.668599999999998Q15.8803,16.8169,15.7095,16.9571Q15.5388,17.0973,15.3613,17.2289Q15.1838,17.3605,15.0001,17.4832Q14.8164,17.606,14.6269,17.7196Q14.4374,17.8331,14.2426,17.9373Q14.0477,18.0414,13.848,18.1359Q13.6483,18.2304,13.4441,18.3149Q13.24,18.3995,13.032,18.4739Q12.824,18.5483,12.6126,18.6125Q12.4011,18.6766,12.1868,18.7303Q11.9725,18.784,11.7558,18.8271Q11.5391,18.8702,11.3206,18.9026Q11.102,18.935,10.88215,18.9567Q10.66228,18.9783,10.44161,18.9892Q10.22094,19,10,19Q9.77906,19,9.55839,18.9892Q9.33772,18.9783,9.11785,18.9567Q8.89797,18.935,8.67943,18.9026Q8.46088,18.8702,8.24419,18.8271Q8.02749,18.784,7.81318,18.7303Q7.59886,18.6766,7.38744,18.6125Q7.17601,18.5483,6.96799,18.4739Q6.75997,18.3995,6.55585,18.3149Q6.35173,18.2304,6.152,18.1359Q5.95228,18.0414,5.75743,17.9373Q5.56258,17.8331,5.37308,17.7196Q5.18357,17.606,4.99987,17.4832Q4.81616,17.3605,4.63871,17.2289Q4.46125,17.0973,4.2904599999999995,16.9571Q4.11967,16.8169,3.95597,16.668599999999998Q3.79227,16.520200000000003,3.63604,16.364Q3.47981,16.207700000000003,3.33144,16.044Q3.18307,15.8803,3.04291,15.7095Q2.90274,15.5388,2.7711300000000003,15.3613Q2.63952,15.1838,2.51677,15.0001Q2.39403,14.8164,2.28044,14.6269Q2.16686,14.4374,2.06271,14.2426Q1.9585590000000002,14.0477,1.864096,13.848Q1.769633,13.6483,1.685084,13.4441Q1.600535,13.24,1.526103,13.032Q1.451672,12.824,1.387537,12.6126Q1.323402,12.4011,1.269719,12.1868Q1.216035,11.9725,1.172932,11.7558Q1.1298300000000001,11.5391,1.0974114,11.3206Q1.0649931,11.102,1.0433375,10.88215Q1.0216818,10.66228,1.0108409,10.44161Q1,10.22094,1,10Q1,9.77906,1.0108409,9.55839Q1.0216818,9.33772,1.0433375,9.11785Q1.0649931,8.89797,1.0974114,8.67943Q1.1298300000000001,8.46088,1.172932,8.24419Q1.216035,8.02749,1.269719,7.81318Q1.323402,7.59886,1.387537,7.38744Q1.451672,7.17601,1.526103,6.96799Q1.600535,6.75997,1.685084,6.55585Q1.769633,6.35173,1.864096,6.152Q1.9585590000000002,5.95228,2.06271,5.75743Q2.16686,5.56258,2.28044,5.37308Q2.39403,5.18357,2.51677,4.99987Q2.63952,4.81616,2.7711300000000003,4.63871Q2.90274,4.46125,3.04291,4.2904599999999995Q3.18307,4.11967,3.33144,3.95597Q3.47981,3.79227,3.63604,3.63604Q3.79227,3.47981,3.95597,3.33144Q4.11967,3.18307,4.2904599999999995,3.04291Q4.46125,2.90274,4.63871,2.7711300000000003Q4.81616,2.63952,4.99987,2.51677Q5.18357,2.39403,5.37308,2.28044Q5.56258,2.16686,5.75743,2.06271Q5.95228,1.9585590000000002,6.152,1.864096Q6.35173,1.769633,6.55585,1.685084Q6.75997,1.600535,6.96799,1.526103Q7.17601,1.451672,7.38744,1.387537Q7.59886,1.323402,7.81318,1.269719Q8.02749,1.216035,8.24419,1.172932Q8.46088,1.1298300000000001,8.67943,1.0974114Q8.89797,1.0649931,9.11785,1.0433375Q9.33772,1.0216818,9.55839,1.0108409Q9.77906,1,10,1Q10.22094,1,10.44161,1.0108409Q10.66228,1.0216818,10.88215,1.0433375Q11.102,1.0649931,11.3206,1.0974114Q11.5391,1.1298300000000001,11.7558,1.172932Q11.9725,1.216035,12.1868,1.269719Q12.4011,1.323402,12.6126,1.387537Q12.824,1.451672,13.032,1.526103Q13.24,1.600535,13.4441,1.685084Q13.6483,1.769633,13.848,1.864096Q14.0477,1.9585590000000002,14.2426,2.06271Q14.4374,2.16686,14.6269,2.28044Q14.8164,2.39403,15.0001,2.51677Q15.1838,2.63952,15.3613,2.7711300000000003Q15.5388,2.90274,15.7095,3.04291Q15.8803,3.18307,16.044,3.33144Q16.207700000000003,3.47981,16.364,3.63604Q16.520200000000003,3.79227,16.668599999999998,3.95597Q16.8169,4.11967,16.9571,4.2904599999999995Q17.0973,4.46125,17.2289,4.63871Q17.3605,4.81616,17.4832,4.99987Q17.606,5.18357,17.7196,5.37308Q17.8331,5.56258,17.9373,5.75743Q18.0414,5.95228,18.1359,6.152Q18.2304,6.35173,18.3149,6.55585Q18.3995,6.75997,18.4739,6.96799Q18.5483,7.17601,18.6125,7.38744Q18.6766,7.59886,18.7303,7.81318Q18.784,8.02749,18.8271,8.24419Q18.8702,8.46088,18.9026,8.67943Q18.935,8.89797,18.9567,9.11785Q18.9783,9.33772,18.9892,9.55839Q19,9.77906,19,10ZM10.32746,11.7673C10.58928,11.3745,10.90018,10.16362,11.0802,8.70726C11.2111,7.65999,11.2602,6.72726,11.1947,6.10544L11.1947,6.02362C11.1947,5.89271,11.1784,5.7618,11.1293,5.63089C11.0965,5.51635,11.0638,5.45089,11.0147,5.41817C10.802,5.10726,10.442,4.89453,10.03291,4.89453C9.39473,4.89453,8.871089999999999,5.4018,8.871089999999999,6.02362C8.871089999999999,6.07271,8.88746,6.13817,8.88746,6.18726C8.85473,6.79271,8.88746,7.70908,9.01837,8.70726C9.19837,10.1309,9.49291,11.3254,9.73837,11.7345C9.77109,11.8654,9.88564,11.9636,10.03291,11.9636C10.16382,11.9636,10.27837,11.8818,10.32746,11.7673ZM10.04924,14.9091C9.46015,14.9091,8.96924,14.4346,8.96924,13.8618C8.96924,13.2891,9.44378,12.8146,10.04924,12.8146C10.63833,12.8146,11.1292,13.2891,11.1292,13.8618C11.1292,14.4509,10.63833,14.9091,10.04924,14.9091Z"
            fill-rule="evenodd" fill-opacity="1" />
        </g>
      </g>
    </g>
  </g>
</svg>
