<svg width="24" height="24" viewBox="0 0 24 24" xmlns="http://www.w3.org/2000/svg">
<g id="Frame">
<path id="Vector" d="M19.5492 10.9969C19.0922 9.9703 18.4383 9.06093 17.6063 8.29686L16.9242 7.67108C16.8234 7.58202 16.6641 7.62187 16.6195 7.74843L16.3148 8.62265C16.125 9.17108 15.7758 9.73124 15.2812 10.282C15.2484 10.3172 15.2109 10.3266 15.1852 10.3289C15.1594 10.3312 15.1195 10.3266 15.0844 10.2937C15.0516 10.2656 15.0352 10.2234 15.0375 10.1812C15.1242 8.7703 14.7023 7.1789 13.7789 5.44686C13.0148 4.0078 11.9531 2.88515 10.6266 2.10233L9.65859 1.5328C9.53203 1.4578 9.37031 1.55624 9.37734 1.7039L9.42891 2.8289C9.46406 3.59765 9.375 4.27733 9.16406 4.84218C8.90625 5.53358 8.53594 6.17577 8.0625 6.75233C7.72969 7.15546 7.35703 7.51874 6.94922 7.8328C5.9625 8.58983 5.14922 9.57655 4.59844 10.6805C4.04297 11.7961 3.75 13.0453 3.75 14.2969C3.75 15.4031 3.96797 16.4742 4.39922 17.4844C4.81641 18.457 5.41172 19.3336 6.16875 20.0836C6.92813 20.8336 7.80938 21.4242 8.79141 21.8344C9.80859 22.2609 10.8867 22.4766 12 22.4766C13.1133 22.4766 14.1914 22.2609 15.2086 21.8367C16.1906 21.4266 17.0742 20.8383 17.8312 20.0859C18.5906 19.3359 19.1859 18.4594 19.6008 17.4867C20.032 16.4766 20.25 15.4055 20.25 14.2992C20.25 13.1555 20.0156 12.0445 19.5492 10.9969Z"/>
</g>
</svg>
