<svg xmlns="http://www.w3.org/2000/svg" xmlns:xlink="http://www.w3.org/1999/xlink"
  version="1.1" width="20" height="20" viewBox="0 0 20 20">
  <defs>
    <clipPath id="master_svg0_18_03021">
      <rect x="0" y="0" width="20" height="20" rx="0" />
    </clipPath>
  </defs>
  <g clip-path="url(#master_svg0_18_03021)">
    <g>
      <g>
        <path
          d="M1,17.9714C1,18.6143,1.388487,19,1.906469,19C2.55395,19,2.94243,18.6143,2.81294,17.9714L2.81294,1.9C2.81294,1.3857140000000001,2.42445,1,1.906469,1C1.388487,1,1,1.3857140000000001,1,1.9L1,17.9714ZM4.49658,13.6L4.49658,2.0286C4.49658,2.0286,5.92103,1.51431,7.47498,1.128596C8.899429999999999,0.742881,10.71237,1.51431,11.7483,2.28574C15.7627,4.98574,19.0001,1.7714530000000002,19.0001,1.7714530000000002L19.0001,12.9572C19.0001,12.9572,17.5756,14.2429,15.3742,14.2429C13.1728,14.2429,11.8778,13.0857,10.45337,12.3143C6.8275,10.77145,4.49658,13.6,4.49658,13.6Z"
          fill-rule="evenodd" fill-opacity="1" />
      </g>
    </g>
  </g>
</svg>
