<svg width="24" height="24" viewBox="0 0 24 24" xmlns="http://www.w3.org/2000/svg">
<g id="Frame">
<path id="Vector" d="M20.625 7.14844H14.625V4.5C14.625 4.08516 14.2898 3.75 13.875 3.75H4.3125V2.8125C4.3125 2.70937 4.22812 2.625 4.125 2.625H2.8125C2.70937 2.625 2.625 2.70937 2.625 2.8125V21.1875C2.625 21.2906 2.70937 21.375 2.8125 21.375H4.125C4.22812 21.375 4.3125 21.2906 4.3125 21.1875V15H10.125V17.6484C10.125 18.0633 10.4602 18.3984 10.875 18.3984H20.625C21.0398 18.3984 21.375 18.0633 21.375 17.6484V7.89844C21.375 7.48359 21.0398 7.14844 20.625 7.14844Z"/>
</g>
</svg>
