<svg width="24" height="24" viewBox="0 0 24 24" xmlns="http://www.w3.org/2000/svg">
<g id="Frame">
<path id="Vector" d="M20.625 6.99375H12.2109L9.46172 4.36406C9.42656 4.33125 9.37969 4.3125 9.33281 4.3125H3.375C2.96016 4.3125 2.625 4.64766 2.625 5.0625V18.9375C2.625 19.3523 2.96016 19.6875 3.375 19.6875H20.625C21.0398 19.6875 21.375 19.3523 21.375 18.9375V7.74375C21.375 7.32891 21.0398 6.99375 20.625 6.99375ZM14.8125 13.5234C14.8125 13.6125 14.7328 13.6875 14.6367 13.6875H12.6562V15.6773C12.6562 15.7688 12.5813 15.8438 12.4922 15.8438H11.5078C11.4187 15.8438 11.3438 15.7688 11.3438 15.6773V13.6875H9.36328C9.26719 13.6875 9.1875 13.6125 9.1875 13.5234V12.5391C9.1875 12.45 9.26719 12.375 9.36328 12.375H11.3438V10.3852C11.3438 10.2938 11.4187 10.2188 11.5078 10.2188H12.4922C12.5813 10.2188 12.6562 10.2938 12.6562 10.3852V12.375H14.6367C14.7328 12.375 14.8125 12.45 14.8125 12.5391V13.5234Z"/>
</g>
</svg>
