<svg xmlns="http://www.w3.org/2000/svg" xmlns:xlink="http://www.w3.org/1999/xlink"
  version="1.1" width="20" height="20" viewBox="0 0 20 20">
  <defs>
    <clipPath id="master_svg0_18_9483">
      <rect x="0" y="0" width="20" height="20" rx="0" />
    </clipPath>
    <clipPath id="master_svg1_18_9485">
      <rect x="0" y="0" width="20" height="20" rx="0" />
    </clipPath>
  </defs>
  <g clip-path="url(#master_svg0_18_9483)">
    <g clip-path="url(#master_svg1_18_9485)">
      <g>
        <path
          d="M16.356915625,10.8570933984375L12.071215625,6.5713733984375Q11.928315625,6.4999433984375,11.785515625,6.5713733984375L10.356915625,7.9999433984375C9.999785625,8.357093398437499,9.428355625,8.571373398437501,8.999785625,8.571373398437501C8.571215625,8.6428033984375,7.928355625,8.7142333984375,7.285505625,7.9999433984375C7.214075625,7.9285233984375,7.214075625,7.8570933984375,7.214075625,7.7856633984375C7.214075625,7.7142333984375,7.214075625,7.6428033984375,7.285505625,7.5713733984375L10.214115625,4.7142333984375C9.999785625,4.4999433984375,9.785505625,4.285663398437499,9.714075625,4.285663398437499C8.999785625,3.7142333984375,8.214075625,3.2856633984375003,7.571215625,2.9285193984375L7.428355625,2.8570903984375002C7.356925625,2.7856623984375,7.214075625,2.7142333984375,7.142645625,2.7142333984375L6.999785625,2.6428043984375C6.571215625,2.4999473984375,6.071215625,2.2142333984375,5.642645625,2.2142333984375C5.285495625,2.2142333984375,4.999785625,2.3570903984375002,4.714075625,2.6428043984375L0.714071625,6.6428033984375C-0.0002139749999999982,7.3570933984375,-0.0002139749999999982,7.9999533984375,0.071214525,8.357093398437499L0.071214525,8.499953398437501C0.071214525,8.7856633984375,0.356928625,9.2142333984375,0.856928625,9.7142333984375L1.142645625,9.999953398437501C1.428355625,10.3570933984375,1.642645625,10.6428033984375,1.785495625,10.9999533984375L1.856925625,11.1428033984375C2.214075625,11.7142333984375,2.571215625,12.2856333984375,3.356925625,13.0713333984375L8.356925625,18.1428333984375C8.714075625,18.4999333984375,9.142645625,18.7142333984375,9.642645625,18.7856333984375L9.856925625,18.7856333984375C10.214115625,18.7856333984375,10.571215625,18.6428333984375,10.785515625,18.4285333984375L10.928315625,18.2856333984375Q11.356915625,17.857133398437497,10.785515625,17.2142333984375L8.714075625,15.1428333984375C8.642645625,15.1428333984375,8.571215625,15.0713333984375,8.571215625,14.9999333984375C8.571215625,14.9285333984375,8.571215625,14.8571333984375,8.642645625,14.7856333984375C8.714075625,14.7142333984375,8.785505625,14.7142333984375,8.856925625,14.7142333984375C8.928355625,14.7142333984375,8.999785625,14.7142333984375,9.071215625,14.7856333984375L11.142615625,16.857133398437497Q11.856915625,17.4999333984375,12.499815625,17.1428333984375L12.856915625,16.7856333984375Q13.356915625,16.2856333984375,12.785515625,15.5713333984375L10.571215625,13.3571333984375C10.499815625,13.2856333984375,10.499815625,13.2142333984375,10.499815625,13.1428333984375C10.499815625,13.0714333984375,10.499815625,12.9999333984375,10.571215625,12.9285333984375C10.642615625,12.8571333984375,10.714115625,12.8571333984375,10.785515625,12.8571333984375C10.856915625,12.8571333984375,10.928315625,12.8571333984375,10.999815625,12.9285333984375L13.356915625,15.2856333984375Q13.928315625,15.8571333984375,14.428315625,15.6428333984375L14.571215625,15.4999333984375L14.999815625,15.0713333984375Q14.999815625,14.9999333984375,15.071215625,14.9999333984375Q15.499815625,14.4285333984375,14.999815625,13.7856333984375L12.571215625,11.3570933984375C12.499815625,11.2856633984375,12.499815625,11.2142433984375,12.499815625,11.1428133984375C12.499815625,11.0713833984375,12.499815625,10.9999533984375,12.571215625,10.9285233984375C12.642615625,10.8570933984375,12.714115625,10.8570933984375,12.785515625,10.8570933984375C12.856915625,10.8570933984375,12.928315625,10.8570933984375,12.999815625,10.9285233984375L14.928315625,12.8571333984375Q15.714115625,13.5713333984375,16.499815625,13.0713333984375C16.714115625,12.8571333984375,16.856915625,12.7142333984375,16.928315625,12.3571333984375C16.999815625,11.8570933984375,16.785515625,11.2856633984375,16.356915625,10.8570933984375Z"
          fill-opacity="1" />
      </g>
      <g>
        <path
          d="M19.07166640625,6.642825546875L14.42877640625,1.999964546875C13.35735640625,0.9285355468750001,12.21449640625,0.857107546875,11.357346406249999,1.714250546875L9.57163640625,3.571395546875L6.42878040625,6.714255546875C6.21449510625,6.928535546875,6.21449510625,7.357105546875,6.42878040625,7.571395546875Q7.21449440625,8.285675546875,8.14306640625,8.499965546875C7.85735640625,8.428535546875,7.64306640625,8.285675546875,7.35735640625,7.999965546875C7.28592640625,7.928535546875,7.28592640625,7.857105546875,7.28592640625,7.785675546875C7.28592640625,7.714245546875,7.28592640625,7.642825546875,7.35735640625,7.571395546875L7.85735640625,7.071395546875L10.500206406250001,4.4285355468750005L12.285926406249999,2.642815546875C12.500206406250001,2.428535546875,12.64306640625,2.428535546875,12.785926406249999,2.428535546875C12.92877640625,2.428535546875,13.21449640625,2.5713955468750003,13.57163640625,2.928535546875L18.21446640625,7.571395546875C18.64306640625,7.999965546875,19.07166640625,8.642825546874999,18.500166406250003,9.142825546875L17.57166640625,10.071395546875C17.35736640625,10.285675546875,17.35736640625,10.714255546875,17.57166640625,10.928535546875C17.71446640625,11.071395546875,17.85736640625,11.142785546875,18.000166406250003,11.142785546875C18.14306640625,11.142785546875,18.285966406249997,11.071395546875,18.42876640625,10.928535546875L19.35736640625,9.999965546875C20.285966406249997,9.071395546875,20.21446640625,7.785675546875,19.07166640625,6.642825546875Z"
          fill-opacity="1" />
      </g>
    </g>
  </g>
</svg>
