<svg width="24" height="24" viewBox="0 0 24 24" xmlns="http://www.w3.org/2000/svg">
<g id="Frame">
<path id="Vector" d="M8.01562 11.0625H16.0312C16.0406 11.0625 16.0523 11.0625 16.0617 11.0602C16.1648 11.0437 16.2328 10.9477 16.2164 10.8445L15.2742 5.03203C15.2602 4.94062 15.1805 4.875 15.0891 4.875H8.95781C8.86641 4.875 8.78672 4.94062 8.77266 5.03203L7.83047 10.8445C7.82812 10.8539 7.82812 10.8656 7.82812 10.875C7.82812 10.9781 7.9125 11.0625 8.01562 11.0625ZM10.1531 6.46875H13.8914L14.3766 9.46875H9.66562L10.1531 6.46875ZM10.2117 13.0945C10.1977 13.0031 10.118 12.9375 10.0266 12.9375H3.89531C3.80391 12.9375 3.72422 13.0031 3.71016 13.0945L2.76797 18.907C2.76562 18.9164 2.76562 18.9281 2.76562 18.9375C2.76562 19.0406 2.85 19.125 2.95312 19.125H10.9688C10.9781 19.125 10.9898 19.125 10.9992 19.1227C11.1023 19.1063 11.1703 19.0102 11.1539 18.907L10.2117 13.0945ZM4.60547 17.5312L5.09062 14.5312H8.82891L9.31406 17.5312H4.60547ZM21.232 18.907L20.2898 13.0945C20.2758 13.0031 20.1961 12.9375 20.1047 12.9375H13.9734C13.882 12.9375 13.8023 13.0031 13.7883 13.0945L12.8461 18.907C12.8437 18.9164 12.8438 18.9281 12.8438 18.9375C12.8438 19.0406 12.9281 19.125 13.0312 19.125H21.0469C21.0562 19.125 21.068 19.125 21.0773 19.1227C21.1781 19.1063 21.2484 19.0102 21.232 18.907ZM14.6836 17.5312L15.1688 14.5312H18.907L19.3922 17.5312H14.6836Z"/>
</g>
</svg>
