<svg width="24" height="24" viewBox="0 0 24 24" xmlns="http://www.w3.org/2000/svg">
<g id="Frame">
<path id="Vector" d="M20.9533 10.8281C21.6775 10.8281 21.9798 9.89766 21.3916 9.46875L12.4408 2.95782C12.3129 2.86416 12.1586 2.81367 12.0001 2.81367C11.8417 2.81367 11.6873 2.86416 11.5595 2.95782L2.60874 9.46875C2.02046 9.89532 2.3228 10.8281 3.04936 10.8281H4.50015V19.5938H2.81265C2.70952 19.5938 2.62515 19.6781 2.62515 19.7813V21C2.62515 21.1031 2.70952 21.1875 2.81265 21.1875H21.1876C21.2908 21.1875 21.3751 21.1031 21.3751 21V19.7813C21.3751 19.6781 21.2908 19.5938 21.1876 19.5938H19.5001V10.8281H20.9533ZM8.92983 19.5938H6.18765V10.8281H8.92983V19.5938ZM13.3595 19.5938H10.6173V10.8281H13.3595V19.5938ZM17.8126 19.5938H15.047V10.8281H17.8126V19.5938Z"/>
</g>
</svg>
