<svg width="24" height="24" viewBox="0 0 24 24" xmlns="http://www.w3.org/2000/svg">
<g id="Frame">
<path id="Vector" d="M21.7031 3.84375H2.20312C1.78828 3.84375 1.45312 4.17891 1.45312 4.59375V19.5938C1.45312 20.0086 1.78828 20.3438 2.20312 20.3438H21.7031C22.118 20.3438 22.4531 20.0086 22.4531 19.5938V4.59375C22.4531 4.17891 22.118 3.84375 21.7031 3.84375ZM20.7656 18.6562H3.14062V5.53125H20.7656V18.6562Z"/>
<path id="Vector_2" d="M5.32285 16.7273C5.39551 16.8 5.51504 16.8 5.58769 16.7273L9.63066 12.6844L12.3119 15.368C12.3846 15.4406 12.5041 15.4406 12.5768 15.368L19.5377 8.40233C19.6103 8.32967 19.6103 8.21014 19.5377 8.13748L18.6752 7.27498C18.6025 7.20233 18.483 7.20233 18.4103 7.27498L12.4455 13.2422L9.76426 10.5586C9.6916 10.4859 9.57207 10.4859 9.49941 10.5586L4.4627 15.5976C4.39004 15.6703 4.39004 15.7898 4.4627 15.8625L5.32285 16.7273Z"/>
</g>
</svg>
