<svg xmlns="http://www.w3.org/2000/svg" xmlns:xlink="http://www.w3.org/1999/xlink"
  version="1.1" width="18" height="18" viewBox="0 0 18 18">
  <defs>
    <clipPath id="master_svg0_67_01870">
      <rect x="0" y="0" width="18" height="18" rx="0" />
    </clipPath>
  </defs>
  <g clip-path="url(#master_svg0_67_01870)">
    <g>
      <path
        d="M2.24647707,4.514222734375C2.23026195,5.137092734375,2.73076875,5.6508027343750005,3.35385375,5.6508027343750005C3.9769337499999997,5.6508027343750005,4.47744375,5.137092734375,4.46122375,4.514222734375C4.4455937500000005,3.913863734375,3.95441375,3.435302734375,3.35385375,3.435302734375C2.75328775,3.435302734375,2.26210585,3.913863734375,2.24647707,4.514222734375ZM15.11199375,5.024222734375L6.36172375,5.024222734375C6.02328375,5.0077627343749995,5.75733375,4.728562734375,5.75733375,4.389724734375C5.75733375,4.050881734375,6.02328375,3.771685734375,6.36172375,3.755224734375L15.11419375,3.755224734375C15.46369375,3.755224734375,15.74869375,4.039474734375,15.74869375,4.388974734375C15.74789375,4.7399327343749995,15.46289375,5.023892734375,15.11199375,5.023472734375L15.11199375,5.024222734375ZM2.24647707,8.999972734375C2.23026195,9.622842734375,2.73076875,10.136552734375,3.35385375,10.136552734375C3.9769337499999997,10.136552734375,4.47744375,9.622842734375,4.46122375,8.999972734375C4.4455937500000005,8.399612734375001,3.95441375,7.921052734375,3.35385375,7.921052734375C2.75328775,7.921052734375,2.26210585,8.399612734375001,2.24647707,8.999972734375ZM15.11199375,9.511472734375001L6.36172375,9.511472734375001C6.02328375,9.495012734374999,5.75733375,9.215812734375,5.75733375,8.876972734375C5.75733375,8.538132734375,6.02328375,8.258932734375,6.36172375,8.242472734375L15.11419375,8.242472734375C15.46369375,8.242472734375,15.74869375,8.527472734375,15.74869375,8.876972734375C15.74709375,9.227592734375001,15.46259375,9.511062734374999,15.11199375,9.511472734375001ZM2.246476555,13.486502734375C2.23026765,14.109302734375,2.73077275,14.623002734375,3.35385375,14.623002734375C3.9769337499999997,14.623002734375,4.477433749999999,14.109302734375,4.46122375,13.486502734375C4.44560375,12.886112734375,3.95442375,12.407542734375,3.35385375,12.407542734375C2.75328375,12.407542734375,2.26210015,12.886112734375,2.246476555,13.486502734375ZM15.11199375,13.997202734375L6.36172375,13.997202734375C6.02328375,13.980802734375,5.75733375,13.701602734375,5.75733375,13.362722734375C5.75733375,13.023882734375,6.02328375,12.744682734375,6.36172375,12.728222734375L15.11419375,12.728222734375C15.46369375,12.728222734375,15.74869375,13.013222734375,15.74869375,13.362722734375C15.74789375,13.713702734375,15.46289375,13.997602734375,15.11199375,13.997202734375Z"
        fill-opacity="1" style="mix-blend-mode:passthrough" />
    </g>
  </g>
</svg>
