<svg width="18" height="14" viewBox="0 0 18 14" xmlns="http://www.w3.org/2000/svg">
<path d="M3.19842 7.96376C3.24239 7.86186 3.31524 7.77507 3.40796 7.7141C3.50068 7.65313 3.60923 7.62063 3.72021 7.62063H5.53622C5.43543 7.44784 5.34259 7.2741 5.2579 7.09999C4.82289 6.20571 4.60235 5.29666 4.60235 4.39803C4.60235 3.22335 5.05972 2.11896 5.89052 1.28835C6.72094 0.45774 7.82533 0.000183105 9.00001 0.000183105C10.1747 0.000183105 11.2791 0.45755 12.1097 1.28835C12.9403 2.11915 13.3979 3.22335 13.3979 4.39803C13.3979 5.24058 13.1768 6.11496 12.7406 6.99711C12.6381 7.20438 12.5235 7.41241 12.3975 7.62044H14.2798C14.5066 7.62044 14.7118 7.75534 14.8016 7.96357L17.0646 13.2072C17.1404 13.3828 17.1227 13.5848 17.0176 13.7447C16.9658 13.8234 16.8953 13.888 16.8124 13.9327C16.7295 13.9774 16.6368 14.0009 16.5426 14.0009H1.45705C1.26569 14.0009 1.08722 13.9046 0.982065 13.7447C0.876913 13.5848 0.859293 13.3828 0.93508 13.2072L3.19842 7.96376ZM9.00001 1.13697C7.2018 1.13697 5.73895 2.59983 5.73895 4.39803C5.73895 6.04865 6.69215 7.47475 7.49187 8.38058C8.06141 9.0257 8.63832 9.50846 8.98599 9.77674C9.86757 9.04598 12.2609 6.83701 12.2609 4.39822C12.2611 2.60001 10.798 1.13697 9.00001 1.13697ZM15.6784 12.8641L13.906 8.75742H11.9477C11.8418 8.75742 11.7429 8.72843 11.658 8.67804C11.5578 8.80422 11.4536 8.93021 11.3452 9.05583C10.3564 10.2021 9.37572 10.9202 9.33442 10.9503C9.23727 11.021 9.12018 11.0591 9.00001 11.059C8.89088 11.059 8.78156 11.0276 8.68645 10.9647C8.64477 10.9372 7.65557 10.2773 6.66032 9.15625C6.5258 9.00467 6.39772 8.85178 6.2757 8.69774C6.19699 8.73706 6.11019 8.75749 6.0222 8.75742H4.09402L2.32158 12.8641H15.6784Z" />
<path d="M7.4838 4.37858C7.4838 3.54267 8.16398 2.86249 8.9999 2.86249C9.83581 2.86249 10.516 3.54267 10.516 4.37858C10.516 5.2145 9.83581 5.89468 8.9999 5.89468C8.16398 5.89468 7.4838 5.2145 7.4838 4.37858ZM9.3792 4.37858C9.3792 4.16941 9.20907 3.99927 8.9999 3.99927C8.79073 3.99927 8.62059 4.16941 8.62059 4.37858C8.62059 4.58775 8.79073 4.75789 8.9999 4.75789C9.20907 4.75789 9.3792 4.58775 9.3792 4.37858Z" />
</svg>
