<svg xmlns="http://www.w3.org/2000/svg" xmlns:xlink="http://www.w3.org/1999/xlink"
  version="1.1" width="24" height="24" viewBox="0 0 24 24">
  <g>
    <path
      d="M20.0797,10.26961C20.0797,5.70232,16.4802,2,12.03982,2C7.59955,2,4,5.70232,4,10.26961C4,10.41456,4.013875,10.55468,4.02115,10.69659C4.01455,10.76668,4,10.83428,4,10.90622Q4,15.9961,11.42147,21.7615Q12.0399,22.2385,12.65835,21.7615C13.27677,21.284,20.0798,15.9961,20.0798,10.90622C20.0798,10.83428,20.0653,10.76668,20.0587,10.69659C20.0659,10.55468,20.0797,10.41456,20.0797,10.26961ZM12.03982,13.4511C10.33185,13.4511,8.94765,12.027,8.94765,10.26961C8.94765,8.51346,10.33182,7.08933,12.03982,7.08933C13.7479,7.08933,15.1322,8.51346,15.1322,10.26961C15.1322,12.027,13.7479,13.4511,12.03982,13.4511Z" />
  </g>
</svg>
