<svg width="24" height="24" viewBox="0 0 24 24" xmlns="http://www.w3.org/2000/svg">
<g id="mail-fill">
<rect id="&#231;&#159;&#169;&#229;&#189;&#162;" opacity="0.01" width="24" height="24" />
<path id="&#229;&#189;&#162;&#231;&#138;&#182;" fill-rule="evenodd" clip-rule="evenodd" d="M2.25 3.75H21.75C22.1648 3.75 22.5 4.08516 22.5 4.5V19.5C22.5 19.9148 22.1648 20.25 21.75 20.25H2.25C1.83516 20.25 1.5 19.9148 1.5 19.5V4.5C1.5 4.08516 1.83516 3.75 2.25 3.75ZM12.4617 12.0562L19.8562 6.30234C19.9312 6.24375 19.943 6.13828 19.8867 6.06562C19.8539 6.02344 19.8047 6 19.7531 6H4.54688C4.45312 6 4.37812 6.075 4.37812 6.16875C4.37812 6.22031 4.40156 6.26953 4.44375 6.30234L11.8406 12.0562C12.0234 12.1992 12.2789 12.1992 12.4617 12.0562Z" />
</g>
</svg>
