<svg width="24" height="24" viewBox="0 0 24 24" xmlns="http://www.w3.org/2000/svg">
<rect opacity="0.01" width="24" height="24"/>
<path fill-rule="evenodd" clip-rule="evenodd" d="M21.75 3.75H2.25C1.83516 3.75 1.5 4.08516 1.5 4.5V19.5C1.5 19.9148 1.83516 20.25 2.25 20.25H21.75C22.1648 20.25 22.5 19.9148 22.5 19.5V4.5C22.5 4.08516 22.1648 3.75 21.75 3.75ZM20.8129 6.34668V18.5623H3.18789V6.34668L2.54102 5.84277L2.54102 5.84276L3.18516 6.34453L11.1914 12.5695C11.6648 12.9375 12.3281 12.9375 12.8016 12.5695L20.8125 6.34687L21.4594 5.84297L20.5392 4.66058L20.541 4.65918L21.4621 5.84277L20.8129 6.34668ZM19.5347 5.43965L19.5375 5.4375L20.5383 4.65938L20.5392 4.66058L19.5379 5.43965H19.5347ZM19.5347 5.43965L12 11.2969L4.46526 5.43965H19.5347ZM4.46526 5.43965H4.46523L3.46211 4.65918L2.54102 5.84276L2.53828 5.84063L3.45937 4.65703L4.4625 5.4375L4.46526 5.43965Z"/>
</svg>
