<svg xmlns="http://www.w3.org/2000/svg" xmlns:xlink="http://www.w3.org/1999/xlink"
  version="1.1" width="18" height="18" viewBox="0 0 18 18">
  <defs>
    <clipPath id="master_svg0_67_01105">
      <rect x="0" y="0" width="18" height="18" rx="0" />
    </clipPath>
  </defs>
  <g clip-path="url(#master_svg0_67_01105)">
    <g>
      <path
        d="M9.00038,2.25C8.36738,2.26125,7.83713,2.48175,7.40963,2.90925C6.98213,3.33675,6.76238,3.86775,6.75038,4.5L6.75038,9C6.76163,9.633,6.98213,10.16325,7.40963,10.59075C7.83713,11.01825,8.36813,11.238,9.00038,11.25C9.633379999999999,11.2388,10.163630000000001,11.01825,10.59113,10.59075C11.01863,10.16325,11.23838,9.63225,11.25038,9L11.25038,4.5C11.23913,3.867,11.01863,3.33675,10.59113,2.90925C10.163630000000001,2.48175,9.632629999999999,2.262,9.00038,2.25ZM9.00038,1.125C9.96113,1.149,10.758379999999999,1.47675,11.39138,2.10975C12.02363,2.742,12.35138,3.53925,12.37538,4.5L12.37538,9C12.35138,9.96075,12.02363,10.758,11.39063,11.391C10.758379999999999,12.0232,9.96113,12.351,9.00038,12.375C8.039629999999999,12.351,7.24238,12.0232,6.60938,11.3903C5.97788,10.75875,5.64938,9.96075,5.62538,9L5.62538,4.5C5.64938,3.53925,5.97713,2.742,6.61013,2.109C7.24163,1.4775,8.039629999999999,1.149,9.00038,1.125ZM8.43788,15.75L8.43788,14.625C7.00838,14.5898,5.81588,14.0948,4.86038,13.14C3.9063790000000003,12.1845,3.4113792,10.992,3.375379028,9.5625L3.375379028,9C3.36976295,8.84905,3.4267587,8.702490000000001,3.532879,8.594999999999999C3.640372,8.48888,3.786932,8.43188,3.937879,8.4375C4.088825,8.43188,4.235386,8.48888,4.342879,8.594999999999999C4.44788,8.70075,4.50038,8.83575,4.50038,9L4.50038,9.5625C4.52438,10.67625,4.90763,11.6048,5.65163,12.3488C6.395630000000001,13.0927,7.32413,13.476,8.43788,13.5L9.56288,13.5C10.67663,13.476,11.60513,13.0928,12.34913,12.3488C13.09313,11.6048,13.4764,10.67625,13.5004,9.5625L13.5004,9C13.4948,8.84905,13.5518,8.702490000000001,13.6579,8.594999999999999C13.7654,8.48888,13.9119,8.43188,14.0629,8.4375C14.2138,8.43188,14.3604,8.48888,14.4679,8.594999999999999C14.5729,8.70075,14.6254,8.83575,14.6254,9L14.6254,9.5625C14.5901,10.992,14.0951,12.1845,13.14038,13.14C12.18488,14.094,10.99238,14.589,9.56288,14.625L9.56288,15.75L10.68788,15.75C10.83883,15.7444,10.98538,15.8014,11.092880000000001,15.9075C11.19788,16.0133,11.25038,16.1483,11.25038,16.3125C11.256,16.4634,11.199,16.61,11.092880000000001,16.7175C10.985389999999999,16.8236,10.83883,16.8806,10.68788,16.875L7.31288,16.875C7.16193,16.8806,7.01537,16.8236,6.9078800000000005,16.7175C6.80176,16.61,6.744759999999999,16.4634,6.75038,16.3125C6.744759999999999,16.1616,6.80176,16.015,6.9078800000000005,15.9075C7.01537,15.8014,7.16193,15.7444,7.31288,15.75L8.43788,15.75Z"
        fill-opacity="1" style="mix-blend-mode:passthrough" />
    </g>
  </g>
</svg>
