<svg width="24" height="24" viewBox="0 0 24 24" xmlns="http://www.w3.org/2000/svg">
<g id="Frame">
<path id="Vector" d="M18.4687 16.5445V4.5C18.4687 4.29375 18.3 4.125 18.0937 4.125H14.1094V2.5125C14.1094 2.37187 13.9453 2.29218 13.8352 2.3789L10.8445 4.7414C10.7578 4.80937 10.7578 4.94062 10.8445 5.00625L13.8328 7.36874C13.943 7.45546 14.107 7.37812 14.107 7.23515V5.625H16.7789V16.5445C15.743 16.8961 14.9977 17.8781 14.9977 19.0312C14.9977 20.4797 16.1742 21.6562 17.6227 21.6562C19.0711 21.6562 20.2477 20.4797 20.2477 19.0312C20.25 17.8781 19.5047 16.8984 18.4687 16.5445ZM17.625 20.1562C17.0039 20.1562 16.5 19.6523 16.5 19.0312C16.5 18.4101 17.0039 17.9062 17.625 17.9062C18.2461 17.9062 18.75 18.4101 18.75 19.0312C18.75 19.6523 18.2461 20.1562 17.625 20.1562ZM9 4.96875C9 3.52031 7.82344 2.34375 6.375 2.34375C4.92656 2.34375 3.75 3.52031 3.75 4.96875C3.75 6.12187 4.49531 7.10156 5.53125 7.45546V16.5469C4.49531 16.8984 3.75 17.8805 3.75 19.0336C3.75 20.482 4.92656 21.6586 6.375 21.6586C7.82344 21.6586 9 20.482 9 19.0336C9 17.8805 8.25469 16.9008 7.21875 16.5469V7.45546C8.25469 7.10156 9 6.12187 9 4.96875ZM5.25 4.96875C5.25 4.34765 5.75391 3.84375 6.375 3.84375C6.99609 3.84375 7.5 4.34765 7.5 4.96875C7.5 5.58984 6.99609 6.09374 6.375 6.09374C5.75391 6.09374 5.25 5.58984 5.25 4.96875ZM7.5 19.0312C7.5 19.6523 6.99609 20.1562 6.375 20.1562C5.75391 20.1562 5.25 19.6523 5.25 19.0312C5.25 18.4101 5.75391 17.9062 6.375 17.9062C6.99609 17.9062 7.5 18.4101 7.5 19.0312Z"/>
</g>
</svg>
