<svg width="24" height="24" viewBox="0 0 24 24" xmlns="http://www.w3.org/2000/svg">
<g id="Frame">
<path id="Vector" d="M19.5 1.5H4.5C4.08516 1.5 3.75 1.83516 3.75 2.25V21.75C3.75 22.1648 4.08516 22.5 4.5 22.5H19.5C19.9148 22.5 20.25 22.1648 20.25 21.75V2.25C20.25 1.83516 19.9148 1.5 19.5 1.5ZM13.4062 3.1875H15.6562V8.10703L14.5664 7.3125L13.4062 8.14219V3.1875ZM18.5625 20.8125H5.4375V3.1875H12V10.1461C12 10.2234 12.0234 10.3008 12.0703 10.3641C12.1898 10.5328 12.4242 10.5727 12.593 10.4508L14.557 9.04688L16.4648 10.4391C16.5281 10.4859 16.6055 10.5117 16.6852 10.5117C16.8914 10.5117 17.0602 10.343 17.0602 10.1367V3.1875H18.5602V20.8125H18.5625Z"/>
</g>
</svg>
