<svg width="16" height="16" viewBox="0 0 16 16" xmlns="http://www.w3.org/2000/svg">
<path d="M3.16368 9.26529C2.76093 9.26529 2.36722 9.38472 2.03234 9.60848C1.69746 9.83224 1.43646 10.1503 1.28233 10.5224C1.1282 10.8945 1.08787 11.3039 1.16645 11.6989C1.24502 12.0939 1.43897 12.4568 1.72376 12.7416C2.00855 13.0264 2.37139 13.2203 2.76641 13.2989C3.16142 13.3775 3.57087 13.3371 3.94297 13.183C4.31506 13.0289 4.6331 12.7679 4.85686 12.433C5.08062 12.0981 5.20005 11.7044 5.20005 11.3017C5.20005 11.0342 5.14738 10.7694 5.04504 10.5224C4.9427 10.2753 4.7927 10.0508 4.60361 9.86173C4.41452 9.67264 4.19003 9.52264 3.94297 9.4203C3.6959 9.31796 3.4311 9.26529 3.16368 9.26529ZM3.16368 12.3926C2.94792 12.3926 2.73701 12.3286 2.55761 12.2087C2.37821 12.0888 2.23838 11.9185 2.15582 11.7191C2.07325 11.5198 2.05164 11.3004 2.09374 11.0888C2.13583 10.8772 2.23973 10.6828 2.39229 10.5303C2.54486 10.3777 2.73924 10.2738 2.95086 10.2317C3.16247 10.1896 3.38182 10.2112 3.58116 10.2938C3.78049 10.3764 3.95087 10.5162 4.07074 10.6956C4.19061 10.875 4.25459 11.0859 4.25459 11.3017C4.24701 11.5859 4.12874 11.856 3.92497 12.0543C3.7212 12.2526 3.44804 12.3636 3.16368 12.3635V12.3926ZM12.8364 9.26529C12.4337 9.26529 12.0399 9.38472 11.7051 9.60848C11.3702 9.83224 11.1092 10.1503 10.9551 10.5224C10.8009 10.8945 10.7606 11.3039 10.8392 11.6989C10.9177 12.0939 11.1117 12.4568 11.3965 12.7416C11.6813 13.0264 12.0441 13.2203 12.4391 13.2989C12.8342 13.3775 13.2436 13.3371 13.6157 13.183C13.9878 13.0289 14.3058 12.7679 14.5296 12.433C14.7533 12.0981 14.8728 11.7044 14.8728 11.3017C14.8709 10.7622 14.6557 10.2453 14.2742 9.86385C13.8927 9.48237 13.3759 9.26721 12.8364 9.26529ZM12.8364 12.3926C12.6207 12.3926 12.4097 12.3286 12.2303 12.2087C12.0509 12.0888 11.9111 11.9185 11.8285 11.7191C11.746 11.5198 11.7244 11.3004 11.7665 11.0888C11.8086 10.8772 11.9125 10.6828 12.065 10.5303C12.2176 10.3777 12.412 10.2738 12.6236 10.2317C12.8352 10.1896 13.0545 10.2112 13.2539 10.2938C13.4532 10.3764 13.6236 10.5162 13.7435 10.6956C13.8633 10.875 13.9273 11.0859 13.9273 11.3017C13.9197 11.5859 13.8015 11.856 13.5977 12.0543C13.3939 12.2526 13.1208 12.3636 12.8364 12.3635V12.3926ZM8.00005 5.35984C8.4028 5.35984 8.79651 5.24041 9.13139 5.01665C9.46627 4.79289 9.72727 4.47485 9.8814 4.10276C10.0355 3.73066 10.0759 3.32121 9.99728 2.9262C9.91871 2.53118 9.72476 2.16834 9.43997 1.88355C9.15518 1.59876 8.79234 1.40481 8.39732 1.32624C8.00231 1.24766 7.59286 1.28799 7.22077 1.44212C6.84867 1.59625 6.53063 1.85725 6.30687 2.19213C6.08311 2.52701 5.96368 2.92072 5.96368 3.32347C5.9656 3.86296 6.18076 4.37981 6.56224 4.76128C6.94372 5.14276 7.46056 5.35792 8.00005 5.35984ZM8.00005 2.23256C8.21581 2.23256 8.42672 2.29655 8.60612 2.41642C8.78552 2.53629 8.92535 2.70666 9.00792 2.906C9.09048 3.10534 9.11209 3.32468 9.06999 3.5363C9.0279 3.74792 8.924 3.9423 8.77144 4.09486C8.61887 4.24743 8.42449 4.35133 8.21287 4.39342C8.00126 4.43551 7.78191 4.41391 7.58257 4.33134C7.38324 4.24877 7.21286 4.10895 7.09299 3.92955C6.97312 3.75015 6.90914 3.53924 6.90914 3.32347C6.90914 3.03415 7.02407 2.75667 7.22866 2.55208C7.43324 2.3475 7.71072 2.23256 8.00005 2.23256ZM10.7564 4.64711C11.359 5.05002 11.8665 5.57959 12.2433 6.19886C12.6202 6.81813 12.8573 7.51218 12.9382 8.23256C12.9508 8.34506 13.0046 8.44891 13.0892 8.52411C13.1738 8.59932 13.2832 8.64054 13.3964 8.63984C13.5225 8.63985 13.6435 8.59028 13.7333 8.50183C13.8231 8.41338 13.8745 8.29315 13.8764 8.16711V8.10893C13.7802 7.2789 13.5086 6.47881 13.0798 5.76163C12.651 5.04446 12.0747 4.42658 11.3891 3.94893C11.3573 3.91657 11.3205 3.88955 11.28 3.86893C11.2089 3.82874 11.129 3.80629 11.0473 3.80347C10.9846 3.80347 10.9226 3.81593 10.8647 3.84014C10.8069 3.86435 10.7544 3.89982 10.7105 3.94449C10.6665 3.98916 10.6318 4.04214 10.6085 4.10033C10.5851 4.15853 10.5736 4.22079 10.5746 4.28347C10.5745 4.35483 10.5917 4.42513 10.6246 4.48844C10.6575 4.55174 10.7052 4.60617 10.7637 4.64711H10.7564ZM2.58914 8.63257C2.7103 8.63095 2.82637 8.58357 2.91405 8.49994C3.00173 8.41631 3.05453 8.3026 3.06187 8.18166C3.14764 7.47682 3.38353 6.79856 3.75362 6.19261C4.12372 5.58666 4.61942 5.06709 5.20732 4.66893C5.27522 4.62807 5.33157 4.57056 5.37103 4.50183C5.41048 4.4331 5.43174 4.35544 5.43278 4.2762C5.43087 4.15016 5.37945 4.02993 5.28964 3.94148C5.19983 3.85303 5.07883 3.80346 4.95277 3.80347C4.8241 3.80492 4.70122 3.85721 4.61096 3.94893C3.94972 4.42128 3.39281 5.0247 2.9749 5.72163C2.557 6.41855 2.28705 7.19405 2.18187 7.99984C2.15861 8.05002 2.14622 8.10454 2.1455 8.15984C2.14859 8.27933 2.1955 8.39352 2.2773 8.48068C2.3591 8.56785 2.47008 8.6219 2.58914 8.63257ZM10.5964 13.0907C10.5047 13.0933 10.4159 13.1237 10.3419 13.178C9.62355 13.574 8.81666 13.7817 7.99641 13.7817C7.17617 13.7817 6.36928 13.574 5.65096 13.178C5.57966 13.1238 5.4932 13.0933 5.40368 13.0907C5.29223 13.0948 5.1858 13.1382 5.10323 13.2132C5.02065 13.2881 4.96724 13.3899 4.95245 13.5004C4.93765 13.611 4.96241 13.7232 5.02236 13.8173C5.08231 13.9113 5.17359 13.9811 5.28005 14.0144C6.11643 14.4632 7.05086 14.698 8.00005 14.698C8.94923 14.698 9.88367 14.4632 10.72 14.0144C10.8265 13.9811 10.9178 13.9113 10.9777 13.8173C11.0377 13.7232 11.0624 13.611 11.0476 13.5004C11.0329 13.3899 10.9794 13.2881 10.8969 13.2132C10.8143 13.1382 10.7079 13.0948 10.5964 13.0907Z" />
</svg>
