<svg width="24" height="24" viewBox="0 0 24 24" xmlns="http://www.w3.org/2000/svg">
<g id="Frame">
<path id="Vector" d="M19.6875 4.5H18.375V2.8125C18.375 2.50078 18.1242 2.25 17.8125 2.25H3.9375C3.62578 2.25 3.375 2.50078 3.375 2.8125V9.1875C3.375 9.49922 3.62578 9.75 3.9375 9.75H17.8125C18.1242 9.75 18.375 9.49922 18.375 9.1875V6H19.125V10.6875H10.8984C10.3805 10.6875 9.96094 11.107 9.96094 11.625V14.8125H8.92969C8.82656 14.8125 8.74219 14.8969 8.74219 15V20.3438C8.74219 20.3695 8.74688 20.3953 8.75625 20.4164C8.74688 20.4539 8.74219 20.4914 8.74219 20.5312C8.74219 21.6187 9.62344 22.5 10.7109 22.5C11.7984 22.5 12.6797 21.6187 12.6797 20.5312C12.6797 20.4914 12.675 20.4539 12.6656 20.4164C12.675 20.393 12.6797 20.3695 12.6797 20.3438V15C12.6797 14.8969 12.5953 14.8125 12.4922 14.8125H11.4609V12.1875H19.6875C20.2055 12.1875 20.625 11.768 20.625 11.25V5.4375C20.625 4.91953 20.2055 4.5 19.6875 4.5Z"/>
</g>
</svg>
