<svg width="24" height="24" viewBox="0 0 24 24" xmlns="http://www.w3.org/2000/svg">
<g id="Frame">
<path id="Vector" d="M19.6875 4.5H18.375V2.8125C18.375 2.50078 18.1242 2.25 17.8125 2.25H3.9375C3.62578 2.25 3.375 2.50078 3.375 2.8125V9.1875C3.375 9.49922 3.62578 9.75 3.9375 9.75H17.8125C18.1242 9.75 18.375 9.49922 18.375 9.1875V6H19.125V10.6875H10.8984C10.3805 10.6875 9.96094 11.107 9.96094 11.625V14.8125H8.92969C8.82656 14.8125 8.74219 14.8969 8.74219 15V20.3438C8.74219 20.3578 8.74453 20.3742 8.74688 20.3883C8.74453 20.4352 8.74219 20.4844 8.74219 20.5312C8.74219 21.6187 9.62344 22.5 10.7109 22.5C11.7984 22.5 12.6797 21.6187 12.6797 20.5312C12.6797 20.482 12.6773 20.4352 12.675 20.3883C12.6773 20.3742 12.6797 20.3602 12.6797 20.3438V15C12.6797 14.8969 12.5953 14.8125 12.4922 14.8125H11.4609V12.1875H19.6875C20.2055 12.1875 20.625 11.768 20.625 11.25V5.4375C20.625 4.91953 20.2055 4.5 19.6875 4.5ZM16.875 8.25H4.875V3.75H16.875V8.25ZM11.1797 20.5312C11.1797 20.7891 10.9688 21 10.7109 21C10.4531 21 10.2422 20.7891 10.2422 20.5312V16.3125H11.1797V20.5312Z"/>
</g>
</svg>
