<svg width="16" height="16" viewBox="0 0 16 16" xmlns="http://www.w3.org/2000/svg">
<rect opacity="0.01" width="16" height="16" />
<path d="M13.3531 4.51094C13.4469 4.60469 13.5 4.73125 13.5 4.86406V14.5C13.5 14.7766 13.2766 15 13 15H3C2.72344 15 2.5 14.7766 2.5 14.5V1.5C2.5 1.22344 2.72344 1 3 1H9.63594C9.76875 1 9.89688 1.05313 9.99063 1.14688L13.3531 4.51094ZM12.3469 5.09375L9.40625 2.15313V5.09375H12.3469ZM9.89402 9.95712C9.65692 9.94948 9.40473 9.96759 9.11823 10.0034C8.73858 9.76927 8.48302 9.44747 8.30145 8.97489C8.30583 8.95689 8.31489 8.91961 8.31806 8.90645C8.32547 8.87586 8.33161 8.8503 8.33748 8.82544C8.40456 8.54216 8.44084 8.33547 8.45155 8.12708C8.45964 7.96967 8.45092 7.82445 8.423 7.68995C8.37147 7.39958 8.16591 7.22975 7.90705 7.21923C7.6657 7.20944 7.44378 7.34412 7.38703 7.55319C7.29464 7.89087 7.34875 8.33553 7.54453 9.09353C7.29509 9.68816 6.96559 10.3851 6.74448 10.7738C6.44941 10.926 6.21942 11.0645 6.02647 11.218C5.77173 11.4206 5.61272 11.6288 5.56887 11.8478C5.5477 11.949 5.57969 12.0816 5.65263 12.1902C5.73538 12.3133 5.86016 12.3931 6.00973 12.4048C6.38711 12.4341 6.85083 12.045 7.3627 11.1664C7.41419 11.1493 7.46864 11.1311 7.53498 11.1087C7.57128 11.0965 7.69848 11.0534 7.72108 11.0458C7.83859 11.0061 7.92389 10.9777 8.0082 10.9502C8.37377 10.8313 8.65033 10.756 8.90211 10.7133C9.33919 10.9473 9.84455 11.1007 10.1849 11.1007C10.4658 11.1007 10.6556 10.9551 10.7242 10.726C10.7845 10.5246 10.7366 10.2912 10.6074 10.1622C10.4737 10.0308 10.2277 9.96789 9.89402 9.95712ZM6.01925 11.9637V11.9581L6.02122 11.9528C6.04114 11.8993 6.07055 11.8433 6.10872 11.7847C6.17566 11.6819 6.26767 11.5737 6.38172 11.4587C6.44297 11.3969 6.50675 11.3368 6.58156 11.2693C6.59833 11.2542 6.70516 11.159 6.72514 11.1404L6.89977 10.9778L6.77289 11.1799C6.5803 11.4867 6.40633 11.7077 6.25706 11.8518C6.20227 11.9047 6.15394 11.944 6.11502 11.9691C6.09897 11.9794 6.08508 11.987 6.07419 11.9913C6.0678 11.9939 6.06214 11.9955 6.05653 11.996C6.0506 11.9967 6.04458 11.9959 6.03908 11.9935C6.0332 11.9911 6.02817 11.9869 6.02464 11.9816C6.02112 11.9763 6.01924 11.9701 6.01925 11.9637ZM7.98697 8.55323L7.95166 8.61584L7.92994 8.54733C7.88128 8.39375 7.84577 8.16231 7.83594 7.95363C7.82475 7.71617 7.84359 7.57358 7.91853 7.57358C8.02384 7.57358 8.07214 7.74245 8.07597 7.99628C8.07934 8.21941 8.04425 8.45162 7.98697 8.55323ZM7.89619 9.46673L7.92016 9.40345L7.95278 9.46275C8.13544 9.7947 8.37244 10.0716 8.63306 10.2645L8.68923 10.3061L8.6208 10.3203C8.36567 10.373 8.12792 10.4524 7.80298 10.5834C7.83695 10.5697 7.46513 10.7219 7.37114 10.7579L7.28908 10.7894L7.33286 10.7132C7.52583 10.3773 7.70408 9.97372 7.89617 9.46673H7.89619ZM10.3591 10.6583C10.2362 10.7068 9.97195 10.6635 9.50645 10.4648L9.38831 10.4143L9.51642 10.4049C9.88041 10.3779 10.1384 10.398 10.2886 10.453C10.3525 10.4764 10.3953 10.5059 10.4142 10.5398C10.4347 10.5763 10.4253 10.6149 10.3929 10.6383C10.3859 10.645 10.3749 10.6521 10.3591 10.6583Z" />
</svg>
