<svg width="24" height="24" viewBox="0 0 24 24" xmlns="http://www.w3.org/2000/svg">
<g id="phone-fill">
<rect id="&#231;&#159;&#169;&#229;&#189;&#162;" opacity="0.01" width="24" height="24"/>
<path id="&#232;&#183;&#175;&#229;&#190;&#132;" d="M20.7563 5.39531L18.2602 2.90156C17.9016 2.54297 17.4211 2.34375 16.9172 2.34375C16.4086 2.34375 15.9305 2.54297 15.5719 2.90156L12.8859 5.5875C12.5273 5.94609 12.3281 6.42656 12.3281 6.93047C12.3281 7.43906 12.5273 7.91719 12.8859 8.27578L14.85 10.2398C14.3883 11.257 13.7531 12.1711 12.9633 12.9609C12.1758 13.7531 11.2594 14.3883 10.2422 14.8547L8.27812 12.8906C7.91953 12.532 7.43906 12.3328 6.93516 12.3328C6.42656 12.3328 5.94844 12.532 5.58984 12.8906L2.90156 15.5742C2.54297 15.9328 2.34375 16.4133 2.34375 16.9195C2.34375 17.4281 2.54297 17.9062 2.90156 18.2648L5.39297 20.7563C5.96484 21.3305 6.75469 21.6562 7.56563 21.6562C7.73672 21.6562 7.90078 21.6422 8.0625 21.6141C11.2219 21.0938 14.3555 19.4133 16.8844 16.8867C19.4109 14.3625 21.0891 11.2312 21.6164 8.0625C21.7758 7.09453 21.4547 6.09844 20.7563 5.39531Z"/>
</g>
</svg>
