<svg width="24" height="24" viewBox="0 0 24 24" xmlns="http://www.w3.org/2000/svg">
<g id="Frame">
<path id="Vector" d="M21.5088 3.48751L20.515 2.49376C20.4775 2.45626 20.4307 2.43985 20.3814 2.43985C20.3322 2.43985 20.2854 2.4586 20.2479 2.49376L18.4643 4.27735C17.6744 3.74063 16.7557 3.47344 15.8369 3.47344C14.6369 3.47344 13.4369 3.93047 12.5205 4.84688L10.1322 7.23516C10.0596 7.30782 10.0596 7.42735 10.1322 7.50001L16.5002 13.868C16.5377 13.9055 16.5846 13.9219 16.6338 13.9219C16.6807 13.9219 16.7299 13.9031 16.7674 13.868L19.1557 11.4797C20.7705 9.8625 20.9604 7.36172 19.7252 5.53829L21.5088 3.75469C21.5814 3.67969 21.5814 3.56016 21.5088 3.48751ZM13.5682 12.8133C13.4955 12.7406 13.376 12.7406 13.3033 12.8133L11.7424 14.3742L9.62598 12.2578L11.1893 10.6945C11.2619 10.6219 11.2619 10.5023 11.1893 10.4297L10.3361 9.57657C10.2635 9.50391 10.1439 9.50391 10.0713 9.57657L8.50801 11.1398L7.5002 10.132C7.4627 10.0945 7.41582 10.0781 7.3666 10.0781C7.31973 10.0781 7.27051 10.0969 7.23301 10.132L4.84707 12.5203C3.23223 14.1352 3.04238 16.6383 4.27754 18.4617L2.49395 20.2453C2.42129 20.318 2.42129 20.4375 2.49395 20.5102L3.4877 21.5039C3.5252 21.5414 3.57207 21.5578 3.62129 21.5578C3.67051 21.5578 3.71738 21.5391 3.75488 21.5039L5.53848 19.7203C6.32832 20.257 7.24707 20.5242 8.16582 20.5242C9.36582 20.5242 10.5658 20.0672 11.4822 19.1508L13.8705 16.7625C13.9432 16.6898 13.9432 16.5703 13.8705 16.4977L12.8627 15.4899L14.426 13.9266C14.4986 13.8539 14.4986 13.7344 14.426 13.6617L13.5682 12.8133Z"/>
</g>
</svg>
