<svg width="16" height="16" viewBox="0 0 16 16" xmlns="http://www.w3.org/2000/svg">
  <g>
    <path
      d="M5.26434,4L6.5535,4Q6.65199,4,6.74859,3.980785Q6.84519,3.96157,6.93618,3.923879Q7.02718,3.8861879999999998,7.10907,3.83147Q7.19096,3.776751,7.26061,3.707107Q7.33025,3.637463,7.38497,3.55557Q7.43969,3.473678,7.47738,3.382683Q7.51507,3.291689,7.53428,3.19509Q7.5535,3.0984914,7.5535,3Q7.5535,2.9015086,7.53428,2.80491Q7.51507,2.708311,7.47738,2.617317Q7.43969,2.526322,7.38497,2.44443Q7.33025,2.362537,7.26061,2.292893Q7.19096,2.223249,7.10907,2.16853Q7.02718,2.1138120000000002,6.93618,2.076121Q6.84519,2.03843,6.74859,2.019215Q6.65199,2,6.5535,2L3.95305,2L0.82487,9.1948L6.31087,15.2189L15.1403,11.069L14.4572,7.79599L14.4572,7.79571Q14.4397,7.71199,14.4083,7.63245Q14.3768,7.55291,14.3323,7.47987Q14.2879,7.40683,14.2316,7.3424Q14.1754,7.27797,14.109,7.22402Q14.0427,7.17008,13.9681,7.12818Q13.8935,7.08629,13.8129,7.05767Q13.7324,7.02905,13.6481,7.01452Q13.5638,7,13.4783,7L13.4777,7Q13.3748,7.00006,13.274,7.02109Q13.1902,7.03856,13.1107,7.07Q13.0312,7.10143,12.9581,7.14591Q12.8851,7.1904,12.8207,7.24664Q12.7562,7.30288,12.7023,7.36924Q12.6483,7.43561,12.6064,7.51017Q12.5646,7.58473,12.5359,7.66532Q12.5073,7.74591,12.4928,7.8302Q12.4783,7.91448,12.4783,8L12.4783,8.00055Q12.4783,8.10351,12.4994,8.20429L12.4994,8.20458L12.8597,9.931000000000001L6.79585,12.78108L3.1751300000000002,8.8052L5.26434,4Z"
      fill-rule="evenodd" fill-opacity="1" />
    <path
      d="M9,5L13,5Q13.09849,5,13.19509,4.980785Q13.29169,4.96157,13.38268,4.923879Q13.47368,4.886188,13.55557,4.83147Q13.63746,4.776751,13.70711,4.707107Q13.77675,4.637463,13.83147,4.55557Q13.88619,4.473678,13.92388,4.382683Q13.96157,4.291689,13.98078,4.19509Q14,4.0984914,14,4Q14,3.9015086,13.98078,3.80491Q13.96157,3.708311,13.92388,3.617317Q13.88619,3.526322,13.83147,3.44443Q13.77675,3.362537,13.70711,3.292893Q13.63746,3.223249,13.55557,3.16853Q13.47368,3.1138120000000002,13.38268,3.076121Q13.29169,3.03843,13.19509,3.019215Q13.09849,3,13,3L9,3Q8.9015086,3,8.80491,3.019215Q8.708311,3.03843,8.617317,3.076121Q8.526322,3.1138120000000002,8.44443,3.16853Q8.362537,3.223249,8.292893,3.292893Q8.223249,3.362537,8.16853,3.44443Q8.113812,3.526322,8.076121,3.617317Q8.03843,3.708311,8.019214999999999,3.80491Q8,3.9015086,8,4Q8,4.0984914,8.019214999999999,4.19509Q8.03843,4.291689,8.076121,4.382683Q8.113812,4.473678,8.16853,4.55557Q8.223249,4.637463,8.292893,4.707107Q8.362537,4.776751,8.44443,4.83147Q8.526322,4.886188,8.617317,4.923879Q8.708311,4.96157,8.80491,4.980785Q8.9015086,5,9,5Z"
      fill-rule="evenodd" fill-opacity="1" />
    <g transform="matrix(0,1,1,0,9,-9)">
      <path
        d="M11,3L15,3Q15.09849,3,15.19509,2.980785Q15.29169,2.96157,15.38268,2.923879Q15.47368,2.8861879999999998,15.55557,2.83147Q15.63746,2.776751,15.70711,2.707107Q15.77675,2.637463,15.83147,2.55557Q15.88619,2.473678,15.92388,2.382683Q15.96157,2.291689,15.98078,2.19509Q16,2.0984914,16,2Q16,1.9015086,15.98078,1.80491Q15.96157,1.7083110000000001,15.92388,1.617317Q15.88619,1.526322,15.83147,1.44443Q15.77675,1.362537,15.70711,1.2928929999999998Q15.63746,1.223249,15.55557,1.16853Q15.47368,1.113812,15.38268,1.076121Q15.29169,1.03843,15.19509,1.019215Q15.09849,1,15,1L11,1Q10.9015086,1,10.80491,1.019215Q10.708311,1.03843,10.617317,1.076121Q10.526322,1.113812,10.44443,1.16853Q10.362537,1.223249,10.292893,1.2928929999999998Q10.223249,1.362537,10.16853,1.44443Q10.113812,1.526322,10.076121,1.617317Q10.03843,1.7083110000000001,10.019214999999999,1.80491Q10,1.9015086,10,2Q10,2.0984914,10.019214999999999,2.19509Q10.03843,2.291689,10.076121,2.382683Q10.113812,2.473678,10.16853,2.55557Q10.223249,2.637463,10.292893,2.707107Q10.362537,2.776751,10.44443,2.83147Q10.526322,2.8861879999999998,10.617317,2.923879Q10.708311,2.96157,10.80491,2.980785Q10.9015086,3,11,3Z"
        fill-rule="evenodd" fill-opacity="1" />
    </g>
  </g>
</svg>
