<svg xmlns="http://www.w3.org/2000/svg" xmlns:xlink="http://www.w3.org/1999/xlink" version="1.1"
  width="16" height="16" viewBox="0 0 16 16">
  <defs>
    <clipPath id="master_svg0_42_33289">
      <rect x="0" y="0" width="16" height="16" rx="0" />
    </clipPath>
    <clipPath id="master_svg1_42_05681">
      <rect x="0" y="0" width="16" height="16" rx="0" />
    </clipPath>
  </defs>
  <g clip-path="url(#master_svg0_42_33289)">
    <g clip-path="url(#master_svg1_42_05681)">
      <g>
        <path
          d="M8.3333740234375,1C8.517464023437501,1,8.6667040234375,1.149238,8.6667040234375,1.333333L8.6667040234375,2C8.6667040234375,2.1840900000000003,8.517464023437501,2.33333,8.3333740234375,2.33333L2.6667040234375,2.33333L2.6667040234375,13.6667L8.3333740234375,13.6667C8.5174740234375,13.6667,8.6667040234375,13.8159,8.6667040234375,14L8.6667040234375,14.6667C8.6667040234375,14.8508,8.5174740234375,15,8.3333740234375,15L2.6667040234375,15C1.9562410234374998,15,1.3705645234375,14.4429,1.3350405834375,13.7333L1.3333740234375,13.6667L1.3333740234375,2.33333C1.3333735656735,1.6228660000000001,1.8904620234375,1.0371894,2.6000440234375,1.00166656L2.6667040234375,1L8.3333740234375,1ZM11.3736740234375,4.431L14.2356740234375,7.293C14.6080740234375,7.66544,14.6277740234375,8.26286,14.2806740234375,8.658999999999999L14.2356740234375,8.707L11.3736740234375,11.569C11.2435440234375,11.6991,11.0325440234375,11.6991,10.9023740234375,11.569L10.4310440234375,11.0977C10.3009140234375,10.9675,10.3009140234375,10.7565,10.4310440234375,10.62633L12.3900740234375,8.66667L5.6667040234375,8.66667C5.4826140234375,8.66667,5.3333740234375,8.517430000000001,5.3333740234375,8.33333L5.3333740234375,7.66667C5.3333740234375,7.48257,5.4826140234375,7.33333,5.6667040234375,7.33333L12.3900740234375,7.33333L10.4310440234375,5.37367C10.3009140234375,5.2435,10.3009140234375,5.0325,10.4310440234375,4.90233L10.9023740234375,4.431C11.0325440234375,4.30087,11.2435340234375,4.30087,11.3736740234375,4.431Z"
        />
      </g>
    </g>
  </g>
</svg>
