<svg xmlns="http://www.w3.org/2000/svg" xmlns:xlink="http://www.w3.org/1999/xlink"
  version="1.1" width="20" height="20" viewBox="0 0 20 20">
  <defs>
    <clipPath id="master_svg0_67_02106">
      <rect x="0" y="0" width="20" height="20" rx="0" />
    </clipPath>
    <clipPath id="master_svg1_67_02107">
      <rect x="0" y="0" width="20" height="20" rx="0" />
    </clipPath>
  </defs>
  <g clip-path="url(#master_svg0_67_02106)">
    <g clip-path="url(#master_svg1_67_02107)">
      <g>
        <path
          d="M16.875,3.75L3.125,3.75C2.78125,3.75,2.5,4.03125,2.5,4.375C2.5,4.71875,2.78125,5,3.125,5L16.875,5C17.2188,5,17.5,4.71875,17.5,4.375C17.5,4.03125,17.2188,3.75,16.875,3.75ZM17.5,15.625C17.5,15.7875,17.4375,15.9438,17.3188,16.0688C17.075499999999998,16.3125,16.6807,16.3125,16.4375,16.0688L10.625,10.25625C10.4625,10.09375,10.23125,10,10,10C9.76875,10,9.5375,10.09375,9.375,10.25625L3.56875,16.0625C3.325455,16.3062,2.930643,16.3063,2.68716,16.0628C2.4436764,15.8194,2.4438288,15.4245,2.6875,15.1813L8.49375,9.375C8.89375,8.96875,9.43125,8.75,10,8.75C10.56875,8.75,11.10625,8.96875,11.50625,9.375L17.3125,15.1813C17.4375,15.3063,17.5,15.4625,17.5,15.625Z"
          fill-opacity="1" style="mix-blend-mode:passthrough" />
      </g>
    </g>
  </g>
</svg>
