<svg width="24" height="24" viewBox="0 0 24 24" xmlns="http://www.w3.org/2000/svg">
<g id="Frame">
<path id="Vector" d="M20.25 17.25C20.25 14.6344 18.7172 12.375 16.5 11.3227V7.43672C16.5 7.08281 16.3758 6.74063 16.1461 6.47109L12.5742 2.23594C12.4242 2.05781 12.2109 1.96875 12 1.96875C11.7891 1.96875 11.5758 2.05781 11.4258 2.23594L7.85391 6.47109C7.62656 6.74063 7.5 7.08281 7.5 7.43672V11.3227C5.28281 12.375 3.75 14.6344 3.75 17.25H7.41797C7.36406 17.4187 7.33594 17.6016 7.33594 17.8078C7.33594 18.3258 7.51406 18.832 7.8375 19.2328C8.10234 19.5609 8.45156 19.8094 8.84766 19.95C9.38906 21.2156 10.6195 22.0312 12 22.0312C12.682 22.0312 13.343 21.8297 13.9078 21.45C14.4609 21.0797 14.8898 20.5617 15.15 19.95C15.5461 19.8094 15.8953 19.5633 16.1602 19.2352C16.4836 18.832 16.6617 18.3258 16.6617 17.8102C16.6617 17.6133 16.6359 17.4258 16.5891 17.2523L20.25 17.25ZM12 8.25C12.6211 8.25 13.125 8.75391 13.125 9.375C13.125 9.99609 12.6211 10.5 12 10.5C11.3789 10.5 10.875 9.99609 10.875 9.375C10.875 8.75391 11.3789 8.25 12 8.25ZM14.7211 18.3797C14.5992 18.45 14.4586 18.4781 14.3203 18.4594L13.8633 18.4031L13.7977 18.8578C13.6711 19.7461 12.8977 20.4164 12 20.4164C11.1023 20.4164 10.3289 19.7461 10.2023 18.8578L10.1367 18.4008L9.67969 18.4594C9.65625 18.4617 9.63047 18.4641 9.60234 18.4641C9.4875 18.4641 9.37734 18.4336 9.27891 18.3773C9.075 18.2602 8.94844 18.0422 8.94844 17.8055C8.94844 17.557 9.08672 17.3508 9.29062 17.2477H14.7117C14.918 17.3531 15.0539 17.5594 15.0539 17.8055C15.0516 18.0445 14.925 18.2648 14.7211 18.3797Z"/>
</g>
</svg>
