<svg width="24" height="24" viewBox="0 0 24 24" xmlns="http://www.w3.org/2000/svg">
<g id="Frame">
<path id="Vector" d="M19.77 17.2828C19.4794 15.5203 17.9138 14.257 16.1302 14.3438C14.3466 14.4305 12.9122 15.8438 12.7974 17.625C9.1997 17.5125 7.92236 16.6711 8.13095 14.9602C8.20829 14.3203 8.59501 13.9781 9.30517 13.8117C9.73642 13.7109 10.2145 13.6969 10.6481 13.7367C10.688 13.7414 10.7302 13.7438 10.77 13.7484C11.0349 13.8117 11.3044 13.8656 11.5739 13.9078C12.3731 14.0391 13.1864 14.1047 13.9599 14.0625C16.1349 13.9453 17.6161 12.9867 17.6911 10.9524C17.7638 8.98126 16.4091 7.58439 14.2247 6.64923C13.5239 6.34923 12.7809 6.1172 12.038 5.94142C11.7028 5.86173 11.4216 5.80783 11.213 5.77267C11.0278 3.99376 9.5372 2.63673 7.74892 2.62267C5.96064 2.60861 4.44658 3.93751 4.23095 5.71408C4.01533 7.49064 5.16845 9.14298 6.90751 9.55548C8.64658 9.96798 10.4208 9.00939 11.0255 7.32658C11.2458 7.36642 11.4638 7.41095 11.6817 7.46251C12.3427 7.6172 13.0036 7.82345 13.613 8.08595C15.27 8.79376 16.1747 9.72892 16.1325 10.8961C16.095 11.9414 15.345 12.4242 13.8778 12.5039C13.2333 12.5391 12.5278 12.4828 11.8317 12.368C11.6372 12.3352 11.4591 12.3024 11.302 12.2672C11.2106 12.2485 11.1474 12.232 11.1192 12.225L11.0466 12.2109C10.995 12.2039 10.9083 12.1922 10.7958 12.1805C10.2099 12.1266 9.5747 12.1453 8.95595 12.2883C7.6622 12.5906 6.75517 13.3945 6.58642 14.768C6.21845 17.7258 8.42861 19.0969 13.0552 19.1953C13.7372 20.8453 15.5489 21.7242 17.2645 21.2344C18.9825 20.7445 20.0606 19.0453 19.77 17.2828ZM7.71376 8.09064C6.63564 8.09064 5.76142 7.21642 5.76142 6.13829C5.76142 5.06017 6.63564 4.18595 7.71376 4.18595C8.79189 4.18595 9.66611 5.06017 9.66611 6.13829C9.66611 7.21642 8.79189 8.09064 7.71376 8.09064ZM16.3036 19.8047C15.2255 19.8047 14.3513 18.9305 14.3513 17.8524C14.3513 16.7742 15.2255 15.9 16.3036 15.9C17.3817 15.9 18.256 16.7742 18.256 17.8524C18.256 18.9305 17.3817 19.8047 16.3036 19.8047Z"/>
</g>
</svg>
