<svg width="16" height="16" viewBox="0 0 16 16" xmlns="http://www.w3.org/2000/svg">
  <g>
    <path
      d="M4.6663378125,15.6666740234375Q4.8652578124999994,15.6666740234375,5.0490278125,15.5905740234375Q5.232797812499999,15.5144740234375,5.3734478125,15.3737740234375L15.3734078125,5.3738140234375Q15.4431078125,5.3041740234375006,15.4978078125,5.2222740234375Q15.5525078125,5.1403840234375,15.5902078125,5.0493940234375Q15.6279078125,4.9583940234375,15.6471078125,4.861794023437501Q15.6663078125,4.7651940234375,15.6663078125,4.6667040234375Q15.6663078125,4.5682140234375,15.6471078125,4.4716140234375Q15.6279078125,4.3750140234375,15.5902078125,4.2840240234374996Q15.5525078125,4.1930340234375,15.4978078125,4.1111340234375Q15.4431078125,4.0292440234375,15.3734078125,3.9596040234375L12.0401078125,0.6262670234375Q11.8995078125,0.48561502343749996,11.7157078125,0.40949402343749997Q11.5319078125,0.3333740234375,11.3330078125,0.3333740234375Q11.1340978125,0.3333740234375,10.9503278125,0.40949402343749997Q10.7665578125,0.48561502343749996,10.6258978125,0.6262670234375L8.1258978125,3.1262640234375L5.6258978125,5.6262640234375L3.1258978125,8.1262640234375L0.6259008125,10.6262640234375Q0.48524881249999996,10.7669240234375,0.40912781249999997,10.9506940234375Q0.3330078125,11.1344640234375,0.3330078125,11.3333740234375Q0.3330078125,11.5322740234375,0.40912781249999997,11.7160740234375Q0.48524881249999996,11.8998740234375,0.6259008125,12.0404740234375L3.9592378125,15.3737740234375Q4.0998878125000005,15.5144740234375,4.2836578124999996,15.5905740234375Q4.4674278125,15.6666740234375,4.6663378125,15.6666740234375ZM4.6663378125,13.2524740234375L13.2521078125,4.6667040234375L11.3330078125,2.7475840234374997L9.5401178125,4.5404840234375L7.0401178125,7.0404840234375L4.5401178125,9.5404840234375L2.7472178124999997,11.3333740234375L4.6663378125,13.2524740234375Z"
      fill-rule="evenodd" fill-opacity="1" />
    <path
      d="M10.7897378125,3.2908560234375L10.7901178125,3.2904810234375Q10.9307678125,3.1498290234375,11.0068878125,2.9660570234375Q11.0830078125,2.7822860234375,11.0830078125,2.5833740234375Q11.0830078125,2.3844620234375,11.0068878125,2.2006910234375Q10.9307678125,2.0169190234375,10.7901178125,1.8762670234374998L10.7895378125,1.8756950234375Q10.7855378125,1.8716940234375001,10.7814778125,1.8677390234375L10.7809078125,1.8671740234375Q10.6408478125,1.7307000234375,10.4597078125,1.6570370234375Q10.2785578125,1.5833740234375,10.0830078125,1.5833740234375Q9.8840978125,1.5833740234375,9.7003278125,1.6594940234375Q9.5165578125,1.7356150234375,9.3758978125,1.8762670234374998L9.3755278125,1.8766420234374999L1.8762758124999999,9.3758940234375L1.8759008124999998,9.3762640234375Q1.7352488125,9.5169240234375,1.6591288125,9.7006940234375Q1.5830078125,9.8844640234375,1.5830078125,10.0833740234375Q1.5830078125,10.2822840234375,1.6591278125,10.4660540234375Q1.7352488125,10.6498240234375,1.8759008124999998,10.7904840234375Q2.0165528125,10.9311340234375,2.2003248125,11.0072540234375Q2.3840958125,11.0833740234375,2.5830078125,11.0833740234375Q2.7819198125,11.0833740234375,2.9656908125,11.0072540234375Q3.1494628125,10.9311340234375,3.2901148125,10.7904840234375L3.2904898125,10.7901040234375L10.7897378125,3.2908560234375Z"
      fill-rule="evenodd" fill-opacity="1" />
    <path
      d="M4.625886,11.040099999999999L4.626227,11.04044Q4.766879,11.181090000000001,4.9506499999999996,11.25721Q5.13442,11.33333,5.33333,11.33333Q5.3573699999999995,11.33333,5.38137,11.332180000000001Q5.56761,11.32322,5.7381,11.24775Q5.9086,11.17228,6.04044,11.04044Q6.18109,10.89979,6.257210000000001,10.71602Q6.33333,10.53225,6.33333,10.33333Q6.33333,10.13442,6.257210000000001,9.95065Q6.18109,9.766879,6.04044,9.626227L6.0401,9.625886L4.707107,8.292893Q4.566455,8.152241,4.382683,8.07612Q4.198912,8,4,8Q3.801088,8,3.617317,8.07612Q3.433545,8.152241,3.292893,8.292893Q3.152241,8.433545,3.07612,8.617317Q3,8.801088,3,9Q3,9.198912,3.07612,9.382683Q3.152241,9.566455,3.292893,9.707107L4.625886,11.040099999999999Z"
      fill-rule="evenodd" fill-opacity="1" />
    <path
      d="M6.9588938125,8.373474023437499L6.9592348125,8.3738140234375Q7.0998868125,8.514464023437501,7.2836578124999996,8.5905840234375Q7.4674278125,8.6667040234375,7.6663378125,8.6667040234375Q7.6903778124999995,8.6667040234375,7.7143778125,8.665554023437501Q7.9006178125,8.6565940234375,8.0711078125,8.5811240234375Q8.2416078125,8.5056540234375,8.3734478125,8.3738140234375Q8.514097812500001,8.2331640234375,8.5902178125,8.0493940234375Q8.6663378125,7.8656240234374994,8.6663378125,7.6667040234375Q8.6663378125,7.4677940234375,8.5902178125,7.2840240234374996Q8.514097812500001,7.1002530234375,8.3734478125,6.9596010234375L8.373107812499999,6.9592600234375L7.0401148125,5.6262670234375Q6.8994628125,5.4856150234375,6.7156908125,5.4094940234374995Q6.5319198125,5.3333740234375,6.3330078125,5.3333740234375Q6.1340958125,5.3333740234375,5.9503248125,5.4094940234374995Q5.7665528125,5.4856150234375,5.6259008125,5.6262670234375Q5.4852488125,5.7669190234375,5.4091278124999995,5.9506910234375Q5.3330078125,6.1344620234375,5.3330078125,6.3333740234375Q5.3330078125,6.5322860234375,5.4091278124999995,6.7160570234375Q5.4852488125,6.8998290234375,5.6259008125,7.0404810234375L6.9588938125,8.373474023437499Z"
      fill-rule="evenodd" fill-opacity="1" />
    <path
      d="M9.625886,6.0401L9.626227,6.04044Q9.766879,6.18109,9.95065,6.257210000000001Q10.13442,6.33333,10.33333,6.33333Q10.35737,6.33333,10.38137,6.33218Q10.56761,6.32322,10.7381,6.24775Q10.9086,6.172280000000001,11.04044,6.04044Q11.181090000000001,5.89979,11.25721,5.71602Q11.33333,5.5322499999999994,11.33333,5.33333Q11.33333,5.13442,11.25721,4.9506499999999996Q11.181090000000001,4.766879,11.04044,4.626227L11.040099999999999,4.625886L9.707107,3.292893Q9.566455,3.152241,9.382683,3.07612Q9.198912,3,9,3Q8.801088,3,8.617317,3.07612Q8.433545,3.152241,8.292893,3.292893Q8.152241,3.433545,8.07612,3.617317Q8,3.801088,8,4Q8,4.198912,8.07612,4.382683Q8.152241,4.566455,8.292893,4.707107L9.625886,6.0401Z"
      fill-rule="evenodd" fill-opacity="1" />
  </g>
</svg>
