<svg width="16" height="16" viewBox="0 0 16 16" xmlns="http://www.w3.org/2000/svg">
<path d="M2.01695 9.34008C2.01695 11.2457 3.15146 12.9696 4.90502 13.7286L7.68185 14.9304C7.77246 14.9696 7.87057 14.9886 7.96933 14.9861C8.06808 14.9835 8.16508 14.9595 8.25354 14.9157L11.0475 13.5319C12.8458 12.6412 13.9831 10.8122 13.9831 8.81049V2.71566C13.0924 2.63869 12.2173 2.53968 11.3577 2.41861C10.2432 2.26162 9.12659 1.81287 8.0091 1.08389C6.92503 1.80717 5.80085 2.2554 4.64229 2.41861C3.75219 2.54399 2.87707 2.64362 2.01695 2.71749V9.34008ZM1.47012 1.74458C2.45876 1.67003 3.46873 1.56013 4.5 1.41487C5.56158 1.26534 6.60056 0.834649 7.61697 0.122835C7.72988 0.0437565 7.86432 0.000907894 8.00231 1.42676e-05C8.1403 -0.000879358 8.27528 0.0402245 8.38922 0.117834C9.44888 0.839667 10.4858 1.27202 11.5 1.41488C12.4886 1.55413 13.4989 1.66363 14.5308 1.74336C14.7956 1.76385 15 1.98396 15 2.2487V8.81049C15 11.1971 13.6441 13.3778 11.5 14.4397L8.70603 15.8235C8.48488 15.9331 8.24238 15.9931 7.99551 15.9994C7.74864 16.0058 7.50337 15.9583 7.27685 15.8602L4.5 14.6584C2.3749 13.7387 1 11.6495 1 9.34008V2.25C1 1.98491 1.20493 1.76458 1.47012 1.74458Z" />
<path d="M6.75593 9.47309L10.9474 5.18477C11.1883 4.93827 11.5788 4.93843 11.8195 5.18513C12.0603 5.43191 12.0602 5.83192 11.8191 6.0785L7.18943 10.8152C6.9477 11.0625 6.5557 11.0614 6.3153 10.8128L4.17848 8.60253C3.93878 8.35458 3.94077 7.95459 4.18291 7.70916C4.42497 7.46383 4.81538 7.46586 5.055 7.71372L6.75595 9.47307L6.75593 9.47309Z" />
</svg>
