<svg xmlns="http://www.w3.org/2000/svg" xmlns:xlink="http://www.w3.org/1999/xlink"
  version="1.1" width="20" height="20" viewBox="0 0 20 20">
  <defs>
    <clipPath id="master_svg0_18_7979">
      <rect x="0" y="0" width="20" height="20" rx="0" />
    </clipPath>
  </defs>
  <g clip-path="url(#master_svg0_18_7979)">
    <g>
      <path
        d="M15.053422843313218,0.6416343066749572L17.70082284331322,3.2890583066749572C18.070222843313218,3.6276883066749575,18.070222843313218,4.212578306674957,17.731622843313218,4.551208306674957L13.883622843313217,8.399208306674957C13.545022843313218,8.768618306674957,12.960122843313217,8.768618306674957,12.590722843313218,8.399208306674957L11.697922843313217,7.506478306674957L11.174622843313218,8.029808306674958L12.344422843313216,9.199598306674957C11.636422843313218,9.507438306674958,10.928322843313218,9.999978306674958,10.312722843313217,10.615678306674956C9.697012843313217,11.231378306674957,9.204462843313218,11.939378306674957,8.896622843313217,12.647378306674957L7.726832843313217,11.477578306674957L7.203502843313217,12.000978306674957L8.096242843313217,12.893678306674957C8.465642843313217,13.232278306674957,8.465642843313217,13.817178306674958,8.096242843313217,14.186578306674956L4.248232843313217,18.03457830667496C3.909612843313217,18.403978306674958,3.3247128433132174,18.403978306674958,2.955302843313217,18.03457830667496L0.3078788433132172,15.387178306674958C-0.06152925668678284,15.048578306674957,-0.06152925668678284,14.463678306674957,0.3078788433132172,14.094278306674957L4.155882843313218,10.246258306674957C4.494502843313217,9.876848306674956,5.0794028433132175,9.876848306674956,5.448812843313217,10.246258306674957L6.495472843313217,11.292878306674957L7.0188028433132175,10.769578306674957L6.680172843313217,10.430978306674957C6.187632843313217,9.938408306674956,5.972142843313217,9.322728306674957,5.972142843313217,8.676268306674958C5.294892843313217,7.8450983066749576,5.202542843313217,6.767658306674957,5.818222843313217,6.151978306674957C6.433902843313217,5.536298306674957,7.511342843313217,5.6286483066749575,8.342512843313218,6.305898306674957C8.958192843313217,6.305898306674957,9.604652843313216,6.521388306674957,10.097222843313217,7.013928306674957L10.435822843313217,7.352558306674958L10.959122843313217,6.829228306674957L9.912492843313217,5.782568306674957C9.543092843313216,5.443948306674957,9.543092843313216,4.859048306674957,9.912492843313217,4.489638306674958L13.760522843313217,0.6416343066749572C14.099122843313218,0.2722262066749573,14.684022843313217,0.2722262066749573,15.053422843313218,0.6416343066749572ZM16.808022843313218,9.938438306674957C16.746522843313215,9.876868306674957,16.654122843313218,9.815298306674958,16.592522843313215,9.784518306674958Q16.561822843313216,9.784518306674958,16.561822843313216,9.753728306674958C16.500222843313217,9.722948306674958,16.469422843313218,9.692168306674958,16.407822843313216,9.661378306674957L16.377122843313217,9.661378306674957C14.868622843313217,8.830208306674958,12.529022843313218,9.415108306674957,10.805122843313217,11.138978306674957C9.050472843313218,12.893678306674957,8.496362843313218,15.202478306674957,9.327532843313216,16.710878306674957C9.358312843313216,16.77247830667496,9.389102843313218,16.803278306674958,9.419882843313218,16.864878306674957Q9.419882843313218,16.895578306674956,9.450672843313217,16.895578306674956C9.512232843313218,16.987978306674957,9.573802843313217,17.049578306674956,9.604592843313217,17.11107830667496C10.251022843313217,17.542078306674956,11.697922843313217,16.987978306674957,13.237122843313218,15.756578306674957L12.467522843313217,15.140978306674958C11.544022843313217,15.879778306674957,10.805122843313217,16.279978306674955,10.589722843313217,16.095278306674956C10.312622843313218,15.818178306674957,11.236122843313217,14.432878306674958,12.652222843313217,13.016878306674958C14.068322843313217,11.600778306674957,15.453522843313218,10.677278306674957,15.730622843313217,10.954278306674958C15.915322843313216,11.138978306674957,15.576722843313217,11.785478306674957,14.930222843313217,12.616678306674958L15.545922843313217,13.386278306674956C16.715722843313216,11.908578306674958,17.23902284331322,10.554078306674958,16.808022843313218,9.938438306674957ZM13.114122843313217,14.063478306674957C12.867822843313217,13.878778306674958,12.867822843313217,13.540178306674957,13.083322843313217,13.324678306674958L13.175622843313217,13.232278306674957C13.391122843313218,13.016878306674958,13.729822843313217,13.047578306674957,13.914522843313216,13.263078306674958L14.745622843313217,14.278978306674958C14.800322843313218,14.351778306674957,14.838722843313217,14.435478306674957,14.860222843313217,14.522678306674957C14.937422843313216,14.494178306674957,15.020322843313217,14.478478306674956,15.106322843313217,14.478478306674956C15.498222843313217,14.478478306674956,15.824822843313218,14.761378306674958,15.846322843313217,15.175078306674957C15.846322843313217,15.566978306674958,15.498222843313217,15.871778306674956,15.106322843313217,15.871778306674956C14.671022843313217,15.871778306674956,14.366222843313217,15.566978306674958,14.366222843313217,15.175078306674957C14.370022843313217,15.112178306674958,14.382522843313216,15.050578306674957,14.402622843313218,14.991578306674958C14.316022843313217,14.969178306674957,14.233122843313216,14.927178306674957,14.160722843313216,14.863878306674957L13.114122843313217,14.063478306674957ZM18.785022843313218,14.456878306674957C18.785022843313218,16.764178306674957,16.804022843313216,18.657978306674956,14.366222843313217,18.657978306674956L14.366222843313217,19.659078306674957C17.37022284331322,19.659078306674957,19.829822843313217,17.329978306674956,19.829822843313217,14.456578306674958L18.785022843313218,14.456878306674957ZM16.934822843313217,14.478478306674956C16.934822843313217,15.131678306674957,16.67352284331322,15.740878306674958,16.172922843313216,16.198078306674958C15.693922843313217,16.677078306674957,15.062822843313217,16.916578306674957,14.365922843313218,16.916578306674957L14.365922843313218,17.917978306674957C16.36872284331322,17.917978306674957,17.957822843313217,16.372578306674956,17.979622843313216,14.478478306674956L16.934822843313217,14.478478306674956Z"
        fill-rule="evenodd" fill-opacity="1" />
    </g>
  </g>
</svg>
