<svg width="24" height="24" viewBox="0 0 24 24" xmlns="http://www.w3.org/2000/svg">
<g id="Frame">
<path id="Vector" d="M20.625 4.3125H16.6875V2.8125C16.6875 2.70937 16.6031 2.625 16.5 2.625H15.1875C15.0844 2.625 15 2.70937 15 2.8125V4.3125H9V2.8125C9 2.70937 8.91563 2.625 8.8125 2.625H7.5C7.39687 2.625 7.3125 2.70937 7.3125 2.8125V4.3125H3.375C2.96016 4.3125 2.625 4.64766 2.625 5.0625V20.625C2.625 21.0398 2.96016 21.375 3.375 21.375H20.625C21.0398 21.375 21.375 21.0398 21.375 20.625V5.0625C21.375 4.64766 21.0398 4.3125 20.625 4.3125ZM15.1945 10.0031L13.1391 13.7789H14.2102C14.3391 13.7789 14.4445 13.8844 14.4445 14.0133V14.5125C14.4445 14.6414 14.3391 14.7469 14.2102 14.7469H12.7242V15.443H14.2102C14.3391 15.443 14.4445 15.5484 14.4445 15.6773V16.1766C14.4445 16.3055 14.3391 16.4109 14.2102 16.4109H12.7242V17.625C12.7242 17.7539 12.6188 17.8594 12.4898 17.8594H11.5219C11.393 17.8594 11.2875 17.7539 11.2875 17.625V16.4109H9.80859C9.67969 16.4109 9.57422 16.3055 9.57422 16.1766V15.6773C9.57422 15.5484 9.67969 15.443 9.80859 15.443H11.2875V14.7469H9.80859C9.67969 14.7469 9.57422 14.6414 9.57422 14.5125V14.0133C9.57422 13.8844 9.67969 13.7789 9.80859 13.7789H10.868L8.80547 10.0031C8.74453 9.89062 8.78438 9.74766 8.89922 9.68438C8.93438 9.66563 8.97188 9.65625 9.01172 9.65625H10.0898C10.1789 9.65625 10.2586 9.70547 10.2984 9.78516L12.007 13.1672L13.7227 9.78516C13.7625 9.70547 13.8445 9.65625 13.9313 9.65625H14.9859C15.1148 9.65625 15.2203 9.76172 15.2203 9.89062C15.2227 9.93047 15.2133 9.96797 15.1945 10.0031Z"/>
</g>
</svg>
