<svg width="24" height="24" viewBox="0 0 24 24" xmlns="http://www.w3.org/2000/svg">
<g id="Frame">
<path id="Vector" d="M21.75 5.25H18V3.9375C18 3.83437 17.9156 3.75 17.8125 3.75H16.5C16.3969 3.75 16.3125 3.83437 16.3125 3.9375V5.25H12.8438V3.9375C12.8438 3.83437 12.7594 3.75 12.6562 3.75H11.3438C11.2406 3.75 11.1562 3.83437 11.1562 3.9375V5.25H7.6875V3.9375C7.6875 3.83437 7.60313 3.75 7.5 3.75H6.1875C6.08437 3.75 6 3.83437 6 3.9375V5.25H2.25C1.83516 5.25 1.5 5.58516 1.5 6V19.5C1.5 19.9148 1.83516 20.25 2.25 20.25H21.75C22.1648 20.25 22.5 19.9148 22.5 19.5V6C22.5 5.58516 22.1648 5.25 21.75 5.25ZM20.8125 18.5625H3.1875V6.9375H6V8.25C6 8.35313 6.08437 8.4375 6.1875 8.4375H7.5C7.60313 8.4375 7.6875 8.35313 7.6875 8.25V6.9375H11.1562V8.25C11.1562 8.35313 11.2406 8.4375 11.3438 8.4375H12.6562C12.7594 8.4375 12.8438 8.35313 12.8438 8.25V6.9375H16.3125V8.25C16.3125 8.35313 16.3969 8.4375 16.5 8.4375H17.8125C17.9156 8.4375 18 8.35313 18 8.25V6.9375H20.8125V18.5625Z"/>
<path id="Vector_2" d="M9.75 11.625H5.4375C5.33438 11.625 5.25 11.7094 5.25 11.8125V12.9375C5.25 13.0407 5.33438 13.125 5.4375 13.125H9.75C9.85313 13.125 9.9375 13.0407 9.9375 12.9375V11.8125C9.9375 11.7094 9.85313 11.625 9.75 11.625ZM9.75 14.8125H5.4375C5.33438 14.8125 5.25 14.8969 5.25 15V16.125C5.25 16.2282 5.33438 16.3125 5.4375 16.3125H9.75C9.85313 16.3125 9.9375 16.2282 9.9375 16.125V15C9.9375 14.8969 9.85313 14.8125 9.75 14.8125ZM16.9734 10.6547L14.5453 14.0227L13.3078 12.3094C13.2375 12.211 13.125 12.1547 13.0055 12.1547H11.7188C11.5664 12.1547 11.4773 12.3282 11.5664 12.4524L14.2406 16.1602C14.3906 16.3665 14.6953 16.3665 14.8453 16.1602L18.7125 10.8C18.8016 10.6758 18.7125 10.5024 18.5602 10.5024H17.2734C17.1563 10.5 17.0438 10.5586 16.9734 10.6547Z"/>
</g>
</svg>
