<svg width="24" height="24" viewBox="0 0 24 24" xmlns="http://www.w3.org/2000/svg">
<g id="Frame">
<path id="Vector" d="M13.9297 14.0977C14.3539 13.6312 14.6117 13.0102 14.6117 12.3281C14.6117 10.8773 13.4422 9.70312 12.0008 9.70312C10.5594 9.70312 9.38983 10.8773 9.38983 12.3281C9.38983 13.0102 9.64765 13.6289 10.0719 14.0977C9.07108 14.7188 8.38905 15.8039 8.32343 17.0531C8.31874 17.1609 8.40312 17.25 8.51093 17.25H9.53983C9.63827 17.25 9.71796 17.1727 9.72499 17.0742C9.81405 15.8883 10.8031 14.9531 12.0031 14.9531C13.2031 14.9531 14.1922 15.8906 14.2812 17.0742C14.2883 17.1727 14.368 17.25 14.4664 17.25H15.493C15.6008 17.25 15.6851 17.1609 15.6805 17.0531C15.6148 15.8039 14.9305 14.7164 13.9297 14.0977ZM12.0008 13.5469C11.3328 13.5469 10.7891 13.0008 10.7891 12.3281C10.7891 11.6555 11.3328 11.1094 12.0008 11.1094C12.6687 11.1094 13.2125 11.6555 13.2125 12.3281C13.2125 13.0008 12.6687 13.5469 12.0008 13.5469Z"/>
<path id="Vector_2" d="M21.75 5.25H18V3.9375C18 3.83437 17.9156 3.75 17.8125 3.75H16.5C16.3969 3.75 16.3125 3.83437 16.3125 3.9375V5.25H12.8438V3.9375C12.8438 3.83437 12.7594 3.75 12.6562 3.75H11.3438C11.2406 3.75 11.1562 3.83437 11.1562 3.9375V5.25H7.6875V3.9375C7.6875 3.83437 7.60313 3.75 7.5 3.75H6.1875C6.08437 3.75 6 3.83437 6 3.9375V5.25H2.25C1.83516 5.25 1.5 5.58516 1.5 6V19.5C1.5 19.9148 1.83516 20.25 2.25 20.25H21.75C22.1648 20.25 22.5 19.9148 22.5 19.5V6C22.5 5.58516 22.1648 5.25 21.75 5.25ZM20.8125 18.5625H3.1875V6.9375H6V8.25C6 8.35313 6.08437 8.4375 6.1875 8.4375H7.5C7.60313 8.4375 7.6875 8.35313 7.6875 8.25V6.9375H11.1562V8.25C11.1562 8.35313 11.2406 8.4375 11.3438 8.4375H12.6562C12.7594 8.4375 12.8438 8.35313 12.8438 8.25V6.9375H16.3125V8.25C16.3125 8.35313 16.3969 8.4375 16.5 8.4375H17.8125C17.9156 8.4375 18 8.35313 18 8.25V6.9375H20.8125V18.5625Z"/>
</g>
</svg>
