<svg xmlns="http://www.w3.org/2000/svg" xmlns:xlink="http://www.w3.org/1999/xlink"
  version="1.1" width="18.545000076293945" height="18.545499801635742"
  viewBox="0 0 18.545000076293945 18.545499801635742">
  <g>
    <path
      d="M10.818,15.4545L10.818,17.0005L13.909,17.0005L13.909,18.5455L4.6365,18.5455L4.6365,17.0005L7.7275,17.0005L7.7275,15.4545L1.3255,15.4545C0.593529,15.4548,4.57764e-7,14.8615,6.86645e-7,14.1295L6.86645e-7,1.325C4.57764e-7,0.593223,0.593223,-2.28882e-7,1.325,0L17.22,0C17.9518,-6.86645e-7,18.545,0.593222,18.545,1.325L18.545,14.13C18.545,14.8616,17.9521,15.4547,17.2205,15.455L10.818,15.455L10.818,15.4545ZM2.7045,1.5455L1.545,1.5455L1.545,12.364L17,12.364L17,1.5455L2.7045,1.5455ZM9.2725,14.682C9.70697,14.693,10.0652,14.3439,10.0652,13.9092C10.0652,13.4746,9.70697,13.1254,9.2725,13.1365C8.85338,13.1472,8.51916,13.49,8.51916,13.9092C8.51916,14.3285,8.85338,14.6713,9.2725,14.682ZM6.9545,6.182L8.4995,6.182L8.4995,10.818L6.9545,10.818L6.9545,6.182ZM3.8635,7.7275L5.409,7.7275L5.409,10.818L3.8635,10.818L3.8635,7.728L3.8635,7.7275ZM10.0455,4.6365L11.5905,4.6365L11.5905,10.818L10.0455,10.818L10.0455,4.6365ZM13.136,3.0915L14.682,3.0915L14.682,10.818L13.136,10.818L13.136,3.0915Z"
      fill-opacity="1" style="mix-blend-mode:passthrough" />
  </g>
</svg>
