<svg xmlns="http://www.w3.org/2000/svg" xmlns:xlink="http://www.w3.org/1999/xlink"
  version="1.1" width="28" height="28" viewBox="0 0 28 28">
  <g>
    <g style="opacity:0;">
      <rect x="0" y="0" width="28" height="28" rx="0" fill-opacity="1" />
    </g>
    <g>
      <g>
        <path
          d="M5.29718,4L22.7034,4C23.4378,4.03125,24.0159,4.640625,23.9847,5.375L23.9847,18.2656C24.0003,19,23.4222,19.6094,22.6878,19.6406L5.29718,19.6406C4.562809,19.6094,3.9846844,19,4.000309392,18.2656L4.000309392,5.375C3.9846844,4.640625,4.562809,4.03125,5.29718,4ZM16.7502,17.0312C16.7502,17.2188,16.6096,17.3594,16.4377,17.375L15.0315,17.375C14.844,17.375,14.7033,17.2188,14.719,17.0312L14.719,7.8125C14.719,7.625,14.8596,7.48438,15.0315,7.46875L16.4377,7.46875C16.6252,7.46875,16.7658,7.625,16.7502,7.8125L16.7502,17.0312ZM20.3127,17.375C20.4846,17.3594,20.6252,17.2188,20.6252,17.0312L20.6252,9.875C20.6408,9.6875,20.5002,9.53125,20.3127,9.53125L18.9065,9.53125C18.7346,9.54688,18.594,9.6875,18.594,9.875L18.594,17.0312C18.5783,17.2188,18.719,17.375,18.9065,17.375L20.3127,17.375ZM13.01583,17.0312C13.01583,17.2188,12.87521,17.3594,12.70333,17.375L11.297080000000001,17.375C11.109580000000001,17.375,10.96896,17.2188,10.984580000000001,17.0312L10.984580000000001,11.875C10.984580000000001,11.6875,11.12521,11.54688,11.297080000000001,11.53125L12.70333,11.53125C12.89083,11.53125,13.03146,11.6875,13.01583,11.875L13.01583,17.0312ZM9.109580000000001,17.375C9.28146,17.3594,9.422080000000001,17.2188,9.422080000000001,17.0312L9.422080000000001,14.5625C9.43771,14.375,9.297080000000001,14.2188,9.109580000000001,14.2188L7.703329999999999,14.2188C7.53146,14.2344,7.390829999999999,14.375,7.390829999999999,14.5625L7.390829999999999,17.0312C7.37521,17.2188,7.515829999999999,17.375,7.703329999999999,17.375L9.109580000000001,17.375ZM16.7036,20.3281C16.938000000000002,20.3438,17.1099,20.5469,17.0942,20.7812L17.0942,22.625L20.9536,22.625L20.9536,24L7.03174,24L7.03174,22.625L10.90674,22.625L10.90674,20.7812C10.891110000000001,20.5625,11.06299,20.3438,11.297360000000001,20.3281L16.7036,20.3281Z"
          fill-rule="evenodd" fill-opacity="1" />
      </g>
    </g>
  </g>
</svg>
