<svg width="24" height="24" viewBox="0 0 24 24" xmlns="http://www.w3.org/2000/svg">
<g id="Frame">
<path id="Vector" d="M20.318 3.98203L12.3539 1.26797C12.2578 1.23516 12.1289 1.21875 12 1.21875C11.8711 1.21875 11.7422 1.23516 11.6461 1.26797L3.68203 3.98203C3.4875 4.04766 3.32812 4.27266 3.32812 4.47891V15.7852C3.32812 15.9914 3.46172 16.2633 3.62344 16.3922L11.7023 22.6875C11.7844 22.7508 11.8898 22.7836 11.9977 22.7836C12.1055 22.7836 12.2133 22.7508 12.293 22.6875L20.3719 16.3922C20.5336 16.2656 20.6672 15.9937 20.6672 15.7852V4.47891C20.6719 4.27266 20.5125 4.05 20.318 3.98203ZM15.1945 7.8L13.1391 11.5758H14.2102C14.3391 11.5758 14.4445 11.6812 14.4445 11.8102V12.3094C14.4445 12.4383 14.3391 12.5437 14.2102 12.5437H12.7242V13.2398H14.2102C14.3391 13.2398 14.4445 13.3453 14.4445 13.4742V13.9734C14.4445 14.1023 14.3391 14.2078 14.2102 14.2078H12.7242V15.4219C12.7242 15.5508 12.6188 15.6562 12.4898 15.6562H11.5219C11.393 15.6562 11.2875 15.5508 11.2875 15.4219V14.2078H9.80859C9.67969 14.2078 9.57422 14.1023 9.57422 13.9734V13.4742C9.57422 13.3453 9.67969 13.2398 9.80859 13.2398H11.2875V12.5437H9.80859C9.67969 12.5437 9.57422 12.4383 9.57422 12.3094V11.8102C9.57422 11.6812 9.67969 11.5758 9.80859 11.5758H10.868L8.80547 7.8C8.74453 7.6875 8.78438 7.54453 8.89922 7.48125C8.93438 7.4625 8.97188 7.45312 9.01172 7.45312H10.0898C10.1789 7.45312 10.2586 7.50234 10.2984 7.58203L12.007 10.9641L13.7227 7.58203C13.7625 7.50234 13.8445 7.45312 13.9313 7.45312H14.9859C15.1148 7.45312 15.2203 7.55859 15.2203 7.6875C15.2227 7.72734 15.2133 7.76484 15.1945 7.8Z"/>
</g>
</svg>
