<svg width="16" height="16" viewBox="0 0 16 16" xmlns="http://www.w3.org/2000/svg">
<path d="M8 15.0001C4.13385 15.0001 1 11.8657 1 8.00012V1.78316C1 1.35077 1.35065 1.00012 1.7836 1.00012H14.217C14.6494 1.00012 15 1.35077 15 1.78373V8.00012C15 11.8663 11.8656 15.0001 8 15.0001ZM14.0602 2.25332C14.0602 2.17019 14.0272 2.09047 13.9684 2.03169C13.9097 1.97291 13.8299 1.93988 13.7468 1.93988H2.2532C2.17007 1.93988 2.09035 1.97291 2.03156 2.03169C1.97278 2.09047 1.93976 2.17019 1.93976 2.25332V8.00012C1.93976 11.3471 4.65306 14.0604 8 14.0604C11.3469 14.0604 14.0602 11.3471 14.0602 8.00012V2.25332ZM11.741 10.8487C11.7024 10.9671 11.6184 11.0654 11.5074 11.1218C11.3964 11.1783 11.2675 11.1883 11.1491 11.1498L8.00676 10.1266L4.85544 11.156C4.73777 11.1907 4.61117 11.1782 4.50262 11.121C4.39407 11.0638 4.31214 10.9665 4.27429 10.8497C4.23644 10.733 4.24566 10.6061 4.29998 10.4961C4.3543 10.3861 4.44943 10.3016 4.56511 10.2607L6.48917 9.63216L5.25232 9.22965C5.15576 9.19606 5.07175 9.1338 5.01151 9.0512C4.95127 8.9686 4.91767 8.86958 4.9152 8.76738V7.54575H4.71169C4.58714 7.54575 4.4677 7.49627 4.37963 7.4082C4.29156 7.32014 4.24209 7.20069 4.24209 7.07615C4.24209 6.9516 4.29156 6.83216 4.37963 6.74409C4.4677 6.65602 4.58714 6.60655 4.71169 6.60655H4.91463C4.91463 6.48193 4.96414 6.36241 5.05226 6.27429C5.14038 6.18617 5.25989 6.13667 5.38451 6.13667C5.50913 6.13667 5.62865 6.18617 5.71677 6.27429C5.80489 6.36241 5.85439 6.48193 5.85439 6.60655H10.1456C10.1456 6.54488 10.1578 6.48382 10.1814 6.42684C10.205 6.36987 10.2395 6.3181 10.2831 6.27449C10.3268 6.23089 10.3785 6.1963 10.4355 6.1727C10.4925 6.1491 10.5535 6.13695 10.6152 6.13695C10.6769 6.13695 10.7379 6.1491 10.7949 6.1727C10.8519 6.1963 10.9037 6.23089 10.9473 6.27449C10.9909 6.3181 11.0255 6.36987 11.0491 6.42684C11.0727 6.48382 11.0848 6.54488 11.0848 6.60655H11.2883C11.4129 6.60655 11.5323 6.65602 11.6204 6.74409C11.7084 6.83216 11.7579 6.9516 11.7579 7.07615C11.7579 7.20069 11.7084 7.32014 11.6204 7.4082C11.5323 7.49627 11.4129 7.54575 11.2883 7.54575H11.0854V8.76738C11.0822 8.87007 11.048 8.96939 10.9874 9.0523C10.9267 9.13521 10.8423 9.19782 10.7454 9.2319L9.52154 9.63216L11.4394 10.2562C11.4981 10.2753 11.5524 10.3057 11.5994 10.3458C11.6463 10.3858 11.6848 10.4347 11.7129 10.4897C11.7409 10.5447 11.7578 10.6046 11.7626 10.6661C11.7674 10.7276 11.7601 10.7895 11.741 10.8482V10.8487ZM10.1456 8.43759V7.54575H5.85439V8.43759L8.00395 9.13719L10.1456 8.43815V8.43759ZM11.2883 5.94866C11.1638 5.94866 11.0443 5.89919 10.9563 5.81112C10.8682 5.72305 10.8187 5.60361 10.8187 5.47906V5.38492C10.8186 5.30189 10.7855 5.22231 10.7267 5.16365C10.6679 5.10499 10.5883 5.07204 10.5053 5.07204H5.49473C5.41169 5.07204 5.33205 5.10499 5.27329 5.16365C5.21452 5.22231 5.18143 5.30189 5.18128 5.38492V5.47906C5.18128 5.60368 5.13178 5.7232 5.04366 5.81132C4.95554 5.89944 4.83602 5.94894 4.7114 5.94894C4.58678 5.94894 4.46727 5.89944 4.37915 5.81132C4.29103 5.7232 4.24152 5.60368 4.24152 5.47906V4.91532C4.24152 4.48293 4.59217 4.13172 5.02513 4.13172H7.5304C7.5304 4.00717 7.57988 3.88773 7.66794 3.79966C7.75601 3.71159 7.87546 3.66212 8 3.66212C8.12455 3.66212 8.24399 3.71159 8.33206 3.79966C8.42012 3.88773 8.4696 4.00717 8.4696 4.13172H10.9754C11.4078 4.13172 11.7585 4.48293 11.7585 4.91532V5.47906C11.7585 5.73838 11.5482 5.94866 11.2883 5.94866Z" />
</svg>
