<svg width="24" height="24" viewBox="0 0 24 24" xmlns="http://www.w3.org/2000/svg">
<g id="Frame">
<path id="Vector" d="M20.318 3.98203L12.3539 1.26797C12.2578 1.23516 12.1289 1.21875 12 1.21875C11.8711 1.21875 11.7422 1.23516 11.6461 1.26797L3.68203 3.98203C3.4875 4.04766 3.32812 4.27266 3.32812 4.47891V15.7852C3.32812 15.9914 3.46172 16.2633 3.62344 16.3922L11.7023 22.6875C11.7844 22.7508 11.8898 22.7836 11.9977 22.7836C12.1055 22.7836 12.2133 22.7508 12.293 22.6875L20.3719 16.3922C20.5336 16.2656 20.6672 15.9937 20.6672 15.7852V4.47891C20.6719 4.27266 20.5125 4.05 20.318 3.98203ZM16.2773 7.98516L11.2945 14.8453C11.1445 15.0516 10.8352 15.0516 10.6852 14.8453L7.72266 10.7672C7.63359 10.643 7.72266 10.4695 7.875 10.4695H9.16875C9.28828 10.4695 9.40313 10.5281 9.47344 10.6242L10.9898 12.7102L14.5266 7.83984C14.5969 7.74375 14.7094 7.68516 14.8313 7.68516H16.125C16.2773 7.6875 16.3664 7.86094 16.2773 7.98516Z"/>
</g>
</svg>
