<svg width="24" height="24" viewBox="0 0 24 24" xmlns="http://www.w3.org/2000/svg">
<g id="Frame">
<path id="Vector" d="M20.318 3.98203L12.3539 1.26797C12.2578 1.23516 12.1289 1.21875 12 1.21875C11.8711 1.21875 11.7422 1.23516 11.6461 1.26797L3.68203 3.98203C3.4875 4.04766 3.32812 4.27266 3.32812 4.47891V15.7852C3.32812 15.9914 3.46172 16.2633 3.62344 16.3922L11.7023 22.6875C11.7844 22.7508 11.8898 22.7836 11.9977 22.7836C12.1055 22.7836 12.2133 22.7508 12.293 22.6875L20.3719 16.3922C20.5336 16.2656 20.6672 15.9937 20.6672 15.7852V4.47891C20.6719 4.27266 20.5125 4.05 20.318 3.98203ZM14.6906 12.9844C13.5539 14.1211 11.8078 14.2781 10.5047 13.4555L8.68828 15.2719C8.61563 15.3445 8.49609 15.3445 8.42344 15.2719L7.62656 14.475C7.55391 14.4023 7.55391 14.2828 7.62656 14.2102L9.44297 12.3937C8.62031 11.0883 8.77734 9.34453 9.91406 8.20781C11.2336 6.88828 13.3711 6.88828 14.6906 8.20781C16.0102 9.52734 16.0102 11.6648 14.6906 12.9844Z"/>
<path id="Vector_2" d="M10.9747 11.9234C11.3268 12.2755 11.8043 12.4733 12.3022 12.4733C12.8001 12.4732 13.2776 12.2754 13.6297 11.9234C13.9817 11.5713 14.1795 11.0938 14.1795 10.5959C14.1795 10.098 13.9817 9.62047 13.6296 9.26841C13.2775 8.91634 12.8 8.71856 12.3021 8.71857C11.8042 8.71858 11.3267 8.91637 10.9746 9.26845C10.6226 9.62053 10.4248 10.098 10.4248 10.5959C10.4248 11.0938 10.6226 11.5714 10.9747 11.9234Z"/>
</g>
</svg>
