<svg xmlns="http://www.w3.org/2000/svg" xmlns:xlink="http://www.w3.org/1999/xlink"
  version="1.1" width="20" height="20" viewBox="0 0 20 20">
  <defs>
    <clipPath id="master_svg0_18_8024">
      <rect x="0" y="0" width="20" height="20" rx="0" />
    </clipPath>
    <clipPath id="master_svg1_18_8026">
      <rect x="0" y="0" width="20" height="20" rx="0" />
    </clipPath>
  </defs>
  <g clip-path="url(#master_svg0_18_8024)">
    <g clip-path="url(#master_svg1_18_8026)">
      <g>
        <path
          d="M3.591660359649658,3.86879C2.598310359649658,5.85399,2.5716503596496585,8.18542,3.519340359649658,10.1928L3.5077703596496583,10.2102C3.6859203596496584,10.5825,3.528550359649658,11.0287,3.156270359649658,11.2068C2.7840003596496583,11.385,2.3377903596496585,11.2276,2.1596423596496583,10.8553L2.1393913596496583,10.8553C0.9920373596496582,8.4193,1.0250903596496581,5.59168,2.2290743596496583,3.18315C2.8224703596496585,2.00158,3.674900359649658,0.969174,4.722820359649658,0.162887L4.722820359649658,0.180245C4.857950359649658,0.0638963,5.030520359649659,0.000208941,5.208830359649658,0.000881056C5.551560359649658,-0.0156479,5.862030359649658,0.201856,5.963560359649658,0.529613C6.065090359649658,0.85737,5.9319403596496585,1.21229,5.639890359649658,1.3924C4.780070359649658,2.05381,4.080050359649658,2.90016,3.591660359649658,3.86879ZM16.433480359649657,10.1929C17.381180359649658,8.18551,17.35448035964966,5.85408,16.36108035964966,3.86888C15.874380359649658,2.90084,15.176380359649658,2.05454,14.318680359649658,1.39249C14.027780359649658,1.21284,13.894680359649659,0.859645,13.994580359649659,0.532708C14.094480359649658,0.205771,14.402380359649658,-0.0126661,14.743980359649658,0.000970354C14.922280359649658,0.0000371395,15.094980359649659,0.0637572,15.229980359649659,0.180335L15.229980359649659,0.162977C16.27898035964966,0.968942,17.13238035964966,2.00137,17.72658035964966,3.18324C18.93248035964966,5.59436,18.965580359649657,8.42546,17.816280359649657,10.8641L17.795980359649658,10.8641C17.617980359649657,11.2366,17.171680359649656,11.3941,16.799280359649657,11.2159C16.426880359649658,11.0377,16.269480359649656,10.5913,16.44788035964966,10.2189L16.433480359649657,10.1929ZM12.134580359649659,3.45219C12.128780359649658,3.1573,12.297080359649659,2.88663,12.564180359649658,2.76152C12.831280359649659,2.63641,13.147080359649658,2.68034,13.369880359649658,2.8736L13.369880359649658,2.85624C15.321980359649658,4.42731,15.964480359649658,7.11979,14.932080359649659,9.40304L14.917580359649659,9.40304C14.746080359649659,9.77898,14.302180359649658,9.94452,13.926380359649658,9.77263C13.550680359649657,9.60074,13.385580359649659,9.15662,13.557880359649658,8.78105L13.540580359649658,8.78105C14.278680359649659,7.13924,13.817680359649659,5.20618,12.418080359649657,4.07418C12.226780359649657,3.93213,12.114080359649659,3.70783,12.114280359649658,3.46955L12.134580359649659,3.45219ZM7.818170359649658,3.45229C7.824000359649658,3.15739,7.655620359649658,2.88672,7.388520359649658,2.76161C7.1214103596496585,2.63651,6.805680359649658,2.68043,6.582870359649658,2.87369L6.582870359649658,2.85633C4.630730359649658,4.4274,3.9882503596496583,7.11989,5.020660359649659,9.40313L5.035130359649658,9.40313C5.206890359649658,9.7786,5.650500359649659,9.94374,6.0259703596496585,9.77199C6.4014403596496585,9.60023,6.566580359649659,9.15661,6.394830359649658,8.78114L6.412180359649658,8.78114C5.674030359649659,7.13934,6.135020359649658,5.20627,7.534660359649658,4.07428C7.725970359649658,3.93222,7.838650359649658,3.70793,7.838420359649658,3.46965L7.818170359649658,3.45229ZM9.969670359649658,9.24966C8.733600359649659,9.25233,7.727920359649659,8.25528,7.719930359649658,7.01923L7.734400359649658,7.01923C7.731200359649658,5.77571,8.735830359649658,4.76461,9.979350359649658,4.75982C11.215390359649659,4.76781,12.212480359649659,5.77349,12.209780359649658,7.00956C12.207080359649659,8.24563,11.205740359649658,9.247,9.969670359649658,9.24966ZM12.455780359649658,19.9624C13.254580359649658,19.9624,13.902180359649659,19.3148,13.902180359649659,18.5159L13.899280359649659,18.5159L12.143280359649658,11.5728C12.143280359649658,10.7739,11.495680359649658,10.1263,10.696800359649659,10.1263L9.357360359649658,10.1263C8.558480359649657,10.1263,7.910870359649659,10.7739,7.910870359649659,11.5728L6.027550359649658,18.5159C6.027550359649658,19.3148,6.6751603596496585,19.9624,7.4740303596496585,19.9624L12.455780359649658,19.9624Z"
          fill-rule="evenodd" fill-opacity="1" />
      </g>
    </g>
  </g>
</svg>
