<svg width="24" height="24" viewBox="0 0 24 24" xmlns="http://www.w3.org/2000/svg">
<g id="Frame">
<path id="Vector" d="M21.984 10.7531L21.2902 3.42656C21.2551 3.04687 20.9527 2.74687 20.573 2.70937L13.2465 2.01562H13.2371C13.1621 2.01562 13.1035 2.03906 13.059 2.08359L2.0832 13.0594C1.9918 13.1508 1.9918 13.2984 2.0832 13.3898L10.6098 21.9164C10.6543 21.9609 10.7129 21.9844 10.7762 21.9844C10.8395 21.9844 10.898 21.9609 10.9426 21.9164L21.9184 10.9406C21.9652 10.8914 21.9887 10.8234 21.984 10.7531ZM10.7738 19.5633L4.43633 13.2258L13.8043 3.85781L19.5934 4.40625L20.1418 10.1953L10.7738 19.5633Z"/>
<path id="Vector_2" d="M15.9375 6C14.8008 6 13.875 6.92578 13.875 8.0625C13.875 9.19922 14.8008 10.125 15.9375 10.125C17.0742 10.125 18 9.19922 18 8.0625C18 6.92578 17.0742 6 15.9375 6ZM15.9375 8.8125C15.5227 8.8125 15.1875 8.47734 15.1875 8.0625C15.1875 7.64766 15.5227 7.3125 15.9375 7.3125C16.3523 7.3125 16.6875 7.64766 16.6875 8.0625C16.6875 8.47734 16.3523 8.8125 15.9375 8.8125Z"/>
</g>
</svg>
