<svg width="24" height="24" viewBox="0 0 24 24" xmlns="http://www.w3.org/2000/svg">
<g id="Frame">
<path id="Vector" d="M11.325 18.5226L20.1891 9.65624C20.2289 9.6164 20.2477 9.56249 20.243 9.50858L19.6453 2.44452C19.6289 2.26171 19.4859 2.11874 19.3031 2.10233L12.2391 1.50702C12.1852 1.50234 12.1289 1.52109 12.0914 1.56093L3.22734 10.425C3.15469 10.4976 3.15469 10.6172 3.22734 10.6898L11.0602 18.5226C11.1328 18.5976 11.2523 18.5976 11.325 18.5226ZM12.7922 3.24843L18.0563 3.69374L18.5016 8.9578L11.1914 16.2656L5.48203 10.5586L12.7922 3.24843Z"/>
<path id="Vector_2" d="M14.2027 7.61298C14.3071 7.71747 14.4311 7.80035 14.5676 7.8569C14.7041 7.91345 14.8504 7.94256 14.9982 7.94257C15.1459 7.94258 15.2922 7.91348 15.4287 7.85694C15.5652 7.8004 15.6893 7.71753 15.7937 7.61305C15.8982 7.50858 15.9811 7.38455 16.0376 7.24804C16.0942 7.11154 16.1232 6.96523 16.1232 6.81748C16.1232 6.66974 16.0941 6.52344 16.0376 6.38694C15.981 6.25045 15.8981 6.12643 15.7936 6.02197C15.6892 5.91748 15.5651 5.8346 15.4286 5.77805C15.2921 5.7215 15.1458 5.69239 14.9981 5.69238C14.8503 5.69238 14.704 5.72147 14.5675 5.77801C14.431 5.83455 14.307 5.91743 14.2025 6.0219C14.0981 6.12638 14.0152 6.25041 13.9587 6.38691C13.9021 6.52342 13.873 6.66972 13.873 6.81747C13.8731 6.96522 13.9022 7.11152 13.9587 7.24801C14.0153 7.38451 14.0982 7.50853 14.2027 7.61298Z"/>
<path id="Vector_3" d="M20.852 12.6517L19.9238 11.7259C19.8512 11.6532 19.7316 11.6532 19.659 11.7259L11.1746 20.1938L5.60586 14.6392C5.5332 14.5665 5.41367 14.5665 5.34102 14.6392L4.41289 15.5649C4.34023 15.6376 4.34023 15.7571 4.41289 15.8298L10.1129 21.5204L11.041 22.4462C11.1137 22.5188 11.2332 22.5188 11.3059 22.4462L20.852 12.9165C20.9246 12.8438 20.9246 12.7243 20.852 12.6517Z"/>
</g>
</svg>
