<svg xmlns="http://www.w3.org/2000/svg" xmlns:xlink="http://www.w3.org/1999/xlink"
  version="1.1" width="18" height="18" viewBox="0 0 18 18">
  <defs>
    <clipPath id="master_svg0_67_00506">
      <rect x="0" y="0" width="18" height="18" rx="0" />
    </clipPath>
  </defs>
  <g clip-path="url(#master_svg0_67_00506)">
    <g>
      <path
        d="M9,0C4.029,0,0,4.029,0,9C0,13.971,4.029,18,9,18C13.971,18,18,13.971,18,9C18,4.029,13.971,0,9,0ZM14.4683,14.4683C13.7637,15.175,12.9285,15.738,12.009,16.1258C11.0565,16.5308,10.044,16.734,9,16.734C7.956,16.734,6.9435,16.5308,5.99025,16.128C5.07162,15.739,4.23681,15.1762,3.53175,14.4705C2.82492,13.7658,2.26196,12.9302,1.87425,12.0105C1.47021,11.0583,1.26281,10.0343,1.2645,9C1.2645,7.956,1.4685,6.9435,1.872,5.99025C2.26095,5.07162,2.82377,4.23681,3.5295,3.53175C4.23379,2.82508,5.06879,2.26213,5.988,1.87425C6.94275,1.46925,7.95525,1.26525,8.99925,1.26525C10.0433,1.26525,11.0558,1.46925,12.0083,1.87275C12.93,2.26275,13.7558,2.81925,14.4683,3.53025C15.1778,4.23975,15.7373,5.06775,16.1258,5.98875C16.53,6.9435,16.7333,7.956,16.7333,9C16.7381,11.0519,15.9226,13.0207,14.4683,14.4683ZM12.885,8.859L9.633,8.859L9.633,4.64175C9.633,4.29215,9.3496,4.00875,9,4.00875C8.6504,4.00875,8.367,4.29215,8.367,4.64175L8.367,8.85975C8.367,9.5595,8.93325,10.1258,9.633,10.1258L12.885,10.1258C13.2346,10.1257,13.518,9.84235,13.518,9.49275C13.518,9.14315,13.2346,8.85975,12.885,8.85975L12.885,8.859Z"
        fill-opacity="1" style="mix-blend-mode:passthrough" />
    </g>
  </g>
</svg>
