<svg width="24" height="24" viewBox="0 0 24 24" xmlns="http://www.w3.org/2000/svg">
<g id="Frame">
<path id="Vector" d="M20.625 2.625H3.375C2.96016 2.625 2.625 2.96016 2.625 3.375V20.625C2.625 21.0398 2.96016 21.375 3.375 21.375H20.625C21.0398 21.375 21.375 21.0398 21.375 20.625V3.375C21.375 2.96016 21.0398 2.625 20.625 2.625ZM17.0156 13.7273C17.0156 15.0234 15.968 16.0734 14.6789 16.0734H9.85781V17.325C9.85781 17.4586 9.70547 17.5312 9.60234 17.4492L7.04531 15.4406C6.96328 15.3773 6.96328 15.2531 7.04531 15.1898L9.60234 13.1813C9.70547 13.0992 9.85781 13.1742 9.85781 13.3055V14.557H14.6789C15.1383 14.557 15.5109 14.182 15.5109 13.7227V11.8734C15.5109 11.7867 15.5812 11.7141 15.6703 11.7141H16.8586C16.9453 11.7141 17.018 11.7844 17.018 11.8734V13.7273H17.0156ZM16.9547 8.80781L14.3977 10.8164C14.2945 10.8984 14.1422 10.8234 14.1422 10.6922V9.44062H9.32109C8.86172 9.44062 8.48906 9.81562 8.48906 10.275V12.1242C8.48906 12.2109 8.41875 12.2836 8.32969 12.2836H7.14141C7.05469 12.2836 6.98203 12.2133 6.98203 12.1242V10.275C6.98203 8.97891 8.02969 7.92891 9.31875 7.92891H14.1398V6.67734C14.1398 6.54375 14.2922 6.47109 14.3953 6.55313L16.9523 8.56172C17.0367 8.62031 17.0367 8.74453 16.9547 8.80781Z"/>
</g>
</svg>
