<svg width="24" height="24" viewBox="0 0 24 24" xmlns="http://www.w3.org/2000/svg">
<g id="Frame">
<path id="Vector" d="M20.625 2.625H3.375C2.96016 2.625 2.625 2.96016 2.625 3.375V20.625C2.625 21.0398 2.96016 21.375 3.375 21.375H20.625C21.0398 21.375 21.375 21.0398 21.375 20.625V3.375C21.375 2.96016 21.0398 2.625 20.625 2.625ZM19.6875 19.6875H4.3125V4.3125H19.6875V19.6875Z"/>
<path id="Vector_2" d="M7.14336 12.2811H8.33164C8.41836 12.2811 8.49102 12.2108 8.49102 12.1217V10.2725C8.49102 9.81077 8.86367 9.43812 9.32305 9.43812H14.1441V10.6897C14.1441 10.8233 14.2965 10.8959 14.3996 10.8139L16.9566 8.8053C17.0387 8.74202 17.0387 8.6178 16.9566 8.55452L14.3996 6.54593C14.2965 6.4639 14.1441 6.5389 14.1441 6.67015V7.92171H9.3207C8.0293 7.92171 6.98398 8.97171 6.98398 10.2678V12.117C6.98398 12.2108 7.0543 12.2811 7.14336 12.2811ZM7.04492 15.4428L9.60195 17.4514C9.70508 17.5334 9.85742 17.4584 9.85742 17.3272V16.0756H14.6785C15.9699 16.0756 17.0152 15.0256 17.0152 13.7295V11.8803C17.0152 11.7936 16.9449 11.7209 16.8559 11.7209H15.6676C15.5809 11.7209 15.5082 11.7912 15.5082 11.8803V13.7295C15.5082 14.1912 15.1355 14.5639 14.6762 14.5639H9.85742V13.3123C9.85742 13.1787 9.70508 13.1061 9.60195 13.1881L7.04492 15.1967C6.96289 15.2553 6.96289 15.3795 7.04492 15.4428Z"/>
</g>
</svg>
