<svg width="24" height="24" viewBox="0 0 24 24" xmlns="http://www.w3.org/2000/svg">
<g id="Frame">
<path id="Vector" d="M19.5 6H18.8414L18.0047 3.16641C17.9109 2.84531 17.618 2.625 17.2852 2.625H6.71484C6.37969 2.625 6.08672 2.84531 5.99531 3.16641L5.15859 6H4.5C4.08516 6 3.75 6.33516 3.75 6.75V7.40625C3.75 7.50938 3.83437 7.59375 3.9375 7.59375H5.01094L6.12891 20.6883C6.16172 21.0773 6.4875 21.375 6.87656 21.375H16.9359C17.325 21.375 17.6508 21.0773 17.6836 20.6883L18.8016 7.59375H20.0625C20.1656 7.59375 20.25 7.50938 20.25 7.40625V6.75C20.25 6.33516 19.9148 6 19.5 6ZM11.9062 16.5C10.043 16.5 8.53125 14.9883 8.53125 13.125C8.53125 11.2617 10.043 9.75 11.9062 9.75C13.7695 9.75 15.2812 11.2617 15.2812 13.125C15.2812 14.9883 13.7695 16.5 11.9062 16.5ZM6.82031 6L7.34531 4.21875H16.6547L17.1797 6H6.82031Z" />
<path id="Vector_2" d="M10.0312 13.125C10.0313 13.6223 10.2288 14.0992 10.5804 14.4508C10.9321 14.8025 11.409 15 11.9062 15C12.4035 15 12.8804 14.8025 13.2321 14.4508C13.5837 14.0992 13.7812 13.6223 13.7812 13.125C13.7812 12.6277 13.5837 12.1508 13.2321 11.7992C12.8804 11.4475 12.4035 11.25 11.9062 11.25C11.409 11.25 10.9321 11.4475 10.5804 11.7992C10.2288 12.1508 10.0312 12.6277 10.0312 13.125Z" />
</g>
</svg>
