<svg xmlns="http://www.w3.org/2000/svg" xmlns:xlink="http://www.w3.org/1999/xlink"
  version="1.1" width="20" height="20" viewBox="0 0 20 20">
  <defs>
    <clipPath id="master_svg0_18_8004">
      <rect x="0" y="0" width="20" height="20" rx="0" />
    </clipPath>
    <clipPath id="master_svg1_18_8006">
      <rect x="0" y="0" width="20" height="20" rx="0" />
    </clipPath>
  </defs>
  <g clip-path="url(#master_svg0_18_8004)">
    <g clip-path="url(#master_svg1_18_8006)">
      <g>
        <path
          d="M19.6889,4.821650625L14.8443,4.821650625C14.6692,4.821530624999999,14.5272,4.963460625,14.5272,5.1385806249999995C14.5272,5.313700625,14.6692,5.4556306249999995,14.8443,5.4555106250000005L16.9497,5.4555106250000005L16.9497,7.182490625C16.4455,7.281920625,16.0169,7.611420625,15.7911,8.073060625L14.6522,8.073060625C13.6994,6.777750625,12.2189,5.974470625,10.6136,5.881840625000001L10.6136,3.065503625L12.7189,3.065503625C12.894,3.065589625,13.036,2.923668625,13.036,2.748572625C13.036,2.573475625,12.894,2.4315551417,12.7189,2.431640625L7.87432,2.431640625C7.69922,2.4315551285,7.55724,2.573475625,7.55724,2.748572625C7.55724,2.923668625,7.69922,3.065589625,7.87432,3.065503625L9.9797,3.065503625L9.9797,5.881840625000001C8.37437,5.974470625,6.89385,6.777750625,5.94106,8.073060625L4.21492,8.073060625C3.98847,7.612010625,3.56016,7.282760625,3.05638,7.182490625L3.05638,5.455100625L5.16175,5.455100625C5.33679,5.455100625,5.47869,5.313200625,5.47869,5.138160624999999C5.47869,4.963130625,5.33679,4.821230625,5.16175,4.821230625L0.31714,4.821230625C0.142103,4.821230625,0.000208325,4.963130625,0.000208325,5.138160624999999C0.000208325,5.313200625,0.142103,5.455100625,0.31714,5.455100625L2.42252,5.455100625L2.42252,7.182490625C1.22391,7.416090625,0.689056,8.828480625000001,1.43227,9.797420625C2.17549,10.766370625,3.67823,10.615850625,4.2145,9.518740625L7.3088,9.518740625C7.50998,11.015230625,8.78709,12.132150625,10.297,12.132150625C11.807,12.132150625,13.0841,11.015230625,13.2853,9.518740625L15.7878,9.518740625C16.3243,10.614970625,17.8262,10.765010625,18.569,9.796600625C19.3118,8.828190625000001,18.7776,7.416570625,17.5798,7.182490625L17.5798,5.455100625L19.6852,5.455100625C19.86,5.454640625,20.0016,5.313170625,20.0023,5.138370625C20.0035,4.964280625,19.863,4.822340625,19.6889,4.821650625ZM10.854,11.377820625C10.5471,11.684800625,10.0494,11.684820625,9.74246,11.377880625C9.4355,11.070930625,9.4355,10.573260625,9.74246,10.266310625C10.0494,9.959370625,10.5471,9.959390625000001,10.854,10.266370625C11.1596,10.573760625,11.1598,11.070210625,10.854,11.377820625L10.854,11.377820625ZM14.0979,15.691540625C11.7934,17.372540625,8.66693,17.372540625,6.36239,15.691540625C6.22517,15.583640625,6.0259,15.611140625,5.9229,15.751940625C5.8199,15.892840625,5.85421,16.091040624999998,5.99857,16.189140625C8.52013,18.027940625,11.9406,18.027940625,14.4622,16.189140625C14.6065,16.091040624999998,14.6408,15.892840625,14.5378,15.751940625C14.4348,15.611140625,14.2356,15.583640625,14.0979,15.691540625L14.0979,15.691540625Z"
          fill-opacity="1" />
      </g>
      <g>
        <path
          d="M7.23712969375,14.437511787109376C7.13594309375,14.574861787109375,7.16607019375,14.768351787109374,7.30422509375,14.868421787109375C9.04838609375,16.141901787109376,11.41569609375,16.141901787109376,13.159856093750001,14.868421787109375C13.30421609375,14.770371787109376,13.33852609375,14.572171787109376,13.23552609375,14.431301787109375C13.13252609375,14.290431787109375,12.93325609375,14.263011787109376,12.79603609375,14.370831787109374C11.26874609375,15.485701787109376,9.19624609375,15.486551787109375,7.66804009375,14.372921787109375C7.53166309375,14.269961787109375,7.33732409375,14.299091787109376,7.23712969375,14.437511787109376ZM10.23182609375,14.080371787109375C10.88185609375,14.082551787109375,11.51541609375,13.875996787109376,12.039236093749999,13.491095787109375C12.183596093750001,13.393043787109375,12.217906093749999,13.194843787109376,12.114906093750001,13.053970787109375C12.01190609375,12.913099087109375,11.812636093750001,12.885683287109375,11.67542609375,12.993506887109374C10.81528609375,13.621390787109375,9.64795609375,13.621390787109375,8.78782609375,12.993506887109374C8.65037609375,12.900149387109375,8.46367609375,12.932469367109375,8.36560609375,13.066596787109376C8.26753609375,13.200724787109374,8.29336609375,13.388435787109374,8.42400609375,13.491095787109375C8.94844609375,13.875104787109375,9.581836093749999,14.081561787109376,10.23182609375,14.080371787109375Z"
          fill-opacity="1" />
      </g>
    </g>
  </g>
</svg>
