<svg width="24" height="24" viewBox="0 0 24 24" xmlns="http://www.w3.org/2000/svg">
<g id="Frame">
<path id="Vector" d="M20.1211 17.8969C19.6782 16.8469 19.0407 15.9047 18.2321 15.0961C17.4235 14.2875 16.4813 13.6523 15.4313 13.207C15.4219 13.2023 15.4125 13.2 15.4032 13.1953C16.8633 12.1406 17.8125 10.4227 17.8125 8.48438C17.8125 5.27344 15.211 2.67188 12 2.67188C8.78911 2.67188 6.18755 5.27344 6.18755 8.48438C6.18755 10.4227 7.13677 12.1406 8.59692 13.1977C8.58755 13.2023 8.57817 13.2047 8.5688 13.2094C7.5188 13.6523 6.57661 14.2875 5.76802 15.0984C4.95942 15.907 4.32427 16.8492 3.87895 17.8992C3.44302 18.9258 3.21099 20.0156 3.18755 21.1359C3.1852 21.2414 3.26958 21.3281 3.37505 21.3281H4.7813C4.88442 21.3281 4.96645 21.2461 4.9688 21.1453C5.01567 19.3359 5.74223 17.6414 7.02661 16.357C8.35552 15.0281 10.1204 14.2969 12 14.2969C13.8797 14.2969 15.6446 15.0281 16.9735 16.357C18.2579 17.6414 18.9844 19.3359 19.0313 21.1453C19.0336 21.2484 19.1157 21.3281 19.2188 21.3281H20.625C20.7305 21.3281 20.8149 21.2414 20.8125 21.1359C20.7891 20.0156 20.5571 18.9258 20.1211 17.8969ZM12 12.5156C10.9243 12.5156 9.91177 12.0961 9.15005 11.3344C8.38833 10.5727 7.9688 9.56016 7.9688 8.48438C7.9688 7.40859 8.38833 6.39609 9.15005 5.63437C9.91177 4.87266 10.9243 4.45312 12 4.45312C13.0758 4.45312 14.0883 4.87266 14.85 5.63437C15.6118 6.39609 16.0313 7.40859 16.0313 8.48438C16.0313 9.56016 15.6118 10.5727 14.85 11.3344C14.0883 12.0961 13.0758 12.5156 12 12.5156Z"/>
</g>
</svg>
