<svg width="24" height="24" viewBox="0 0 24 24" xmlns="http://www.w3.org/2000/svg">
<g id="Frame">
<path id="Vector" d="M20.8125 18.3751H15.5625C15.4594 18.3751 15.375 18.4594 15.375 18.5626V19.6876C15.375 19.7907 15.4594 19.8751 15.5625 19.8751H20.8125C20.9157 19.8751 21 19.7907 21 19.6876V18.5626C21 18.4594 20.9157 18.3751 20.8125 18.3751ZM8.75395 11.9626C8.73286 11.7587 8.72114 11.5524 8.72114 11.3438C8.72114 10.9712 8.7563 10.6079 8.82192 10.254C8.83833 10.1696 8.7938 10.0829 8.71645 10.0477C8.3977 9.90475 8.10473 9.70787 7.85161 9.45944C7.24692 8.86881 6.92114 8.06959 6.94458 7.2235C6.96567 6.47116 7.26802 5.75631 7.79536 5.21725C8.37427 4.62428 9.15239 4.30084 9.97974 4.31022C10.7274 4.31725 11.4493 4.60553 11.9954 5.11647C12.1805 5.28991 12.3399 5.48209 12.4735 5.68834C12.5204 5.761 12.6118 5.79147 12.6915 5.76334C13.104 5.62037 13.5399 5.51959 13.9875 5.47272C14.1188 5.45866 14.1938 5.31803 14.1352 5.20084C13.3735 3.69381 11.8172 2.65319 10.0172 2.62506C7.41802 2.58522 5.25239 4.71569 5.25239 7.31022C5.25239 8.78209 5.92973 10.0946 6.99145 10.9547C6.24614 11.2993 5.55942 11.7751 4.96411 12.3704C3.67974 13.6524 2.95317 15.3446 2.9063 17.1516C2.90395 17.2571 2.98833 17.3438 3.0938 17.3438H4.40864C4.50942 17.3438 4.5938 17.2641 4.59614 17.1633C4.64067 15.804 5.19145 14.5313 6.15942 13.5657C6.84848 12.8766 7.69223 12.3985 8.61333 12.1665C8.70474 12.143 8.76567 12.0563 8.75395 11.9626Z"/>
<path id="Vector_2" d="M19.3125 11.3438C19.3125 8.77975 17.2524 6.69616 14.6977 6.65631C12.1008 6.61647 9.93755 8.74694 9.93755 11.3438C9.93755 12.8157 10.6172 14.1282 11.6766 14.9883C10.9336 15.3329 10.2493 15.8063 9.65161 16.404C8.36723 17.686 7.64067 19.3782 7.5938 21.1829C7.59145 21.2883 7.67583 21.3751 7.7813 21.3751H9.0938C9.19458 21.3751 9.27895 21.2954 9.2813 21.1946C9.32583 19.8352 9.87661 18.5626 10.8446 17.5969C11.8547 16.5868 13.1954 16.0313 14.625 16.0313C17.2125 16.0313 19.3125 13.9337 19.3125 11.3438ZM16.7461 13.4649C16.179 14.0321 15.4266 14.3438 14.625 14.3438C13.8235 14.3438 13.0711 14.0321 12.504 13.4649C11.9297 12.8907 11.618 12.1266 11.625 11.3133C11.6321 10.5446 11.9391 9.80162 12.4758 9.25084C13.0383 8.67428 13.7907 8.35319 14.5946 8.34381C15.3891 8.33678 16.1602 8.64616 16.7274 9.20162C17.3086 9.77116 17.6274 10.5329 17.6274 11.3438C17.625 12.1454 17.3133 12.8977 16.7461 13.4649Z"/>
</g>
</svg>
