<svg width="23" height="23" viewBox="0 0 23 23" xmlns="http://www.w3.org/2000/svg">
<g id="Frame">
<path id="Vector" d="M15.2353 14.7209C15.7789 14.4289 16.401 14.2627 17.0636 14.2627H17.0659C17.1332 14.2627 17.1647 14.1818 17.1153 14.1369C16.4235 13.517 15.6418 13.0206 14.7861 12.659C14.7771 12.6545 14.7681 12.6522 14.7591 12.6478C16.154 11.6348 17.0614 9.98838 17.0614 8.13086C17.0614 5.05371 14.5727 2.56055 11.5023 2.56055C8.43188 2.56055 5.94546 5.05371 5.94546 8.13086C5.94546 9.98838 6.85288 11.6348 8.24995 12.6478C8.24096 12.6522 8.23198 12.6545 8.22299 12.659C7.21899 13.0835 6.31831 13.6922 5.54341 14.4693C4.7685 15.2442 4.16206 16.1472 3.73755 17.1534C3.32202 18.1372 3.09966 19.1816 3.07719 20.2553C3.07495 20.3563 3.15581 20.4395 3.25688 20.4395H4.60229C4.69887 20.4395 4.77973 20.3608 4.78198 20.2643C4.8269 18.5303 5.52094 16.9063 6.74956 15.6755C8.0186 14.402 9.70766 13.7012 11.5045 13.7012C12.7781 13.7012 13.9999 14.0538 15.0534 14.7142C15.1095 14.7479 15.1769 14.7523 15.2353 14.7209ZM11.5045 11.9941C10.4758 11.9941 9.50776 11.5921 8.77778 10.8621C8.05005 10.1321 7.64799 9.16182 7.64799 8.13086C7.64799 7.0999 8.05005 6.12959 8.77778 5.39961C9.50551 4.66963 10.4736 4.26758 11.5045 4.26758C12.5355 4.26758 13.5013 4.66963 14.2313 5.39961C14.959 6.12959 15.3611 7.0999 15.3611 8.13086C15.3611 9.16182 14.959 10.1321 14.2313 10.8621C13.5013 11.5921 12.5332 11.9941 11.5045 11.9941ZM19.7657 17.3398H14.375C14.2762 17.3398 14.1954 17.4207 14.1954 17.5195V18.7773C14.1954 18.8762 14.2762 18.957 14.375 18.957H19.7657C19.8645 18.957 19.9454 18.8762 19.9454 18.7773V17.5195C19.9454 17.4207 19.8645 17.3398 19.7657 17.3398Z"/>
</g>
</svg>
