<svg width="24" height="24" viewBox="0 0 24 24" xmlns="http://www.w3.org/2000/svg">
<g id="Frame">
<path id="Vector" d="M17.7891 7.85156C17.7891 4.64062 15.1875 2.03906 11.9766 2.03906C8.76567 2.03906 6.16411 4.64062 6.16411 7.85156C6.16411 9.79219 7.11567 11.5125 8.57817 12.5672C8.5688 12.5719 8.56177 12.5742 8.55708 12.5766C7.50942 13.0195 6.56958 13.6547 5.76098 14.4656C4.95239 15.2742 4.31958 16.2164 3.87661 17.2664C3.44302 18.293 3.21099 19.3828 3.18755 20.5031C3.1852 20.6086 3.26958 20.6953 3.37505 20.6953H4.77895C4.87973 20.6953 4.96411 20.6133 4.96645 20.5125C5.01333 18.7031 5.73755 17.0086 7.01958 15.7242C8.3438 14.3953 10.1016 13.6641 11.9766 13.6641C15.1875 13.6641 17.7891 11.0625 17.7891 7.85156ZM11.9766 11.8828C9.75005 11.8828 7.94536 10.0781 7.94536 7.85156C7.94536 5.625 9.75005 3.82031 11.9766 3.82031C14.2032 3.82031 16.0079 5.625 16.0079 7.85156C16.0079 10.0781 14.2032 11.8828 11.9766 11.8828ZM14.4375 17.0625H20.625C20.7282 17.0625 20.8125 16.9781 20.8125 16.875V15.5625C20.8125 15.4594 20.7282 15.375 20.625 15.375H16.4883L17.5946 13.9664C17.6204 13.9336 17.6344 13.8914 17.6344 13.8516C17.6344 13.7484 17.55 13.6641 17.4469 13.6641H15.7454C15.6305 13.6641 15.5227 13.718 15.45 13.807L13.8446 15.8484C13.7415 15.9797 13.6852 16.1438 13.6852 16.3125C13.6875 16.7273 14.0227 17.0625 14.4375 17.0625ZM20.0625 18.5625H13.875C13.7719 18.5625 13.6875 18.6469 13.6875 18.75V20.0625C13.6875 20.1656 13.7719 20.25 13.875 20.25H18.0118L16.9055 21.6586C16.8797 21.6914 16.8657 21.7336 16.8657 21.7734C16.8657 21.8766 16.95 21.9609 17.0532 21.9609H18.7547C18.8696 21.9609 18.9774 21.907 19.05 21.818L20.6555 19.7766C20.7586 19.6453 20.8149 19.4813 20.8149 19.3125C20.8125 18.8977 20.4774 18.5625 20.0625 18.5625Z"/>
</g>
</svg>
