<svg xmlns="http://www.w3.org/2000/svg" xmlns:xlink="http://www.w3.org/1999/xlink"
  version="1.1" width="16" height="16" viewBox="0 0 16 16">
  <defs>
    <clipPath id="master_svg0_18_00434">
      <rect x="0" y="0" width="16" height="16" rx="0" />
    </clipPath>
  </defs>
  <g clip-path="url(#master_svg0_18_00434)">
    <g>
      <path
        d="M4.936,16L0.6176,16C0.276267,16,0,15.7253,0,15.3867L0,0.613333C0,0.2752,0.276267,0,0.6176,0L9.9872,0C10.1525,0,10.3083,0.064,10.4245,0.178667L12.8283,2.56693C12.9429,2.6832,13.008,2.83787,13.008,3.0016L13.008,5.65866C13.008,5.99786,12.7317,6.272,12.3904,6.272C12.0491,6.272,11.7733,5.99786,11.7733,5.65866L11.7733,3.256L9.7296,1.2272L1.2336,1.2272L1.2336,14.7744L4.9344,14.7744C5.27573,14.7744,5.552,15.0491,5.552,15.3877C5.55141,15.7271,5.27536,16.0015,4.936,16ZM13.6347,13.0021C13.3861,13.0021,13.16,13.1515,13.0656,13.3797C12.9696,13.608,13.0229,13.8715,13.1989,14.0464L14.944,15.7808C15.1862,16.0211,15.577,16.0211,15.8192,15.7808C16.0603,15.5424,16.0603,15.1531,15.8192,14.9147L14.0741,13.1808C13.9562,13.0667,13.7987,13.0026,13.6347,13.0021ZM5.752,6.66667L3.28427,6.66667C2.94293,6.66667,2.66667,6.94133,2.66667,7.28C2.66667,7.6192,2.94293,7.89386,3.28427,7.89386L5.752,7.89386C6.09333,7.89386,6.3696,7.6192,6.3696,7.28053C6.3696,6.94133,6.09333,6.66667,5.752,6.66667ZM8.22026,4L3.28427,4C2.94293,4,2.66667,4.27467,2.66667,4.61333C2.66667,4.95253,2.94293,5.2272,3.28427,5.2272L8.22026,5.2272C8.5616,5.2272,8.83786,4.95253,8.83786,4.61387C8.83786,4.27467,8.5616,4,8.22026,4ZM5.752,9.33333L3.28427,9.33333C2.94293,9.33333,2.66667,9.608,2.66667,9.94666C2.66667,10.2859,2.94293,10.5605,3.28427,10.5605L5.752,10.5605C6.09333,10.5605,6.3696,10.2859,6.3696,9.9472C6.3696,9.608,6.09333,9.33333,5.752,9.33333ZM11.0923,8.57066C12.4539,8.57066,13.5605,9.6704,13.5605,11.0229C13.5605,12.3755,12.4533,13.4757,11.0923,13.4757C9.7312,13.4757,8.62453,12.3755,8.62453,11.0229C8.62453,9.6704,9.73173,8.57013,11.0923,8.57013L11.0923,8.57066ZM11.0923,7.34506C9.04746,7.34506,7.39093,8.99253,7.39093,11.0229C7.39093,13.0549,9.04906,14.7008,11.0923,14.7008C13.1376,14.7008,14.7936,13.0533,14.7936,11.0229C14.7936,8.99253,13.136,7.34506,11.0923,7.34506Z"
        fill-opacity="1" style="mix-blend-mode:passthrough" />
    </g>
  </g>
</svg>
