<svg width="24" height="24" viewBox="0 0 24 24" xmlns="http://www.w3.org/2000/svg">
<g id="Frame">
<path id="Vector" d="M11.9995 5.71875C16.1287 5.71875 19.476 9.06612 19.476 13.1953V18.6562C19.476 19.0705 19.1403 19.4062 18.726 19.4062H5.27292C4.85871 19.4062 4.52292 19.0705 4.52292 18.6562V13.1953C4.52292 9.06612 7.87029 5.71875 11.9995 5.71875ZM11.3432 1.59375H12.6557C12.7055 1.59375 12.7532 1.6135 12.7883 1.64867C12.8235 1.68383 12.8432 1.73152 12.8432 1.78125V4.03125C12.8432 4.08098 12.8235 4.12867 12.7883 4.16383C12.7532 4.199 12.7055 4.21875 12.6557 4.21875H11.3432C11.2935 4.21875 11.2458 4.199 11.2107 4.16383C11.1755 4.12867 11.1557 4.08098 11.1557 4.03125V1.78125C11.1557 1.73152 11.1755 1.68383 11.2107 1.64867C11.2458 1.6135 11.2935 1.59375 11.3432 1.59375ZM4.1539 4.49196C4.17131 4.47455 4.19198 4.46074 4.21473 4.45131C4.23748 4.44189 4.26186 4.43704 4.28648 4.43704C4.31111 4.43704 4.33549 4.44189 4.35824 4.45131C4.38099 4.46074 4.40166 4.47455 4.41907 4.49196L6.01005 6.08295C6.02747 6.10036 6.04128 6.12103 6.0507 6.14378C6.06013 6.16652 6.06497 6.19091 6.06497 6.21553C6.06497 6.24016 6.06013 6.26454 6.0507 6.28729C6.04128 6.31004 6.02747 6.33071 6.01005 6.34812L5.08198 7.2762C5.06456 7.29361 5.04389 7.30742 5.02115 7.31684C4.9984 7.32627 4.97401 7.33112 4.94939 7.33112C4.92477 7.33112 4.90038 7.32627 4.87763 7.31684C4.85489 7.30742 4.83422 7.29361 4.8168 7.2762L3.22582 5.68521C3.20841 5.6678 3.1946 5.64713 3.18517 5.62438C3.17575 5.60163 3.1709 5.57725 3.1709 5.55263C3.1709 5.528 3.17575 5.50362 3.18517 5.48087C3.1946 5.45812 3.20841 5.43745 3.22582 5.42004L4.1539 4.49196ZM19.8476 4.49196L20.7757 5.42004C20.7931 5.43745 20.8069 5.45812 20.8163 5.48087C20.8258 5.50362 20.8306 5.528 20.8306 5.55263C20.8306 5.57725 20.8258 5.60163 20.8163 5.62438C20.8069 5.64713 20.7931 5.6678 20.7757 5.68521L19.1847 7.2762C19.1673 7.29361 19.1466 7.30742 19.1239 7.31684C19.1011 7.32627 19.0767 7.33112 19.0521 7.33112C19.0275 7.33112 19.0031 7.32627 18.9804 7.31684C18.9576 7.30742 18.9369 7.29361 18.9195 7.2762L17.9914 6.34812C17.974 6.33071 17.9602 6.31004 17.9508 6.28729C17.9414 6.26454 17.9365 6.24016 17.9365 6.21553C17.9365 6.19091 17.9414 6.16652 17.9508 6.14378C17.9602 6.12103 17.974 6.10036 17.9914 6.08295L19.5824 4.49196C19.5998 4.47455 19.6205 4.46074 19.6433 4.45131C19.666 4.44189 19.6904 4.43704 19.715 4.43704C19.7396 4.43704 19.764 4.44189 19.7868 4.45131C19.8095 4.46074 19.8302 4.47455 19.8476 4.49196ZM4.49948 20.9062H19.4995C19.9137 20.9062 20.2495 21.242 20.2495 21.6562V22.2188C20.2495 22.2685 20.2297 22.3162 20.1946 22.3513C20.1594 22.3865 20.1117 22.4062 20.062 22.4062H3.93698C3.88726 22.4062 3.83956 22.3865 3.8044 22.3513C3.76924 22.3162 3.74948 22.2685 3.74948 22.2188V21.6562C3.74948 21.242 4.08527 20.9062 4.49948 20.9062ZM7.96823 13.4766V19.4062H9.46823V13.4766H7.96823Z"/>
</g>
</svg>
