<svg width="24" height="24" viewBox="0 0 24 24" xmlns="http://www.w3.org/2000/svg">
<g id="Frame">
<path id="Vector" d="M4.52344 18.6562C4.52344 19.0711 4.85859 19.4062 5.27344 19.4062H18.7266C19.1414 19.4062 19.4766 19.0711 19.4766 18.6562V13.1953C19.4766 9.06563 16.1297 5.71875 12 5.71875C7.87031 5.71875 4.52344 9.06563 4.52344 13.1953V18.6562ZM6.21094 13.1953C6.21094 9.99844 8.80313 7.40625 12 7.40625C15.1969 7.40625 17.7891 9.99844 17.7891 13.1953V17.7188H9.46875V13.7109C9.46875 13.582 9.36328 13.4766 9.23438 13.4766H8.20312C8.07422 13.4766 7.96875 13.582 7.96875 13.7109V17.7188H6.21094V13.1953ZM5.08359 7.27734L6.01172 6.34922C6.08437 6.27656 6.08437 6.15703 6.01172 6.08438L4.42031 4.49297C4.34766 4.42031 4.22813 4.42031 4.15547 4.49297L3.22734 5.42109C3.15469 5.49375 3.15469 5.61328 3.22734 5.68594L4.81875 7.27734C4.89141 7.35 5.00859 7.35 5.08359 7.27734ZM20.7773 5.42109L19.8492 4.49297C19.7766 4.42031 19.657 4.42031 19.5844 4.49297L17.993 6.08438C17.9203 6.15703 17.9203 6.27656 17.993 6.34922L18.9211 7.27734C18.9937 7.35 19.1133 7.35 19.1859 7.27734L20.7773 5.68594C20.85 5.61094 20.85 5.49375 20.7773 5.42109ZM19.5 20.9062H4.5C4.08516 20.9062 3.75 21.2414 3.75 21.6562V22.2188C3.75 22.3219 3.83438 22.4062 3.9375 22.4062H20.0625C20.1656 22.4062 20.25 22.3219 20.25 22.2188V21.6562C20.25 21.2414 19.9148 20.9062 19.5 20.9062ZM11.3438 4.21875H12.6562C12.7594 4.21875 12.8438 4.13438 12.8438 4.03125V1.78125C12.8438 1.67812 12.7594 1.59375 12.6562 1.59375H11.3438C11.2406 1.59375 11.1562 1.67812 11.1562 1.78125V4.03125C11.1562 4.13438 11.2406 4.21875 11.3438 4.21875Z"/>
</g>
</svg>
