<svg width="16" height="16" viewBox="0 0 16 16" xmlns="http://www.w3.org/2000/svg">
<path d="M8 15C4.14019 15 1 11.8598 1 8C1 4.14019 4.14019 1 8 1C11.8598 1 15 4.14019 15 8C15 11.8598 11.8598 15 8 15ZM8 2.00731C4.69542 2.00731 2.00647 4.69626 2.00647 8.00084C2.00647 11.3054 4.69542 13.9944 8 13.9944C11.3046 13.9944 13.9935 11.3054 13.9935 8.00084C13.9935 4.69626 11.3046 2.00731 8 2.00731Z" />
<path d="M8.07672 12.5549C7.31264 12.5549 6.57708 12.2479 6.1074 11.7338C5.69139 11.2783 5.50267 10.7005 5.56139 10.0622C5.56139 10.0572 5.56222 10.053 5.56306 10.0479C5.80797 8.02157 7.65988 6.32148 7.73788 6.25019C7.82473 6.17138 7.93638 6.12539 8.05355 6.12019C8.17071 6.11498 8.286 6.15088 8.3795 6.22167C9.12513 6.78529 10.6181 8.61791 10.6927 9.96825C10.7279 10.5965 10.4939 11.2096 10.0343 11.6952C9.5252 12.2336 8.79383 12.5549 8.07672 12.5549ZM6.56366 10.1612C6.53263 10.5117 6.62992 10.812 6.85135 11.0552C7.13316 11.3639 7.5911 11.5484 8.07672 11.5484C8.51538 11.5484 8.9859 11.3396 9.30378 11.0032C9.49249 10.8036 9.71308 10.4715 9.68791 10.0244C9.6443 9.23269 8.75106 7.97209 8.09937 7.31704C7.61039 7.84712 6.71128 8.96682 6.56366 10.1612Z" />
<path d="M7.37341 4.59963C7.37341 4.78626 7.44755 4.96524 7.57952 5.09721C7.71149 5.22918 7.89047 5.30332 8.0771 5.30332C8.26373 5.30332 8.44272 5.22918 8.57469 5.09721C8.70666 4.96524 8.78079 4.78626 8.78079 4.59963C8.78079 4.413 8.70666 4.23401 8.57469 4.10204C8.44272 3.97007 8.26373 3.89594 8.0771 3.89594C7.89047 3.89594 7.71149 3.97007 7.57952 4.10204C7.44755 4.23401 7.37341 4.413 7.37341 4.59963Z" />
</svg>
