<svg width="24" height="24" viewBox="0 0 24 24" xmlns="http://www.w3.org/2000/svg">
<g id="Frame">
<path id="Vector" d="M16.9448 14.543C15.6276 13.3969 13.9073 12.7031 12.023 12.7031C10.1386 12.7031 8.41827 13.3969 7.09874 14.5453C7.02374 14.6109 7.01437 14.7281 7.07999 14.8078L7.92374 15.8133C7.99171 15.893 8.11124 15.9023 8.19093 15.8344C9.2128 14.9344 10.5534 14.3906 12.023 14.3906C13.4925 14.3906 14.8331 14.9344 15.855 15.832C15.9347 15.9 16.0542 15.8906 16.1222 15.8109L16.9659 14.8055C17.0316 14.7281 17.0222 14.6109 16.9448 14.543ZM19.6964 11.2594C17.6175 9.52734 14.9433 8.48438 12.023 8.48438C9.10265 8.48438 6.42843 9.52734 4.34718 11.2594C4.26749 11.325 4.25812 11.4445 4.32374 11.5242L5.16749 12.5297C5.23312 12.6094 5.35265 12.6188 5.42999 12.5531C7.21827 11.0672 9.51749 10.1719 12.023 10.1719C14.5284 10.1719 16.8276 11.0672 18.6136 12.5531C18.6933 12.6188 18.8105 12.6094 18.8761 12.5297L19.7198 11.5242C19.7855 11.4445 19.7761 11.325 19.6964 11.2594Z" fill="black"/>
<path id="Vector_2" d="M22.4325 8.00156C19.5872 5.66719 15.945 4.26562 11.977 4.26562C8.03486 4.26562 4.41611 5.64844 1.57783 7.95469C1.4958 8.02031 1.48408 8.13985 1.55205 8.22188L2.3958 9.22735C2.46142 9.30469 2.57861 9.31641 2.65595 9.25313C5.20361 7.18828 8.44502 5.95313 11.977 5.95313C15.5349 5.95313 18.7974 7.20703 21.352 9.29766C21.4317 9.36328 21.5489 9.35157 21.6145 9.27188L22.4583 8.26641C22.5263 8.18672 22.5145 8.06719 22.4325 8.00156Z" fill="black"/>
<path id="Vector_3" d="M10.5 18.2344C10.5 18.6322 10.658 19.0137 10.9393 19.295C11.2206 19.5763 11.6022 19.7344 12 19.7344C12.3978 19.7344 12.7794 19.5763 13.0607 19.295C13.342 19.0137 13.5 18.6322 13.5 18.2344C13.5 17.8366 13.342 17.455 13.0607 17.1737C12.7794 16.8924 12.3978 16.7344 12 16.7344C11.6022 16.7344 11.2206 16.8924 10.9393 17.1737C10.658 17.455 10.5 17.8366 10.5 18.2344Z" fill="black"/>
</g>
</svg>
