<svg xmlns="http://www.w3.org/2000/svg" xmlns:xlink="http://www.w3.org/1999/xlink"
  version="1.1" width="18" height="18" viewBox="0 0 18 18">
  <defs>
    <clipPath id="master_svg0_67_00304">
      <rect x="0" y="0" width="18" height="18" rx="0" />
    </clipPath>
    <clipPath id="master_svg1_67_00305">
      <rect x="0" y="0" width="18" height="18" rx="0" />
    </clipPath>
  </defs>
  <g clip-path="url(#master_svg0_67_00304)">
    <g clip-path="url(#master_svg1_67_00305)">
      <g>
        <path
          d="M15.3735,5.304732421875L10.491,0.374983421875C10.41332,0.297200421875,10.32642,0.229196421875,10.23225,0.172483421875C10.2075,0.158983421875,10.18275,0.144733421875,10.157250000000001,0.132733421875C10.14075,0.123733421875,10.1235,0.116983421875,10.10775,0.110233421875C9.94727,0.038495021875,9.773530000000001,0.001192933875,9.59775,0.00073316602L3.5324999999999998,0.00073316602C2.8335,-0.000016833124999999995,2.25,0.566233421875,2.25,1.265982421875L2.25,16.734732421875C2.25,17.433032421875,2.8335,18.000032421875,3.5324999999999998,18.000032421875L14.484,18.000032421875C15.1838,18.000032421875,15.7328,17.433732421875,15.7328,16.734032421875L15.7328,6.196482421875C15.7328,5.861982421875,15.609,5.542482421875,15.3735,5.304732421875ZM10.248000000000001,1.940232421875L13.7775,5.484732421875L10.248000000000001,5.484732421875L10.248000000000001,1.940982421875L10.248000000000001,1.940232421875ZM14.4668,16.734732421875L3.51525,16.734732421875L3.51525,1.265982421875L8.98275,1.265982421875L8.98275,5.484732421875C8.98275,6.183732421875,9.56625,6.749982421875,10.26525,6.749982421875L14.4668,6.749982421875L14.4668,16.734732421875ZM9.818999999999999,13.252532421875C9.811499999999999,12.678732421875,9.818999999999999,12.125232421875,9.8085,11.592732421875L9.67875,9.205482421875L8.6235,9.205482421875L7.66725,11.592732421875C7.46214,12.144232421875,7.26188,12.697432421875,7.0665,13.252532421875L7.0365,13.252532421875L7.1175,11.592732421875L7.20525,9.205482421875L5.91675,9.205482421875L5.95425,14.449532421875L7.5075,14.449532421875L8.367,12.162032421875C8.51475,11.761532421875,8.652000000000001,11.334032421875,8.785499999999999,10.940232421875L8.82075,10.940232421875C8.799610000000001,11.347432421875,8.796109999999999,11.755232421875,8.81025,12.162732421875L8.880749999999999,14.449432421875L10.464,14.449432421875L12.2963,9.205482421875L11.0985,9.205482421875L10.341,11.592732421875C10.1835,12.134232421875,10.014,12.678732421875,9.8505,13.252432421875L9.818999999999999,13.252532421875Z"
          fill-opacity="1" style="mix-blend-mode:passthrough" />
      </g>
    </g>
  </g>
</svg>
