<svg width="24" height="24" viewBox="0 0 24 24" xmlns="http://www.w3.org/2000/svg">
<g id="Frame">
<path id="Vector" d="M20.5451 5.61328C20.5334 5.59219 20.517 5.5711 20.4982 5.55469C20.381 5.4375 20.1912 5.4375 20.074 5.55469L16.0357 9.59297L14.4443 8.00156L18.485 3.96094C18.5037 3.94219 18.5178 3.92344 18.5318 3.90235C18.6162 3.75938 18.5693 3.57656 18.4264 3.49219C16.1248 2.13281 13.1107 2.44453 11.1303 4.42266C9.55995 5.99297 9.03964 8.21953 9.57167 10.2211L2.70448 17.0883C2.63417 17.1586 2.63886 17.2734 2.71152 17.3461L6.68886 21.3234C6.76152 21.3961 6.8787 21.4008 6.94667 21.3305L13.8115 14.4656C15.8154 15 18.042 14.482 19.6146 12.9094C21.5928 10.9289 21.9045 7.91485 20.5451 5.61328ZM18.4217 11.7141C17.06 13.0758 15.0162 13.3383 13.392 12.5016L13.1857 12.7078L13.1834 12.7055L6.76152 19.1297L4.90527 17.2734L10.2982 11.8805C10.2982 11.8805 10.2982 11.8828 10.3006 11.8828L11.5381 10.6453C10.7014 9.0211 10.9639 6.97735 12.3256 5.61563C13.2443 4.69688 14.4842 4.27266 15.7006 4.36172L12.5857 7.47422C12.2928 7.76719 12.2928 8.24297 12.5857 8.53594L15.5037 11.4539C15.7967 11.7469 16.2725 11.7469 16.5654 11.4539L19.6779 8.34141C19.7646 9.55547 19.3404 10.7977 18.4217 11.7141Z"/>
</g>
</svg>
