<svg width="24" height="24" viewBox="0 0 24 24" xmlns="http://www.w3.org/2000/svg">
<g id="Frame">
<path id="Vector" d="M20.2809 5.73503C20.2738 5.728 18.8488 7.13659 16.0129 9.96784L14.023 7.978L18.2629 3.73815C16.0316 2.39519 13.1652 2.73972 11.3066 4.59831C9.84648 6.05847 9.30039 8.1655 9.8207 10.1249L9.86289 10.2819L3.21836 16.9241C3.07305 17.0694 3.07305 17.3085 3.21836 17.4538L6.53242 20.7678C6.67773 20.9132 6.9168 20.9132 7.06211 20.7678L13.702 14.128L13.859 14.1702C15.8207 14.6928 17.9277 14.1491 19.3902 12.6866C21.2512 10.828 21.5957 7.96159 20.2809 5.73503Z"/>
</g>
</svg>
