<svg xmlns="http://www.w3.org/2000/svg" xmlns:xlink="http://www.w3.org/1999/xlink"
  version="1.1" width="12" height="12" viewBox="0 0 12 12">
  <!-- <defs>
    <mask id="master_svg0_74_07550" style="mask-type:alpha" maskUnits="userSpaceOnUse">
      <g transform="matrix(-1,0,0,-1,48.00000190734863,48.00000190734863)">
        <rect x="24.000000953674316" y="24.000000953674316" width="12.000000953674316"
          height="12.000000953674316" rx="0" fill="#FFFFFF" fill-opacity="1" />
      </g>
    </mask>
  </defs> -->
  <g transform="matrix(-1,0,0,-1,24,24)" mask="url(#master_svg0_74_07550)">
    <g transform="matrix(-1,0,0,-1,48.00000190734863,48.00000190734863)">
      <path
        d="M35.42810095367432,33.53320095367432L35.989500953674316,29.977730953674318C36.080900953674316,29.398830953674317,35.634400953674316,28.875000953674316,35.04840095367432,28.875000953674316L31.870310953674316,28.875000953674316C31.273830953674317,28.875000953674316,30.81094095367432,28.354690953674314,30.878910953674318,27.761720953674317L31.154300953674316,25.379300953674317C31.238670953674315,24.644531953674317,30.66445095367432,24.000000953674316,29.925000953674317,24.000000953674316L29.398830953674317,24.000000953674316C29.006250953674318,24.000000953674316,28.687500953674316,24.318750953674318,28.687500953674316,24.711328953674318C28.687500953674316,26.200780953674318,28.22930095367432,27.655080953674315,27.375000953674316,28.875000953674316L27.375000953674316,34.54800095367432C27.375000953674316,35.34960095367432,28.025390953674318,36.000000953674316,28.826950953674316,36.000000953674316L32.54180095367432,36.000000953674316C33.979690953674314,36.000000953674316,35.20430095367432,34.953500953674315,35.42810095367432,33.53320095367432ZM26.625000953674316,35.625000953674316L26.625000953674316,29.250000953674316C26.625000953674316,29.042580953674317,26.457420953674315,28.875000953674316,26.250000953674316,28.875000953674316L25.125000953674316,28.875000953674316C24.503906953674317,28.875000953674316,24.000000953674316,29.378910953674318,24.000000953674316,30.000000953674316L24.000000953674316,34.875000953674316C24.000000953674316,35.496100953674315,24.503906953674317,36.000000953674316,25.125000953674316,36.000000953674316L26.250000953674316,36.000000953674316C26.457420953674315,36.000000953674316,26.625000953674316,35.832400953674316,26.625000953674316,35.625000953674316Z"
        fill-rule="evenodd" fill-opacity="1" />
    </g>
  </g>
</svg>
