<svg width="48" height="48" viewBox="0 0 48 48" fill="none" xmlns="http://www.w3.org/2000/svg">
<path fill-rule="evenodd" clip-rule="evenodd" d="M24 0C37.2548 0 48 10.7452 48 24C48 37.2548 37.2548 48 24 48C10.7452 48 0 37.2548 0 24C0 10.7452 10.7452 0 24 0ZM19.5007 15.8632C18.9986 15.3611 18.1994 15.3372 17.669 15.7915L17.5915 15.8632L15.8642 17.5905C15.3621 18.0926 15.3381 18.8919 15.7924 19.4223L15.8642 19.4997L20.3646 23.9997L15.8642 28.5002C15.3621 29.0023 15.3381 29.8015 15.7924 30.3319L15.8642 30.4094L17.5915 32.1367C18.0936 32.6388 18.8928 32.6628 19.4232 32.2085L19.5007 32.1367L24.0009 27.636L28.5012 32.1367C29.0033 32.6388 29.8025 32.6628 30.3329 32.2085L30.4104 32.1367L32.1377 30.4094C32.6398 29.9073 32.6637 29.1081 32.2094 28.5777L32.1377 28.5002L27.6373 23.9997L32.1377 19.4997C32.6398 18.9976 32.6637 18.1984 32.2094 17.668L32.1377 17.5905L30.4104 15.8632C29.9083 15.3611 29.109 15.3372 28.5786 15.7915L28.5012 15.8632L24.0009 20.3633L19.5007 15.8632Z" fill="#FF6400"/>
</svg>
