<svg width="48" height="48" viewBox="0 0 48 48" fill="none" xmlns="http://www.w3.org/2000/svg">
<path fill-rule="evenodd" clip-rule="evenodd" d="M24 48C37.2548 48 48 37.2548 48 24C48 10.7452 37.2548 0 24 0C10.7452 0 0 10.7452 0 24C0 37.2548 10.7452 48 24 48ZM20.251 32.2281C20.6025 32.5796 21.1724 32.5796 21.5238 32.2281L34.2518 19.5002C34.6032 19.1487 34.6032 18.5789 34.2518 18.2274L31.888 15.8636C31.5365 15.5122 30.9667 15.5122 30.6152 15.8636L20.887 25.5913L17.0994 21.8033C16.7479 21.4519 16.1781 21.4519 15.8266 21.8033L13.4628 24.1671C13.1114 24.5186 13.1114 25.0884 13.4628 25.4399L20.251 32.2281Z" fill="#28CE8E"/>
</svg>
