<svg width="48" height="48" viewBox="0 0 48 48" fill="none" xmlns="http://www.w3.org/2000/svg">
<path fill-rule="evenodd" clip-rule="evenodd" d="M24 48C10.7452 48 0 37.2548 0 24C0 10.7452 10.7452 0 24 0C37.2548 0 48 10.7452 48 24C48 37.2548 37.2548 48 24 48ZM26 27.6C26.4734 27.6 26.8699 27.2793 26.9736 26.8486L27 26.625V12.975C27 12.5135 26.6711 12.1268 26.2293 12.0258L26 12H22C21.5266 12 21.1301 12.3207 21.0264 12.7515L21 12.975V26.625C21 27.0866 21.3289 27.4732 21.7707 27.5743L22 27.6H26ZM26 36H22L21.7707 35.9736C21.3289 35.8699 21 35.4734 21 35L21 31L21.0264 30.7707C21.1301 30.3289 21.5266 30 22 30H26L26.2293 30.0264C26.6711 30.1301 27 30.5266 27 31L27 35L26.9736 35.2293C26.8699 35.6711 26.4734 36 26 36Z" fill="#FAAD10"/>
</svg>
