<svg xmlns="http://www.w3.org/2000/svg" xmlns:xlink="http://www.w3.org/1999/xlink" fill="none"
  version="1.1" width="32" height="32" viewBox="0 0 32 32">
  <g>
    <g>
      <path
        d="M21.034649324607848,22.633416178222657C19.39244932460785,22.162818178222658,17.69734932460785,21.901609078222656,15.98964932460785,21.855995178222656C14.23504932460785,21.918607478222658,12.498749324607848,22.234305178222655,10.834429324607848,22.793311178222655C9.11521932460785,23.364935178222655,7.324089324607849,23.691605178222655,5.5137793246078495,23.763705178222658C4.236209324607849,23.745035178222658,2.966539324607849,23.559685178222658,1.7369493246078491,23.212345178222655C1.9464673246078492,23.620355178222656,2.167011324607849,24.017335178222655,2.404097324607849,24.403285178222657C3.420819324607849,24.662085178222657,4.464709324607849,24.799045178222656,5.5137793246078495,24.811295178222657C7.2625593246078495,24.745055178222657,8.99292932460785,24.429435178222658,10.65247932460785,23.873985178222657C12.375849324607849,23.296385178222657,14.173249324607848,22.969575178222655,15.98964932460785,22.903585178222656C17.76244932460785,22.951365178222655,19.52224932460785,23.221815178222656,21.22764932460785,23.708575178222656C22.93344932460785,24.191485178222656,24.693249324607848,24.458225178222655,26.46554932460785,24.502535178222658C27.592549324607848,24.491705178222656,28.71554932460785,24.367955178222658,29.81784932460785,24.133125178222656C30.03834932460785,23.758195178222657,30.24784932460785,23.372245178222656,30.44084932460785,22.975265178222656C29.137049324607847,23.278735178222657,27.80414932460785,23.439575178222658,26.46554932460785,23.454945178222655C24.627849324607848,23.410575178222658,22.803149324607848,23.134555178222655,21.034649324607848,22.633416178222657Z"
        fill="#276AF0" fill-opacity="1" />
    </g>
    <g>
      <path
        d="M21.034649975967408,24.607291368896483C19.392149975967406,24.138616368896486,17.697149975967406,23.879261968896483,15.989649975967406,23.835384368896484C14.234749975967407,23.895278068896484,12.498069975967407,24.211046368896483,10.834419975967407,24.772700368896484C9.115689975967406,25.345324368896485,7.324149975967408,25.670214368896485,5.513779975967408,25.737584368896485C4.721929975967408,25.739684368896484,3.9316999759674074,25.665834368896483,3.1539499759674072,25.517034368896486C3.4571989759674073,25.930564368896484,3.776988975967407,26.322024368896486,4.118833975967407,26.702464368896486C4.581679975967408,26.758624368896484,5.047539975967407,26.786244368896483,5.513779975967408,26.785174368896485C7.262839975967407,26.721514368896486,8.993569975967407,26.405824368896486,10.652479975967406,25.847854368896485C12.376779975967407,25.274774368896484,14.173849975967407,24.949894368896484,15.989649975967406,24.882974368896484C17.754549975967407,24.929114368896485,19.50684997596741,25.195844368896484,21.205549975967408,25.676934368896486C22.91874997596741,26.159814368896484,24.686049975967407,26.424714368896485,26.465549975967406,26.465384368896483C27.053349975967407,26.464934368896486,27.640649975967406,26.429954368896485,28.224349975967407,26.360624368896485C28.544149975967407,25.985694368896485,28.841949975967406,25.594234368896483,29.128649975967406,25.191734368896483C28.248649975967407,25.340094368896484,27.357949975967408,25.415694368896485,26.465549975967406,25.417794368896484C24.628349975967406,25.377014368896486,22.803649975967407,25.104694368896485,21.034649975967408,24.607291368896483L21.034649975967408,24.607291368896483Z"
        fill="#276AF0" fill-opacity="1" />
    </g>
    <g>
      <path
        d="M21.034672018432616,26.586682322021485C19.392972018432616,26.113397322021484,17.697572018432616,25.852135422021483,15.989672018432618,25.809261322021484C14.235082018432617,25.871873622021486,12.498752018432617,26.187571322021483,10.834422018432617,26.746577322021484C9.115222018432618,27.318201322021483,7.3240920184326175,27.644871322021483,5.513780018432617,27.716971322021486L5.105772018432617,27.716971322021486C11.386172018432617,33.59632132202148,21.192772018432617,33.45258132202149,27.298072018432617,27.391671322021484C27.027972018432617,27.391671322021484,26.746772018432615,27.391671322021484,26.476572018432616,27.391671322021484C24.635972018432618,27.353491322021483,22.807472018432616,27.083021322021484,21.034672018432616,26.586682322021485L21.034672018432616,26.586682322021485Z"
        fill="#276AF0" fill-opacity="1" />
    </g>
    <g>
      <path
        d="M15.9897,0C10.648,0.00916302,5.66237,2.68066,2.69626,7.12319C-0.269856,11.5657,-0.826081,17.1945,1.21316,22.1317C2.60544,22.5712,4.05397,22.8071,5.51378,22.8319C7.26284,22.7682,8.99357,22.4526,10.6525,21.8946C12.3779,21.329,14.1749,21.0116,15.9897,20.9518C17.7611,20.9889,19.5208,21.2482,21.2276,21.7237C22.9326,22.2111,24.6927,22.4797,26.4655,22.5231C27.9547,22.4964,29.4354,22.2928,30.8764,21.9166C32.8275,16.9848,32.2116,11.4071,29.2315,7.01976C26.2514,2.63244,21.2934,0.0040788,15.9897,0ZM25.2683,4.63131C24.8757,5.32969,24.1549,5.78046,23.3551,5.82777L8.66127,5.82777C7.8615,5.78046,7.14067,5.32969,6.74805,4.63131C12.1362,0.227714,19.8802,0.227714,25.2683,4.63131ZM26.4545,21.1945C27.6127,21.1787,28.766,21.0401,29.895,20.781L29.895,20.7975C31.7173,15.4872,30.3494,9.60266,26.3718,5.64056C25.7543,7.05756,24.6681,7.84601,22.8265,7.84601L17.0207,7.84601L17.0207,8.97631L23.7087,8.97631C24.2151,8.95279,24.7097,9.13356,25.0816,9.47804C25.2879,9.67305,25.4367,9.921,25.5117,10.1948C25.5542,10.3002,25.5785,10.4121,25.5834,10.5256L25.5834,12.5602C25.5884,12.8247,25.5217,13.0858,25.3904,13.3155C25.3486,13.4216,25.293,13.5217,25.225,13.6133C24.9178,14.0195,24.4328,14.2518,23.9238,14.2363L17.0483,14.2363L17.0483,15.4383L24.216,15.4383C24.4869,15.4428,24.7538,15.5048,24.9989,15.6202C25.2536,15.6981,25.4848,15.8383,25.6716,16.0282C26.0364,16.4524,26.2204,17.0027,26.1843,17.561L26.1843,20.6156C25.4743,20.5959,24.7666,20.524,24.0671,20.4005L24.0671,18.1675C24.0826,17.9677,24.0193,17.7698,23.8907,17.6161C23.6326,17.4552,23.3266,17.389,23.025,17.4287L17.0207,17.4287L17.0207,18.9725L16.0117,18.9725C15.6644,18.9725,15.328,19.0056,14.9972,19.0056L14.9972,17.4563L9.02044,17.4563C8.71889,17.4165,8.4129,17.4828,8.1548,17.6437C8.02761,17.7979,7.96622,17.996,7.98388,18.1951L7.98388,20.5549C7.28657,20.7162,6.57609,20.814,5.86113,20.8471L5.86113,17.539C5.82504,16.9806,6.00912,16.4304,6.3739,16.0062C6.56064,15.8163,6.79186,15.676,7.04656,15.5982C7.29338,15.4904,7.56017,15.4359,7.8295,15.4383L14.9972,15.4383L14.9972,14.2363L8.08312,14.2363C7.57365,14.2536,7.08783,14.021,6.78191,13.6133C6.71798,13.5192,6.66262,13.4195,6.6165,13.3155C6.48869,13.0788,6.42591,12.8125,6.43455,12.5436L6.43455,10.5091C6.44211,10.3959,6.46626,10.2844,6.50623,10.1783C6.5812,9.90446,6.72997,9.65651,6.93629,9.4615C7.31226,9.11281,7.81371,8.93173,8.32572,8.95976L14.9972,8.95976L14.9972,7.82947L9.19136,7.82947C7.34981,7.82947,6.26363,7.05756,5.6461,5.62402C1.5991,9.64968,0.256681,15.6583,2.2056,21.0236C3.28233,21.3287,4.39472,21.49,5.51377,21.5033C7.13766,21.4356,8.74359,21.1367,10.2831,20.6156C12.1384,19.9981,14.0738,19.6545,16.0283,19.5955C17.8942,19.6405,19.7469,19.9221,21.5419,20.4336C23.1413,20.8908,24.7917,21.1464,26.4545,21.1945ZM15.0076,10.9004L15.0076,12.3119L9.08041,12.3119Q8.36915,12.3119,8.36915,11.7991L8.36915,11.2919C8.36871,11.2355,8.38398,11.1801,8.41326,11.132C8.5125,10.9831,8.7551,10.9114,9.14106,10.9114L15.0076,10.9004ZM22.8701,10.9004L16.998,10.9004L17.0201,12.3009L22.9307,12.3009Q23.642,12.3009,23.642,11.7881L23.642,11.2808C23.6424,11.2245,23.6271,11.1691,23.5979,11.1209C23.4986,10.9721,23.2615,10.9004,22.8701,10.9004Z"
        fill-rule="evenodd" fill="#276AF0" fill-opacity="1" />
    </g>
  </g>
</svg>
