<svg width="24" height="24" viewBox="0 0 24 24" xmlns="http://www.w3.org/2000/svg">
<g id="Frame">
<path id="Vector" d="M15.75 10.125C12.9305 10.125 10.5961 12.1992 10.1883 14.9062H7.5C7.13672 14.9062 6.84375 14.6133 6.84375 14.25V5.71875H13.6641C13.9969 6.54375 14.8055 7.125 15.75 7.125C16.9922 7.125 18 6.11719 18 4.875C18 3.63281 16.9922 2.625 15.75 2.625C14.8055 2.625 13.9969 3.20625 13.6641 4.03125H2.625V5.71875H5.15625V14.25C5.15625 15.5437 6.20625 16.5938 7.5 16.5938H10.1883C10.5961 19.3008 12.9305 21.375 15.75 21.375C18.8555 21.375 21.375 18.8555 21.375 15.75C21.375 12.6445 18.8555 10.125 15.75 10.125ZM18.75 16.3594C18.75 16.4625 18.6656 16.5469 18.5625 16.5469H16.5469V18.5625C16.5469 18.6656 16.4625 18.75 16.3594 18.75H15.1406C15.0375 18.75 14.9531 18.6656 14.9531 18.5625V16.5469H12.9375C12.8344 16.5469 12.75 16.4625 12.75 16.3594V15.1406C12.75 15.0375 12.8344 14.9531 12.9375 14.9531H14.9531V12.9375C14.9531 12.8344 15.0375 12.75 15.1406 12.75H16.3594C16.4625 12.75 16.5469 12.8344 16.5469 12.9375V14.9531H18.5625C18.6656 14.9531 18.75 15.0375 18.75 15.1406V16.3594Z"/>
</g>
</svg>
