<svg width="24" height="24" viewBox="0 0 24 24" xmlns="http://www.w3.org/2000/svg">
<g id="Frame">
<path id="Vector" d="M22.406 16.0898L22.4037 16.0875L22.4014 16.0852C21.3678 13.8984 19.767 12.7734 17.6365 12.7734C15.5061 12.7734 13.9053 13.9008 12.8693 16.0852V16.0875C12.7428 16.357 12.7428 16.6711 12.8693 16.9406C13.9053 19.125 15.5061 20.25 17.6365 20.25C19.767 20.25 21.3678 19.1227 22.4037 16.9383C22.5303 16.6688 22.5303 16.357 22.406 16.0898ZM17.6365 18.75C16.1811 18.75 15.1193 18.0469 14.3295 16.5117C15.117 14.9766 16.1811 14.2734 17.6365 14.2734C19.092 14.2734 20.1537 14.9766 20.9435 16.5117C20.156 18.0469 19.092 18.75 17.6365 18.75Z" fill="black"/>
<path id="Vector_2" d="M16.3359 16.5234C16.3359 16.8715 16.4742 17.2054 16.7204 17.4515C16.9665 17.6977 17.3003 17.8359 17.6484 17.8359C17.9965 17.8359 18.3304 17.6977 18.5765 17.4515C18.8227 17.2054 18.9609 16.8715 18.9609 16.5234C18.9609 16.1753 18.8227 15.8415 18.5765 15.5954C18.3304 15.3492 17.9965 15.2109 17.6484 15.2109C17.3003 15.2109 16.9665 15.3492 16.7204 15.5954C16.4742 15.8415 16.3359 16.1753 16.3359 16.5234Z" fill="black"/>
<path id="Vector_3" d="M3.1875 5.4375H19.6875V11.3672H21.375V4.5C21.375 4.08516 21.0398 3.75 20.625 3.75H2.25C1.83516 3.75 1.5 4.08516 1.5 4.5V16.6875C1.5 17.1023 1.83516 17.4375 2.25 17.4375H10.5V15.75H3.1875V5.4375Z" fill="black"/>
<path id="Vector_4" d="M16.9895 7.92432L16.127 7.06182C16.0543 6.98916 15.9348 6.98916 15.8621 7.06182L11.5543 11.3743L9.53633 9.354C9.46367 9.28135 9.34414 9.28135 9.27148 9.354L5.88945 12.736C5.8168 12.8087 5.8168 12.9282 5.88945 13.0009L6.75195 13.8634C6.82461 13.936 6.94414 13.936 7.0168 13.8634L9.40273 11.4774L11.4207 13.4978C11.4934 13.5704 11.6129 13.5704 11.6855 13.4978L16.9895 8.18916C17.0645 8.1165 17.0645 7.99697 16.9895 7.92432Z" fill="black"/>
</g>
</svg>
