<svg width="48" height="48" viewBox="0 0 48 48" fill="none" xmlns="http://www.w3.org/2000/svg">
<circle cx="24" cy="24" r="24" fill="#2E3133"/>
<path d="M10.21 25.004V26.306H13.556V35H15.068V26.306H18.4V25.004H10.21ZM24.031 24.808C22.505 24.808 21.301 25.298 20.433 26.306C19.593 27.258 19.187 28.49 19.187 30.016C19.187 31.528 19.593 32.76 20.433 33.712C21.301 34.692 22.505 35.196 24.031 35.196C25.543 35.196 26.747 34.706 27.629 33.726C28.469 32.774 28.889 31.542 28.889 30.016C28.889 28.476 28.469 27.23 27.629 26.292C26.747 25.298 25.543 24.808 24.031 24.808ZM24.031 26.152C25.095 26.152 25.921 26.488 26.495 27.188C27.055 27.874 27.349 28.812 27.349 30.016C27.349 31.206 27.055 32.144 26.495 32.816C25.921 33.502 25.095 33.852 24.031 33.852C22.967 33.852 22.141 33.488 21.553 32.788C20.993 32.102 20.713 31.178 20.713 30.016C20.713 28.84 20.993 27.916 21.553 27.23C22.141 26.502 22.967 26.152 24.031 26.152ZM30.4351 25.004V35H31.9611V31.108H34.5511C36.9451 31.108 38.1491 30.086 38.1491 28.042C38.1491 26.012 36.9591 25.004 34.5791 25.004H30.4351ZM31.9611 26.306H34.4531C35.1951 26.306 35.7411 26.446 36.0911 26.726C36.4411 26.978 36.6231 27.426 36.6231 28.042C36.6231 28.658 36.4411 29.106 36.1051 29.386C35.7551 29.666 35.2091 29.806 34.4531 29.806H31.9611V26.306Z" fill="white"/>
<path fill-rule="evenodd" clip-rule="evenodd" d="M24.2096 8.1088C24.1022 7.96373 23.8948 7.96373 23.7911 8.1088L20.0576 13.1115C19.9206 13.2958 20.0428 13.5702 20.2687 13.5702H22.591V19.6864C22.591 19.8589 22.7244 20 22.8873 20H25.1096C25.2726 20 25.4059 19.8589 25.4059 19.6864V13.5702H27.7319C27.9542 13.5702 28.0801 13.2958 27.943 13.1115L24.2096 8.1088Z" fill="white"/>
</svg>
