<svg width="16" height="16" viewBox="0 0 16 16" xmlns="http://www.w3.org/2000/svg">
<path d="M5.6338 1H2.97183C1.90704 1 1 1.88732 1 2.95211V5.61408C1 6.67887 1.90704 7.54648 2.97183 7.54648H7.54648V2.95211C7.54648 1.88732 6.69859 1 5.6338 1ZM6.58028 6.58028H2.97183C2.43944 6.58028 1.98592 6.14648 1.98592 5.61408V2.95211C1.98592 2.41972 2.43944 1.9662 2.97183 1.9662H5.6338C6.1662 1.9662 6.6 2.41972 6.6 2.95211V6.58028H6.58028Z" />
<path d="M13.0873 1H10.4253C9.36053 1 8.45349 1.88732 8.45349 2.95211V7.52676H13.0873C14.1521 7.52676 15 6.67887 15 5.59437V2.95211C15 1.88732 14.1521 1 13.0873 1ZM14.0338 5.61408C14.0338 6.14648 13.6197 6.58028 13.0873 6.58028H9.41969V2.95211C9.41969 2.41972 9.89293 1.9662 10.4253 1.9662H13.0873C13.6197 1.9662 14.0338 2.41972 14.0338 2.95211V5.61408Z" />
<path d="M1 10.4054V13.0674C1 14.1519 1.90704 14.9998 2.97183 14.9998H5.6338C6.69859 14.9998 7.54648 14.1519 7.54648 13.0674V8.45331H2.97183C1.90704 8.45331 1 9.34063 1 10.4054ZM6.58028 13.0674C6.58028 13.5998 6.1662 14.0139 5.61408 14.0139H2.97183C2.43944 14.0139 1.98592 13.5998 1.98592 13.0674V10.4054C1.98592 9.87303 2.43944 9.39979 2.97183 9.39979H6.58028V13.0674Z" />
<path d="M13.0873 8.45331H8.45349V13.0674C8.45349 14.1322 9.34081 14.9998 10.4253 14.9998H13.0873C14.1521 14.9998 15 14.1519 15 13.0674V10.4054C15 9.34063 14.1521 8.45331 13.0873 8.45331ZM14.0338 13.0674C14.0338 13.5998 13.6197 14.0139 13.0873 14.0139H10.4253C9.89293 14.0139 9.41969 13.5998 9.41969 13.0674V9.4195H13.0873C13.6197 9.4195 14.0338 9.87303 14.0338 10.4251V13.0674Z" />
</svg>
