<svg width="24" height="24" viewBox="0 0 24 24" xmlns="http://www.w3.org/2000/svg">
<g id="Frame">
<path id="Vector" d="M5.13086 14.9133L6.1293 15.5367C6.13164 15.5391 6.13633 15.5414 6.13867 15.5437L6.43633 15.7312L6.44336 15.7383C7.10664 16.1226 7.86133 16.3266 8.64883 16.3266C9.70117 16.3266 10.6926 15.9586 11.4848 15.3C12.5605 14.4 13.9176 13.8961 15.3496 13.8961C16.5754 13.8961 17.7449 14.2641 18.7387 14.9391L18.9238 15.0562L16.3082 8.28281V4.21406H17.7965C17.8996 4.21406 17.984 4.12969 17.984 4.02656V2.8125C17.984 2.70937 17.8996 2.625 17.7965 2.625H6.2043C6.10117 2.625 6.0168 2.70937 6.0168 2.8125V4.02891C6.0168 4.13203 6.10117 4.21641 6.2043 4.21641H7.69258V8.28515L5.13086 14.9133ZM12.9355 10.1531C13.4512 10.1531 13.8707 10.5727 13.8707 11.0883C13.8707 11.6039 13.4512 12.0234 12.9355 12.0234C12.4199 12.0234 12.0004 11.6039 12.0004 11.0883C12.0004 10.5727 12.4199 10.1531 12.9355 10.1531Z"/>
<path id="Vector_2" d="M20.5783 19.3383L19.8775 17.5242L17.8689 16.2703L17.8666 16.2727C17.8502 16.2609 17.8314 16.2492 17.815 16.2375L17.6252 16.1203L17.6182 16.1133C16.9385 15.7031 16.158 15.4852 15.3447 15.4852C14.2924 15.4852 13.301 15.8531 12.5088 16.5117C11.433 17.4117 10.076 17.9156 8.64395 17.9156C7.40176 17.9156 6.21816 17.5383 5.21738 16.8469L4.54004 16.4227L3.42207 19.3383C3.35645 19.5117 3.32129 19.6945 3.32129 19.8773C3.32129 20.7023 3.9916 21.3727 4.8166 21.3727H19.1814C19.3666 21.3727 19.5494 21.3375 19.7205 21.2719C20.4939 20.9766 20.8783 20.1094 20.5783 19.3383Z"/>
</g>
</svg>
