<svg width="24" height="24" viewBox="0 0 24 24" xmlns="http://www.w3.org/2000/svg">
<g id="Frame">
<path id="Vector" d="M15.2602 15.0445C15.2273 15.0164 15.1852 15 15.1406 15H13.8586C13.8023 15 13.7508 15.0258 13.7156 15.068L12 17.1258L10.2867 15.068C10.2516 15.0258 10.1977 15 10.1437 15H8.85938C8.81484 15 8.77266 15.0164 8.73984 15.0445C8.66016 15.1102 8.64844 15.2297 8.71641 15.3094L11.1141 18.1875L8.71406 21.068C8.64844 21.1477 8.65781 21.2648 8.7375 21.3328C8.77031 21.3609 8.8125 21.3773 8.85703 21.3773H10.1391C10.1953 21.3773 10.2469 21.3516 10.282 21.3094L11.9953 19.2516L13.7086 21.3094C13.7438 21.3516 13.7977 21.3773 13.8516 21.3773H15.1406C15.1852 21.3773 15.2273 21.3609 15.2602 21.3328C15.3398 21.2672 15.3516 21.1477 15.2836 21.068L12.8859 18.1875L15.2859 15.307C15.3516 15.2273 15.3398 15.1102 15.2602 15.0445ZM11.0625 12.75H12.9375C13.0406 12.75 13.125 12.6656 13.125 12.5625V2.8125C13.125 2.70937 13.0406 2.625 12.9375 2.625H11.0625C10.9594 2.625 10.875 2.70937 10.875 2.8125V12.5625C10.875 12.6656 10.9594 12.75 11.0625 12.75ZM8.20312 9.04687H4.3125V3.1875C4.3125 3.11016 4.24922 3.04687 4.17188 3.04687H2.76562C2.68828 3.04687 2.625 3.11016 2.625 3.1875V10.0312C2.625 10.4203 2.93906 10.7344 3.32812 10.7344H8.20312C8.28047 10.7344 8.34375 10.6711 8.34375 10.5937V9.1875C8.34375 9.11016 8.28047 9.04687 8.20312 9.04687ZM21.2344 3.04687H19.8281C19.7508 3.04687 19.6875 3.11016 19.6875 3.1875V9.04687H15.7969C15.7195 9.04687 15.6562 9.11016 15.6562 9.1875V10.5937C15.6562 10.6711 15.7195 10.7344 15.7969 10.7344H20.6719C21.0609 10.7344 21.375 10.4203 21.375 10.0312V3.1875C21.375 3.11016 21.3117 3.04687 21.2344 3.04687Z"/>
</g>
</svg>
