<svg width="24" height="24" viewBox="0 0 24 24" xmlns="http://www.w3.org/2000/svg">
<g id="Frame">
<path id="Vector" d="M5.88735 9.07031H7.49985V10.6828C7.49985 10.725 7.54204 10.7578 7.5936 10.7578H8.7186C8.77016 10.7578 8.81235 10.725 8.81235 10.6805V9.07031H10.4249C10.467 9.07031 10.4999 9.02813 10.4999 8.97656V7.85156C10.4999 7.8 10.467 7.75781 10.4225 7.75781H8.81235V6.14531C8.81235 6.10313 8.77016 6.07031 8.7186 6.07031H7.5936C7.54204 6.07031 7.49985 6.10313 7.49985 6.14531V7.75781H5.88735C5.84516 7.75781 5.81235 7.8 5.81235 7.85156V8.97656C5.81235 9.02813 5.84516 9.07031 5.88735 9.07031ZM13.5749 9.07031H18.1124C18.1545 9.07031 18.1874 9.02813 18.1874 8.97656V7.85156C18.1874 7.8 18.1545 7.75781 18.11 7.75781H13.5749C13.5327 7.75781 13.4999 7.8 13.4999 7.85156V8.97656C13.4999 9.02813 13.5327 9.07031 13.5749 9.07031ZM13.5749 15.2813H18.1124C18.1545 15.2813 18.1874 15.2391 18.1874 15.1875V14.0625C18.1874 14.0109 18.1545 13.9688 18.11 13.9688H13.5749C13.5327 13.9688 13.4999 14.0109 13.4999 14.0625V15.1875C13.4999 15.2391 13.5327 15.2813 13.5749 15.2813ZM13.5749 17.7188H18.1124C18.1545 17.7188 18.1874 17.6766 18.1874 17.625V16.5C18.1874 16.4484 18.1545 16.4063 18.11 16.4063H13.5749C13.5327 16.4063 13.4999 16.4484 13.4999 16.5V17.625C13.4999 17.6766 13.5327 17.7188 13.5749 17.7188ZM8.98813 15.8203L10.4225 14.0648C10.5233 13.943 10.4389 13.7578 10.2842 13.7578H9.0936C9.0397 13.7578 8.98813 13.7813 8.95532 13.8258L8.15845 14.8008L7.36157 13.8258C7.32641 13.7836 7.27485 13.7578 7.22329 13.7578H6.03032C5.87563 13.7578 5.79126 13.943 5.89204 14.0648L7.32641 15.8203L5.85688 17.6203C5.75376 17.7422 5.83813 17.9274 5.99282 17.9274H7.18345C7.23735 17.9274 7.28891 17.9039 7.32173 17.8594L8.15376 16.8399L8.98579 17.8594C9.02095 17.9016 9.07251 17.9274 9.12407 17.9274H10.3147C10.4694 17.9274 10.5538 17.7422 10.453 17.6203L8.98813 15.8203Z"/>
<path id="Vector_2" d="M20.625 2.625H3.375C2.96016 2.625 2.625 2.96016 2.625 3.375V20.625C2.625 21.0398 2.96016 21.375 3.375 21.375H20.625C21.0398 21.375 21.375 21.0398 21.375 20.625V3.375C21.375 2.96016 21.0398 2.625 20.625 2.625ZM19.7812 19.7812H4.21875V4.21875H19.7812V19.7812Z"/>
</g>
</svg>
