<svg width="24" height="24" viewBox="0 0 24 24" xmlns="http://www.w3.org/2000/svg">
<g id="Frame">
<path id="Vector" d="M21.75 3.75H2.25C1.83516 3.75 1.5 4.08516 1.5 4.5V19.5C1.5 19.9148 1.83516 20.25 2.25 20.25H21.75C22.1648 20.25 22.5 19.9148 22.5 19.5V4.5C22.5 4.08516 22.1648 3.75 21.75 3.75ZM20.8125 18.5625H3.1875V5.4375H20.8125V18.5625Z"/>
<path id="Vector_2" d="M14.3038 11.1562H17.196C17.2265 11.1562 17.2499 11.0719 17.2499 10.9688V9.84375C17.2499 9.74063 17.2265 9.65625 17.196 9.65625H14.3038C14.2734 9.65625 14.2499 9.74063 14.2499 9.84375V10.9688C14.2499 11.0719 14.2734 11.1562 14.3038 11.1562ZM14.4163 14.5312H18.7687C18.8601 14.5312 18.9351 14.4469 18.9351 14.3438V13.2188C18.9351 13.1156 18.8601 13.0312 18.7687 13.0312H14.4163C14.3249 13.0312 14.2499 13.1156 14.2499 13.2188V14.3438C14.2499 14.4469 14.3249 14.5312 14.4163 14.5312ZM5.24993 15.7734H6.27884C6.37727 15.7734 6.45696 15.6961 6.46399 15.5977C6.55306 14.4141 7.54212 13.4766 8.74212 13.4766C9.94212 13.4766 10.9312 14.4141 11.0202 15.5977C11.0273 15.6961 11.107 15.7734 11.2054 15.7734H12.2343C12.3421 15.7734 12.4265 15.6844 12.4218 15.5766C12.3562 14.3273 11.6718 13.2398 10.6734 12.6211C11.0976 12.1547 11.3554 11.5336 11.3554 10.8516C11.3554 9.40078 10.1859 8.22656 8.74446 8.22656C7.30306 8.22656 6.13353 9.40078 6.13353 10.8516C6.13353 11.5336 6.39134 12.1523 6.81556 12.6211C5.81477 13.2422 5.13274 14.3273 5.06712 15.5766C5.05774 15.6844 5.14212 15.7734 5.24993 15.7734ZM8.74212 9.63281C9.41009 9.63281 9.95384 10.1789 9.95384 10.8516C9.95384 11.5242 9.41009 12.0703 8.74212 12.0703C8.07415 12.0703 7.5304 11.5242 7.5304 10.8516C7.5304 10.1789 8.07415 9.63281 8.74212 9.63281Z"/>
</g>
</svg>
