<svg width="24" height="24" viewBox="0 0 24 24" xmlns="http://www.w3.org/2000/svg">
<g id="camera">
<rect id="&#231;&#159;&#169;&#229;&#189;&#162;" opacity="0.01" width="24" height="24"/>
<path id="&#229;&#189;&#162;&#231;&#138;&#182;" fill-rule="evenodd" clip-rule="evenodd" d="M17.0625 5.8125H20.25C21.2859 5.8125 22.125 6.65156 22.125 7.6875V18.375C22.125 19.4109 21.2859 20.25 20.25 20.25H3.75C2.71406 20.25 1.875 19.4109 1.875 18.375V7.6875C1.875 6.65156 2.71406 5.8125 3.75 5.8125H6.9375L7.69922 3.68437C7.80469 3.38672 8.08828 3.1875 8.40469 3.1875H15.5953C15.9141 3.1875 16.1953 3.38672 16.3031 3.68437L17.0625 5.8125ZM20.25 18.5625C20.3531 18.5625 20.4375 18.4781 20.4375 18.375V7.6875C20.4375 7.58437 20.3531 7.5 20.25 7.5H15.8719L15.4711 6.37969L14.9344 4.875H9.06328L8.52656 6.37969L8.12578 7.5H3.75C3.64688 7.5 3.5625 7.58437 3.5625 7.6875V18.375C3.5625 18.4781 3.64688 18.5625 3.75 18.5625H20.25ZM12 9C9.92813 9 8.25 10.6781 8.25 12.75C8.25 14.8219 9.92813 16.5 12 16.5C14.0719 16.5 15.75 14.8219 15.75 12.75C15.75 10.6781 14.0719 9 12 9ZM9.75 12.75C9.75 13.9922 10.7578 15 12 15C13.2422 15 14.25 13.9922 14.25 12.75C14.25 11.5078 13.2422 10.5 12 10.5C10.7578 10.5 9.75 11.5078 9.75 12.75Z"/>
</g>
</svg>
