<svg width="24" height="24" viewBox="0 0 24 24" xmlns="http://www.w3.org/2000/svg">
<g id="camera-fill">
<rect id="&#231;&#159;&#169;&#229;&#189;&#162;" opacity="0.01" width="24" height="24"/>
<path id="&#229;&#189;&#162;&#231;&#138;&#182;" fill-rule="evenodd" clip-rule="evenodd" d="M20.25 6.09375H17.0625L16.3031 3.96562C16.1953 3.66797 15.9141 3.46875 15.5953 3.46875H8.40469C8.08828 3.46875 7.80469 3.66797 7.69922 3.96562L6.9375 6.09375H3.75C2.71406 6.09375 1.875 6.93281 1.875 7.96875V18.6562C1.875 19.6922 2.71406 20.5312 3.75 20.5312H20.25C21.2859 20.5312 22.125 19.6922 22.125 18.6562V7.96875C22.125 6.93281 21.2859 6.09375 20.25 6.09375ZM12 16.7812C9.92813 16.7812 8.25 15.1031 8.25 13.0312C8.25 10.9594 9.92813 9.28125 12 9.28125C14.0719 9.28125 15.75 10.9594 15.75 13.0312C15.75 15.1031 14.0719 16.7812 12 16.7812ZM12 15.2812C10.7574 15.2812 9.75 14.2739 9.75 13.0312C9.75 11.7886 10.7574 10.7812 12 10.7812C13.2426 10.7812 14.25 11.7886 14.25 13.0312C14.25 14.2739 13.2426 15.2812 12 15.2812Z"/>
</g>
</svg>
