<svg width="24" height="24" viewBox="0 0 24 24" xmlns="http://www.w3.org/2000/svg">
<g id="Frame">
<path id="Vector" d="M8.90625 16.5H15.0938C15.1969 16.5 15.2812 16.4156 15.2812 16.3125V14.3438C15.2812 14.2406 15.1969 14.1562 15.0938 14.1562H14.1562C14.0531 14.1562 13.9688 14.2406 13.9688 14.3438V15.1875H10.0312V14.3438C10.0312 14.2406 9.94687 14.1562 9.84375 14.1562H8.90625C8.80312 14.1562 8.71875 14.2406 8.71875 14.3438V16.3125C8.71875 16.4156 8.80312 16.5 8.90625 16.5Z"/>
<path id="Vector_2" d="M16.875 13.6172C16.875 13.8658 16.9738 14.1043 17.1496 14.2801C17.3254 14.4559 17.5639 14.5547 17.8125 14.5547C18.0611 14.5547 18.2996 14.4559 18.4754 14.2801C18.6512 14.1043 18.75 13.8658 18.75 13.6172C18.75 13.3685 18.6512 13.1301 18.4754 12.9543C18.2996 12.7785 18.0611 12.6797 17.8125 12.6797C17.5639 12.6797 17.3254 12.7785 17.1496 12.9543C16.9738 13.1301 16.875 13.3685 16.875 13.6172Z"/>
<path id="Vector_3" d="M22.4763 9.68906L21.9208 8.71875C21.8692 8.62969 21.7544 8.59922 21.6653 8.65078L20.477 9.34453L18.6419 4.27734C18.4427 3.65625 17.8661 3.23672 17.2145 3.23672H7.05907C6.24579 3.23672 5.52392 3.76172 5.27314 4.5375L3.5247 9.34688L2.33407 8.65313C2.24501 8.60156 2.13017 8.63203 2.07861 8.72109L1.52314 9.68906C1.47157 9.77813 1.50204 9.89063 1.59111 9.94219L3.00673 10.7672L2.66689 11.7047C2.63876 11.7797 2.6247 11.8594 2.6247 11.9391V20.1C2.6247 20.468 2.90126 20.7656 3.24111 20.7656H4.82548C5.11376 20.7656 5.36454 20.5477 5.42548 20.243L5.60595 19.3594H18.3934L18.5739 20.243C18.6372 20.5477 18.8856 20.7656 19.1739 20.7656H20.7583C21.0981 20.7656 21.3747 20.468 21.3747 20.1V11.9391C21.3747 11.8594 21.3606 11.7797 21.3325 11.7047L20.9927 10.7672L22.406 9.94219C22.495 9.89063 22.5255 9.77813 22.4763 9.68906ZM19.6872 12.1172V17.6719H4.3122V12.1172L4.67782 11.1094H19.3216L19.6872 12.1172ZM6.85986 5.11172L6.87157 5.08125L6.88095 5.05078C6.90673 4.97344 6.97704 4.92188 7.05907 4.92188H17.0809L18.8481 9.79688H5.15595L6.85986 5.11172Z"/>
<path id="Vector_4" d="M5.25 13.6172C5.25 13.8658 5.34877 14.1043 5.52459 14.2801C5.7004 14.4559 5.93886 14.5547 6.1875 14.5547C6.43614 14.5547 6.6746 14.4559 6.85041 14.2801C7.02623 14.1043 7.125 13.8658 7.125 13.6172C7.125 13.3685 7.02623 13.1301 6.85041 12.9543C6.6746 12.7785 6.43614 12.6797 6.1875 12.6797C5.93886 12.6797 5.7004 12.7785 5.52459 12.9543C5.34877 13.1301 5.25 13.3685 5.25 13.6172Z"/>
</g>
</svg>
