<svg width="24" height="24" viewBox="0 0 24 24" xmlns="http://www.w3.org/2000/svg">
<g id="Frame">
<path id="Vector" d="M16.5 10.4531H7.5C7.39687 10.4531 7.3125 10.5375 7.3125 10.6406V20.0625C7.3125 20.1656 7.39687 20.25 7.5 20.25H16.5C16.6031 20.25 16.6875 20.1656 16.6875 20.0625V10.6406C16.6875 10.5375 16.6031 10.4531 16.5 10.4531ZM8.8125 11.9531H15.1875V14.6953H8.8125V11.9531ZM15.1875 18.75H8.8125V16.0078H15.1875V18.75Z"/>
<path id="Vector_2" d="M9.9375 17.5312C9.9375 17.7302 10.0165 17.9209 10.1572 18.0616C10.2978 18.2022 10.4886 18.2812 10.6875 18.2812C10.8864 18.2812 11.0772 18.2022 11.2178 18.0616C11.3585 17.9209 11.4375 17.7302 11.4375 17.5312C11.4375 17.3323 11.3585 17.1416 11.2178 17.0009C11.0772 16.8603 10.8864 16.7812 10.6875 16.7812C10.4886 16.7812 10.2978 16.8603 10.1572 17.0009C10.0165 17.1416 9.9375 17.3323 9.9375 17.5312Z"/>
<path id="Vector_3" d="M9.9375 13.3594C9.9375 13.5583 10.0165 13.7491 10.1572 13.8897C10.2978 14.0304 10.4886 14.1094 10.6875 14.1094C10.8864 14.1094 11.0772 14.0304 11.2178 13.8897C11.3585 13.7491 11.4375 13.5583 11.4375 13.3594C11.4375 13.1605 11.3585 12.9697 11.2178 12.829C11.0772 12.6884 10.8864 12.6094 10.6875 12.6094C10.4886 12.6094 10.2978 12.6884 10.1572 12.829C10.0165 12.9697 9.9375 13.1605 9.9375 13.3594Z"/>
<path id="Vector_4" d="M19.0173 8.64609C17.9438 5.8125 15.2087 3.79688 12.0048 3.79688C8.80085 3.79688 6.06569 5.81015 4.99226 8.64375C2.97429 9.17578 1.48835 11.0203 1.50007 13.2094C1.51413 15.6562 3.41257 17.6461 5.80319 17.8594C5.91335 17.8687 6.0071 17.782 6.0071 17.6719V16.2562C6.0071 16.1625 5.93679 16.0828 5.84304 16.0711C5.21022 15.9914 4.61257 15.7148 4.15319 15.2625C3.59069 14.7117 3.28132 13.9711 3.28132 13.1859C3.28132 12.5297 3.4946 11.9109 3.89538 11.3953C4.28679 10.8937 4.83757 10.5305 5.4446 10.3711L6.33288 10.1367L6.65866 9.27656C6.86022 8.74218 7.14147 8.24062 7.49538 7.78828C7.8446 7.33828 8.25944 6.94453 8.72351 6.6164C9.68679 5.93906 10.8212 5.58047 12.0048 5.58047C13.1883 5.58047 14.3227 5.93906 15.286 6.61875C15.7524 6.94687 16.1649 7.34062 16.5141 7.79062C16.868 8.24297 17.1493 8.74453 17.3508 9.2789L17.6743 10.1367L18.5602 10.3711C19.8305 10.7086 20.7188 11.8641 20.7188 13.1836C20.7188 13.9711 20.4094 14.7094 19.8469 15.2601C19.3899 15.7101 18.7946 15.9891 18.1618 16.0687C18.068 16.0805 18.0001 16.1601 18.0001 16.2539V17.6719C18.0001 17.782 18.0962 17.8687 18.2063 17.8594C20.5899 17.6437 22.4837 15.6562 22.5001 13.2141C22.5141 11.025 21.0305 9.18047 19.0173 8.64609Z"/>
</g>
</svg>
