<svg width="24" height="24" viewBox="0 0 24 24" xmlns="http://www.w3.org/2000/svg">
<g id="Frame">
<path id="Vector" d="M20.625 2.625H3.375C2.96016 2.625 2.625 2.96016 2.625 3.375V20.625C2.625 21.0398 2.96016 21.375 3.375 21.375H20.625C21.0398 21.375 21.375 21.0398 21.375 20.625V3.375C21.375 2.96016 21.0398 2.625 20.625 2.625ZM19.6875 19.6875H4.3125V4.3125H19.6875V19.6875Z"/>
<path id="Vector_2" d="M8.69063 12.9938C7.41094 12.9938 6.375 14.0297 6.375 15.3094C6.375 16.5891 7.41094 17.625 8.69063 17.625C9.97031 17.625 11.0063 16.5891 11.0063 15.3094V14.3156H12.9914V15.3094C12.9914 16.5891 14.0273 17.625 15.307 17.625C16.5867 17.625 17.6227 16.5891 17.6227 15.3094C17.6227 14.0297 16.5867 12.9938 15.307 12.9938H14.3133V11.0086H15.307C16.5867 11.0086 17.6227 9.97266 17.6227 8.69297C17.6227 7.41329 16.5867 6.37735 15.307 6.37735C14.0273 6.37735 12.9914 7.41329 12.9914 8.69297V9.68672H11.0063V8.69297C11.0063 7.41329 9.97031 6.37735 8.69063 6.37735C7.41094 6.37735 6.375 7.41094 6.375 8.69063C6.375 9.97032 7.41094 11.0063 8.69063 11.0063H9.68438V12.9914H8.69063V12.9938ZM9.68438 15.3094C9.68438 15.8578 9.23906 16.3031 8.69063 16.3031C8.14219 16.3031 7.69688 15.8578 7.69688 15.3094C7.69688 14.7609 8.14219 14.3156 8.69063 14.3156H9.68438V15.3094ZM14.3156 8.69063C14.3156 8.14219 14.7609 7.69688 15.3094 7.69688C15.8578 7.69688 16.3031 8.14219 16.3031 8.69063C16.3031 9.23907 15.8578 9.68438 15.3094 9.68438H14.3156V8.69063ZM14.3156 14.3156H15.3094C15.8578 14.3156 16.3031 14.7609 16.3031 15.3094C16.3031 15.8578 15.8578 16.3031 15.3094 16.3031C14.7609 16.3031 14.3156 15.8578 14.3156 15.3094V14.3156ZM11.0063 11.0063H12.9914V12.9914H11.0063V11.0063ZM8.69063 9.68438C8.14219 9.68438 7.69688 9.23907 7.69688 8.69063C7.69688 8.14219 8.14219 7.69688 8.69063 7.69688C9.23906 7.69688 9.68438 8.14219 9.68438 8.69063V9.68438H8.69063Z"/>
</g>
</svg>
