<svg width="24" height="24" viewBox="0 0 24 24" xmlns="http://www.w3.org/2000/svg">
<g id="Frame">
<path id="Vector" d="M12 1.5C6.20156 1.5 1.5 6.20156 1.5 12C1.5 17.7984 6.20156 22.5 12 22.5C17.7984 22.5 22.5 17.7984 22.5 12C22.5 6.20156 17.7984 1.5 12 1.5ZM12 20.7188C7.18594 20.7188 3.28125 16.8141 3.28125 12C3.28125 7.18594 7.18594 3.28125 12 3.28125C16.8141 3.28125 20.7188 7.18594 20.7188 12C20.7188 16.8141 16.8141 20.7188 12 20.7188Z" />
<path id="Vector_2" d="M16.6502 6.93522C16.4627 6.86257 16.2588 6.86726 16.076 6.94694L9.72441 9.72663L6.94707 16.0782C6.8627 16.2704 6.8627 16.4883 6.94707 16.6805C7.02676 16.8633 7.17441 17.0063 7.36191 17.079C7.45098 17.1141 7.54238 17.1305 7.63613 17.1305C7.73926 17.1305 7.84004 17.1094 7.93613 17.0673L14.2877 14.2876L17.065 7.93601C17.1494 7.74382 17.1494 7.52585 17.065 7.33366C16.983 7.14851 16.8353 7.00788 16.6502 6.93522ZM13.5189 12.5251L14.133 13.1391L13.1393 14.1329L12.5252 13.5188L8.90644 15.1032L10.4885 11.4844L9.89082 10.8844L10.8846 9.89069L11.4822 10.4883L15.1033 8.90632L13.5189 12.5251Z" />
<path id="Vector_3" d="M10.8844 9.89062L9.89062 10.8844L10.4883 11.4844L12.525 13.5187L13.1391 14.1328L14.1328 13.1391L13.5187 12.525L11.4844 10.4883L10.8844 9.89062Z" />
</g>
</svg>
