<svg width="24" height="24" viewBox="0 0 24 24" xmlns="http://www.w3.org/2000/svg">
<g id="Frame">
<path id="Vector" d="M20.625 2.625H3.375C2.96016 2.625 2.625 2.96016 2.625 3.375V20.625C2.625 21.0398 2.96016 21.375 3.375 21.375H20.625C21.0398 21.375 21.375 21.0398 21.375 20.625V3.375C21.375 2.96016 21.0398 2.625 20.625 2.625ZM9.46875 16.0078V17.8125C9.46875 17.9156 9.38438 18 9.28125 18H8.15625C8.05312 18 7.96875 17.9156 7.96875 17.8125V16.0078C6.99141 15.6891 6.28125 14.7703 6.28125 13.6875C6.28125 12.6047 6.99141 11.6836 7.96875 11.3672V6.1875C7.96875 6.08437 8.05312 6 8.15625 6H9.28125C9.38438 6 9.46875 6.08437 9.46875 6.1875V11.3672C10.4461 11.6859 11.1562 12.6047 11.1562 13.6875C11.1562 14.7703 10.4461 15.6914 9.46875 16.0078ZM16.0219 12.6352C16.0266 12.6352 16.0289 12.6328 16.0312 12.6328V17.8125C16.0312 17.9156 15.9469 18 15.8438 18H14.7188C14.6156 18 14.5312 17.9156 14.5312 17.8125V12.6328C14.5359 12.6328 14.5383 12.6352 14.5406 12.6352C13.5563 12.3211 12.8438 11.4 12.8438 10.3125C12.8438 9.225 13.5563 8.30391 14.5406 7.98984C14.5359 7.98984 14.5336 7.99219 14.5312 7.99219V6.1875C14.5312 6.08437 14.6156 6 14.7188 6H15.8438C15.9469 6 16.0312 6.08437 16.0312 6.1875V7.99219C16.0266 7.99219 16.0242 7.98984 16.0219 7.98984C17.0062 8.30391 17.7188 9.225 17.7188 10.3125C17.7188 11.4 17.0062 12.3211 16.0219 12.6352Z"/>
<path id="Vector_2" d="M14.4375 10.3125C14.4375 10.5363 14.5264 10.7509 14.6846 10.9091C14.8429 11.0674 15.0575 11.1562 15.2812 11.1562C15.505 11.1562 15.7196 11.0674 15.8779 10.9091C16.0361 10.7509 16.125 10.5363 16.125 10.3125C16.125 10.0887 16.0361 9.87411 15.8779 9.71588C15.7196 9.55764 15.505 9.46875 15.2812 9.46875C15.0575 9.46875 14.8429 9.55764 14.6846 9.71588C14.5264 9.87411 14.4375 10.0887 14.4375 10.3125Z"/>
<path id="Vector_3" d="M9.45449 13.2773L9.41934 13.2211C9.41934 13.2188 9.41699 13.2188 9.41699 13.2164L9.3959 13.1883C9.39356 13.1859 9.39121 13.1836 9.39121 13.1813C9.36778 13.1508 9.34434 13.1227 9.31621 13.0969L9.31152 13.0922C9.30215 13.0828 9.29278 13.0734 9.2834 13.0664C9.26465 13.0477 9.24356 13.0313 9.22246 13.0172H9.22012L9.19199 12.9961C9.18965 12.9938 9.18496 12.9914 9.18262 12.9891C9.15449 12.9703 9.12402 12.9516 9.09121 12.9375C9.08652 12.9352 9.07949 12.9328 9.07481 12.9281C9.06543 12.9234 9.0584 12.9211 9.04903 12.9164C9.04199 12.9141 9.03262 12.9094 9.02559 12.907C9.01387 12.9024 9.00215 12.8977 8.99043 12.8953C8.98106 12.893 8.96934 12.8883 8.95996 12.8859L8.93887 12.8789C8.92715 12.8766 8.91777 12.8742 8.90606 12.8719C8.90137 12.8695 8.89434 12.8695 8.88965 12.8672C8.87324 12.8649 8.85684 12.8602 8.84043 12.8578C8.83574 12.8578 8.83106 12.8578 8.82637 12.8555C8.81231 12.8531 8.80059 12.8531 8.78652 12.8508C8.78184 12.8508 8.77715 12.8508 8.77012 12.8484C8.75137 12.8484 8.73496 12.8461 8.71621 12.8461C8.69746 12.8461 8.68106 12.8461 8.66231 12.8484C8.65762 12.8484 8.65293 12.8484 8.6459 12.8508C8.63184 12.8508 8.61777 12.8531 8.60606 12.8555C8.60137 12.8555 8.59668 12.8555 8.59199 12.8578C8.57559 12.8602 8.55918 12.8625 8.54277 12.8672C8.53809 12.8695 8.53106 12.8695 8.52637 12.8719C8.51465 12.8742 8.50527 12.8766 8.49356 12.8789L8.47246 12.8859C8.46309 12.8883 8.45137 12.893 8.44199 12.8953C8.43027 12.9 8.41856 12.9047 8.40684 12.907C8.39981 12.9094 8.39043 12.9141 8.3834 12.9164C8.37402 12.9211 8.36699 12.9234 8.35762 12.9281C8.35293 12.9305 8.3459 12.9328 8.34121 12.9375C8.31074 12.9539 8.28027 12.9703 8.24981 12.9891C8.24746 12.9914 8.24277 12.9938 8.24043 12.9961L8.21231 13.0172H8.20996C8.18887 13.0336 8.16777 13.05 8.14902 13.0664C8.13965 13.0758 8.13027 13.0828 8.1209 13.0922L8.11621 13.0969C8.09043 13.1227 8.06465 13.1531 8.04121 13.1813C8.03887 13.1836 8.03652 13.1859 8.03652 13.1883L8.01543 13.2164C8.01543 13.2188 8.01309 13.2188 8.01309 13.2211L7.97793 13.2773C7.97559 13.282 7.97324 13.2844 7.9709 13.2891C7.90762 13.4086 7.87012 13.5445 7.87012 13.6875C7.87012 13.8305 7.90762 13.9688 7.9709 14.0859C7.97324 14.0906 7.97559 14.093 7.97793 14.0977L8.01309 14.1539C8.01309 14.1563 8.01543 14.1563 8.01543 14.1586L8.03652 14.1867C8.03887 14.1891 8.04121 14.1914 8.04121 14.1938C8.06465 14.2242 8.08809 14.2523 8.11621 14.2781L8.1209 14.2828C8.13027 14.2922 8.13965 14.3016 8.14902 14.3086C8.16777 14.3273 8.18887 14.3438 8.20996 14.3578H8.21231L8.24043 14.3789C8.24277 14.3813 8.24746 14.3836 8.24981 14.3859C8.27793 14.4047 8.3084 14.4234 8.34121 14.4375C8.3459 14.4398 8.35293 14.4422 8.35762 14.4469C8.36699 14.4516 8.37402 14.4539 8.3834 14.4586C8.39043 14.4609 8.39981 14.4656 8.40684 14.468C8.41856 14.4727 8.43027 14.4773 8.44199 14.4797C8.45137 14.482 8.46309 14.4867 8.47246 14.4891L8.49356 14.4961C8.50527 14.4984 8.51465 14.5008 8.52637 14.5031C8.53106 14.5055 8.53809 14.5055 8.54277 14.5078C8.55918 14.5102 8.57559 14.5148 8.59199 14.5172C8.59668 14.5172 8.60137 14.5172 8.60606 14.5195C8.62012 14.5219 8.63184 14.5219 8.6459 14.5242C8.65059 14.5242 8.65527 14.5242 8.66231 14.5266C8.68106 14.5266 8.69746 14.5289 8.71621 14.5289C8.73496 14.5289 8.75137 14.5289 8.77012 14.5266C8.77481 14.5266 8.77949 14.5266 8.78652 14.5242C8.80059 14.5242 8.81465 14.5219 8.82637 14.5195C8.83106 14.5195 8.83574 14.5195 8.84043 14.5172C8.85684 14.5148 8.87324 14.5125 8.88965 14.5078C8.89434 14.5055 8.90137 14.5055 8.90606 14.5031C8.91777 14.5008 8.92715 14.4984 8.93887 14.4961L8.95996 14.4891C8.96934 14.4867 8.98106 14.482 8.99043 14.4797C9.00215 14.475 9.01387 14.4703 9.02559 14.468C9.03262 14.4656 9.04199 14.4609 9.04903 14.4586C9.0584 14.4539 9.06543 14.4516 9.07481 14.4469C9.07949 14.4445 9.08652 14.4422 9.09121 14.4375C9.12168 14.4211 9.15215 14.4047 9.18262 14.3859C9.18496 14.3836 9.18965 14.3813 9.19199 14.3789L9.22012 14.3578H9.22246C9.24356 14.3414 9.26465 14.325 9.2834 14.3086C9.29278 14.2992 9.30215 14.2922 9.31152 14.2828L9.31621 14.2781C9.34199 14.2523 9.36778 14.2219 9.39121 14.1938C9.39356 14.1914 9.3959 14.1891 9.3959 14.1867L9.41699 14.1586C9.41699 14.1563 9.41934 14.1563 9.41934 14.1539L9.45449 14.0977C9.45684 14.093 9.45918 14.0906 9.46153 14.0859C9.52481 13.9664 9.56231 13.8305 9.56231 13.6875C9.56231 13.5445 9.52481 13.4063 9.46153 13.2891C9.45918 13.2844 9.45684 13.2797 9.45449 13.2773Z"/>
</g>
</svg>
