<svg width="24" height="24" viewBox="0 0 24 24" xmlns="http://www.w3.org/2000/svg">
<g id="Frame">
<path id="Vector" d="M20.625 2.625H3.375C2.96016 2.625 2.625 2.96016 2.625 3.375V20.625C2.625 21.0398 2.96016 21.375 3.375 21.375H20.625C21.0398 21.375 21.375 21.0398 21.375 20.625V3.375C21.375 2.96016 21.0398 2.625 20.625 2.625ZM19.6875 19.6875H4.3125V4.3125H19.6875V19.6875Z"/>
<path id="Vector_2" d="M7.96875 16.0078V17.8125C7.96875 17.9156 8.05312 18 8.15625 18H9.28125C9.38437 18 9.46875 17.9156 9.46875 17.8125V16.0078C9.23203 16.0852 8.98125 16.125 8.71875 16.125C8.45625 16.125 8.20547 16.0828 7.96875 16.0078ZM9.46875 11.3672V6.1875C9.46875 6.08437 9.38437 6 9.28125 6H8.15625C8.05312 6 7.96875 6.08437 7.96875 6.1875V11.3672C8.20547 11.2898 8.45625 11.25 8.71875 11.25C8.98125 11.25 9.23203 11.2922 9.46875 11.3672Z"/>
<path id="Vector_3" d="M7.96875 16.0078C8.20547 16.0852 8.45625 16.125 8.71875 16.125C8.98125 16.125 9.23203 16.0828 9.46875 16.0078C10.4484 15.6914 11.1562 14.7727 11.1562 13.6875C11.1562 12.6023 10.4484 11.6836 9.46875 11.3672C9.23203 11.2898 8.98125 11.25 8.71875 11.25C8.45625 11.25 8.20547 11.2922 7.96875 11.3672C6.98906 11.6836 6.28125 12.6023 6.28125 13.6875C6.28125 14.7727 6.98906 15.6914 7.96875 16.0078ZM7.97109 13.2961C7.97813 13.282 7.9875 13.268 7.99453 13.2539V13.2516L8.02266 13.2094C8.025 13.2047 8.02734 13.2023 8.02969 13.1977C8.03672 13.1859 8.04609 13.1766 8.05313 13.1648C8.05547 13.1625 8.05781 13.1578 8.06016 13.1555C8.07187 13.1414 8.08125 13.1297 8.09297 13.118L8.1 13.1109L8.12812 13.0828L8.1375 13.0734C8.14922 13.0617 8.16094 13.0523 8.175 13.0406C8.18906 13.0289 8.20078 13.0195 8.21484 13.0102C8.21953 13.0078 8.22187 13.0055 8.22656 13.0031C8.23828 12.9961 8.24766 12.9867 8.25937 12.9797C8.26172 12.9773 8.26641 12.975 8.26875 12.9727C8.28281 12.9633 8.29688 12.9563 8.31328 12.9469C8.31563 12.9445 8.32031 12.9445 8.32266 12.9422C8.33438 12.9352 8.34609 12.9305 8.36016 12.9234L8.37422 12.9164C8.39062 12.9094 8.40469 12.9023 8.42109 12.8977C8.4375 12.8906 8.45391 12.8859 8.47031 12.8812C8.475 12.8789 8.47969 12.8789 8.48438 12.8766C8.49844 12.8719 8.51016 12.8695 8.52422 12.8672C8.52891 12.8672 8.53125 12.8648 8.53594 12.8648C8.55234 12.8602 8.57109 12.8578 8.5875 12.8555C8.59219 12.8555 8.59453 12.8555 8.59922 12.8531C8.61328 12.8508 8.62734 12.8508 8.64141 12.8484H8.65547C8.67422 12.8484 8.69063 12.8461 8.70938 12.8461C8.72813 12.8461 8.74453 12.8461 8.76328 12.8484H8.77734C8.79141 12.8484 8.80547 12.8508 8.81953 12.8531C8.82422 12.8531 8.82656 12.8531 8.83125 12.8555C8.84766 12.8578 8.86641 12.8602 8.88281 12.8648C8.8875 12.8648 8.88984 12.8672 8.89453 12.8672C8.90859 12.8695 8.92266 12.8742 8.93438 12.8766C8.93906 12.8789 8.94375 12.8789 8.94844 12.8812C8.96484 12.8859 8.98125 12.8906 8.99766 12.8977C9.01406 12.9023 9.02812 12.9094 9.04453 12.9164L9.05859 12.9234C9.07031 12.9281 9.08438 12.9352 9.09609 12.9422C9.09844 12.9445 9.10313 12.9445 9.10547 12.9469C9.11953 12.9539 9.13594 12.9633 9.15 12.9727C9.15234 12.975 9.15703 12.9773 9.15937 12.9797C9.17109 12.9867 9.18281 12.9937 9.19219 13.0031C9.19688 13.0055 9.19922 13.0078 9.20391 13.0102C9.21797 13.0195 9.23203 13.0313 9.24375 13.0406C9.25547 13.05 9.26953 13.0617 9.28125 13.0734L9.29062 13.0828L9.31875 13.1109L9.32578 13.118C9.3375 13.1297 9.34922 13.1437 9.35859 13.1555C9.36094 13.1578 9.36328 13.1625 9.36563 13.1648C9.375 13.1742 9.38203 13.1859 9.38906 13.1977C9.39141 13.2023 9.39375 13.2047 9.39609 13.2094L9.42422 13.2516C9.42422 13.2516 9.42422 13.2539 9.42656 13.2539C9.43594 13.268 9.44297 13.282 9.45 13.2961C9.51094 13.4133 9.54609 13.5469 9.54609 13.6875C9.54609 13.8281 9.51094 13.9617 9.45 14.0789C9.44297 14.093 9.43359 14.107 9.42656 14.1211C9.42656 14.1211 9.42656 14.1234 9.42422 14.1234L9.39609 14.1656C9.39375 14.1703 9.39141 14.1727 9.38906 14.1773C9.38203 14.1891 9.37266 14.1984 9.36563 14.2102C9.36328 14.2125 9.36094 14.2172 9.35859 14.2195C9.34687 14.2336 9.3375 14.2453 9.32578 14.257L9.31875 14.2641L9.29062 14.2922L9.28125 14.3016C9.26953 14.3133 9.25781 14.3227 9.24375 14.3344C9.22969 14.3461 9.21797 14.3555 9.20391 14.3648C9.19922 14.3672 9.19688 14.3695 9.19219 14.3719C9.18047 14.3789 9.17109 14.3883 9.15937 14.3953C9.15703 14.3977 9.15234 14.4 9.15 14.4023C9.13594 14.4117 9.12188 14.4187 9.10547 14.4281C9.10313 14.4305 9.09844 14.4305 9.09609 14.4328C9.08438 14.4398 9.07266 14.4445 9.05859 14.4516L9.04453 14.4586C9.02812 14.4656 9.01406 14.4727 8.99766 14.4773C8.98125 14.4844 8.96484 14.4891 8.94844 14.4938C8.94375 14.4961 8.93906 14.4961 8.93438 14.4984C8.92031 14.5031 8.90859 14.5055 8.89453 14.5078C8.88984 14.5078 8.8875 14.5102 8.88281 14.5102C8.86641 14.5148 8.84766 14.5172 8.83125 14.5195C8.82656 14.5195 8.82422 14.5195 8.81953 14.5219C8.80547 14.5242 8.79141 14.5242 8.77734 14.5266H8.76328C8.74453 14.5266 8.72813 14.5289 8.70938 14.5289C8.69063 14.5289 8.67422 14.5289 8.65547 14.5266H8.64141C8.62734 14.5266 8.61328 14.5242 8.59922 14.5219C8.59453 14.5219 8.59219 14.5219 8.5875 14.5195C8.57109 14.5172 8.55234 14.5148 8.53594 14.5102C8.53125 14.5102 8.52891 14.5078 8.52422 14.5078C8.51016 14.5055 8.49609 14.5008 8.48438 14.4984C8.47969 14.4961 8.475 14.4961 8.47031 14.4938C8.45391 14.4891 8.4375 14.4844 8.42109 14.4773C8.40469 14.4727 8.39062 14.4656 8.37422 14.4586L8.36016 14.4516C8.34844 14.4469 8.33438 14.4398 8.32266 14.4328C8.32031 14.4305 8.31563 14.4305 8.31328 14.4281C8.29922 14.4211 8.28281 14.4117 8.26875 14.4023C8.26641 14.4 8.26172 14.3977 8.25937 14.3953C8.24766 14.3883 8.23594 14.3813 8.22656 14.3719C8.22187 14.3695 8.21953 14.3672 8.21484 14.3648C8.20078 14.3555 8.18672 14.3437 8.175 14.3344C8.16328 14.325 8.14922 14.3133 8.1375 14.3016L8.12812 14.2922L8.1 14.2641L8.09297 14.257C8.08125 14.2453 8.06953 14.2313 8.06016 14.2195C8.05781 14.2172 8.05547 14.2125 8.05313 14.2102C8.04375 14.2008 8.03672 14.1891 8.02969 14.1773C8.02734 14.1727 8.025 14.1703 8.02266 14.1656L7.99453 14.1234V14.1211C7.98516 14.107 7.97813 14.093 7.97109 14.0789C7.91016 13.9617 7.875 13.8281 7.875 13.6875C7.875 13.5469 7.91016 13.4133 7.97109 13.2961Z"/>
<path id="Vector_4" d="M14.5312 12.6328V17.8125C14.5312 17.9156 14.6156 18 14.7188 18H15.8438C15.9469 18 16.0312 17.9156 16.0312 17.8125V12.6328C15.7945 12.7102 15.5438 12.75 15.2812 12.75C15.0188 12.75 14.768 12.7078 14.5312 12.6328ZM16.0312 7.99219V6.1875C16.0312 6.08437 15.9469 6 15.8438 6H14.7188C14.6156 6 14.5312 6.08437 14.5312 6.1875V7.99219C14.768 7.91484 15.0188 7.875 15.2812 7.875C15.5438 7.875 15.7945 7.91719 16.0312 7.99219Z"/>
<path id="Vector_5" d="M14.5312 12.6328C14.768 12.7102 15.0187 12.75 15.2812 12.75C15.5438 12.75 15.7945 12.7078 16.0312 12.6328C17.0109 12.3164 17.7188 11.3977 17.7188 10.3125C17.7188 9.22734 17.0109 8.30859 16.0312 7.99219C15.7945 7.91484 15.5438 7.875 15.2812 7.875C15.0187 7.875 14.768 7.91719 14.5312 7.99219C13.5516 8.30859 12.8438 9.22734 12.8438 10.3125C12.8438 11.3977 13.5516 12.3164 14.5312 12.6328ZM14.5336 9.92109C14.5406 9.90703 14.55 9.89297 14.557 9.87891V9.87656L14.5852 9.83438C14.5875 9.82969 14.5898 9.82734 14.5922 9.82266C14.5992 9.81094 14.6086 9.80156 14.6156 9.78984C14.618 9.7875 14.6203 9.78281 14.6227 9.78047C14.6344 9.76641 14.6437 9.75469 14.6555 9.74297L14.6625 9.73594L14.6906 9.70781L14.7 9.69844C14.7117 9.68672 14.7234 9.67734 14.7375 9.66562C14.7516 9.65391 14.7633 9.64453 14.7773 9.63516C14.782 9.63281 14.7844 9.63047 14.7891 9.62812C14.8008 9.62109 14.8102 9.61172 14.8219 9.60469C14.8242 9.60234 14.8289 9.6 14.8312 9.59766C14.8453 9.58828 14.8594 9.58125 14.8758 9.57187C14.8781 9.56953 14.8828 9.56953 14.8852 9.56719C14.8969 9.56016 14.9086 9.55547 14.9227 9.54844L14.9367 9.54141C14.9531 9.53438 14.9672 9.52734 14.9836 9.52266C15 9.51562 15.0164 9.51094 15.0328 9.50625C15.0375 9.50391 15.0422 9.50391 15.0469 9.50156C15.0609 9.49687 15.0727 9.49453 15.0867 9.49219C15.0914 9.49219 15.0938 9.48984 15.0984 9.48984C15.1148 9.48516 15.1336 9.48281 15.15 9.48047C15.1547 9.48047 15.157 9.48047 15.1617 9.47812C15.1758 9.47578 15.1898 9.47578 15.2039 9.47344H15.218C15.2367 9.47344 15.2531 9.47109 15.2719 9.47109C15.2906 9.47109 15.307 9.47109 15.3258 9.47344H15.3398C15.3539 9.47344 15.368 9.47578 15.382 9.47812C15.3867 9.47812 15.3891 9.47812 15.3937 9.48047C15.4102 9.48281 15.4289 9.48516 15.4453 9.48984C15.45 9.48984 15.4523 9.49219 15.457 9.49219C15.4711 9.49453 15.4852 9.49922 15.4969 9.50156C15.5016 9.50391 15.5062 9.50391 15.5109 9.50625C15.5273 9.51094 15.5438 9.51562 15.5602 9.52266C15.5766 9.52734 15.5906 9.53438 15.607 9.54141L15.6211 9.54844C15.6328 9.55312 15.6469 9.56016 15.6586 9.56719C15.6609 9.56953 15.6656 9.56953 15.668 9.57187C15.682 9.57891 15.6984 9.58828 15.7125 9.59766C15.7148 9.6 15.7195 9.60234 15.7219 9.60469C15.7336 9.61172 15.7453 9.61875 15.7547 9.62812C15.7594 9.63047 15.7617 9.63281 15.7664 9.63516C15.7805 9.64453 15.7945 9.65625 15.8063 9.66562C15.818 9.675 15.832 9.68672 15.8438 9.69844L15.8531 9.70781L15.8812 9.73594L15.8883 9.74297C15.9 9.75469 15.9117 9.76875 15.9211 9.78047C15.9234 9.78281 15.9258 9.7875 15.9281 9.78984C15.9375 9.79922 15.9445 9.81094 15.9516 9.82266C15.9539 9.82734 15.9563 9.82969 15.9586 9.83438L15.9867 9.87656V9.87891C15.9961 9.89297 16.0031 9.90703 16.0102 9.92109C16.0711 10.0383 16.1063 10.1719 16.1063 10.3125C16.1063 10.4531 16.0711 10.5867 16.0102 10.7039C16.0031 10.718 15.9937 10.732 15.9867 10.7461V10.7484L15.9586 10.7906C15.9563 10.7953 15.9539 10.7977 15.9516 10.8023C15.9445 10.8141 15.9352 10.8234 15.9281 10.8352C15.9258 10.8375 15.9234 10.8422 15.9211 10.8445C15.9094 10.8586 15.9 10.8703 15.8883 10.882L15.8812 10.8891L15.8531 10.9172L15.8438 10.9266C15.832 10.9383 15.8203 10.9477 15.8063 10.9594C15.7922 10.9711 15.7805 10.9805 15.7664 10.9898C15.7617 10.9922 15.7594 10.9945 15.7547 10.9969C15.743 11.0039 15.7336 11.0133 15.7219 11.0203C15.7195 11.0227 15.7148 11.025 15.7125 11.0273C15.6984 11.0367 15.6844 11.0438 15.668 11.0531C15.6656 11.0555 15.6609 11.0555 15.6586 11.0578C15.6469 11.0648 15.6352 11.0695 15.6211 11.0766L15.607 11.0836C15.5906 11.0906 15.5766 11.0977 15.5602 11.1023C15.5438 11.1094 15.5273 11.1141 15.5109 11.1187C15.5062 11.1211 15.5016 11.1211 15.4969 11.1234C15.4828 11.1281 15.4711 11.1305 15.457 11.1328C15.4523 11.1328 15.45 11.1352 15.4453 11.1352C15.4289 11.1398 15.4102 11.1422 15.3937 11.1445C15.3891 11.1445 15.3867 11.1445 15.382 11.1469C15.368 11.1492 15.3539 11.1492 15.3398 11.1516H15.3258C15.307 11.1516 15.2906 11.1539 15.2719 11.1539C15.2531 11.1539 15.2367 11.1539 15.218 11.1516H15.2039C15.1898 11.1516 15.1758 11.1492 15.1617 11.1469C15.157 11.1469 15.1547 11.1469 15.15 11.1445C15.1336 11.1422 15.1148 11.1398 15.0984 11.1352C15.0938 11.1352 15.0914 11.1328 15.0867 11.1328C15.0727 11.1305 15.0586 11.1258 15.0469 11.1234C15.0422 11.1211 15.0375 11.1211 15.0328 11.1187C15.0164 11.1141 15 11.1094 14.9836 11.1023C14.9672 11.0977 14.9531 11.0906 14.9367 11.0836L14.9227 11.0766C14.9109 11.0719 14.8969 11.0648 14.8852 11.0578C14.8828 11.0555 14.8781 11.0555 14.8758 11.0531C14.8617 11.0461 14.8453 11.0367 14.8312 11.0273C14.8289 11.025 14.8242 11.0227 14.8219 11.0203C14.8102 11.0133 14.7984 11.0063 14.7891 10.9969C14.7844 10.9945 14.782 10.9922 14.7773 10.9898C14.7633 10.9805 14.7492 10.9688 14.7375 10.9594C14.7258 10.95 14.7117 10.9383 14.7 10.9266L14.6906 10.9172L14.6625 10.8891L14.6555 10.882C14.6437 10.8703 14.632 10.8563 14.6227 10.8445C14.6203 10.8422 14.618 10.8375 14.6156 10.8352C14.6062 10.8258 14.5992 10.8141 14.5922 10.8023C14.5898 10.7977 14.5875 10.7953 14.5852 10.7906L14.557 10.7484V10.7461C14.5477 10.732 14.5406 10.718 14.5336 10.7039C14.4727 10.5867 14.4375 10.4531 14.4375 10.3125C14.4375 10.1719 14.4727 10.0383 14.5336 9.92109Z"/>
</g>
</svg>
