<svg width="24" height="24" viewBox="0 0 24 24" xmlns="http://www.w3.org/2000/svg">
<g id="Frame">
<path id="Vector" d="M21.0848 6.48037L16.5238 9.29053L12.1504 3.45693C12.0754 3.35615 11.9254 3.35615 11.848 3.45693L7.47695 9.29053L2.91367 6.48037C2.78008 6.39834 2.60664 6.5085 2.62773 6.66553L4.41836 20.2733C4.44414 20.4585 4.60351 20.6015 4.79336 20.6015H19.2098C19.3973 20.6015 19.559 20.4608 19.5824 20.2733L21.373 6.66553C21.3918 6.5085 21.2207 6.39834 21.0848 6.48037ZM18.1316 18.9983H5.86679L4.60586 9.40303L7.88242 11.421L12.0004 5.92725L16.1184 11.421L19.3949 9.40303L18.1316 18.9983Z"/>
<path id="Vector_2" d="M12.0004 11.9297C10.5449 11.9297 9.36133 13.1133 9.36133 14.5688C9.36133 16.0242 10.5449 17.2078 12.0004 17.2078C13.4559 17.2078 14.6395 16.0242 14.6395 14.5688C14.6395 13.1133 13.4559 11.9297 12.0004 11.9297ZM12.0004 15.7008C11.377 15.7008 10.8707 15.1945 10.8707 14.5688C10.8707 13.9453 11.377 13.4367 12.0004 13.4367C12.6238 13.4367 13.1301 13.943 13.1301 14.5688C13.1301 15.1922 12.6238 15.7008 12.0004 15.7008Z"/>
</g>
</svg>
