<svg width="24" height="24" viewBox="0 0 24 24" xmlns="http://www.w3.org/2000/svg">
<g id="Frame">
<path id="Vector" d="M21.0848 6.48037L16.5238 9.29053L12.1504 3.45693C12.0754 3.35615 11.9254 3.35615 11.848 3.45693L7.47695 9.29053L2.91367 6.48037C2.78008 6.39834 2.60664 6.5085 2.62773 6.66553L4.41836 20.2733C4.44414 20.4585 4.60351 20.6015 4.79336 20.6015H19.2098C19.3973 20.6015 19.559 20.4608 19.5824 20.2733L21.373 6.66553C21.3918 6.5085 21.2207 6.39834 21.0848 6.48037ZM12.0004 17.2077C10.5449 17.2077 9.36133 16.0241 9.36133 14.5687C9.36133 13.1132 10.5449 11.9296 12.0004 11.9296C13.4559 11.9296 14.6394 13.1132 14.6394 14.5687C14.6394 16.0241 13.4559 17.2077 12.0004 17.2077Z"/>
<path id="Vector_2" d="M11.9998 13.4367C11.3764 13.4367 10.8701 13.943 10.8701 14.5688C10.8701 15.1922 11.3764 15.7008 11.9998 15.7008C12.6232 15.7008 13.1295 15.1945 13.1295 14.5688C13.1295 13.9453 12.6232 13.4367 11.9998 13.4367Z"/>
</g>
</svg>
