<svg width="24" height="24" viewBox="0 0 24 24" xmlns="http://www.w3.org/2000/svg">
<g id="Frame">
<path id="Vector" d="M16.125 6.1875C16.125 6.08437 16.0406 6 15.9375 6H6.9375C6.83437 6 6.75 6.08437 6.75 6.1875V7.3125C6.75 7.41562 6.83437 7.5 6.9375 7.5H15.9375C16.0406 7.5 16.125 7.41562 16.125 7.3125V6.1875ZM15.9375 9.375H6.9375C6.83437 9.375 6.75 9.45937 6.75 9.5625V10.6875C6.75 10.7906 6.83437 10.875 6.9375 10.875H15.9375C16.0406 10.875 16.125 10.7906 16.125 10.6875V9.5625C16.125 9.45937 16.0406 9.375 15.9375 9.375ZM11.25 12.75H6.9375C6.83437 12.75 6.75 12.8344 6.75 12.9375V14.0625C6.75 14.1656 6.83437 14.25 6.9375 14.25H11.25C11.3531 14.25 11.4375 14.1656 11.4375 14.0625V12.9375C11.4375 12.8344 11.3531 12.75 11.25 12.75Z"/>
<path id="Vector_2" d="M10.125 19.9688H4.875V3.46875H18V11.5312C18 11.6344 18.0844 11.7188 18.1875 11.7188H19.5C19.6031 11.7188 19.6875 11.6344 19.6875 11.5312V2.53125C19.6875 2.11641 19.3523 1.78125 18.9375 1.78125H3.9375C3.52266 1.78125 3.1875 2.11641 3.1875 2.53125V20.9062C3.1875 21.3211 3.52266 21.6562 3.9375 21.6562H10.125C10.2281 21.6562 10.3125 21.5719 10.3125 21.4688V20.1562C10.3125 20.0531 10.2281 19.9688 10.125 19.9688Z"/>
<path id="Vector_3" d="M18.4877 18.225C19.1674 17.6086 19.5939 16.718 19.5939 15.7266C19.5939 13.8633 18.0822 12.3516 16.2189 12.3516C14.3557 12.3516 12.8439 13.8633 12.8439 15.7266C12.8439 16.718 13.2705 17.6086 13.9502 18.225C12.6142 18.9867 11.6955 20.3977 11.6252 22.0242C11.6205 22.1297 11.7072 22.2188 11.8127 22.2188H12.94C13.0385 22.2188 13.1205 22.1414 13.1275 22.0406C13.2189 20.4188 14.5713 19.125 16.2189 19.125C17.8666 19.125 19.2189 20.4188 19.3103 22.0406C19.315 22.1391 19.3971 22.2188 19.4978 22.2188H20.6252C20.733 22.2188 20.8174 22.1297 20.8127 22.0242C20.7447 20.3953 19.8236 18.9867 18.4877 18.225ZM16.2189 13.8516C17.2549 13.8516 18.0939 14.6906 18.0939 15.7266C18.0939 16.7625 17.2549 17.6016 16.2189 17.6016C15.183 17.6016 14.3439 16.7625 14.3439 15.7266C14.3439 14.6906 15.183 13.8516 16.2189 13.8516Z"/>
</g>
</svg>
