<svg width="24" height="24" viewBox="0 0 24 24" xmlns="http://www.w3.org/2000/svg">
<g id="Frame">
<path id="Vector" d="M17.625 5.625H3.375C2.96016 5.625 2.625 5.96016 2.625 6.375V20.625C2.625 21.0398 2.96016 21.375 3.375 21.375H17.625C18.0398 21.375 18.375 21.0398 18.375 20.625V6.375C18.375 5.96016 18.0398 5.625 17.625 5.625ZM16.6875 19.6875H4.3125V7.3125H16.6875V19.6875Z"/>
<path id="Vector_2" d="M20.625 2.625H6.1875C6.08437 2.625 6 2.70937 6 2.8125V4.125C6 4.22812 6.08437 4.3125 6.1875 4.3125H19.6875V17.8125C19.6875 17.9156 19.7719 18 19.875 18H21.1875C21.2906 18 21.375 17.9156 21.375 17.8125V3.375C21.375 2.96016 21.0398 2.625 20.625 2.625ZM7.03125 12.8906H13.9688V14.3906H7.03125V12.8906Z"/>
</g>
</svg>
