<svg width="24" height="24" viewBox="0 0 24 24" xmlns="http://www.w3.org/2000/svg">
<g id="Frame">
<path id="Vector" d="M10.875 12C10.875 12.2984 10.9935 12.5845 11.2045 12.7955C11.4155 13.0065 11.7016 13.125 12 13.125C12.2984 13.125 12.5845 13.0065 12.7955 12.7955C13.0065 12.5845 13.125 12.2984 13.125 12C13.125 11.7016 13.0065 11.4155 12.7955 11.2045C12.5845 10.9935 12.2984 10.875 12 10.875C11.7016 10.875 11.4155 10.9935 11.2045 11.2045C10.9935 11.4155 10.875 11.7016 10.875 12Z"/>
<path id="Vector_2" d="M15.5625 12C15.5625 12.2984 15.681 12.5845 15.892 12.7955C16.103 13.0065 16.3891 13.125 16.6875 13.125C16.9859 13.125 17.272 13.0065 17.483 12.7955C17.694 12.5845 17.8125 12.2984 17.8125 12C17.8125 11.7016 17.694 11.4155 17.483 11.2045C17.272 10.9935 16.9859 10.875 16.6875 10.875C16.3891 10.875 16.103 10.9935 15.892 11.2045C15.681 11.4155 15.5625 11.7016 15.5625 12Z"/>
<path id="Vector_3" d="M6.1875 12C6.1875 12.2984 6.30603 12.5845 6.517 12.7955C6.72798 13.0065 7.01413 13.125 7.3125 13.125C7.61087 13.125 7.89702 13.0065 8.108 12.7955C8.31897 12.5845 8.4375 12.2984 8.4375 12C8.4375 11.7016 8.31897 11.4155 8.108 11.2045C7.89702 10.9935 7.61087 10.875 7.3125 10.875C7.01413 10.875 6.72798 10.9935 6.517 11.2045C6.30603 11.4155 6.1875 11.7016 6.1875 12Z"/>
<path id="Vector_4" d="M21.6845 7.93125C21.1548 6.67266 20.3954 5.54297 19.4275 4.57266C18.4595 3.60469 17.3298 2.84297 16.0689 2.31563C14.7798 1.77422 13.4111 1.5 12.0001 1.5H11.9533C10.5329 1.50703 9.15716 1.78828 7.86341 2.34141C6.6142 2.87578 5.49388 3.63516 4.53529 4.60312C3.5767 5.57109 2.82435 6.69609 2.30404 7.95C1.76498 9.24844 1.4931 10.6289 1.50013 12.0492C1.50716 13.6758 1.89623 15.2906 2.62513 16.7344V20.2969C2.62513 20.8922 3.10795 21.375 3.70326 21.375H7.2681C8.71185 22.1039 10.3267 22.493 11.9533 22.5H12.0025C13.4064 22.5 14.7681 22.2281 16.0501 21.6961C17.304 21.1734 18.4314 20.4234 19.397 19.4648C20.365 18.5063 21.1267 17.3859 21.6587 16.1367C22.2118 14.843 22.4931 13.4672 22.5001 12.0469C22.5072 10.6195 22.2306 9.23438 21.6845 7.93125ZM18.1431 18.1969C16.5001 19.8234 14.3204 20.7188 12.0001 20.7188H11.9603C10.547 20.7117 9.1431 20.3602 7.90326 19.6992L7.70638 19.5938H4.40638V16.2938L4.30091 16.0969C3.63998 14.857 3.28841 13.4531 3.28138 12.0398C3.27201 9.70312 4.16498 7.50937 5.80326 5.85703C7.4392 4.20469 9.62591 3.29062 11.9626 3.28125H12.0025C13.1744 3.28125 14.3111 3.50859 15.3822 3.95859C16.4275 4.39687 17.365 5.02734 18.1712 5.83359C18.9751 6.6375 19.6079 7.57734 20.0462 8.62266C20.5009 9.70547 20.7283 10.8539 20.7236 12.0398C20.7095 14.3742 19.7931 16.5609 18.1431 18.1969Z"/>
</g>
</svg>
