<svg width="16" height="16" viewBox="0 0 16 16" xmlns="http://www.w3.org/2000/svg">
<path d="M7.99992 15.1667C4.04659 15.1667 0.833252 11.9534 0.833252 8.00004C0.833252 4.04671 4.04659 0.833374 7.99992 0.833374C11.9533 0.833374 15.1666 4.04671 15.1666 8.00004C15.1666 11.9534 11.9533 15.1667 7.99992 15.1667ZM7.99992 1.83337C4.59992 1.83337 1.83325 4.60004 1.83325 8.00004C1.83325 11.4 4.59992 14.1667 7.99992 14.1667C11.3999 14.1667 14.1666 11.4 14.1666 8.00004C14.1666 4.60004 11.3999 1.83337 7.99992 1.83337Z" />
<path d="M6.47344 11.8934C6.2801 11.8934 6.13345 11.8267 6.04678 11.7601C5.86678 11.6401 5.59344 11.3334 5.76677 10.6467L6.28012 8.57339L5.66678 8.42007C5.04678 8.26674 4.90678 7.8734 4.88011 7.7134C4.85345 7.5534 4.84012 7.13341 5.36012 6.76675L8.81344 4.3734C9.39344 3.9734 9.77344 4.12006 9.95344 4.24006C10.1334 4.36006 10.4068 4.66675 10.2334 5.35342L9.7201 7.42674L10.3334 7.58006C10.9534 7.7334 11.0934 8.12669 11.1201 8.29336C11.1468 8.46003 11.1601 8.87339 10.6401 9.24006L7.18678 11.6334C6.90011 11.8267 6.66677 11.8934 6.47344 11.8934ZM6.07343 7.49339L7.00678 7.72675C7.27345 7.79342 7.44011 8.06673 7.37344 8.3334L6.78677 10.6934L9.92679 8.51341L8.99344 8.28009C8.72677 8.21343 8.56011 7.94007 8.62678 7.6734L9.21345 5.31338L6.07343 7.49339Z" />
</svg>
