<svg width="24" height="24" viewBox="0 0 24 24" xmlns="http://www.w3.org/2000/svg">
<g id="Frame">
<path id="Vector" d="M16.7062 12.8625C17.9625 11.6062 18.6562 9.93281 18.6562 8.15625C18.6562 6.37734 17.9648 4.70625 16.7062 3.45C15.45 2.19375 13.7766 1.5 12 1.5C10.2234 1.5 8.55 2.19141 7.29375 3.45C6.0375 4.70859 5.34375 6.37734 5.34375 8.15625C5.34375 9.65156 5.83359 11.0719 6.73594 12.232C6.90703 12.4523 7.09219 12.6609 7.29141 12.8625C7.49063 13.0617 7.70156 13.2469 7.91953 13.418C8.84766 14.1398 9.94219 14.5992 11.1094 14.7539V17.25H8.4375C8.33437 17.25 8.25 17.3344 8.25 17.4375V18.8438C8.25 18.9469 8.33437 19.0312 8.4375 19.0312H11.1094V22.3125C11.1094 22.4156 11.1937 22.5 11.2969 22.5H12.7031C12.8063 22.5 12.8906 22.4156 12.8906 22.3125V19.0312H15.5625C15.6656 19.0312 15.75 18.9469 15.75 18.8438V17.4375C15.75 17.3344 15.6656 17.25 15.5625 17.25H12.8906V14.7539C14.332 14.5617 15.6609 13.9078 16.7062 12.8625ZM12 13.0312C10.6969 13.0312 9.47578 12.525 8.55234 11.6039C7.63125 10.6828 7.125 9.45937 7.125 8.15625C7.125 6.85313 7.63125 5.63203 8.55234 4.70859C9.47344 3.78516 10.6969 3.28125 12 3.28125C13.3031 3.28125 14.5242 3.7875 15.4477 4.70859C16.3687 5.62969 16.875 6.85313 16.875 8.15625C16.875 9.45937 16.3687 10.6805 15.4477 11.6039C14.5242 12.525 13.3031 13.0312 12 13.0312Z" />
</g>
</svg>
