<svg width="24" height="24" viewBox="0 0 24 24" xmlns="http://www.w3.org/2000/svg">
<g id="Frame">
<path id="Vector" d="M19.6688 6.51797C19.568 6.20859 19.2797 6 18.9562 6H17.25V3.375C17.25 2.96016 16.9148 2.625 16.5 2.625H7.5C7.08516 2.625 6.75 2.96016 6.75 3.375V6H5.04375C4.71797 6 4.43203 6.20859 4.33125 6.51797L2.625 11.7656V20.625C2.625 21.0398 2.96016 21.375 3.375 21.375H20.625C21.0398 21.375 21.375 21.0398 21.375 20.625V11.7656L19.6688 6.51797ZM8.4375 4.3125H15.5625V6H8.4375V4.3125ZM19.6875 19.6875H4.3125V12.0328L5.72578 7.6875H18.2742L19.6875 12.0328V19.6875Z"/>
<path id="Vector_2" d="M15.2812 13.4062H12.75V10.875C12.75 10.7719 12.6656 10.6875 12.5625 10.6875H11.4375C11.3344 10.6875 11.25 10.7719 11.25 10.875V13.4062H8.71875C8.61562 13.4062 8.53125 13.4906 8.53125 13.5938V14.7188C8.53125 14.8219 8.61562 14.9062 8.71875 14.9062H11.25V17.4375C11.25 17.5406 11.3344 17.625 11.4375 17.625H12.5625C12.6656 17.625 12.75 17.5406 12.75 17.4375V14.9062H15.2812C15.3844 14.9062 15.4688 14.8219 15.4688 14.7188V13.5938C15.4688 13.4906 15.3844 13.4062 15.2812 13.4062Z"/>
</g>
</svg>
