<svg width="24" height="24" viewBox="0 0 24 24" xmlns="http://www.w3.org/2000/svg">
<g id="Frame">
<path id="Vector" d="M19.5492 10.9969C19.0922 9.9703 18.4383 9.06093 17.6063 8.29686L16.9242 7.67108C16.8234 7.58202 16.6641 7.62187 16.6195 7.74843L16.3148 8.62265C16.125 9.17108 15.7758 9.73124 15.2812 10.282C15.2484 10.3172 15.2109 10.3266 15.1852 10.3289C15.1594 10.3312 15.1195 10.3266 15.0844 10.2937C15.0516 10.2656 15.0352 10.2234 15.0375 10.1812C15.1242 8.7703 14.7023 7.1789 13.7789 5.44686C13.0148 4.0078 11.9531 2.88515 10.6266 2.10233L9.65859 1.5328C9.53203 1.4578 9.37031 1.55624 9.37734 1.7039L9.42891 2.8289C9.46406 3.59765 9.375 4.27733 9.16406 4.84218C8.90625 5.53358 8.53594 6.17577 8.0625 6.75233C7.72969 7.15546 7.35703 7.51874 6.94922 7.8328C5.9625 8.58983 5.14922 9.57655 4.59844 10.6805C4.04297 11.7961 3.75 13.0453 3.75 14.2969C3.75 15.4031 3.96797 16.4742 4.39922 17.4844C4.81641 18.457 5.41172 19.3336 6.16875 20.0836C6.92813 20.8336 7.80938 21.4242 8.79141 21.8344C9.80859 22.2609 10.8867 22.4766 12 22.4766C13.1133 22.4766 14.1914 22.2609 15.2086 21.8367C16.1906 21.4266 17.0742 20.8383 17.8312 20.0859C18.5906 19.3359 19.1859 18.4594 19.6008 17.4867C20.032 16.4766 20.25 15.4055 20.25 14.2992C20.25 13.1555 20.0156 12.0445 19.5492 10.9969ZM16.7109 18.9492C15.4523 20.1961 13.7812 20.8805 12 20.8805C10.2188 20.8805 8.54766 20.1961 7.28906 18.9492C6.03516 17.7047 5.34375 16.0547 5.34375 14.2992C5.34375 13.2797 5.57344 12.3023 6.02578 11.393C6.46641 10.5047 7.12266 9.71015 7.91953 9.09843C8.42344 8.71405 8.88516 8.2664 9.29297 7.76718C9.87891 7.05233 10.3383 6.25546 10.657 5.39999C10.7836 5.06015 10.8797 4.69687 10.9406 4.31015C11.5055 4.83046 11.9789 5.45858 12.375 6.19452C13.1578 7.66171 13.5187 8.96718 13.4484 10.0781C13.4156 10.6125 13.6242 11.1211 14.0203 11.4797C14.3648 11.7891 14.8102 11.9461 15.2719 11.9203C15.7336 11.8969 16.1578 11.693 16.4672 11.3484C16.7789 10.9992 17.0484 10.643 17.2734 10.2797C17.6016 10.6992 17.8758 11.1562 18.0938 11.6484C18.4664 12.4875 18.6562 13.3805 18.6562 14.2992C18.6562 16.0547 17.9648 17.707 16.7109 18.9492Z"/>
</g>
</svg>
