<svg width="24" height="24" viewBox="0 0 24 24" xmlns="http://www.w3.org/2000/svg">
<g id="Frame">
<path id="Vector" d="M7.24434 12.9914C7.11777 13.2633 7.11777 13.575 7.24434 13.8445C8.28027 16.0313 9.88105 17.1562 12.0115 17.1562C14.142 17.1562 15.7428 16.0289 16.7787 13.8445C16.9053 13.575 16.9053 13.2633 16.7811 12.9938L16.7787 12.9914L16.7764 12.9891C15.7428 10.8047 14.142 9.67969 12.0115 9.67969C9.88105 9.67969 8.28027 10.807 7.24434 12.9914ZM12.0115 11.1797C13.467 11.1797 14.5287 11.8828 15.3186 13.418C14.5311 14.9531 13.467 15.6562 12.0115 15.6562C10.5561 15.6562 9.49433 14.9531 8.70449 13.418C9.49433 11.8828 10.5561 11.1797 12.0115 11.1797Z"/>
<path id="Vector_2" d="M10.7109 13.4297C10.7109 13.7778 10.8492 14.1116 11.0954 14.3578C11.3415 14.6039 11.6753 14.7422 12.0234 14.7422C12.3715 14.7422 12.7054 14.6039 12.9515 14.3578C13.1977 14.1116 13.3359 13.7778 13.3359 13.4297C13.3359 13.0816 13.1977 12.7478 12.9515 12.5016C12.7054 12.2555 12.3715 12.1172 12.0234 12.1172C11.6753 12.1172 11.3415 12.2555 11.0954 12.5016C10.8492 12.7478 10.7109 13.0816 10.7109 13.4297Z"/>
<path id="Vector_3" d="M20.625 6.99375H12.2109L9.46172 4.36406C9.42656 4.33125 9.37969 4.3125 9.33281 4.3125H3.375C2.96016 4.3125 2.625 4.64766 2.625 5.0625V18.9375C2.625 19.3523 2.96016 19.6875 3.375 19.6875H20.625C21.0398 19.6875 21.375 19.3523 21.375 18.9375V7.74375C21.375 7.32891 21.0398 6.99375 20.625 6.99375ZM19.6875 18H4.3125V6H8.73047L11.5336 8.68125H19.6875V18Z"/>
</g>
</svg>
