<svg width="24" height="24" viewBox="0 0 24 24" xmlns="http://www.w3.org/2000/svg">
<g id="folder-open-fill">
<rect id="&#231;&#159;&#169;&#229;&#189;&#162;" opacity="0.01" width="24" height="24"/>
<path id="&#229;&#189;&#162;&#231;&#138;&#182;" fill-rule="evenodd" clip-rule="evenodd" d="M19.2188 10.4062H21.75C22.1648 10.4062 22.5 10.7414 22.5 11.1562C22.5 11.2523 22.4813 11.3484 22.4461 11.4375L19.3055 19.2188C19.1906 19.5023 18.9141 19.6875 18.6094 19.6875H2.25C1.83516 19.6875 1.5 19.3523 1.5 18.9375V5.0625C1.5 4.64766 1.83516 4.3125 2.25 4.3125H8.20781C8.25469 4.3125 8.30156 4.33125 8.33672 4.36406L11.0859 6.99375H18.4688C18.8836 6.99375 19.2188 7.32891 19.2188 7.74375V10.4062ZM5.57812 10.4062H17.5312V8.68125H10.4086L7.60547 6H3.1875V15.075L4.88203 10.875C4.99688 10.5914 5.27344 10.4062 5.57812 10.4062Z"/>
</g>
</svg>
