<svg width="24" height="24" viewBox="0 0 24 24" xmlns="http://www.w3.org/2000/svg">
<g id="Frame">
<path id="Vector" d="M20.0625 2.625H18.1875C18.0844 2.625 18 2.70937 18 2.8125V21.1875C18 21.2906 18.0844 21.375 18.1875 21.375H20.0625C20.1656 21.375 20.25 21.2906 20.25 21.1875V2.8125C20.25 2.70937 20.1656 2.625 20.0625 2.625ZM15.375 2.625H4.5C4.08516 2.625 3.75 2.97422 3.75 3.40547V20.5922C3.75 21.0234 4.08516 21.3727 4.5 21.3727H15.375C15.7898 21.3727 16.125 21.0234 16.125 20.5922V3.40547C16.125 2.97422 15.7898 2.625 15.375 2.625ZM9.1875 19.6875H5.4375V15.5625H9.1875V19.6875ZM9.1875 14.0625H5.4375V9.9375H9.1875V14.0625ZM9.1875 8.4375H5.4375V4.3125H9.1875V8.4375ZM14.4375 19.6875H10.6875V15.5625H14.4375V19.6875ZM14.4375 14.0625H10.6875V9.9375H14.4375V14.0625ZM14.4375 8.4375H10.6875V4.3125H14.4375V8.4375Z"/>
</g>
</svg>
