<svg width="24" height="24" viewBox="0 0 24 24" xmlns="http://www.w3.org/2000/svg">
<g id="Frame">
<path id="Vector" d="M5.8125 2.625H3.9375C3.83437 2.625 3.75 2.70937 3.75 2.8125V21.1875C3.75 21.2906 3.83437 21.375 3.9375 21.375H5.8125C5.91563 21.375 6 21.2906 6 21.1875V2.8125C6 2.70937 5.91563 2.625 5.8125 2.625ZM19.5 2.625H8.625C8.21016 2.625 7.875 2.97422 7.875 3.40547V20.5922C7.875 21.0234 8.21016 21.3727 8.625 21.3727H19.5C19.9148 21.3727 20.25 21.0234 20.25 20.5922V3.40547C20.25 2.97422 19.9148 2.625 19.5 2.625ZM13.3125 19.6875H9.5625V15.5625H13.3125V19.6875ZM13.3125 14.0625H9.5625V9.9375H13.3125V14.0625ZM13.3125 8.4375H9.5625V4.3125H13.3125V8.4375ZM18.5625 19.6875H14.8125V15.5625H18.5625V19.6875ZM18.5625 14.0625H14.8125V9.9375H18.5625V14.0625ZM18.5625 8.4375H14.8125V4.3125H18.5625V8.4375Z"/>
</g>
</svg>
