<svg width="24" height="24" viewBox="0 0 24 24" xmlns="http://www.w3.org/2000/svg">
<g id="Frame">
<path id="Vector" d="M21.1875 18H2.8125C2.70937 18 2.625 18.0844 2.625 18.1875V20.0625C2.625 20.1656 2.70937 20.25 2.8125 20.25H21.1875C21.2906 20.25 21.375 20.1656 21.375 20.0625V18.1875C21.375 18.0844 21.2906 18 21.1875 18ZM20.5945 3.75H3.40547C2.97422 3.75 2.625 4.08516 2.625 4.5V15.375C2.625 15.7898 2.97422 16.125 3.40547 16.125H20.5922C21.0234 16.125 21.3727 15.7898 21.3727 15.375V4.5C21.375 4.08516 21.0258 3.75 20.5945 3.75ZM8.4375 14.4375H4.3125V10.6875H8.4375V14.4375ZM8.4375 9.1875H4.3125V5.4375H8.4375V9.1875ZM14.0625 14.4375H9.9375V10.6875H14.0625V14.4375ZM14.0625 9.1875H9.9375V5.4375H14.0625V9.1875ZM19.6875 14.4375H15.5625V10.6875H19.6875V14.4375ZM19.6875 9.1875H15.5625V5.4375H19.6875V9.1875Z"/>
</g>
</svg>
