<svg width="24" height="24" viewBox="0 0 24 24" xmlns="http://www.w3.org/2000/svg">
<g id="Frame">
<path id="Vector" d="M12 1.5C6.20156 1.5 1.5 6.20156 1.5 12C1.5 17.7984 6.20156 22.5 12 22.5C17.7984 22.5 22.5 17.7984 22.5 12C22.5 6.20156 17.7984 1.5 12 1.5ZM6.75 9.86719C6.75 9.24609 7.25391 8.74219 7.875 8.74219C8.49609 8.74219 9 9.24609 9 9.86719C9 10.4883 8.49609 10.9922 7.875 10.9922C7.25391 10.9922 6.75 10.4883 6.75 9.86719ZM12 16.2422C9.99609 16.2422 8.35313 14.6648 8.25 12.6891C8.24531 12.5813 8.32969 12.4922 8.4375 12.4922H9.56484C9.66328 12.4922 9.74766 12.5672 9.75469 12.6656C9.84375 13.8258 10.8164 14.7422 12 14.7422C13.1836 14.7422 14.1586 13.8258 14.2453 12.6656C14.2523 12.5672 14.3367 12.4922 14.4352 12.4922H15.5625C15.6703 12.4922 15.7547 12.5813 15.75 12.6891C15.6469 14.6648 14.0039 16.2422 12 16.2422ZM16.125 10.9922C15.5039 10.9922 15 10.4883 15 9.86719C15 9.24609 15.5039 8.74219 16.125 8.74219C16.7461 8.74219 17.25 9.24609 17.25 9.86719C17.25 10.4883 16.7461 10.9922 16.125 10.9922Z" />
</g>
</svg>
