<svg width="24" height="24" viewBox="0 0 24 24" xmlns="http://www.w3.org/2000/svg">
<g id="Frame">
<path id="Vector" d="M22.1838 11.8359L13.1276 2.78438L12.5205 2.17734C12.2323 1.89141 11.7682 1.89141 11.4799 2.17734L1.81663 11.8359C1.52835 12.1242 1.37366 12.5063 1.376 12.9141C1.38538 13.7391 2.0721 14.3977 2.8971 14.3977H3.89319V22.0312H20.1073V14.3977H21.1244C21.5252 14.3977 21.9026 14.2406 22.1862 13.957C22.4697 13.6734 22.6244 13.2961 22.6244 12.8953C22.6244 12.4969 22.4674 12.1195 22.1838 11.8359ZM13.3127 20.3438H10.6877V15.5625H13.3127V20.3438ZM18.4198 12.7102V20.3438H14.8127V15C14.8127 14.482 14.3932 14.0625 13.8752 14.0625H10.1252C9.60725 14.0625 9.18772 14.482 9.18772 15V20.3438H5.58069V12.7102H3.33069L12.0026 4.04531L12.544 4.58672L20.6721 12.7102H18.4198Z" fill="black"/>
</g>
</svg>
