<svg width="24" height="24" viewBox="0 0 24 24" xmlns="http://www.w3.org/2000/svg">
<g id="Frame">
<path id="Vector" d="M20.9086 17.2922L18.3234 15.7992C18.2648 15.7664 18.2016 15.75 18.1383 15.75C18.0094 15.75 17.8828 15.818 17.8148 15.9375L17.3484 16.7461C17.2453 16.9242 17.3062 17.1539 17.4844 17.257L20.0695 18.75C20.1281 18.7828 20.1914 18.7992 20.2547 18.7992C20.3836 18.7992 20.5102 18.7312 20.5781 18.6117L21.0445 17.8031C21.1477 17.625 21.0844 17.3953 20.9086 17.2922ZM17.8125 8.0625C17.8805 8.18203 18.007 8.25 18.1359 8.25C18.1992 8.25 18.2625 8.23359 18.3211 8.20078L20.9062 6.70781C21.0844 6.60469 21.1453 6.375 21.0422 6.19687L20.5781 5.39062C20.5102 5.27109 20.3836 5.20312 20.2547 5.20312C20.1914 5.20312 20.1281 5.21953 20.0695 5.25234L17.4844 6.74531C17.3062 6.84844 17.2453 7.07812 17.3484 7.25625L17.8125 8.0625ZM21.8906 11.1562H18.8906C18.6844 11.1562 18.5156 11.325 18.5156 11.5312V12.4688C18.5156 12.675 18.6844 12.8438 18.8906 12.8438H21.8906C22.0969 12.8438 22.2656 12.675 22.2656 12.4688V11.5312C22.2656 11.325 22.0969 11.1562 21.8906 11.1562ZM14.6695 2.69531C14.5313 2.69531 14.3906 2.73281 14.2617 2.81953L5.95312 8.25H2.10938C1.90312 8.25 1.73438 8.41875 1.73438 8.625V15.375C1.73438 15.5813 1.90312 15.75 2.10938 15.75H5.95312L14.2617 21.1805C14.3906 21.2648 14.5336 21.3047 14.6695 21.3047C15.0609 21.3047 15.4219 20.993 15.4219 20.5523V3.44766C15.4219 3.00703 15.0609 2.69531 14.6695 2.69531Z" />
</g>
</svg>
