<svg width="24" height="24" viewBox="0 0 24 24" xmlns="http://www.w3.org/2000/svg">
<g id="Frame">
<path id="Vector" d="M14.25 2.625C10.3148 2.625 7.125 5.81484 7.125 9.75C7.125 11.3977 7.68516 12.9141 8.62266 14.1211L7.65937 15.0844L6.19922 13.6242C6.12656 13.5516 6.00703 13.5516 5.93203 13.6242L4.99922 14.557C4.92656 14.6297 4.92656 14.7492 4.99922 14.8242L6.45938 16.2844L5.40703 17.3367L3.94687 15.8766C3.87422 15.8039 3.75469 15.8039 3.67969 15.8766L2.74687 16.8094C2.67422 16.882 2.67422 17.0016 2.74687 17.0766L4.20703 18.5367L2.67656 20.0672C2.60391 20.1398 2.60391 20.2594 2.67656 20.332L3.66797 21.3234C3.74063 21.3961 3.86016 21.3961 3.93281 21.3234L9.87656 15.3797C11.0859 16.3148 12.6023 16.875 14.25 16.875C18.1852 16.875 21.375 13.6852 21.375 9.75C21.375 5.81484 18.1852 2.625 14.25 2.625ZM18.0281 13.5281C17.0203 14.5383 15.6773 15.0938 14.25 15.0938C12.8227 15.0938 11.4797 14.5383 10.4719 13.5281C9.46172 12.5203 8.90625 11.1773 8.90625 9.75C8.90625 8.32266 9.46172 6.97969 10.4719 5.97188C11.4797 4.96172 12.8227 4.40625 14.25 4.40625C15.6773 4.40625 17.0203 4.96172 18.0281 5.97188C19.0383 6.97969 19.5938 8.32266 19.5938 9.75C19.5938 11.1773 19.0383 12.5203 18.0281 13.5281Z"/>
</g>
</svg>
