<svg width="24" height="24" viewBox="0 0 24 24" xmlns="http://www.w3.org/2000/svg">
<g id="Frame">
<path id="Vector" d="M19.5 10.875H17.9062V5.625C17.9062 3.96797 16.5633 2.625 14.9062 2.625H9.09375C7.43672 2.625 6.09375 3.96797 6.09375 5.625V10.875H4.5C4.08516 10.875 3.75 11.2102 3.75 11.625V20.625C3.75 21.0398 4.08516 21.375 4.5 21.375H19.5C19.9148 21.375 20.25 21.0398 20.25 20.625V11.625C20.25 11.2102 19.9148 10.875 19.5 10.875ZM7.78125 5.625C7.78125 4.90078 8.36953 4.3125 9.09375 4.3125H14.9062C15.6305 4.3125 16.2188 4.90078 16.2188 5.625V10.875H7.78125V5.625ZM18.5625 19.6875H5.4375V12.5625H18.5625V19.6875Z"/>
<path id="Vector_2" d="M11.3438 16.4297V17.6719C11.3438 17.775 11.4281 17.8594 11.5312 17.8594H12.4688C12.5719 17.8594 12.6562 17.775 12.6562 17.6719V16.4297C12.9398 16.2258 13.125 15.893 13.125 15.5156C13.125 14.8945 12.6211 14.3906 12 14.3906C11.3789 14.3906 10.875 14.8945 10.875 15.5156C10.875 15.893 11.0602 16.2258 11.3438 16.4297Z"/>
</g>
</svg>
