<svg width="24" height="24" viewBox="0 0 24 24" xmlns="http://www.w3.org/2000/svg">
<g id="Frame">
<path id="Vector" d="M22.3125 14.3437C22.4156 14.3437 22.5 14.2594 22.5 14.1562V12.8437C22.5 12.7406 22.4156 12.6562 22.3125 12.6562H6.98438C6.65156 11.8312 5.84297 11.25 4.89844 11.25C3.65625 11.25 2.64844 12.2578 2.64844 13.5C2.64844 14.7422 3.65625 15.75 4.89844 15.75C5.84297 15.75 6.65156 15.1687 6.98438 14.3437H10.507V17.9062C10.507 19.2 11.557 20.25 12.8508 20.25H22.3125C22.4156 20.25 22.5 20.1656 22.5 20.0625V18.75C22.5 18.6469 22.4156 18.5625 22.3125 18.5625H12.8508C12.4875 18.5625 12.1945 18.2695 12.1945 17.9062V14.3437H22.3125ZM10.6875 8.06249H16.875V10.364C16.875 10.5539 17.0977 10.664 17.2453 10.5445L21.2883 7.35233C21.4055 7.26092 21.4055 7.08514 21.2883 6.99374L17.2453 3.79921C17.0953 3.67967 16.875 3.78749 16.875 3.97967V6.28124H10.6875C10.5844 6.28124 10.5 6.36561 10.5 6.46874V7.87499C10.5 7.97811 10.5844 8.06249 10.6875 8.06249Z"/>
</g>
</svg>
