<svg width="24" height="24" viewBox="0 0 24 24" xmlns="http://www.w3.org/2000/svg">
<g id="Frame">
<path id="Vector" d="M17.625 2.34375C16.1766 2.34375 15 3.52031 15 4.96875C15 6.08672 15.7008 7.04297 16.6875 7.42031V8.06719L12 14.0953L7.3125 8.06719V7.42031C8.29922 7.04297 9 6.08672 9 4.96875C9 3.52031 7.82344 2.34375 6.375 2.34375C4.92656 2.34375 3.75 3.52031 3.75 4.96875C3.75 6.15469 4.54219 7.16016 5.625 7.48359V8.28984C5.625 8.51719 5.70234 8.74219 5.84297 8.92266L11.1562 15.757V16.5445C10.1203 16.8961 9.375 17.8781 9.375 19.0312C9.375 20.4797 10.5516 21.6562 12 21.6562C13.4484 21.6562 14.625 20.4797 14.625 19.0312C14.625 17.8781 13.8797 16.8984 12.8438 16.5445V15.757L18.157 8.92266C18.2977 8.74219 18.375 8.51719 18.375 8.28984V7.48359C19.4578 7.16016 20.25 6.15469 20.25 4.96875C20.25 3.52031 19.0734 2.34375 17.625 2.34375ZM5.25 4.96875C5.25 4.34766 5.75391 3.84375 6.375 3.84375C6.99609 3.84375 7.5 4.34766 7.5 4.96875C7.5 5.58984 6.99609 6.09375 6.375 6.09375C5.75391 6.09375 5.25 5.58984 5.25 4.96875ZM13.125 19.0312C13.125 19.6523 12.6211 20.1562 12 20.1562C11.3789 20.1562 10.875 19.6523 10.875 19.0312C10.875 18.4102 11.3789 17.9062 12 17.9062C12.6211 17.9062 13.125 18.4102 13.125 19.0312ZM17.625 6.09375C17.0039 6.09375 16.5 5.58984 16.5 4.96875C16.5 4.34766 17.0039 3.84375 17.625 3.84375C18.2461 3.84375 18.75 4.34766 18.75 4.96875C18.75 5.58984 18.2461 6.09375 17.625 6.09375Z"/>
</g>
</svg>
