<svg width="24" height="24" viewBox="0 0 24 24" xmlns="http://www.w3.org/2000/svg">
<g id="Frame">
<path id="Vector" d="M22.3125 14.3437C22.4156 14.3437 22.5 14.2594 22.5 14.1562V12.8437C22.5 12.7406 22.4156 12.6562 22.3125 12.6562H6.98438C6.65156 11.8312 5.84297 11.25 4.89844 11.25C3.65625 11.25 2.64844 12.2578 2.64844 13.5C2.64844 14.7422 3.65625 15.75 4.89844 15.75C5.84297 15.75 6.65156 15.1687 6.98438 14.3437H10.507V17.9062C10.507 19.2 11.557 20.25 12.8508 20.25H22.3125C22.4156 20.25 22.5 20.1656 22.5 20.0625V18.75C22.5 18.6469 22.4156 18.5625 22.3125 18.5625H12.8508C12.4875 18.5625 12.1945 18.2695 12.1945 17.9062V14.3437H22.3125ZM10.5867 7.35234L14.6297 10.5445C14.7773 10.6641 15 10.5562 15 10.3641V8.0625H21.1875C21.2906 8.0625 21.375 7.97812 21.375 7.875V6.46875C21.375 6.36562 21.2906 6.28125 21.1875 6.28125H15V3.97969C15 3.78984 14.7797 3.67969 14.6297 3.79922L10.5867 6.9914C10.4719 7.08281 10.4719 7.26094 10.5867 7.35234Z"/>
</g>
</svg>
