<svg width="24" height="24" viewBox="0 0 24 24" xmlns="http://www.w3.org/2000/svg">
<g id="Frame">
<path id="Vector" d="M17.3438 3.77344C15.8953 3.77344 14.7188 4.95 14.7188 6.39844C14.7188 7.57266 15.4945 8.56875 16.5586 8.90391V11.1516L7.5 14.1187V7.45547C8.53594 7.10391 9.28125 6.12187 9.28125 4.96875C9.28125 3.52031 8.10469 2.34375 6.65625 2.34375C5.20781 2.34375 4.03125 3.52031 4.03125 4.96875C4.03125 6.12187 4.77656 7.10156 5.8125 7.45547V16.5469C4.77656 16.8984 4.03125 17.8805 4.03125 19.0336C4.03125 20.482 5.20781 21.6586 6.65625 21.6586C8.10469 21.6586 9.28125 20.482 9.28125 19.0336C9.28125 17.8805 8.53594 16.9008 7.5 16.5469V15.8953L17.4258 12.6445C17.9156 12.4852 18.2438 12.0305 18.2438 11.5148V8.86406C19.2492 8.49375 19.9688 7.52812 19.9688 6.39844C19.9688 4.95 18.7922 3.77344 17.3438 3.77344ZM5.53125 4.96875C5.53125 4.34766 6.03516 3.84375 6.65625 3.84375C7.27734 3.84375 7.78125 4.34766 7.78125 4.96875C7.78125 5.58984 7.27734 6.09375 6.65625 6.09375C6.03516 6.09375 5.53125 5.58984 5.53125 4.96875ZM7.78125 19.0312C7.78125 19.6523 7.27734 20.1562 6.65625 20.1562C6.03516 20.1562 5.53125 19.6523 5.53125 19.0312C5.53125 18.4102 6.03516 17.9062 6.65625 17.9062C7.27734 17.9062 7.78125 18.4102 7.78125 19.0312ZM17.3438 7.52344C16.7227 7.52344 16.2188 7.01953 16.2188 6.39844C16.2188 5.77734 16.7227 5.27344 17.3438 5.27344C17.9648 5.27344 18.4688 5.77734 18.4688 6.39844C18.4688 7.01953 17.9648 7.52344 17.3438 7.52344Z"/>
</g>
</svg>
