<svg width="16" height="16" viewBox="0 0 16 16" xmlns="http://www.w3.org/2000/svg">
<path d="M7.99992 14.72C7.79992 14.72 7.59992 14.6733 7.43325 14.58C6.18658 13.9 3.99325 13.18 2.61992 13L2.42659 12.9733C1.55325 12.8666 0.833252 12.0466 0.833252 11.16V3.10663C0.833252 2.57996 1.03992 2.09996 1.41992 1.7533C1.79992 1.40663 2.29325 1.23996 2.81325 1.28663C4.27992 1.39996 6.49325 2.1333 7.74658 2.91996L7.90658 3.0133C7.95325 3.03996 8.05325 3.03996 8.09325 3.01996L8.19992 2.9533C9.45325 2.16663 11.6666 1.41996 13.1399 1.2933C13.1533 1.2933 13.2066 1.2933 13.2199 1.2933C13.7066 1.24663 14.2066 1.41996 14.5799 1.76663C14.9599 2.1133 15.1666 2.5933 15.1666 3.11996V11.1666C15.1666 12.06 14.4466 12.8733 13.5666 12.98L13.3466 13.0066C11.9733 13.1866 9.77325 13.9133 8.55325 14.5866C8.39325 14.68 8.19992 14.72 7.99992 14.72ZM2.65325 2.27996C2.43992 2.27996 2.24659 2.3533 2.09325 2.4933C1.92659 2.64663 1.83325 2.86663 1.83325 3.10663V11.16C1.83325 11.5533 2.17325 11.9333 2.55325 11.9866L2.75325 12.0133C4.25325 12.2133 6.55325 12.9666 7.88658 13.6933C7.94658 13.72 8.03325 13.7266 8.06659 13.7133C9.39992 12.9733 11.7133 12.2133 13.2199 12.0133L13.4466 11.9866C13.8266 11.94 14.1666 11.5533 14.1666 11.16V3.1133C14.1666 2.86663 14.0733 2.6533 13.9066 2.4933C13.7333 2.33996 13.5133 2.26663 13.2666 2.27996C13.2533 2.27996 13.1999 2.27996 13.1866 2.27996C11.9133 2.3933 9.85992 3.07996 8.73992 3.77996L8.63325 3.8533C8.26658 4.07996 7.74658 4.07996 7.39325 3.85996L7.23325 3.76663C6.09325 3.06663 4.03992 2.38663 2.73325 2.27996C2.70659 2.27996 2.67992 2.27996 2.65325 2.27996Z" />
<path d="M8 14.16C7.72667 14.16 7.5 13.9334 7.5 13.66V3.66003C7.5 3.3867 7.72667 3.16003 8 3.16003C8.27333 3.16003 8.5 3.3867 8.5 3.66003V13.66C8.5 13.94 8.27333 14.16 8 14.16Z" />
<path d="M5.16675 6.16003H3.66675C3.39341 6.16003 3.16675 5.93337 3.16675 5.66003C3.16675 5.3867 3.39341 5.16003 3.66675 5.16003H5.16675C5.44008 5.16003 5.66675 5.3867 5.66675 5.66003C5.66675 5.93337 5.44008 6.16003 5.16675 6.16003Z" />
<path d="M5.66675 8.16003H3.66675C3.39341 8.16003 3.16675 7.93337 3.16675 7.66003C3.16675 7.3867 3.39341 7.16003 3.66675 7.16003H5.66675C5.94008 7.16003 6.16675 7.3867 6.16675 7.66003C6.16675 7.93337 5.94008 8.16003 5.66675 8.16003Z" />
</svg>
