<svg width="24" height="24" viewBox="0 0 24 24" xmlns="http://www.w3.org/2000/svg">
<g id="Frame">
<path id="Vector" d="M20.0625 8.8125H15.1875V3.9375C15.1875 3.73125 15.0188 3.5625 14.8125 3.5625H3.9375C3.73125 3.5625 3.5625 3.73125 3.5625 3.9375V14.8125C3.5625 15.0188 3.73125 15.1875 3.9375 15.1875H8.8125V20.0625C8.8125 20.2687 8.98125 20.4375 9.1875 20.4375H20.0625C20.2687 20.4375 20.4375 20.2687 20.4375 20.0625V9.1875C20.4375 8.98125 20.2687 8.8125 20.0625 8.8125ZM8.8125 9.1875V13.5938H5.15625V5.15625H13.5938V8.8125H9.1875C8.98125 8.8125 8.8125 8.98125 8.8125 9.1875ZM13.5938 10.4062V13.5938H10.4062V10.4062H13.5938ZM18.8438 18.8438H10.4062V15.1875H14.8125C15.0188 15.1875 15.1875 15.0188 15.1875 14.8125V10.4062H18.8438V18.8438Z"/>
</g>
</svg>
