<svg width="24" height="24" viewBox="0 0 24 24" xmlns="http://www.w3.org/2000/svg">
<g id="Frame">
<path id="Vector" d="M19.5 1.5H4.5C4.08516 1.5 3.75 1.83516 3.75 2.25V14.6484C3.75 14.6344 3.75937 14.625 3.77344 14.625H8.91328L9.03516 15.2039C9.31875 16.6055 10.5656 17.625 12 17.625C13.4344 17.625 14.6813 16.6055 14.9625 15.2039L15.0844 14.625H20.2266C20.2406 14.625 20.25 14.6344 20.25 14.6484V2.25C20.25 1.83516 19.9148 1.5 19.5 1.5ZM16.6875 11.5547C16.6875 11.6578 16.6031 11.7422 16.5 11.7422H7.5C7.39687 11.7422 7.3125 11.6578 7.3125 11.5547V10.4297C7.3125 10.3266 7.39687 10.2422 7.5 10.2422H16.5C16.6031 10.2422 16.6875 10.3266 16.6875 10.4297V11.5547ZM16.6875 7.80469C16.6875 7.90781 16.6031 7.99219 16.5 7.99219H7.5C7.39687 7.99219 7.3125 7.90781 7.3125 7.80469V6.67969C7.3125 6.57656 7.39687 6.49219 7.5 6.49219H16.5C16.6031 6.49219 16.6875 6.57656 16.6875 6.67969V7.80469Z"/>
<path id="Vector_2" d="M20.2266 16.1016H16.268C15.9961 16.8703 15.518 17.5617 14.8828 18.0867C14.0742 18.757 13.05 19.125 12 19.125C10.95 19.125 9.92578 18.7547 9.11719 18.0867C8.48203 17.5617 8.00391 16.8703 7.73203 16.1016H3.77344C3.75937 16.1016 3.75 16.0922 3.75 16.0781V21.75C3.75 22.1648 4.08516 22.5 4.5 22.5H19.5C19.9148 22.5 20.25 22.1648 20.25 21.75V16.0781C20.25 16.0922 20.2406 16.1016 20.2266 16.1016Z"/>
</g>
</svg>
