<svg width="24" height="24" viewBox="0 0 24 24" xmlns="http://www.w3.org/2000/svg">
<g id="Frame">
<path id="Vector" d="M19.5 1.5H4.5C4.08516 1.5 3.75 1.83516 3.75 2.25V21.75C3.75 22.1648 4.08516 22.5 4.5 22.5H19.5C19.9148 22.5 20.25 22.1648 20.25 21.75V2.25C20.25 1.83516 19.9148 1.5 19.5 1.5ZM18.5625 20.8125H5.4375V16.1016H7.73203C8.00391 16.8703 8.48203 17.5617 9.11719 18.0867C9.92578 18.7547 10.95 19.125 12 19.125C13.05 19.125 14.0742 18.757 14.8828 18.0867C15.518 17.5617 15.9961 16.8703 16.268 16.1016H18.5625V14.625H15.0844L14.9625 15.2039C14.6813 16.6055 13.4344 17.625 12 17.625C10.5656 17.625 9.31875 16.6055 9.03516 15.2039L8.91328 14.625H5.4375V3.1875H18.5625V20.8125Z"/>
<path id="Vector_2" d="M7.5 7.99219H16.5C16.6031 7.99219 16.6875 7.90781 16.6875 7.80469V6.67969C16.6875 6.57656 16.6031 6.49219 16.5 6.49219H7.5C7.39687 6.49219 7.3125 6.57656 7.3125 6.67969V7.80469C7.3125 7.90781 7.39687 7.99219 7.5 7.99219ZM7.5 11.7422H16.5C16.6031 11.7422 16.6875 11.6578 16.6875 11.5547V10.4297C16.6875 10.3266 16.6031 10.2422 16.5 10.2422H7.5C7.39687 10.2422 7.3125 10.3266 7.3125 10.4297V11.5547C7.3125 11.6578 7.39687 11.7422 7.5 11.7422Z"/>
</g>
</svg>
