<svg width="24" height="24" viewBox="0 0 24 24" xmlns="http://www.w3.org/2000/svg">
<g id="Frame">
<path id="Vector" d="M10.3664 15.8813L15.0399 12.2086C15.1734 12.1031 15.1734 11.9016 15.0399 11.7938L10.3664 8.11875C10.193 7.98281 9.9375 8.10469 9.9375 8.325V15.6727C9.9375 15.893 10.193 16.0172 10.3664 15.8813Z"/>
<path id="Vector_2" d="M20.625 2.625H3.375C2.96016 2.625 2.625 2.96016 2.625 3.375V20.625C2.625 21.0398 2.96016 21.375 3.375 21.375H20.625C21.0398 21.375 21.375 21.0398 21.375 20.625V3.375C21.375 2.96016 21.0398 2.625 20.625 2.625ZM19.6875 19.6875H4.3125V4.3125H19.6875V19.6875Z"/>
</g>
</svg>
