<svg width="24" height="24" viewBox="0 0 24 24" xmlns="http://www.w3.org/2000/svg">
<g id="phone">
<rect id="&#231;&#159;&#169;&#229;&#189;&#162;" opacity="0.01" width="24" height="24"/>
<path id="&#229;&#189;&#162;&#231;&#138;&#182;" fill-rule="evenodd" clip-rule="evenodd" d="M18.0609 3.10078L20.557 5.59453C21.1898 6.22969 21.4852 7.13672 21.3375 8.01797C20.8219 11.1234 19.1719 14.2031 16.6875 16.6922C14.2008 19.1766 11.1211 20.8289 8.01797 21.3398C7.86797 21.3656 7.72031 21.3773 7.56797 21.3773C6.83203 21.3773 6.11484 21.0797 5.59453 20.5594L3.10078 18.0656C2.79375 17.7586 2.625 17.3531 2.625 16.9195C2.625 16.4883 2.79609 16.0781 3.10078 15.7734L5.79141 13.0898C6.09609 12.7828 6.50156 12.6141 6.93516 12.6141C7.36641 12.6141 7.77422 12.7852 8.07891 13.0898L10.1789 15.1922C11.2945 14.7094 12.3 14.0273 13.1602 13.1625C14.0227 12.3023 14.7023 11.2992 15.1852 10.1789L13.0852 8.07656C12.7781 7.76953 12.6094 7.36406 12.6094 6.93047C12.6094 6.49922 12.7805 6.08906 13.0852 5.78437L15.7734 3.10078C16.0781 2.79375 16.4859 2.625 16.9172 2.625C17.3484 2.625 17.7563 2.79609 18.0609 3.10078ZM15.4949 15.4968C17.7332 13.2585 19.2191 10.5022 19.6762 7.73897C19.7348 7.39209 19.6176 7.03584 19.3645 6.78271L16.9152 4.3335L14.3184 6.93271L17.1496 9.76162L16.9621 10.2679C15.8184 13.378 13.3762 15.8202 10.266 16.9663L9.75977 17.1538L9.73867 17.1327L6.93086 14.3202L4.33398 16.9194L6.7832 19.3687C7.03633 19.6194 7.39258 19.7366 7.73945 19.678C10.5027 19.221 13.2566 17.7351 15.4949 15.4968Z"/>
</g>
</svg>
