<svg width="24" height="24" viewBox="0 0 24 24" xmlns="http://www.w3.org/2000/svg">
<g id="Frame">
<path id="Vector" d="M21.75 3.75H2.25C1.83516 3.75 1.5 4.08516 1.5 4.5V19.5C1.5 19.9148 1.83516 20.25 2.25 20.25H21.75C22.1648 20.25 22.5 19.9148 22.5 19.5V4.5C22.5 4.08516 22.1648 3.75 21.75 3.75ZM20.8125 18.5625H3.1875V17.6273L6.43359 13.7766L9.95156 17.9484L15.4242 11.4609L20.8125 17.85V18.5625ZM20.8125 15.5203L15.5672 9.3C15.4922 9.21094 15.3562 9.21094 15.2812 9.3L9.95156 15.6188L6.57656 11.618C6.50156 11.5289 6.36562 11.5289 6.29062 11.618L3.1875 15.2977V5.4375H20.8125V15.5203Z" />
<path id="Vector_2" d="M7.125 10.6875C8.26406 10.6875 9.1875 9.76406 9.1875 8.625C9.1875 7.48594 8.26406 6.5625 7.125 6.5625C5.98594 6.5625 5.0625 7.48594 5.0625 8.625C5.0625 9.76406 5.98594 10.6875 7.125 10.6875ZM7.125 7.96875C7.48828 7.96875 7.78125 8.26172 7.78125 8.625C7.78125 8.98828 7.48828 9.28125 7.125 9.28125C6.76172 9.28125 6.46875 8.98828 6.46875 8.625C6.46875 8.26172 6.76172 7.96875 7.125 7.96875Z" />
</g>
</svg>
