<svg width="24" height="24" viewBox="0 0 24 24" xmlns="http://www.w3.org/2000/svg">
<g id="printer-fill">
<rect id="&#231;&#159;&#169;&#229;&#189;&#162;" opacity="0.01" width="24" height="24"/>
<path id="&#229;&#189;&#162;&#231;&#138;&#182;" fill-rule="evenodd" clip-rule="evenodd" d="M16.9688 2.625C17.0719 2.625 17.1562 2.70938 17.1562 2.8125V6.28125H6.84375V2.8125C6.84375 2.70938 6.92812 2.625 7.03125 2.625H16.9688ZM4.03125 7.78125H19.9688C21.0047 7.78125 21.8438 8.62031 21.8438 9.65625V17.3438C21.8438 17.7586 21.5086 18.0938 21.0938 18.0938H17.1562V21.1875C17.1562 21.2906 17.0719 21.375 16.9688 21.375H7.03125C6.92812 21.375 6.84375 21.2906 6.84375 21.1875V18.0938H2.90625C2.49141 18.0938 2.15625 17.7586 2.15625 17.3438V9.65625C2.15625 8.62031 2.99531 7.78125 4.03125 7.78125ZM15.5625 19.7812H8.4375V13.3125H15.5625V19.7812ZM19.2188 11.5312C19.3219 11.5312 19.4062 11.4469 19.4062 11.3438V10.4062C19.4062 10.3031 19.3219 10.2188 19.2188 10.2188H18.2812C18.1781 10.2188 18.0938 10.3031 18.0938 10.4062V11.3438C18.0938 11.4469 18.1781 11.5312 18.2812 11.5312H19.2188Z"/>
</g>
</svg>
