<svg width="24" height="24" viewBox="0 0 24 24" xmlns="http://www.w3.org/2000/svg">
<g id="Frame">
<path id="Vector" d="M12 1.5C6.20156 1.5 1.5 6.20156 1.5 12C1.5 17.7984 6.20156 22.5 12 22.5C17.7984 22.5 22.5 17.7984 22.5 12C22.5 6.20156 17.7984 1.5 12 1.5ZM6.75 9.86719C6.75 9.24609 7.25391 8.74219 7.875 8.74219C8.49609 8.74219 9 9.24609 9 9.86719C9 10.4883 8.49609 10.9922 7.875 10.9922C7.25391 10.9922 6.75 10.4883 6.75 9.86719ZM15.5625 16.2422H14.4352C14.3367 16.2422 14.2523 16.1672 14.2453 16.0687C14.1562 14.9086 13.1836 13.9922 12 13.9922C10.8164 13.9922 9.84141 14.9086 9.75469 16.0687C9.74766 16.1672 9.66328 16.2422 9.56484 16.2422H8.4375C8.32969 16.2422 8.24531 16.1531 8.25 16.0453C8.35313 14.0695 9.99609 12.4922 12 12.4922C14.0039 12.4922 15.6469 14.0695 15.75 16.0453C15.7547 16.1531 15.6703 16.2422 15.5625 16.2422ZM16.125 10.9922C15.5039 10.9922 15 10.4883 15 9.86719C15 9.24609 15.5039 8.74219 16.125 8.74219C16.7461 8.74219 17.25 9.24609 17.25 9.86719C17.25 10.4883 16.7461 10.9922 16.125 10.9922Z" />
</g>
</svg>
