<svg width="24" height="24" viewBox="0 0 24 24" xmlns="http://www.w3.org/2000/svg">
<g id="Frame">
<path id="Vector" d="M20.625 4.3125H16.6875V2.8125C16.6875 2.70937 16.6031 2.625 16.5 2.625H15.1875C15.0844 2.625 15 2.70937 15 2.8125V4.3125H9V2.8125C9 2.70937 8.91563 2.625 8.8125 2.625H7.5C7.39687 2.625 7.3125 2.70937 7.3125 2.8125V4.3125H3.375C2.96016 4.3125 2.625 4.64766 2.625 5.0625V20.625C2.625 21.0398 2.96016 21.375 3.375 21.375H20.625C21.0398 21.375 21.375 21.0398 21.375 20.625V5.0625C21.375 4.64766 21.0398 4.3125 20.625 4.3125ZM19.6875 19.6875H4.3125V6H7.3125V7.125C7.3125 7.22813 7.39687 7.3125 7.5 7.3125H8.8125C8.91563 7.3125 9 7.22813 9 7.125V6H15V7.125C15 7.22813 15.0844 7.3125 15.1875 7.3125H16.5C16.6031 7.3125 16.6875 7.22813 16.6875 7.125V6H19.6875V19.6875Z"/>
<path id="Vector_2" d="M14.9888 9.70312H13.9342C13.8638 9.70312 13.7982 9.74297 13.7677 9.80625L12.0474 13.2141H11.9818L10.2615 9.80625C10.2287 9.74297 10.1654 9.70312 10.0951 9.70312H9.01697C8.9865 9.70312 8.95368 9.71016 8.9279 9.72656C8.8365 9.77578 8.80369 9.89062 8.8529 9.98203L10.9459 13.8258H9.80681C9.70368 13.8258 9.61931 13.9102 9.61931 14.0133V14.5125C9.61931 14.6156 9.70368 14.7 9.80681 14.7H11.3326V15.4898H9.80681C9.70368 15.4898 9.61931 15.5742 9.61931 15.6773V16.1766C9.61931 16.2797 9.70368 16.3641 9.80681 16.3641H11.3326V17.625C11.3326 17.7281 11.417 17.8125 11.5201 17.8125H12.4881C12.5912 17.8125 12.6756 17.7281 12.6756 17.625V16.3641H14.2084C14.3115 16.3641 14.3959 16.2797 14.3959 16.1766V15.6773C14.3959 15.5742 14.3115 15.4898 14.2084 15.4898H12.6756V14.7H14.2084C14.3115 14.7 14.3959 14.6156 14.3959 14.5125V14.0133C14.3959 13.9102 14.3115 13.8258 14.2084 13.8258H13.0576L15.1506 9.97969C15.1646 9.95156 15.174 9.92109 15.174 9.89062C15.1763 9.7875 15.0943 9.70312 14.9888 9.70312Z"/>
</g>
</svg>
