<svg width="24" height="24" viewBox="0 0 24 24" xmlns="http://www.w3.org/2000/svg">
<g id="Frame">
<path id="Vector" d="M20.625 4.3125H16.6875V2.8125C16.6875 2.70937 16.6031 2.625 16.5 2.625H15.1875C15.0844 2.625 15 2.70937 15 2.8125V4.3125H9V2.8125C9 2.70937 8.91563 2.625 8.8125 2.625H7.5C7.39687 2.625 7.3125 2.70937 7.3125 2.8125V4.3125H3.375C2.96016 4.3125 2.625 4.64766 2.625 5.0625V20.625C2.625 21.0398 2.96016 21.375 3.375 21.375H20.625C21.0398 21.375 21.375 21.0398 21.375 20.625V5.0625C21.375 4.64766 21.0398 4.3125 20.625 4.3125Z"/>
<path id="Vector_2" d="M16.1253 9.84375H14.8315C14.712 9.84375 14.5972 9.90234 14.5269 9.99844L10.9901 14.8687L9.47373 12.7828C9.40342 12.6867 9.29092 12.6281 9.16905 12.6281H7.8753C7.72295 12.6281 7.63389 12.8016 7.72295 12.9258L10.6855 17.0039C10.8355 17.2102 11.1448 17.2102 11.2948 17.0039L16.2776 10.1437C16.3667 10.0172 16.2776 9.84375 16.1253 9.84375Z"/>
</g>
</svg>
