<svg width="24" height="24" viewBox="0 0 24 24" xmlns="http://www.w3.org/2000/svg">
<g id="Frame">
<path id="Vector" d="M20.318 3.98203L12.3539 1.26797C12.2578 1.23516 12.1289 1.21875 12 1.21875C11.8711 1.21875 11.7422 1.23516 11.6461 1.26797L3.68203 3.98203C3.4875 4.04766 3.32812 4.27266 3.32812 4.47891V15.7852C3.32812 15.9914 3.46172 16.2633 3.62344 16.3922L11.7023 22.6875C11.7844 22.7508 11.8898 22.7836 11.9977 22.7836C12.1055 22.7836 12.2133 22.7508 12.293 22.6875L20.3719 16.3922C20.5336 16.2656 20.6672 15.9937 20.6672 15.7852V4.47891C20.6719 4.27266 20.5125 4.05 20.318 3.98203ZM18.9844 15.3352L12 20.7773L5.01563 15.3352V5.31328L12 2.93203L18.9844 5.31328V15.3352Z"/>
<path id="Vector_2" d="M10.0896 7.45312H9.01151C8.97167 7.45312 8.93417 7.4625 8.89901 7.48125C8.78651 7.54219 8.74432 7.68516 8.80526 7.8L10.8678 11.5758H9.80839C9.67948 11.5758 9.57401 11.6812 9.57401 11.8102V12.3094C9.57401 12.4383 9.67948 12.5438 9.80839 12.5438H11.2873V13.2398H9.80839C9.67948 13.2398 9.57401 13.3453 9.57401 13.4742V13.9734C9.57401 14.1023 9.67948 14.2078 9.80839 14.2078H11.2873V15.4219C11.2873 15.5508 11.3928 15.6562 11.5217 15.6562H12.4896C12.6185 15.6562 12.724 15.5508 12.724 15.4219V14.2078H14.2099C14.3389 14.2078 14.4443 14.1023 14.4443 13.9734V13.4742C14.4443 13.3453 14.3389 13.2398 14.2099 13.2398H12.724V12.5438H14.2099C14.3389 12.5438 14.4443 12.4383 14.4443 12.3094V11.8102C14.4443 11.6812 14.3389 11.5758 14.2099 11.5758H13.1389L15.1943 7.8C15.2131 7.76484 15.2224 7.72734 15.2224 7.6875C15.2224 7.55859 15.117 7.45312 14.9881 7.45312H13.9334C13.8443 7.45312 13.7646 7.50234 13.7248 7.58203L12.0092 10.9641L10.3006 7.58203C10.2607 7.50234 10.1787 7.45312 10.0896 7.45312Z"/>
</g>
</svg>
