<svg width="24" height="24" viewBox="0 0 24 24" xmlns="http://www.w3.org/2000/svg">
<g id="Frame">
<path id="Vector" d="M20.318 3.98203L12.3539 1.26797C12.2578 1.23516 12.1289 1.21875 12 1.21875C11.8711 1.21875 11.7422 1.23516 11.6461 1.26797L3.68203 3.98203C3.4875 4.04766 3.32812 4.27266 3.32812 4.47891V15.7852C3.32812 15.9914 3.46172 16.2633 3.62344 16.3922L11.7023 22.6875C11.7844 22.7508 11.8898 22.7836 11.9977 22.7836C12.1055 22.7836 12.2133 22.7508 12.293 22.6875L20.3719 16.3922C20.5336 16.2656 20.6672 15.9937 20.6672 15.7852V4.47891C20.6719 4.27266 20.5125 4.05 20.318 3.98203ZM18.9844 15.3352L12 20.7773L5.01563 15.3352V5.31328L12 2.93203L18.9844 5.31328V15.3352Z"/>
<path id="Vector_2" d="M9.44317 12.3938L7.62676 14.2102C7.5541 14.2828 7.5541 14.4023 7.62676 14.475L8.42363 15.2719C8.49629 15.3445 8.61582 15.3445 8.68848 15.2719L10.5049 13.4555C11.8104 14.2781 13.5541 14.1211 14.6908 12.9844C16.0104 11.6648 16.0104 9.52735 14.6908 8.20782C13.3713 6.88829 11.2338 6.88829 9.91426 8.20782C8.77754 9.34454 8.62051 11.0906 9.44317 12.3938ZM10.976 9.26954C11.7096 8.53594 12.8979 8.53594 13.6291 9.26954C14.3627 10.0031 14.3627 11.1914 13.6291 11.9227C12.8955 12.6563 11.7072 12.6563 10.976 11.9227C10.2447 11.1891 10.2424 10.0031 10.976 9.26954Z"/>
</g>
</svg>
