<svg width="24" height="24" viewBox="0 0 24 24" xmlns="http://www.w3.org/2000/svg">
<g id="right-circle">
<rect id="&#231;&#159;&#169;&#229;&#189;&#162;" opacity="0.01" width="24" height="24" />
<path id="&#229;&#189;&#162;&#231;&#138;&#182;" fill-rule="evenodd" clip-rule="evenodd" d="M1.5 12C1.5 6.20156 6.20156 1.5 12 1.5C17.7984 1.5 22.5 6.20156 22.5 12C22.5 17.7984 17.7984 22.5 12 22.5C6.20156 22.5 1.5 17.7984 1.5 12ZM3.28125 12C3.28125 16.8141 7.18594 20.7188 12 20.7188C16.8141 20.7188 20.7188 16.8141 20.7188 12C20.7188 7.18594 16.8141 3.28125 12 3.28125C7.18594 3.28125 3.28125 7.18594 3.28125 12Z" />
<path id="&#232;&#183;&#175;&#229;&#190;&#132;" fill-rule="evenodd" clip-rule="evenodd" d="M23.7 11H18.8C18.7725 11 18.75 11.0844 18.75 11.1875V12.5C18.75 12.6031 18.7725 12.6875 18.8 12.6875H23.7C23.7275 12.6875 23.75 12.6031 23.75 12.5V11.1875C23.75 11.0844 23.7275 11 23.7 11Z" />
<path id="&#232;&#183;&#175;&#229;&#190;&#132;_2" fill-rule="evenodd" clip-rule="evenodd" d="M5.2 11H0.3C0.2725 11 0.25 11.0844 0.25 11.1875V12.5C0.25 12.6031 0.2725 12.6875 0.3 12.6875H5.2C5.2275 12.6875 5.25 12.6031 5.25 12.5V11.1875C5.25 11.0844 5.2275 11 5.2 11Z" />
<g id="&#231;&#188;&#150;&#231;&#187;&#132; 2">
<path id="&#232;&#183;&#175;&#229;&#190;&#132;_3" fill-rule="evenodd" clip-rule="evenodd" d="M11.25 0.55V5.45C11.25 5.4775 11.3344 5.5 11.4375 5.5H12.75C12.8531 5.5 12.9375 5.4775 12.9375 5.45V0.55C12.9375 0.5225 12.8531 0.5 12.75 0.5H11.4375C11.3344 0.5 11.25 0.5225 11.25 0.55Z" />
<path id="&#232;&#183;&#175;&#229;&#190;&#132;_4" fill-rule="evenodd" clip-rule="evenodd" d="M11.25 19.05V23.95C11.25 23.9775 11.3344 24 11.4375 24H12.75C12.8531 24 12.9375 23.9775 12.9375 23.95V19.05C12.9375 19.0225 12.8531 19 12.75 19H11.4375C11.3344 19 11.25 19.0225 11.25 19.05Z" />
</g>
<circle id="&#230;&#164;&#173;&#229;&#156;&#134;&#229;&#189;&#162;" cx="12" cy="12" r="3" />
</g>
</svg>
