<svg width="24" height="24" viewBox="0 0 24 24" xmlns="http://www.w3.org/2000/svg">
<g id="Frame">
<path id="Vector" d="M7.06172 11.6414C6.50391 11.6414 6.11953 11.3953 6.08672 11.0109H4.80469C4.82578 12.0281 5.66953 12.6586 7.00547 12.6586C8.39062 12.6586 9.23203 11.993 9.23203 10.8891C9.23203 10.05 8.76328 9.57891 7.72031 9.37735L7.03828 9.2461C6.48047 9.13594 6.24609 8.96719 6.24609 8.67891C6.24609 8.32734 6.55781 8.10469 7.02891 8.10469C7.5 8.10469 7.85625 8.36484 7.88672 8.7375H9.12891C9.10781 7.76016 8.25 7.08984 7.0125 7.08984C5.7375 7.08984 4.91016 7.76719 4.91016 8.80078C4.91016 9.63281 5.40703 10.1602 6.375 10.343L7.07109 10.4813C7.67578 10.6031 7.90547 10.7602 7.90547 11.0531C7.90781 11.3977 7.56562 11.6414 7.06172 11.6414Z"/>
<path id="Vector_2" d="M21.75 3.28125H2.25C1.83516 3.28125 1.5 3.61641 1.5 4.03125V15.6562C1.5 16.0711 1.83516 16.4062 2.25 16.4062H11.1562V19.0312H7.125C6.91875 19.0312 6.75 19.2 6.75 19.4062V20.5312C6.75 20.6344 6.83437 20.7188 6.9375 20.7188H17.0625C17.1656 20.7188 17.25 20.6344 17.25 20.5312V19.4062C17.25 19.2 17.0813 19.0312 16.875 19.0312H12.8438V16.4062H21.75C22.1648 16.4062 22.5 16.0711 22.5 15.6562V4.03125C22.5 3.61641 22.1648 3.28125 21.75 3.28125ZM20.8125 14.7188H3.1875V4.96875H20.8125V14.7188Z"/>
<path id="Vector_3" d="M19.4178 11.407H17.1725V7.23046H15.8272V12.5156H19.4178V11.407ZM12.4193 12.6586C12.7498 12.6586 13.0568 12.6117 13.3357 12.5227L13.6475 12.9984H14.8967L14.2475 11.9766C14.742 11.5078 15.0209 10.7789 15.0209 9.87187C15.0209 8.1539 14.0061 7.08749 12.4217 7.08749C10.8373 7.08749 9.81543 8.14921 9.81543 9.87187C9.81309 11.5992 10.8232 12.6586 12.4193 12.6586ZM12.4193 8.20546C13.16 8.20546 13.6545 8.85468 13.6545 9.87187C13.6545 10.2633 13.5701 10.5891 13.4201 10.8211L13.2982 10.6594H12.1545L12.7029 11.5078C12.6115 11.5289 12.5154 11.5406 12.417 11.5406C11.674 11.5406 11.1795 10.8961 11.1795 9.87187C11.1818 8.85 11.6764 8.20546 12.4193 8.20546Z"/>
</g>
</svg>
