<svg width="24" height="24" viewBox="0 0 24 24" xmlns="http://www.w3.org/2000/svg">
<g id="Frame">
<path id="Vector" d="M14.8125 16.3664L18.1383 13.7414C18.2344 13.6664 18.2344 13.5211 18.1383 13.4461L14.8125 10.8211C14.6883 10.7227 14.5078 10.8117 14.5078 10.9688V12.75H6.91406C6.81094 12.75 6.72656 12.8344 6.72656 12.9375V14.25C6.72656 14.3531 6.81094 14.4375 6.91406 14.4375H14.5078V16.2188C14.5078 16.3758 14.6906 16.4625 14.8125 16.3664ZM20.9367 6.87422L17.1258 3.06328C16.95 2.8875 16.7344 2.75859 16.5 2.68828V2.625H3.375C2.96016 2.625 2.625 2.96016 2.625 3.375V9.89062C2.625 9.99375 2.70937 10.0781 2.8125 10.0781H4.125C4.22812 10.0781 4.3125 9.99375 4.3125 9.89062V4.3125H7.5V7.5C7.5 7.91484 7.83516 8.25 8.25 8.25H15.75C16.1648 8.25 16.5 7.91484 16.5 7.5V4.82344L19.6875 8.01094V9.89062C19.6875 9.99375 19.7719 10.0781 19.875 10.0781H21.1875C21.2906 10.0781 21.375 9.99375 21.375 9.89062V7.93359C21.375 7.53516 21.218 7.15547 20.9367 6.87422ZM15 6.75H9V4.3125H15V6.75ZM21.1875 16.9688H19.875C19.7719 16.9688 19.6875 17.0531 19.6875 17.1562V19.6875H4.3125V17.1562C4.3125 17.0531 4.22812 16.9688 4.125 16.9688H2.8125C2.70937 16.9688 2.625 17.0531 2.625 17.1562V20.625C2.625 21.0398 2.96016 21.375 3.375 21.375H20.625C21.0398 21.375 21.375 21.0398 21.375 20.625V17.1562C21.375 17.0531 21.2906 16.9688 21.1875 16.9688Z"/>
</g>
</svg>
