<svg width="24" height="24" viewBox="0 0 24 24" xmlns="http://www.w3.org/2000/svg">
<g id="Frame">
<path id="Vector" d="M20.3906 2.95312H15.5578C15.15 2.95312 14.7867 3.23203 14.6906 3.63984C14.3977 4.87734 13.2891 5.76562 12 5.76562C10.7109 5.76562 9.60234 4.87734 9.30938 3.63984C9.21328 3.23203 8.85234 2.95312 8.44219 2.95312H3.60938C3.03984 2.95312 2.57812 3.41484 2.57812 3.98438V9.89062C2.57812 10.4602 3.03984 10.9219 3.60938 10.9219H5.36719V20.0156C5.36719 20.5852 5.82891 21.0469 6.39844 21.0469H17.6016C18.1711 21.0469 18.6328 20.5852 18.6328 20.0156V10.9219H20.3906C20.9602 10.9219 21.4219 10.4602 21.4219 9.89062V3.98438C21.4219 3.41484 20.9602 2.95312 20.3906 2.95312Z"/>
</g>
</svg>
