<svg width="24" height="24" viewBox="0 0 24 24" xmlns="http://www.w3.org/2000/svg">
<g id="Frame">
<path id="Vector" d="M21.984 10.7531L21.2902 3.42656C21.2551 3.04687 20.9527 2.74687 20.573 2.70937L13.2465 2.01562H13.2371C13.1621 2.01562 13.1035 2.03906 13.059 2.08359L2.0832 13.0594C1.9918 13.1508 1.9918 13.2984 2.0832 13.3898L10.6098 21.9164C10.6543 21.9609 10.7129 21.9844 10.7762 21.9844C10.8395 21.9844 10.898 21.9609 10.9426 21.9164L21.9184 10.9406C21.9652 10.8914 21.9887 10.8234 21.984 10.7531ZM16.3824 9.07031C15.5551 9.07031 14.8824 8.39766 14.8824 7.57031C14.8824 6.74297 15.5551 6.07031 16.3824 6.07031C17.2098 6.07031 17.8824 6.74297 17.8824 7.57031C17.8824 8.39766 17.2098 9.07031 16.3824 9.07031Z"/>
</g>
</svg>
