<svg width="24" height="24" viewBox="0 0 24 24" xmlns="http://www.w3.org/2000/svg">
<g id="Frame">
<path id="Vector" d="M11.325 18.5226L20.1891 9.65624C20.2289 9.6164 20.2477 9.56249 20.243 9.50858L19.6453 2.44452C19.6289 2.26171 19.4859 2.11874 19.3031 2.10233L12.2391 1.50702C12.1852 1.50234 12.1289 1.52109 12.0914 1.56093L3.22734 10.425C3.15469 10.4976 3.15469 10.6172 3.22734 10.6898L11.0602 18.5226C11.1328 18.5976 11.2523 18.5976 11.325 18.5226ZM14.2008 6.02108C14.6391 5.5828 15.3516 5.5828 15.7922 6.02108C16.2305 6.45936 16.2305 7.17186 15.7922 7.61249C15.3539 8.05077 14.6414 8.05077 14.2008 7.61249C13.7625 7.17421 13.7625 6.46171 14.2008 6.02108Z"/>
<path id="Vector_2" d="M20.852 12.6517L19.9238 11.7259C19.8512 11.6532 19.7316 11.6532 19.659 11.7259L11.1746 20.1938L5.60586 14.6392C5.5332 14.5665 5.41367 14.5665 5.34102 14.6392L4.41289 15.5649C4.34023 15.6376 4.34023 15.7571 4.41289 15.8298L10.1129 21.5204L11.041 22.4462C11.1137 22.5188 11.2332 22.5188 11.3059 22.4462L20.852 12.9165C20.9246 12.8438 20.9246 12.7243 20.852 12.6517Z"/>
</g>
</svg>
