<svg width="24" height="24" viewBox="0 0 24 24" xmlns="http://www.w3.org/2000/svg">
<g id="Frame">
<path id="Vector" d="M21.4688 4.92188H8.8125C8.39766 4.92188 8.0625 5.25703 8.0625 5.67188V11.2031H2.53125C2.11641 11.2031 1.78125 11.5383 1.78125 11.9531V18.3281C1.78125 18.743 2.11641 19.0781 2.53125 19.0781H15.1875C15.6023 19.0781 15.9375 18.743 15.9375 18.3281V12.7969H21.4688C21.8836 12.7969 22.2188 12.4617 22.2188 12.0469V5.67188C22.2188 5.25703 21.8836 4.92188 21.4688 4.92188ZM9.65625 6.51562H14.3438V11.2031H9.65625V6.51562ZM8.0625 17.4844H3.375V12.7969H8.0625V17.4844ZM14.3438 17.4844H9.65625V12.7969H14.3438V17.4844ZM20.625 11.2031H15.9375V6.51562H20.625V11.2031Z"/>
</g>
</svg>
