<svg width="24" height="24" viewBox="0 0 24 24" xmlns="http://www.w3.org/2000/svg">
<path d="M11.9062 16.5C13.7695 16.5 15.2812 14.9883 15.2812 13.125C15.2812 11.2617 13.7695 9.75 11.9062 9.75C10.043 9.75 8.53125 11.2617 8.53125 13.125C8.53125 14.9883 10.043 16.5 11.9062 16.5ZM11.9062 11.25C12.9422 11.25 13.7812 12.0891 13.7812 13.125C13.7812 14.1609 12.9422 15 11.9062 15C10.8703 15 10.0312 14.1609 10.0312 13.125C10.0312 12.0891 10.8703 11.25 11.9062 11.25ZM19.5 6H18.8414L18.0047 3.16641C17.9109 2.84531 17.618 2.625 17.2852 2.625H6.71484C6.37969 2.625 6.08672 2.84531 5.99531 3.16641L5.15859 6H4.5C4.08516 6 3.75 6.33516 3.75 6.75V7.40625C3.75 7.50938 3.83437 7.59375 3.9375 7.59375H5.01094L6.12891 20.6883C6.16172 21.0773 6.4875 21.375 6.87656 21.375H16.9359C17.325 21.375 17.6508 21.0773 17.6836 20.6883L18.8016 7.59375H20.0625C20.1656 7.59375 20.25 7.50938 20.25 7.40625V6.75C20.25 6.33516 19.9148 6 19.5 6ZM7.34531 4.21875H16.6547L17.1797 6H6.82031L7.34531 4.21875ZM16.1625 19.7812H7.65L6.60938 7.59375H17.2008L16.1625 19.7812Z"/>
</svg>
