<svg width="24" height="24" viewBox="0 0 24 24" xmlns="http://www.w3.org/2000/svg">
<g id="Frame">
<path id="Vector" d="M9.5625 7.3125H10.6875C10.7906 7.3125 10.875 7.22812 10.875 7.125V6C10.875 5.89687 10.7906 5.8125 10.6875 5.8125H9.5625C9.45937 5.8125 9.375 5.89687 9.375 6V7.125C9.375 7.22812 9.45937 7.3125 9.5625 7.3125Z"/>
<path id="Vector_2" d="M17.8125 10.125V3.375C17.8125 2.96016 17.4773 2.625 17.0625 2.625H6.9375C6.52266 2.625 6.1875 2.96016 6.1875 3.375V10.125C4.63594 10.125 3.375 11.3461 3.375 12.8438V21.1875C3.375 21.2906 3.45937 21.375 3.5625 21.375H20.4375C20.5406 21.375 20.625 21.2906 20.625 21.1875V12.8438C20.625 11.3461 19.3641 10.125 17.8125 10.125ZM16.125 10.125H7.875V4.3125H16.125V10.125Z"/>
<path id="Vector_3" d="M13.3125 7.3125H14.4375C14.5406 7.3125 14.625 7.22812 14.625 7.125V6C14.625 5.89687 14.5406 5.8125 14.4375 5.8125H13.3125C13.2094 5.8125 13.125 5.89687 13.125 6V7.125C13.125 7.22812 13.2094 7.3125 13.3125 7.3125Z"/>
</g>
</svg>
