<svg width="24" height="24" viewBox="0 0 24 24" xmlns="http://www.w3.org/2000/svg">
<g id="Frame">
<path id="Vector" d="M15.8977 15.0563C16.4649 14.7516 17.1141 14.5781 17.8055 14.5781H17.8079C17.8782 14.5781 17.911 14.4938 17.8594 14.4469C17.1375 13.8 16.3219 13.282 15.429 12.9047C15.4196 12.9 15.4102 12.8977 15.4008 12.893C16.8563 11.8359 17.8032 10.118 17.8032 8.17969C17.8032 4.96875 15.2063 2.36719 12.0024 2.36719C8.79848 2.36719 6.20395 4.96875 6.20395 8.17969C6.20395 10.118 7.15083 11.8359 8.60864 12.893C8.59927 12.8977 8.58989 12.9 8.58052 12.9047C7.53286 13.3477 6.59302 13.9828 5.78442 14.7938C4.97583 15.6023 4.34302 16.5445 3.90005 17.5945C3.46645 18.6211 3.23442 19.7109 3.21099 20.8312C3.20864 20.9367 3.29302 21.0234 3.39849 21.0234H4.80239C4.90317 21.0234 4.98755 20.9414 4.98989 20.8406C5.03677 19.0312 5.76099 17.3367 7.04302 16.0523C8.36724 14.7234 10.1297 13.9922 12.0047 13.9922C13.3336 13.9922 14.6086 14.3602 15.7079 15.0492C15.7665 15.0844 15.8368 15.0891 15.8977 15.0563ZM12.0047 12.2109C10.9313 12.2109 9.92114 11.7914 9.15942 11.0297C8.40005 10.268 7.98052 9.25547 7.98052 8.17969C7.98052 7.10391 8.40005 6.09141 9.15942 5.32969C9.9188 4.56797 10.929 4.14844 12.0047 4.14844C13.0805 4.14844 14.0883 4.56797 14.85 5.32969C15.6094 6.09141 16.029 7.10391 16.029 8.17969C16.029 9.25547 15.6094 10.268 14.85 11.0297C14.0883 11.7914 13.0782 12.2109 12.0047 12.2109ZM20.625 17.7891H18.6563V15.8203C18.6563 15.7172 18.5719 15.6328 18.4688 15.6328H17.1563C17.0532 15.6328 16.9688 15.7172 16.9688 15.8203V17.7891H15C14.8969 17.7891 14.8125 17.8734 14.8125 17.9766V19.2891C14.8125 19.3922 14.8969 19.4766 15 19.4766H16.9688V21.4453C16.9688 21.5484 17.0532 21.6328 17.1563 21.6328H18.4688C18.5719 21.6328 18.6563 21.5484 18.6563 21.4453V19.4766H20.625C20.7282 19.4766 20.8125 19.3922 20.8125 19.2891V17.9766C20.8125 17.8734 20.7282 17.7891 20.625 17.7891Z"/>
</g>
</svg>
