<svg width="24" height="24" viewBox="0 0 24 24" xmlns="http://www.w3.org/2000/svg">
<g id="Frame">
<path id="Vector" d="M19.3172 16.404C18.7219 15.8087 18.0352 15.3329 17.2922 14.9883C18.354 14.1282 19.0313 12.8157 19.0313 11.3438C19.0313 8.74694 16.8657 6.61647 14.2688 6.65631C11.7118 6.69616 9.65161 8.77975 9.65161 11.3438C9.65161 12.8157 10.3313 14.1282 11.3907 14.9883C10.6477 15.3329 9.96333 15.8063 9.36567 16.404C8.08599 17.686 7.35942 19.3782 7.31255 21.1829C7.3102 21.2883 7.39458 21.3751 7.50005 21.3751H8.81255C8.91333 21.3751 8.9977 21.2954 9.00005 21.1946C9.04458 19.8352 9.59536 18.5626 10.5633 17.5969C11.5735 16.5868 12.9165 16.0313 14.3438 16.0313C15.7711 16.0313 17.1141 16.5868 18.1243 17.5969C19.0899 18.5626 19.6407 19.8352 19.6876 21.1946C19.6899 21.2954 19.7743 21.3751 19.8751 21.3751H21.1876C21.293 21.3751 21.3774 21.2883 21.3751 21.1829C21.3282 19.3782 20.6016 17.686 19.3172 16.404ZM14.3438 14.3438C13.5422 14.3438 12.7875 14.0321 12.2227 13.4649C11.6485 12.8907 11.3344 12.1266 11.3438 11.3133C11.3508 10.5446 11.6579 9.80162 12.1946 9.25084C12.7571 8.67428 13.5094 8.35319 14.3133 8.34381C15.1079 8.33678 15.879 8.64616 16.4461 9.20162C17.0274 9.77116 17.3461 10.5329 17.3461 11.3438C17.3461 12.1454 17.0344 12.8977 16.4672 13.4649C15.9001 14.0321 15.1454 14.3438 14.3438 14.3438Z"/>
<path id="Vector_2" d="M8.4727 11.9626C8.45161 11.7587 8.43989 11.5524 8.43989 11.3438C8.43989 10.9712 8.47505 10.6079 8.54067 10.254C8.55708 10.1696 8.51255 10.0829 8.4352 10.0477C8.11645 9.90475 7.82348 9.70787 7.57036 9.45944C6.96567 8.86881 6.63989 8.06959 6.66333 7.2235C6.68442 6.47116 6.98677 5.75631 7.51411 5.21725C8.09302 4.62428 8.87114 4.30084 9.69849 4.31022C10.4461 4.31725 11.168 4.60553 11.7141 5.11647C11.8993 5.28991 12.0586 5.48209 12.1922 5.68834C12.2391 5.761 12.3305 5.79147 12.4102 5.76334C12.8227 5.62037 13.2586 5.51959 13.7063 5.47272C13.8375 5.45866 13.9125 5.31803 13.854 5.20084C13.0922 3.69381 11.536 2.65319 9.73599 2.62506C7.13677 2.58522 4.97114 4.71569 4.97114 7.31022C4.97114 8.78209 5.64848 10.0946 6.7102 10.9547C5.96489 11.2993 5.27817 11.7751 4.68286 12.3704C3.39849 13.6524 2.67192 15.3446 2.62505 17.1516C2.6227 17.2571 2.70708 17.3438 2.81255 17.3438H4.12739C4.22817 17.3438 4.31255 17.2641 4.31489 17.1633C4.35942 15.804 4.9102 14.5313 5.87817 13.5657C6.56724 12.8766 7.41098 12.3985 8.33208 12.1665C8.42349 12.143 8.48442 12.0563 8.4727 11.9626Z"/>
</g>
</svg>
