<svg width="24" height="24" viewBox="0 0 24 24" xmlns="http://www.w3.org/2000/svg">
<g id="Frame">
<path id="Vector" d="M20.9059 18.0938H19.0309V16.2188C19.0309 16.1157 18.9465 16.0313 18.8434 16.0313H17.7184C17.6153 16.0313 17.5309 16.1157 17.5309 16.2188V18.0938H15.6559C15.5528 18.0938 15.4684 18.1782 15.4684 18.2813V19.4063C15.4684 19.5094 15.5528 19.5938 15.6559 19.5938H17.5309V21.4688C17.5309 21.5719 17.6153 21.6563 17.7184 21.6563H18.8434C18.9465 21.6563 19.0309 21.5719 19.0309 21.4688V19.5938H20.9059C21.009 19.5938 21.0934 19.5094 21.0934 19.4063V18.2813C21.0934 18.1782 21.009 18.0938 20.9059 18.0938ZM8.75356 11.6813C8.73247 11.4774 8.72075 11.2712 8.72075 11.0626C8.72075 10.6899 8.75591 10.3266 8.82153 9.97272C8.83794 9.88834 8.79341 9.80162 8.71606 9.76647C8.39731 9.6235 8.10434 9.42662 7.85122 9.17819C7.24653 8.58756 6.92075 7.78834 6.94419 6.94225C6.96528 6.18991 7.26763 5.47506 7.79497 4.936C8.37388 4.34303 9.152 4.01959 9.97934 4.02897C10.727 4.036 11.4489 4.32428 11.995 4.83522C12.1801 5.00866 12.3395 5.20084 12.4731 5.40709C12.52 5.47975 12.6114 5.51022 12.6911 5.48209C13.1036 5.33912 13.5395 5.23834 13.9872 5.19147C14.1184 5.17741 14.1934 5.03678 14.1348 4.91959C13.3731 3.41256 11.8168 2.37194 10.0168 2.34381C7.41997 2.30397 5.25434 4.43444 5.25434 7.03131C5.25434 8.50319 5.93169 9.81569 6.99341 10.6758C6.24809 11.0204 5.56138 11.4962 4.96606 12.0915C3.68169 13.3735 2.95513 15.0657 2.90825 16.8727C2.90591 16.9782 2.99028 17.0649 3.09575 17.0649H4.41059C4.51138 17.0649 4.59575 16.9852 4.59809 16.8844C4.64263 15.5251 5.19341 14.2524 6.16138 13.2868C6.85044 12.5977 7.69419 12.1196 8.61528 11.8876C8.70434 11.8618 8.76528 11.7751 8.75356 11.6813Z"/>
<path id="Vector_2" d="M19.3125 11.0626C19.3125 8.4985 17.2524 6.41491 14.6977 6.37506C12.1008 6.33522 9.93755 8.46569 9.93755 11.0626C9.93755 12.5344 10.6172 13.8469 11.6766 14.7071C10.9336 15.0516 10.2493 15.5251 9.65161 16.1227C8.36723 17.4047 7.64067 19.0969 7.5938 20.9016C7.59145 21.0071 7.67583 21.0938 7.7813 21.0938H9.0938C9.19458 21.0938 9.27895 21.0141 9.2813 20.9133C9.32583 19.554 9.87661 18.2813 10.8446 17.3157C11.8547 16.3055 13.1954 15.7501 14.625 15.7501C17.2125 15.7501 19.3125 13.6524 19.3125 11.0626ZM16.7461 13.1837C16.179 13.7508 15.4266 14.0626 14.625 14.0626C13.8235 14.0626 13.0711 13.7508 12.504 13.1837C11.9297 12.6094 11.618 11.8454 11.625 11.0321C11.6321 10.2633 11.9391 9.52037 12.4758 8.96959C13.0383 8.39303 13.7907 8.07194 14.5946 8.06256C15.3891 8.05553 16.1602 8.36491 16.7274 8.92037C17.3086 9.48991 17.6274 10.2516 17.6274 11.0626C17.625 11.8641 17.3133 12.6165 16.7461 13.1837Z"/>
</g>
</svg>
