<svg width="24" height="24" viewBox="0 0 24 24" xmlns="http://www.w3.org/2000/svg">
<g id="Frame">
<path id="Vector" d="M8.625 16.9688H5.90625V14.25C5.90625 14.1469 5.82188 14.0625 5.71875 14.0625H4.59375C4.49062 14.0625 4.40625 14.1469 4.40625 14.25V16.9688H1.6875C1.58437 16.9688 1.5 17.0531 1.5 17.1562V18.2812C1.5 18.3844 1.58437 18.4688 1.6875 18.4688H4.40625V21.1875C4.40625 21.2906 4.49062 21.375 4.59375 21.375H5.71875C5.82188 21.375 5.90625 21.2906 5.90625 21.1875V18.4688H8.625C8.72813 18.4688 8.8125 18.3844 8.8125 18.2812V17.1562C8.8125 17.0531 8.72813 16.9688 8.625 16.9688Z"/>
<path id="Vector_2" d="M21.375 7.08516L18.375 8.8125V5.25C18.375 4.42266 17.7023 3.75 16.875 3.75H3C2.17266 3.75 1.5 4.42266 1.5 5.25V13.5H3.1875V5.4375H16.6875V18.5625H10.5V20.25H16.875C17.7023 20.25 18.375 19.5773 18.375 18.75V15.1875L21.375 16.9148C21.8742 17.2031 22.5 16.8422 22.5 16.268V7.73438C22.5 7.15781 21.8742 6.79687 21.375 7.08516ZM20.8125 14.6484L18.375 13.2469V10.7555L20.8125 9.35156V14.6484Z"/>
<path id="Vector_3" d="M7.5 8.4375C7.60313 8.4375 7.6875 8.35312 7.6875 8.25V7.125C7.6875 7.02187 7.60313 6.9375 7.5 6.9375H4.875C4.77187 6.9375 4.6875 7.02187 4.6875 7.125V8.25C4.6875 8.35312 4.77187 8.4375 4.875 8.4375H7.5Z"/>
</g>
</svg>
