<svg width="24" height="24" viewBox="0 0 24 24" xmlns="http://www.w3.org/2000/svg">
<g id="Frame">
<path id="Vector" d="M13.4297 9.86719C12.8883 9.86719 12.4688 10.2867 12.4688 10.8047C12.4688 11.3227 12.8883 11.7422 13.4297 11.7422C13.9242 11.7422 14.3438 11.3227 14.3438 10.8047C14.3438 10.2867 13.9242 9.86719 13.4297 9.86719ZM6.86719 9.86719C6.32578 9.86719 5.90625 10.2867 5.90625 10.8047C5.90625 11.3227 6.32578 11.7422 6.86719 11.7422C7.36172 11.7422 7.78125 11.3227 7.78125 10.8047C7.78125 10.2867 7.36172 9.86719 6.86719 9.86719Z"/>
<path id="Vector_2" d="M20.9528 8.08595C19.8255 6.53907 18.2505 5.50548 16.5231 5.03907V5.04142C16.1223 4.5961 15.67 4.18595 15.1637 3.82032C11.327 1.03126 5.94109 1.88204 3.14031 5.71876C0.883281 8.83595 0.979375 13.0289 3.28094 16.0078L3.29969 19.1156C3.29969 19.1906 3.31141 19.2656 3.33484 19.3359C3.45906 19.732 3.88094 19.95 4.27469 19.8258L7.24187 18.8906C8.02703 19.1695 8.83797 19.3289 9.64422 19.3734L9.6325 19.3828C11.7208 20.9039 14.4583 21.3609 16.9684 20.5313L19.9473 21.5016C20.0223 21.525 20.0997 21.5391 20.1794 21.5391C20.5942 21.5391 20.9294 21.2039 20.9294 20.7891V17.6484C22.9942 14.8453 23.0481 10.9711 20.9528 8.08595ZM7.57 17.2266L7.28875 17.1094L4.96844 17.8359L4.945 15.3984L4.7575 15.1875C2.77469 12.7688 2.64344 9.2836 4.49969 6.72657C6.75906 3.62814 11.0903 2.94376 14.1794 5.1797C17.2778 7.43204 17.9645 11.7563 15.7262 14.8359C13.8489 17.4117 10.488 18.3633 7.57 17.2266ZM19.4059 16.8281L19.2184 17.0625L19.2419 19.5L16.945 18.7266L16.6637 18.8438C15.3512 19.3313 13.952 19.3711 12.6559 19.0078L12.6512 19.0055C14.3833 18.4734 15.9536 17.3953 17.0856 15.8438C18.8762 13.3758 19.1669 10.275 18.1262 7.63126L18.1403 7.64064C18.6794 8.02735 19.1739 8.51017 19.5934 9.09376C21.295 11.4281 21.1989 14.6063 19.4059 16.8281Z"/>
<path id="Vector_3" d="M10.1484 9.86719C9.60703 9.86719 9.1875 10.2867 9.1875 10.8047C9.1875 11.3227 9.60703 11.7422 10.1484 11.7422C10.643 11.7422 11.0625 11.3227 11.0625 10.8047C11.0625 10.2867 10.643 9.86719 10.1484 9.86719Z"/>
</g>
</svg>
